%TF.GenerationSoftware,KiCad,Pcbnew,8.0.2*%
%TF.CreationDate,2024-08-18T00:41:24+05:30*%
%TF.ProjectId,DEC_R_BOX,4445435f-525f-4424-9f58-2e6b69636164,rev?*%
%TF.SameCoordinates,Original*%
%TF.FileFunction,Legend,Top*%
%TF.FilePolarity,Positive*%
%FSLAX46Y46*%
G04 Gerber Fmt 4.6, Leading zero omitted, Abs format (unit mm)*
G04 Created by KiCad (PCBNEW 8.0.2) date 2024-08-18 00:41:24*
%MOMM*%
%LPD*%
G01*
G04 APERTURE LIST*
%ADD10C,0.100000*%
%ADD11C,0.500000*%
%ADD12C,1.500000*%
%ADD13C,0.200000*%
%ADD14C,0.120000*%
%ADD15C,0.150000*%
%TA.AperFunction,Profile*%
%ADD16C,0.050000*%
%TD*%
G04 APERTURE END LIST*
D10*
X67500000Y-125650000D02*
X88625000Y-125650000D01*
X45075000Y-143650000D02*
X67400000Y-143650000D01*
X88725000Y-89875000D02*
X114875000Y-89875000D01*
X68750000Y-86250000D02*
X70500000Y-86250000D01*
X85750000Y-112000000D02*
X88000000Y-112000000D01*
X103750000Y-158000000D02*
X105500000Y-158000000D01*
X80250000Y-148000000D02*
X82750000Y-148000000D01*
X97750000Y-112250000D02*
X100250000Y-112250000D01*
X85750000Y-130000000D02*
X88000000Y-130000000D01*
X97750000Y-86250000D02*
X99750000Y-86250000D01*
X68250000Y-112250000D02*
X70500000Y-112250000D01*
X80250000Y-130000000D02*
X82750000Y-130000000D01*
X62750000Y-94000000D02*
X65250000Y-94000000D01*
X62750000Y-122250000D02*
X64750000Y-122250000D01*
X62750000Y-86250000D02*
X64750000Y-86250000D01*
D11*
X69000000Y-39000000D02*
X93000000Y-39000000D01*
X93000000Y-52000000D01*
X69000000Y-52000000D01*
X69000000Y-39000000D01*
D10*
X98000000Y-140000000D02*
X100000000Y-140000000D01*
X80250000Y-68250000D02*
X82250000Y-68250000D01*
X62750000Y-158250000D02*
X64750000Y-158250000D01*
X67600000Y-89875000D02*
X88725000Y-89875000D01*
X62750000Y-130250000D02*
X65250000Y-130250000D01*
X97750000Y-148000000D02*
X100250000Y-148000000D01*
X45325000Y-71925000D02*
X67650000Y-71925000D01*
X67650000Y-71925000D02*
X88775000Y-71925000D01*
X86250000Y-158000000D02*
X88000000Y-158000000D01*
X88525000Y-143650000D02*
X114675000Y-143650000D01*
X68250000Y-130250000D02*
X70500000Y-130250000D01*
X104000000Y-140000000D02*
X105750000Y-140000000D01*
X68750000Y-104000000D02*
X70500000Y-104000000D01*
X97750000Y-68250000D02*
X99750000Y-68250000D01*
X62750000Y-148250000D02*
X65250000Y-148250000D01*
X103250000Y-58250000D02*
X105500000Y-58250000D01*
X103250000Y-112250000D02*
X105500000Y-112250000D01*
X68750000Y-158250000D02*
X70500000Y-158250000D01*
X68250000Y-76250000D02*
X70500000Y-76250000D01*
D12*
X78150000Y-44525000D02*
G75*
G02*
X70650000Y-44525000I-3750000J0D01*
G01*
X70650000Y-44525000D02*
G75*
G02*
X78150000Y-44525000I3750000J0D01*
G01*
D10*
X67400000Y-143650000D02*
X88525000Y-143650000D01*
X62750000Y-68500000D02*
X64750000Y-68500000D01*
X80250000Y-122000000D02*
X82250000Y-122000000D01*
X86250000Y-140000000D02*
X88000000Y-140000000D01*
X85750000Y-58250000D02*
X88000000Y-58250000D01*
X62750000Y-112250000D02*
X65250000Y-112250000D01*
X88675000Y-107700000D02*
X114825000Y-107700000D01*
X97750000Y-122250000D02*
X99750000Y-122250000D01*
X103250000Y-76250000D02*
X105500000Y-76250000D01*
X103750000Y-86250000D02*
X105500000Y-86250000D01*
X86250000Y-122000000D02*
X88000000Y-122000000D01*
X103500000Y-130000000D02*
X105750000Y-130000000D01*
X68750000Y-140250000D02*
X70500000Y-140250000D01*
X103500000Y-94250000D02*
X105750000Y-94250000D01*
X68250000Y-58500000D02*
X70500000Y-58500000D01*
X85750000Y-76250000D02*
X88000000Y-76250000D01*
X86250000Y-86250000D02*
X88000000Y-86250000D01*
X80250000Y-158000000D02*
X82250000Y-158000000D01*
X98000000Y-104250000D02*
X100000000Y-104250000D01*
X45225000Y-107700000D02*
X67550000Y-107700000D01*
X97750000Y-76250000D02*
X100250000Y-76250000D01*
X67550000Y-107700000D02*
X88675000Y-107700000D01*
X104000000Y-104250000D02*
X105750000Y-104250000D01*
X86250000Y-68250000D02*
X88000000Y-68250000D01*
X80250000Y-140000000D02*
X82250000Y-140000000D01*
X62750000Y-104000000D02*
X64750000Y-104000000D01*
X103750000Y-68250000D02*
X105500000Y-68250000D01*
X88775000Y-71925000D02*
X114925000Y-71925000D01*
X68250000Y-148250000D02*
X70500000Y-148250000D01*
X88625000Y-125650000D02*
X114775000Y-125650000D01*
X62750000Y-58500000D02*
X65250000Y-58500000D01*
X85750000Y-148000000D02*
X88000000Y-148000000D01*
X68750000Y-122250000D02*
X70500000Y-122250000D01*
X86500000Y-104000000D02*
X88250000Y-104000000D01*
X97750000Y-158000000D02*
X99750000Y-158000000D01*
X80250000Y-112000000D02*
X82750000Y-112000000D01*
X80250000Y-86250000D02*
X82250000Y-86250000D01*
X45275000Y-89875000D02*
X67600000Y-89875000D01*
X80500000Y-94000000D02*
X83000000Y-94000000D01*
X62750000Y-76250000D02*
X65250000Y-76250000D01*
X103250000Y-148000000D02*
X105500000Y-148000000D01*
X80250000Y-76250000D02*
X82750000Y-76250000D01*
D12*
X91250000Y-44500000D02*
G75*
G02*
X83750000Y-44500000I-3750000J0D01*
G01*
X83750000Y-44500000D02*
G75*
G02*
X91250000Y-44500000I3750000J0D01*
G01*
D10*
X68750000Y-68500000D02*
X70500000Y-68500000D01*
X98000000Y-130000000D02*
X100500000Y-130000000D01*
X68250000Y-94000000D02*
X70500000Y-94000000D01*
X80250000Y-58250000D02*
X82750000Y-58250000D01*
X97750000Y-58250000D02*
X100250000Y-58250000D01*
X45175000Y-125650000D02*
X67500000Y-125650000D01*
X86000000Y-94000000D02*
X88250000Y-94000000D01*
X80500000Y-104000000D02*
X82500000Y-104000000D01*
X103750000Y-122250000D02*
X105500000Y-122250000D01*
X98000000Y-94250000D02*
X100500000Y-94250000D01*
X62750000Y-140250000D02*
X64750000Y-140250000D01*
D13*
X54381578Y-73806028D02*
X54381578Y-74806028D01*
X54024435Y-73234600D02*
X53667292Y-74306028D01*
X53667292Y-74306028D02*
X54595863Y-74306028D01*
X55453006Y-73306028D02*
X55595863Y-73306028D01*
X55595863Y-73306028D02*
X55738720Y-73377457D01*
X55738720Y-73377457D02*
X55810149Y-73448885D01*
X55810149Y-73448885D02*
X55881577Y-73591742D01*
X55881577Y-73591742D02*
X55953006Y-73877457D01*
X55953006Y-73877457D02*
X55953006Y-74234600D01*
X55953006Y-74234600D02*
X55881577Y-74520314D01*
X55881577Y-74520314D02*
X55810149Y-74663171D01*
X55810149Y-74663171D02*
X55738720Y-74734600D01*
X55738720Y-74734600D02*
X55595863Y-74806028D01*
X55595863Y-74806028D02*
X55453006Y-74806028D01*
X55453006Y-74806028D02*
X55310149Y-74734600D01*
X55310149Y-74734600D02*
X55238720Y-74663171D01*
X55238720Y-74663171D02*
X55167291Y-74520314D01*
X55167291Y-74520314D02*
X55095863Y-74234600D01*
X55095863Y-74234600D02*
X55095863Y-73877457D01*
X55095863Y-73877457D02*
X55167291Y-73591742D01*
X55167291Y-73591742D02*
X55238720Y-73448885D01*
X55238720Y-73448885D02*
X55310149Y-73377457D01*
X55310149Y-73377457D02*
X55453006Y-73306028D01*
X56524434Y-74806028D02*
X56881577Y-74806028D01*
X56881577Y-74806028D02*
X56881577Y-74520314D01*
X56881577Y-74520314D02*
X56738720Y-74448885D01*
X56738720Y-74448885D02*
X56595862Y-74306028D01*
X56595862Y-74306028D02*
X56524434Y-74091742D01*
X56524434Y-74091742D02*
X56524434Y-73734600D01*
X56524434Y-73734600D02*
X56595862Y-73520314D01*
X56595862Y-73520314D02*
X56738720Y-73377457D01*
X56738720Y-73377457D02*
X56953005Y-73306028D01*
X56953005Y-73306028D02*
X57238720Y-73306028D01*
X57238720Y-73306028D02*
X57453005Y-73377457D01*
X57453005Y-73377457D02*
X57595862Y-73520314D01*
X57595862Y-73520314D02*
X57667291Y-73734600D01*
X57667291Y-73734600D02*
X57667291Y-74091742D01*
X57667291Y-74091742D02*
X57595862Y-74306028D01*
X57595862Y-74306028D02*
X57453005Y-74448885D01*
X57453005Y-74448885D02*
X57310148Y-74520314D01*
X57310148Y-74520314D02*
X57310148Y-74806028D01*
X57310148Y-74806028D02*
X57667291Y-74806028D01*
X54453006Y-109056028D02*
X53738720Y-109056028D01*
X53738720Y-109056028D02*
X53667292Y-109770314D01*
X53667292Y-109770314D02*
X53738720Y-109698885D01*
X53738720Y-109698885D02*
X53881578Y-109627457D01*
X53881578Y-109627457D02*
X54238720Y-109627457D01*
X54238720Y-109627457D02*
X54381578Y-109698885D01*
X54381578Y-109698885D02*
X54453006Y-109770314D01*
X54453006Y-109770314D02*
X54524435Y-109913171D01*
X54524435Y-109913171D02*
X54524435Y-110270314D01*
X54524435Y-110270314D02*
X54453006Y-110413171D01*
X54453006Y-110413171D02*
X54381578Y-110484600D01*
X54381578Y-110484600D02*
X54238720Y-110556028D01*
X54238720Y-110556028D02*
X53881578Y-110556028D01*
X53881578Y-110556028D02*
X53738720Y-110484600D01*
X53738720Y-110484600D02*
X53667292Y-110413171D01*
X55167291Y-110556028D02*
X55167291Y-109056028D01*
X55310149Y-109984600D02*
X55738720Y-110556028D01*
X55738720Y-109556028D02*
X55167291Y-110127457D01*
X56310149Y-110556028D02*
X56667292Y-110556028D01*
X56667292Y-110556028D02*
X56667292Y-110270314D01*
X56667292Y-110270314D02*
X56524435Y-110198885D01*
X56524435Y-110198885D02*
X56381577Y-110056028D01*
X56381577Y-110056028D02*
X56310149Y-109841742D01*
X56310149Y-109841742D02*
X56310149Y-109484600D01*
X56310149Y-109484600D02*
X56381577Y-109270314D01*
X56381577Y-109270314D02*
X56524435Y-109127457D01*
X56524435Y-109127457D02*
X56738720Y-109056028D01*
X56738720Y-109056028D02*
X57024435Y-109056028D01*
X57024435Y-109056028D02*
X57238720Y-109127457D01*
X57238720Y-109127457D02*
X57381577Y-109270314D01*
X57381577Y-109270314D02*
X57453006Y-109484600D01*
X57453006Y-109484600D02*
X57453006Y-109841742D01*
X57453006Y-109841742D02*
X57381577Y-110056028D01*
X57381577Y-110056028D02*
X57238720Y-110198885D01*
X57238720Y-110198885D02*
X57095863Y-110270314D01*
X57095863Y-110270314D02*
X57095863Y-110556028D01*
X57095863Y-110556028D02*
X57453006Y-110556028D01*
X101145863Y-111392742D02*
X101374435Y-111392742D01*
X101374435Y-111392742D02*
X101488720Y-111449885D01*
X101488720Y-111449885D02*
X101603006Y-111564171D01*
X101603006Y-111564171D02*
X101660149Y-111792742D01*
X101660149Y-111792742D02*
X101660149Y-112192742D01*
X101660149Y-112192742D02*
X101603006Y-112421314D01*
X101603006Y-112421314D02*
X101488720Y-112535600D01*
X101488720Y-112535600D02*
X101374435Y-112592742D01*
X101374435Y-112592742D02*
X101145863Y-112592742D01*
X101145863Y-112592742D02*
X101031578Y-112535600D01*
X101031578Y-112535600D02*
X100917292Y-112421314D01*
X100917292Y-112421314D02*
X100860149Y-112192742D01*
X100860149Y-112192742D02*
X100860149Y-111792742D01*
X100860149Y-111792742D02*
X100917292Y-111564171D01*
X100917292Y-111564171D02*
X101031578Y-111449885D01*
X101031578Y-111449885D02*
X101145863Y-111392742D01*
X102174435Y-112592742D02*
X102174435Y-111392742D01*
X102174435Y-111392742D02*
X102860149Y-112592742D01*
X102860149Y-112592742D02*
X102860149Y-111392742D01*
X88667292Y-73448885D02*
X88738720Y-73377457D01*
X88738720Y-73377457D02*
X88881578Y-73306028D01*
X88881578Y-73306028D02*
X89238720Y-73306028D01*
X89238720Y-73306028D02*
X89381578Y-73377457D01*
X89381578Y-73377457D02*
X89453006Y-73448885D01*
X89453006Y-73448885D02*
X89524435Y-73591742D01*
X89524435Y-73591742D02*
X89524435Y-73734600D01*
X89524435Y-73734600D02*
X89453006Y-73948885D01*
X89453006Y-73948885D02*
X88595863Y-74806028D01*
X88595863Y-74806028D02*
X89524435Y-74806028D01*
X90453006Y-73306028D02*
X90595863Y-73306028D01*
X90595863Y-73306028D02*
X90738720Y-73377457D01*
X90738720Y-73377457D02*
X90810149Y-73448885D01*
X90810149Y-73448885D02*
X90881577Y-73591742D01*
X90881577Y-73591742D02*
X90953006Y-73877457D01*
X90953006Y-73877457D02*
X90953006Y-74234600D01*
X90953006Y-74234600D02*
X90881577Y-74520314D01*
X90881577Y-74520314D02*
X90810149Y-74663171D01*
X90810149Y-74663171D02*
X90738720Y-74734600D01*
X90738720Y-74734600D02*
X90595863Y-74806028D01*
X90595863Y-74806028D02*
X90453006Y-74806028D01*
X90453006Y-74806028D02*
X90310149Y-74734600D01*
X90310149Y-74734600D02*
X90238720Y-74663171D01*
X90238720Y-74663171D02*
X90167291Y-74520314D01*
X90167291Y-74520314D02*
X90095863Y-74234600D01*
X90095863Y-74234600D02*
X90095863Y-73877457D01*
X90095863Y-73877457D02*
X90167291Y-73591742D01*
X90167291Y-73591742D02*
X90238720Y-73448885D01*
X90238720Y-73448885D02*
X90310149Y-73377457D01*
X90310149Y-73377457D02*
X90453006Y-73306028D01*
X91524434Y-74806028D02*
X91881577Y-74806028D01*
X91881577Y-74806028D02*
X91881577Y-74520314D01*
X91881577Y-74520314D02*
X91738720Y-74448885D01*
X91738720Y-74448885D02*
X91595862Y-74306028D01*
X91595862Y-74306028D02*
X91524434Y-74091742D01*
X91524434Y-74091742D02*
X91524434Y-73734600D01*
X91524434Y-73734600D02*
X91595862Y-73520314D01*
X91595862Y-73520314D02*
X91738720Y-73377457D01*
X91738720Y-73377457D02*
X91953005Y-73306028D01*
X91953005Y-73306028D02*
X92238720Y-73306028D01*
X92238720Y-73306028D02*
X92453005Y-73377457D01*
X92453005Y-73377457D02*
X92595862Y-73520314D01*
X92595862Y-73520314D02*
X92667291Y-73734600D01*
X92667291Y-73734600D02*
X92667291Y-74091742D01*
X92667291Y-74091742D02*
X92595862Y-74306028D01*
X92595862Y-74306028D02*
X92453005Y-74448885D01*
X92453005Y-74448885D02*
X92310148Y-74520314D01*
X92310148Y-74520314D02*
X92310148Y-74806028D01*
X92310148Y-74806028D02*
X92667291Y-74806028D01*
X101145863Y-57392742D02*
X101374435Y-57392742D01*
X101374435Y-57392742D02*
X101488720Y-57449885D01*
X101488720Y-57449885D02*
X101603006Y-57564171D01*
X101603006Y-57564171D02*
X101660149Y-57792742D01*
X101660149Y-57792742D02*
X101660149Y-58192742D01*
X101660149Y-58192742D02*
X101603006Y-58421314D01*
X101603006Y-58421314D02*
X101488720Y-58535600D01*
X101488720Y-58535600D02*
X101374435Y-58592742D01*
X101374435Y-58592742D02*
X101145863Y-58592742D01*
X101145863Y-58592742D02*
X101031578Y-58535600D01*
X101031578Y-58535600D02*
X100917292Y-58421314D01*
X100917292Y-58421314D02*
X100860149Y-58192742D01*
X100860149Y-58192742D02*
X100860149Y-57792742D01*
X100860149Y-57792742D02*
X100917292Y-57564171D01*
X100917292Y-57564171D02*
X101031578Y-57449885D01*
X101031578Y-57449885D02*
X101145863Y-57392742D01*
X102174435Y-58592742D02*
X102174435Y-57392742D01*
X102174435Y-57392742D02*
X102860149Y-58592742D01*
X102860149Y-58592742D02*
X102860149Y-57392742D01*
X70845863Y-91306028D02*
X71774435Y-91306028D01*
X71774435Y-91306028D02*
X71274435Y-91877457D01*
X71274435Y-91877457D02*
X71488720Y-91877457D01*
X71488720Y-91877457D02*
X71631578Y-91948885D01*
X71631578Y-91948885D02*
X71703006Y-92020314D01*
X71703006Y-92020314D02*
X71774435Y-92163171D01*
X71774435Y-92163171D02*
X71774435Y-92520314D01*
X71774435Y-92520314D02*
X71703006Y-92663171D01*
X71703006Y-92663171D02*
X71631578Y-92734600D01*
X71631578Y-92734600D02*
X71488720Y-92806028D01*
X71488720Y-92806028D02*
X71060149Y-92806028D01*
X71060149Y-92806028D02*
X70917292Y-92734600D01*
X70917292Y-92734600D02*
X70845863Y-92663171D01*
X72703006Y-91306028D02*
X72845863Y-91306028D01*
X72845863Y-91306028D02*
X72988720Y-91377457D01*
X72988720Y-91377457D02*
X73060149Y-91448885D01*
X73060149Y-91448885D02*
X73131577Y-91591742D01*
X73131577Y-91591742D02*
X73203006Y-91877457D01*
X73203006Y-91877457D02*
X73203006Y-92234600D01*
X73203006Y-92234600D02*
X73131577Y-92520314D01*
X73131577Y-92520314D02*
X73060149Y-92663171D01*
X73060149Y-92663171D02*
X72988720Y-92734600D01*
X72988720Y-92734600D02*
X72845863Y-92806028D01*
X72845863Y-92806028D02*
X72703006Y-92806028D01*
X72703006Y-92806028D02*
X72560149Y-92734600D01*
X72560149Y-92734600D02*
X72488720Y-92663171D01*
X72488720Y-92663171D02*
X72417291Y-92520314D01*
X72417291Y-92520314D02*
X72345863Y-92234600D01*
X72345863Y-92234600D02*
X72345863Y-91877457D01*
X72345863Y-91877457D02*
X72417291Y-91591742D01*
X72417291Y-91591742D02*
X72488720Y-91448885D01*
X72488720Y-91448885D02*
X72560149Y-91377457D01*
X72560149Y-91377457D02*
X72703006Y-91306028D01*
X74131577Y-91306028D02*
X74274434Y-91306028D01*
X74274434Y-91306028D02*
X74417291Y-91377457D01*
X74417291Y-91377457D02*
X74488720Y-91448885D01*
X74488720Y-91448885D02*
X74560148Y-91591742D01*
X74560148Y-91591742D02*
X74631577Y-91877457D01*
X74631577Y-91877457D02*
X74631577Y-92234600D01*
X74631577Y-92234600D02*
X74560148Y-92520314D01*
X74560148Y-92520314D02*
X74488720Y-92663171D01*
X74488720Y-92663171D02*
X74417291Y-92734600D01*
X74417291Y-92734600D02*
X74274434Y-92806028D01*
X74274434Y-92806028D02*
X74131577Y-92806028D01*
X74131577Y-92806028D02*
X73988720Y-92734600D01*
X73988720Y-92734600D02*
X73917291Y-92663171D01*
X73917291Y-92663171D02*
X73845862Y-92520314D01*
X73845862Y-92520314D02*
X73774434Y-92234600D01*
X73774434Y-92234600D02*
X73774434Y-91877457D01*
X73774434Y-91877457D02*
X73845862Y-91591742D01*
X73845862Y-91591742D02*
X73917291Y-91448885D01*
X73917291Y-91448885D02*
X73988720Y-91377457D01*
X73988720Y-91377457D02*
X74131577Y-91306028D01*
X75203005Y-92806028D02*
X75560148Y-92806028D01*
X75560148Y-92806028D02*
X75560148Y-92520314D01*
X75560148Y-92520314D02*
X75417291Y-92448885D01*
X75417291Y-92448885D02*
X75274433Y-92306028D01*
X75274433Y-92306028D02*
X75203005Y-92091742D01*
X75203005Y-92091742D02*
X75203005Y-91734600D01*
X75203005Y-91734600D02*
X75274433Y-91520314D01*
X75274433Y-91520314D02*
X75417291Y-91377457D01*
X75417291Y-91377457D02*
X75631576Y-91306028D01*
X75631576Y-91306028D02*
X75917291Y-91306028D01*
X75917291Y-91306028D02*
X76131576Y-91377457D01*
X76131576Y-91377457D02*
X76274433Y-91520314D01*
X76274433Y-91520314D02*
X76345862Y-91734600D01*
X76345862Y-91734600D02*
X76345862Y-92091742D01*
X76345862Y-92091742D02*
X76274433Y-92306028D01*
X76274433Y-92306028D02*
X76131576Y-92448885D01*
X76131576Y-92448885D02*
X75988719Y-92520314D01*
X75988719Y-92520314D02*
X75988719Y-92806028D01*
X75988719Y-92806028D02*
X76345862Y-92806028D01*
X83645863Y-57392742D02*
X83874435Y-57392742D01*
X83874435Y-57392742D02*
X83988720Y-57449885D01*
X83988720Y-57449885D02*
X84103006Y-57564171D01*
X84103006Y-57564171D02*
X84160149Y-57792742D01*
X84160149Y-57792742D02*
X84160149Y-58192742D01*
X84160149Y-58192742D02*
X84103006Y-58421314D01*
X84103006Y-58421314D02*
X83988720Y-58535600D01*
X83988720Y-58535600D02*
X83874435Y-58592742D01*
X83874435Y-58592742D02*
X83645863Y-58592742D01*
X83645863Y-58592742D02*
X83531578Y-58535600D01*
X83531578Y-58535600D02*
X83417292Y-58421314D01*
X83417292Y-58421314D02*
X83360149Y-58192742D01*
X83360149Y-58192742D02*
X83360149Y-57792742D01*
X83360149Y-57792742D02*
X83417292Y-57564171D01*
X83417292Y-57564171D02*
X83531578Y-57449885D01*
X83531578Y-57449885D02*
X83645863Y-57392742D01*
X84674435Y-58592742D02*
X84674435Y-57392742D01*
X84674435Y-57392742D02*
X85360149Y-58592742D01*
X85360149Y-58592742D02*
X85360149Y-57392742D01*
X71095863Y-109056028D02*
X72024435Y-109056028D01*
X72024435Y-109056028D02*
X71524435Y-109627457D01*
X71524435Y-109627457D02*
X71738720Y-109627457D01*
X71738720Y-109627457D02*
X71881578Y-109698885D01*
X71881578Y-109698885D02*
X71953006Y-109770314D01*
X71953006Y-109770314D02*
X72024435Y-109913171D01*
X72024435Y-109913171D02*
X72024435Y-110270314D01*
X72024435Y-110270314D02*
X71953006Y-110413171D01*
X71953006Y-110413171D02*
X71881578Y-110484600D01*
X71881578Y-110484600D02*
X71738720Y-110556028D01*
X71738720Y-110556028D02*
X71310149Y-110556028D01*
X71310149Y-110556028D02*
X71167292Y-110484600D01*
X71167292Y-110484600D02*
X71095863Y-110413171D01*
X72667291Y-110556028D02*
X72667291Y-109056028D01*
X72810149Y-109984600D02*
X73238720Y-110556028D01*
X73238720Y-109556028D02*
X72667291Y-110127457D01*
X73810149Y-110556028D02*
X74167292Y-110556028D01*
X74167292Y-110556028D02*
X74167292Y-110270314D01*
X74167292Y-110270314D02*
X74024435Y-110198885D01*
X74024435Y-110198885D02*
X73881577Y-110056028D01*
X73881577Y-110056028D02*
X73810149Y-109841742D01*
X73810149Y-109841742D02*
X73810149Y-109484600D01*
X73810149Y-109484600D02*
X73881577Y-109270314D01*
X73881577Y-109270314D02*
X74024435Y-109127457D01*
X74024435Y-109127457D02*
X74238720Y-109056028D01*
X74238720Y-109056028D02*
X74524435Y-109056028D01*
X74524435Y-109056028D02*
X74738720Y-109127457D01*
X74738720Y-109127457D02*
X74881577Y-109270314D01*
X74881577Y-109270314D02*
X74953006Y-109484600D01*
X74953006Y-109484600D02*
X74953006Y-109841742D01*
X74953006Y-109841742D02*
X74881577Y-110056028D01*
X74881577Y-110056028D02*
X74738720Y-110198885D01*
X74738720Y-110198885D02*
X74595863Y-110270314D01*
X74595863Y-110270314D02*
X74595863Y-110556028D01*
X74595863Y-110556028D02*
X74953006Y-110556028D01*
X65895863Y-157392742D02*
X66124435Y-157392742D01*
X66124435Y-157392742D02*
X66238720Y-157449885D01*
X66238720Y-157449885D02*
X66353006Y-157564171D01*
X66353006Y-157564171D02*
X66410149Y-157792742D01*
X66410149Y-157792742D02*
X66410149Y-158192742D01*
X66410149Y-158192742D02*
X66353006Y-158421314D01*
X66353006Y-158421314D02*
X66238720Y-158535600D01*
X66238720Y-158535600D02*
X66124435Y-158592742D01*
X66124435Y-158592742D02*
X65895863Y-158592742D01*
X65895863Y-158592742D02*
X65781578Y-158535600D01*
X65781578Y-158535600D02*
X65667292Y-158421314D01*
X65667292Y-158421314D02*
X65610149Y-158192742D01*
X65610149Y-158192742D02*
X65610149Y-157792742D01*
X65610149Y-157792742D02*
X65667292Y-157564171D01*
X65667292Y-157564171D02*
X65781578Y-157449885D01*
X65781578Y-157449885D02*
X65895863Y-157392742D01*
X67324435Y-157964171D02*
X66924435Y-157964171D01*
X66924435Y-158592742D02*
X66924435Y-157392742D01*
X66924435Y-157392742D02*
X67495863Y-157392742D01*
X68353006Y-157964171D02*
X67953006Y-157964171D01*
X67953006Y-158592742D02*
X67953006Y-157392742D01*
X67953006Y-157392742D02*
X68524434Y-157392742D01*
X65895863Y-67642742D02*
X66124435Y-67642742D01*
X66124435Y-67642742D02*
X66238720Y-67699885D01*
X66238720Y-67699885D02*
X66353006Y-67814171D01*
X66353006Y-67814171D02*
X66410149Y-68042742D01*
X66410149Y-68042742D02*
X66410149Y-68442742D01*
X66410149Y-68442742D02*
X66353006Y-68671314D01*
X66353006Y-68671314D02*
X66238720Y-68785600D01*
X66238720Y-68785600D02*
X66124435Y-68842742D01*
X66124435Y-68842742D02*
X65895863Y-68842742D01*
X65895863Y-68842742D02*
X65781578Y-68785600D01*
X65781578Y-68785600D02*
X65667292Y-68671314D01*
X65667292Y-68671314D02*
X65610149Y-68442742D01*
X65610149Y-68442742D02*
X65610149Y-68042742D01*
X65610149Y-68042742D02*
X65667292Y-67814171D01*
X65667292Y-67814171D02*
X65781578Y-67699885D01*
X65781578Y-67699885D02*
X65895863Y-67642742D01*
X67324435Y-68214171D02*
X66924435Y-68214171D01*
X66924435Y-68842742D02*
X66924435Y-67642742D01*
X66924435Y-67642742D02*
X67495863Y-67642742D01*
X68353006Y-68214171D02*
X67953006Y-68214171D01*
X67953006Y-68842742D02*
X67953006Y-67642742D01*
X67953006Y-67642742D02*
X68524434Y-67642742D01*
X106774435Y-92806028D02*
X105917292Y-92806028D01*
X106345863Y-92806028D02*
X106345863Y-91306028D01*
X106345863Y-91306028D02*
X106203006Y-91520314D01*
X106203006Y-91520314D02*
X106060149Y-91663171D01*
X106060149Y-91663171D02*
X105917292Y-91734600D01*
X107703006Y-91306028D02*
X107845863Y-91306028D01*
X107845863Y-91306028D02*
X107988720Y-91377457D01*
X107988720Y-91377457D02*
X108060149Y-91448885D01*
X108060149Y-91448885D02*
X108131577Y-91591742D01*
X108131577Y-91591742D02*
X108203006Y-91877457D01*
X108203006Y-91877457D02*
X108203006Y-92234600D01*
X108203006Y-92234600D02*
X108131577Y-92520314D01*
X108131577Y-92520314D02*
X108060149Y-92663171D01*
X108060149Y-92663171D02*
X107988720Y-92734600D01*
X107988720Y-92734600D02*
X107845863Y-92806028D01*
X107845863Y-92806028D02*
X107703006Y-92806028D01*
X107703006Y-92806028D02*
X107560149Y-92734600D01*
X107560149Y-92734600D02*
X107488720Y-92663171D01*
X107488720Y-92663171D02*
X107417291Y-92520314D01*
X107417291Y-92520314D02*
X107345863Y-92234600D01*
X107345863Y-92234600D02*
X107345863Y-91877457D01*
X107345863Y-91877457D02*
X107417291Y-91591742D01*
X107417291Y-91591742D02*
X107488720Y-91448885D01*
X107488720Y-91448885D02*
X107560149Y-91377457D01*
X107560149Y-91377457D02*
X107703006Y-91306028D01*
X109131577Y-91306028D02*
X109274434Y-91306028D01*
X109274434Y-91306028D02*
X109417291Y-91377457D01*
X109417291Y-91377457D02*
X109488720Y-91448885D01*
X109488720Y-91448885D02*
X109560148Y-91591742D01*
X109560148Y-91591742D02*
X109631577Y-91877457D01*
X109631577Y-91877457D02*
X109631577Y-92234600D01*
X109631577Y-92234600D02*
X109560148Y-92520314D01*
X109560148Y-92520314D02*
X109488720Y-92663171D01*
X109488720Y-92663171D02*
X109417291Y-92734600D01*
X109417291Y-92734600D02*
X109274434Y-92806028D01*
X109274434Y-92806028D02*
X109131577Y-92806028D01*
X109131577Y-92806028D02*
X108988720Y-92734600D01*
X108988720Y-92734600D02*
X108917291Y-92663171D01*
X108917291Y-92663171D02*
X108845862Y-92520314D01*
X108845862Y-92520314D02*
X108774434Y-92234600D01*
X108774434Y-92234600D02*
X108774434Y-91877457D01*
X108774434Y-91877457D02*
X108845862Y-91591742D01*
X108845862Y-91591742D02*
X108917291Y-91448885D01*
X108917291Y-91448885D02*
X108988720Y-91377457D01*
X108988720Y-91377457D02*
X109131577Y-91306028D01*
X110203005Y-92806028D02*
X110560148Y-92806028D01*
X110560148Y-92806028D02*
X110560148Y-92520314D01*
X110560148Y-92520314D02*
X110417291Y-92448885D01*
X110417291Y-92448885D02*
X110274433Y-92306028D01*
X110274433Y-92306028D02*
X110203005Y-92091742D01*
X110203005Y-92091742D02*
X110203005Y-91734600D01*
X110203005Y-91734600D02*
X110274433Y-91520314D01*
X110274433Y-91520314D02*
X110417291Y-91377457D01*
X110417291Y-91377457D02*
X110631576Y-91306028D01*
X110631576Y-91306028D02*
X110917291Y-91306028D01*
X110917291Y-91306028D02*
X111131576Y-91377457D01*
X111131576Y-91377457D02*
X111274433Y-91520314D01*
X111274433Y-91520314D02*
X111345862Y-91734600D01*
X111345862Y-91734600D02*
X111345862Y-92091742D01*
X111345862Y-92091742D02*
X111274433Y-92306028D01*
X111274433Y-92306028D02*
X111131576Y-92448885D01*
X111131576Y-92448885D02*
X110988719Y-92520314D01*
X110988719Y-92520314D02*
X110988719Y-92806028D01*
X110988719Y-92806028D02*
X111345862Y-92806028D01*
X83395863Y-67392742D02*
X83624435Y-67392742D01*
X83624435Y-67392742D02*
X83738720Y-67449885D01*
X83738720Y-67449885D02*
X83853006Y-67564171D01*
X83853006Y-67564171D02*
X83910149Y-67792742D01*
X83910149Y-67792742D02*
X83910149Y-68192742D01*
X83910149Y-68192742D02*
X83853006Y-68421314D01*
X83853006Y-68421314D02*
X83738720Y-68535600D01*
X83738720Y-68535600D02*
X83624435Y-68592742D01*
X83624435Y-68592742D02*
X83395863Y-68592742D01*
X83395863Y-68592742D02*
X83281578Y-68535600D01*
X83281578Y-68535600D02*
X83167292Y-68421314D01*
X83167292Y-68421314D02*
X83110149Y-68192742D01*
X83110149Y-68192742D02*
X83110149Y-67792742D01*
X83110149Y-67792742D02*
X83167292Y-67564171D01*
X83167292Y-67564171D02*
X83281578Y-67449885D01*
X83281578Y-67449885D02*
X83395863Y-67392742D01*
X84824435Y-67964171D02*
X84424435Y-67964171D01*
X84424435Y-68592742D02*
X84424435Y-67392742D01*
X84424435Y-67392742D02*
X84995863Y-67392742D01*
X85853006Y-67964171D02*
X85453006Y-67964171D01*
X85453006Y-68592742D02*
X85453006Y-67392742D01*
X85453006Y-67392742D02*
X86024434Y-67392742D01*
X101145863Y-103392742D02*
X101374435Y-103392742D01*
X101374435Y-103392742D02*
X101488720Y-103449885D01*
X101488720Y-103449885D02*
X101603006Y-103564171D01*
X101603006Y-103564171D02*
X101660149Y-103792742D01*
X101660149Y-103792742D02*
X101660149Y-104192742D01*
X101660149Y-104192742D02*
X101603006Y-104421314D01*
X101603006Y-104421314D02*
X101488720Y-104535600D01*
X101488720Y-104535600D02*
X101374435Y-104592742D01*
X101374435Y-104592742D02*
X101145863Y-104592742D01*
X101145863Y-104592742D02*
X101031578Y-104535600D01*
X101031578Y-104535600D02*
X100917292Y-104421314D01*
X100917292Y-104421314D02*
X100860149Y-104192742D01*
X100860149Y-104192742D02*
X100860149Y-103792742D01*
X100860149Y-103792742D02*
X100917292Y-103564171D01*
X100917292Y-103564171D02*
X101031578Y-103449885D01*
X101031578Y-103449885D02*
X101145863Y-103392742D01*
X102574435Y-103964171D02*
X102174435Y-103964171D01*
X102174435Y-104592742D02*
X102174435Y-103392742D01*
X102174435Y-103392742D02*
X102745863Y-103392742D01*
X103603006Y-103964171D02*
X103203006Y-103964171D01*
X103203006Y-104592742D02*
X103203006Y-103392742D01*
X103203006Y-103392742D02*
X103774434Y-103392742D01*
X66145863Y-75392742D02*
X66374435Y-75392742D01*
X66374435Y-75392742D02*
X66488720Y-75449885D01*
X66488720Y-75449885D02*
X66603006Y-75564171D01*
X66603006Y-75564171D02*
X66660149Y-75792742D01*
X66660149Y-75792742D02*
X66660149Y-76192742D01*
X66660149Y-76192742D02*
X66603006Y-76421314D01*
X66603006Y-76421314D02*
X66488720Y-76535600D01*
X66488720Y-76535600D02*
X66374435Y-76592742D01*
X66374435Y-76592742D02*
X66145863Y-76592742D01*
X66145863Y-76592742D02*
X66031578Y-76535600D01*
X66031578Y-76535600D02*
X65917292Y-76421314D01*
X65917292Y-76421314D02*
X65860149Y-76192742D01*
X65860149Y-76192742D02*
X65860149Y-75792742D01*
X65860149Y-75792742D02*
X65917292Y-75564171D01*
X65917292Y-75564171D02*
X66031578Y-75449885D01*
X66031578Y-75449885D02*
X66145863Y-75392742D01*
X67174435Y-76592742D02*
X67174435Y-75392742D01*
X67174435Y-75392742D02*
X67860149Y-76592742D01*
X67860149Y-76592742D02*
X67860149Y-75392742D01*
X66145863Y-147392742D02*
X66374435Y-147392742D01*
X66374435Y-147392742D02*
X66488720Y-147449885D01*
X66488720Y-147449885D02*
X66603006Y-147564171D01*
X66603006Y-147564171D02*
X66660149Y-147792742D01*
X66660149Y-147792742D02*
X66660149Y-148192742D01*
X66660149Y-148192742D02*
X66603006Y-148421314D01*
X66603006Y-148421314D02*
X66488720Y-148535600D01*
X66488720Y-148535600D02*
X66374435Y-148592742D01*
X66374435Y-148592742D02*
X66145863Y-148592742D01*
X66145863Y-148592742D02*
X66031578Y-148535600D01*
X66031578Y-148535600D02*
X65917292Y-148421314D01*
X65917292Y-148421314D02*
X65860149Y-148192742D01*
X65860149Y-148192742D02*
X65860149Y-147792742D01*
X65860149Y-147792742D02*
X65917292Y-147564171D01*
X65917292Y-147564171D02*
X66031578Y-147449885D01*
X66031578Y-147449885D02*
X66145863Y-147392742D01*
X67174435Y-148592742D02*
X67174435Y-147392742D01*
X67174435Y-147392742D02*
X67860149Y-148592742D01*
X67860149Y-148592742D02*
X67860149Y-147392742D01*
X54381578Y-127556028D02*
X54381578Y-128556028D01*
X54024435Y-126984600D02*
X53667292Y-128056028D01*
X53667292Y-128056028D02*
X54595863Y-128056028D01*
X55453006Y-127056028D02*
X55595863Y-127056028D01*
X55595863Y-127056028D02*
X55738720Y-127127457D01*
X55738720Y-127127457D02*
X55810149Y-127198885D01*
X55810149Y-127198885D02*
X55881577Y-127341742D01*
X55881577Y-127341742D02*
X55953006Y-127627457D01*
X55953006Y-127627457D02*
X55953006Y-127984600D01*
X55953006Y-127984600D02*
X55881577Y-128270314D01*
X55881577Y-128270314D02*
X55810149Y-128413171D01*
X55810149Y-128413171D02*
X55738720Y-128484600D01*
X55738720Y-128484600D02*
X55595863Y-128556028D01*
X55595863Y-128556028D02*
X55453006Y-128556028D01*
X55453006Y-128556028D02*
X55310149Y-128484600D01*
X55310149Y-128484600D02*
X55238720Y-128413171D01*
X55238720Y-128413171D02*
X55167291Y-128270314D01*
X55167291Y-128270314D02*
X55095863Y-127984600D01*
X55095863Y-127984600D02*
X55095863Y-127627457D01*
X55095863Y-127627457D02*
X55167291Y-127341742D01*
X55167291Y-127341742D02*
X55238720Y-127198885D01*
X55238720Y-127198885D02*
X55310149Y-127127457D01*
X55310149Y-127127457D02*
X55453006Y-127056028D01*
X56595862Y-128556028D02*
X56595862Y-127056028D01*
X56738720Y-127984600D02*
X57167291Y-128556028D01*
X57167291Y-127556028D02*
X56595862Y-128127457D01*
X57738720Y-128556028D02*
X58095863Y-128556028D01*
X58095863Y-128556028D02*
X58095863Y-128270314D01*
X58095863Y-128270314D02*
X57953006Y-128198885D01*
X57953006Y-128198885D02*
X57810148Y-128056028D01*
X57810148Y-128056028D02*
X57738720Y-127841742D01*
X57738720Y-127841742D02*
X57738720Y-127484600D01*
X57738720Y-127484600D02*
X57810148Y-127270314D01*
X57810148Y-127270314D02*
X57953006Y-127127457D01*
X57953006Y-127127457D02*
X58167291Y-127056028D01*
X58167291Y-127056028D02*
X58453006Y-127056028D01*
X58453006Y-127056028D02*
X58667291Y-127127457D01*
X58667291Y-127127457D02*
X58810148Y-127270314D01*
X58810148Y-127270314D02*
X58881577Y-127484600D01*
X58881577Y-127484600D02*
X58881577Y-127841742D01*
X58881577Y-127841742D02*
X58810148Y-128056028D01*
X58810148Y-128056028D02*
X58667291Y-128198885D01*
X58667291Y-128198885D02*
X58524434Y-128270314D01*
X58524434Y-128270314D02*
X58524434Y-128556028D01*
X58524434Y-128556028D02*
X58881577Y-128556028D01*
X65895863Y-103142742D02*
X66124435Y-103142742D01*
X66124435Y-103142742D02*
X66238720Y-103199885D01*
X66238720Y-103199885D02*
X66353006Y-103314171D01*
X66353006Y-103314171D02*
X66410149Y-103542742D01*
X66410149Y-103542742D02*
X66410149Y-103942742D01*
X66410149Y-103942742D02*
X66353006Y-104171314D01*
X66353006Y-104171314D02*
X66238720Y-104285600D01*
X66238720Y-104285600D02*
X66124435Y-104342742D01*
X66124435Y-104342742D02*
X65895863Y-104342742D01*
X65895863Y-104342742D02*
X65781578Y-104285600D01*
X65781578Y-104285600D02*
X65667292Y-104171314D01*
X65667292Y-104171314D02*
X65610149Y-103942742D01*
X65610149Y-103942742D02*
X65610149Y-103542742D01*
X65610149Y-103542742D02*
X65667292Y-103314171D01*
X65667292Y-103314171D02*
X65781578Y-103199885D01*
X65781578Y-103199885D02*
X65895863Y-103142742D01*
X67324435Y-103714171D02*
X66924435Y-103714171D01*
X66924435Y-104342742D02*
X66924435Y-103142742D01*
X66924435Y-103142742D02*
X67495863Y-103142742D01*
X68353006Y-103714171D02*
X67953006Y-103714171D01*
X67953006Y-104342742D02*
X67953006Y-103142742D01*
X67953006Y-103142742D02*
X68524434Y-103142742D01*
X101395863Y-93392742D02*
X101624435Y-93392742D01*
X101624435Y-93392742D02*
X101738720Y-93449885D01*
X101738720Y-93449885D02*
X101853006Y-93564171D01*
X101853006Y-93564171D02*
X101910149Y-93792742D01*
X101910149Y-93792742D02*
X101910149Y-94192742D01*
X101910149Y-94192742D02*
X101853006Y-94421314D01*
X101853006Y-94421314D02*
X101738720Y-94535600D01*
X101738720Y-94535600D02*
X101624435Y-94592742D01*
X101624435Y-94592742D02*
X101395863Y-94592742D01*
X101395863Y-94592742D02*
X101281578Y-94535600D01*
X101281578Y-94535600D02*
X101167292Y-94421314D01*
X101167292Y-94421314D02*
X101110149Y-94192742D01*
X101110149Y-94192742D02*
X101110149Y-93792742D01*
X101110149Y-93792742D02*
X101167292Y-93564171D01*
X101167292Y-93564171D02*
X101281578Y-93449885D01*
X101281578Y-93449885D02*
X101395863Y-93392742D01*
X102424435Y-94592742D02*
X102424435Y-93392742D01*
X102424435Y-93392742D02*
X103110149Y-94592742D01*
X103110149Y-94592742D02*
X103110149Y-93392742D01*
X107024435Y-128556028D02*
X106167292Y-128556028D01*
X106595863Y-128556028D02*
X106595863Y-127056028D01*
X106595863Y-127056028D02*
X106453006Y-127270314D01*
X106453006Y-127270314D02*
X106310149Y-127413171D01*
X106310149Y-127413171D02*
X106167292Y-127484600D01*
X107953006Y-127056028D02*
X108095863Y-127056028D01*
X108095863Y-127056028D02*
X108238720Y-127127457D01*
X108238720Y-127127457D02*
X108310149Y-127198885D01*
X108310149Y-127198885D02*
X108381577Y-127341742D01*
X108381577Y-127341742D02*
X108453006Y-127627457D01*
X108453006Y-127627457D02*
X108453006Y-127984600D01*
X108453006Y-127984600D02*
X108381577Y-128270314D01*
X108381577Y-128270314D02*
X108310149Y-128413171D01*
X108310149Y-128413171D02*
X108238720Y-128484600D01*
X108238720Y-128484600D02*
X108095863Y-128556028D01*
X108095863Y-128556028D02*
X107953006Y-128556028D01*
X107953006Y-128556028D02*
X107810149Y-128484600D01*
X107810149Y-128484600D02*
X107738720Y-128413171D01*
X107738720Y-128413171D02*
X107667291Y-128270314D01*
X107667291Y-128270314D02*
X107595863Y-127984600D01*
X107595863Y-127984600D02*
X107595863Y-127627457D01*
X107595863Y-127627457D02*
X107667291Y-127341742D01*
X107667291Y-127341742D02*
X107738720Y-127198885D01*
X107738720Y-127198885D02*
X107810149Y-127127457D01*
X107810149Y-127127457D02*
X107953006Y-127056028D01*
X109095862Y-128556028D02*
X109095862Y-127056028D01*
X109238720Y-127984600D02*
X109667291Y-128556028D01*
X109667291Y-127556028D02*
X109095862Y-128127457D01*
X110238720Y-128556028D02*
X110595863Y-128556028D01*
X110595863Y-128556028D02*
X110595863Y-128270314D01*
X110595863Y-128270314D02*
X110453006Y-128198885D01*
X110453006Y-128198885D02*
X110310148Y-128056028D01*
X110310148Y-128056028D02*
X110238720Y-127841742D01*
X110238720Y-127841742D02*
X110238720Y-127484600D01*
X110238720Y-127484600D02*
X110310148Y-127270314D01*
X110310148Y-127270314D02*
X110453006Y-127127457D01*
X110453006Y-127127457D02*
X110667291Y-127056028D01*
X110667291Y-127056028D02*
X110953006Y-127056028D01*
X110953006Y-127056028D02*
X111167291Y-127127457D01*
X111167291Y-127127457D02*
X111310148Y-127270314D01*
X111310148Y-127270314D02*
X111381577Y-127484600D01*
X111381577Y-127484600D02*
X111381577Y-127841742D01*
X111381577Y-127841742D02*
X111310148Y-128056028D01*
X111310148Y-128056028D02*
X111167291Y-128198885D01*
X111167291Y-128198885D02*
X111024434Y-128270314D01*
X111024434Y-128270314D02*
X111024434Y-128556028D01*
X111024434Y-128556028D02*
X111381577Y-128556028D01*
X100895863Y-157142742D02*
X101124435Y-157142742D01*
X101124435Y-157142742D02*
X101238720Y-157199885D01*
X101238720Y-157199885D02*
X101353006Y-157314171D01*
X101353006Y-157314171D02*
X101410149Y-157542742D01*
X101410149Y-157542742D02*
X101410149Y-157942742D01*
X101410149Y-157942742D02*
X101353006Y-158171314D01*
X101353006Y-158171314D02*
X101238720Y-158285600D01*
X101238720Y-158285600D02*
X101124435Y-158342742D01*
X101124435Y-158342742D02*
X100895863Y-158342742D01*
X100895863Y-158342742D02*
X100781578Y-158285600D01*
X100781578Y-158285600D02*
X100667292Y-158171314D01*
X100667292Y-158171314D02*
X100610149Y-157942742D01*
X100610149Y-157942742D02*
X100610149Y-157542742D01*
X100610149Y-157542742D02*
X100667292Y-157314171D01*
X100667292Y-157314171D02*
X100781578Y-157199885D01*
X100781578Y-157199885D02*
X100895863Y-157142742D01*
X102324435Y-157714171D02*
X101924435Y-157714171D01*
X101924435Y-158342742D02*
X101924435Y-157142742D01*
X101924435Y-157142742D02*
X102495863Y-157142742D01*
X103353006Y-157714171D02*
X102953006Y-157714171D01*
X102953006Y-158342742D02*
X102953006Y-157142742D01*
X102953006Y-157142742D02*
X103524434Y-157142742D01*
X71095863Y-54556028D02*
X72024435Y-54556028D01*
X72024435Y-54556028D02*
X71524435Y-55127457D01*
X71524435Y-55127457D02*
X71738720Y-55127457D01*
X71738720Y-55127457D02*
X71881578Y-55198885D01*
X71881578Y-55198885D02*
X71953006Y-55270314D01*
X71953006Y-55270314D02*
X72024435Y-55413171D01*
X72024435Y-55413171D02*
X72024435Y-55770314D01*
X72024435Y-55770314D02*
X71953006Y-55913171D01*
X71953006Y-55913171D02*
X71881578Y-55984600D01*
X71881578Y-55984600D02*
X71738720Y-56056028D01*
X71738720Y-56056028D02*
X71310149Y-56056028D01*
X71310149Y-56056028D02*
X71167292Y-55984600D01*
X71167292Y-55984600D02*
X71095863Y-55913171D01*
X72595863Y-56056028D02*
X72953006Y-56056028D01*
X72953006Y-56056028D02*
X72953006Y-55770314D01*
X72953006Y-55770314D02*
X72810149Y-55698885D01*
X72810149Y-55698885D02*
X72667291Y-55556028D01*
X72667291Y-55556028D02*
X72595863Y-55341742D01*
X72595863Y-55341742D02*
X72595863Y-54984600D01*
X72595863Y-54984600D02*
X72667291Y-54770314D01*
X72667291Y-54770314D02*
X72810149Y-54627457D01*
X72810149Y-54627457D02*
X73024434Y-54556028D01*
X73024434Y-54556028D02*
X73310149Y-54556028D01*
X73310149Y-54556028D02*
X73524434Y-54627457D01*
X73524434Y-54627457D02*
X73667291Y-54770314D01*
X73667291Y-54770314D02*
X73738720Y-54984600D01*
X73738720Y-54984600D02*
X73738720Y-55341742D01*
X73738720Y-55341742D02*
X73667291Y-55556028D01*
X73667291Y-55556028D02*
X73524434Y-55698885D01*
X73524434Y-55698885D02*
X73381577Y-55770314D01*
X73381577Y-55770314D02*
X73381577Y-56056028D01*
X73381577Y-56056028D02*
X73738720Y-56056028D01*
X83395863Y-157142742D02*
X83624435Y-157142742D01*
X83624435Y-157142742D02*
X83738720Y-157199885D01*
X83738720Y-157199885D02*
X83853006Y-157314171D01*
X83853006Y-157314171D02*
X83910149Y-157542742D01*
X83910149Y-157542742D02*
X83910149Y-157942742D01*
X83910149Y-157942742D02*
X83853006Y-158171314D01*
X83853006Y-158171314D02*
X83738720Y-158285600D01*
X83738720Y-158285600D02*
X83624435Y-158342742D01*
X83624435Y-158342742D02*
X83395863Y-158342742D01*
X83395863Y-158342742D02*
X83281578Y-158285600D01*
X83281578Y-158285600D02*
X83167292Y-158171314D01*
X83167292Y-158171314D02*
X83110149Y-157942742D01*
X83110149Y-157942742D02*
X83110149Y-157542742D01*
X83110149Y-157542742D02*
X83167292Y-157314171D01*
X83167292Y-157314171D02*
X83281578Y-157199885D01*
X83281578Y-157199885D02*
X83395863Y-157142742D01*
X84824435Y-157714171D02*
X84424435Y-157714171D01*
X84424435Y-158342742D02*
X84424435Y-157142742D01*
X84424435Y-157142742D02*
X84995863Y-157142742D01*
X85853006Y-157714171D02*
X85453006Y-157714171D01*
X85453006Y-158342742D02*
X85453006Y-157142742D01*
X85453006Y-157142742D02*
X86024434Y-157142742D01*
X65895863Y-85392742D02*
X66124435Y-85392742D01*
X66124435Y-85392742D02*
X66238720Y-85449885D01*
X66238720Y-85449885D02*
X66353006Y-85564171D01*
X66353006Y-85564171D02*
X66410149Y-85792742D01*
X66410149Y-85792742D02*
X66410149Y-86192742D01*
X66410149Y-86192742D02*
X66353006Y-86421314D01*
X66353006Y-86421314D02*
X66238720Y-86535600D01*
X66238720Y-86535600D02*
X66124435Y-86592742D01*
X66124435Y-86592742D02*
X65895863Y-86592742D01*
X65895863Y-86592742D02*
X65781578Y-86535600D01*
X65781578Y-86535600D02*
X65667292Y-86421314D01*
X65667292Y-86421314D02*
X65610149Y-86192742D01*
X65610149Y-86192742D02*
X65610149Y-85792742D01*
X65610149Y-85792742D02*
X65667292Y-85564171D01*
X65667292Y-85564171D02*
X65781578Y-85449885D01*
X65781578Y-85449885D02*
X65895863Y-85392742D01*
X67324435Y-85964171D02*
X66924435Y-85964171D01*
X66924435Y-86592742D02*
X66924435Y-85392742D01*
X66924435Y-85392742D02*
X67495863Y-85392742D01*
X68353006Y-85964171D02*
X67953006Y-85964171D01*
X67953006Y-86592742D02*
X67953006Y-85392742D01*
X67953006Y-85392742D02*
X68524434Y-85392742D01*
X66145863Y-57642742D02*
X66374435Y-57642742D01*
X66374435Y-57642742D02*
X66488720Y-57699885D01*
X66488720Y-57699885D02*
X66603006Y-57814171D01*
X66603006Y-57814171D02*
X66660149Y-58042742D01*
X66660149Y-58042742D02*
X66660149Y-58442742D01*
X66660149Y-58442742D02*
X66603006Y-58671314D01*
X66603006Y-58671314D02*
X66488720Y-58785600D01*
X66488720Y-58785600D02*
X66374435Y-58842742D01*
X66374435Y-58842742D02*
X66145863Y-58842742D01*
X66145863Y-58842742D02*
X66031578Y-58785600D01*
X66031578Y-58785600D02*
X65917292Y-58671314D01*
X65917292Y-58671314D02*
X65860149Y-58442742D01*
X65860149Y-58442742D02*
X65860149Y-58042742D01*
X65860149Y-58042742D02*
X65917292Y-57814171D01*
X65917292Y-57814171D02*
X66031578Y-57699885D01*
X66031578Y-57699885D02*
X66145863Y-57642742D01*
X67174435Y-58842742D02*
X67174435Y-57642742D01*
X67174435Y-57642742D02*
X67860149Y-58842742D01*
X67860149Y-58842742D02*
X67860149Y-57642742D01*
X88917292Y-145198885D02*
X88988720Y-145127457D01*
X88988720Y-145127457D02*
X89131578Y-145056028D01*
X89131578Y-145056028D02*
X89488720Y-145056028D01*
X89488720Y-145056028D02*
X89631578Y-145127457D01*
X89631578Y-145127457D02*
X89703006Y-145198885D01*
X89703006Y-145198885D02*
X89774435Y-145341742D01*
X89774435Y-145341742D02*
X89774435Y-145484600D01*
X89774435Y-145484600D02*
X89703006Y-145698885D01*
X89703006Y-145698885D02*
X88845863Y-146556028D01*
X88845863Y-146556028D02*
X89774435Y-146556028D01*
X90703006Y-145056028D02*
X90845863Y-145056028D01*
X90845863Y-145056028D02*
X90988720Y-145127457D01*
X90988720Y-145127457D02*
X91060149Y-145198885D01*
X91060149Y-145198885D02*
X91131577Y-145341742D01*
X91131577Y-145341742D02*
X91203006Y-145627457D01*
X91203006Y-145627457D02*
X91203006Y-145984600D01*
X91203006Y-145984600D02*
X91131577Y-146270314D01*
X91131577Y-146270314D02*
X91060149Y-146413171D01*
X91060149Y-146413171D02*
X90988720Y-146484600D01*
X90988720Y-146484600D02*
X90845863Y-146556028D01*
X90845863Y-146556028D02*
X90703006Y-146556028D01*
X90703006Y-146556028D02*
X90560149Y-146484600D01*
X90560149Y-146484600D02*
X90488720Y-146413171D01*
X90488720Y-146413171D02*
X90417291Y-146270314D01*
X90417291Y-146270314D02*
X90345863Y-145984600D01*
X90345863Y-145984600D02*
X90345863Y-145627457D01*
X90345863Y-145627457D02*
X90417291Y-145341742D01*
X90417291Y-145341742D02*
X90488720Y-145198885D01*
X90488720Y-145198885D02*
X90560149Y-145127457D01*
X90560149Y-145127457D02*
X90703006Y-145056028D01*
X92131577Y-145056028D02*
X92274434Y-145056028D01*
X92274434Y-145056028D02*
X92417291Y-145127457D01*
X92417291Y-145127457D02*
X92488720Y-145198885D01*
X92488720Y-145198885D02*
X92560148Y-145341742D01*
X92560148Y-145341742D02*
X92631577Y-145627457D01*
X92631577Y-145627457D02*
X92631577Y-145984600D01*
X92631577Y-145984600D02*
X92560148Y-146270314D01*
X92560148Y-146270314D02*
X92488720Y-146413171D01*
X92488720Y-146413171D02*
X92417291Y-146484600D01*
X92417291Y-146484600D02*
X92274434Y-146556028D01*
X92274434Y-146556028D02*
X92131577Y-146556028D01*
X92131577Y-146556028D02*
X91988720Y-146484600D01*
X91988720Y-146484600D02*
X91917291Y-146413171D01*
X91917291Y-146413171D02*
X91845862Y-146270314D01*
X91845862Y-146270314D02*
X91774434Y-145984600D01*
X91774434Y-145984600D02*
X91774434Y-145627457D01*
X91774434Y-145627457D02*
X91845862Y-145341742D01*
X91845862Y-145341742D02*
X91917291Y-145198885D01*
X91917291Y-145198885D02*
X91988720Y-145127457D01*
X91988720Y-145127457D02*
X92131577Y-145056028D01*
X93274433Y-146556028D02*
X93274433Y-145056028D01*
X93417291Y-145984600D02*
X93845862Y-146556028D01*
X93845862Y-145556028D02*
X93274433Y-146127457D01*
X94417291Y-146556028D02*
X94774434Y-146556028D01*
X94774434Y-146556028D02*
X94774434Y-146270314D01*
X94774434Y-146270314D02*
X94631577Y-146198885D01*
X94631577Y-146198885D02*
X94488719Y-146056028D01*
X94488719Y-146056028D02*
X94417291Y-145841742D01*
X94417291Y-145841742D02*
X94417291Y-145484600D01*
X94417291Y-145484600D02*
X94488719Y-145270314D01*
X94488719Y-145270314D02*
X94631577Y-145127457D01*
X94631577Y-145127457D02*
X94845862Y-145056028D01*
X94845862Y-145056028D02*
X95131577Y-145056028D01*
X95131577Y-145056028D02*
X95345862Y-145127457D01*
X95345862Y-145127457D02*
X95488719Y-145270314D01*
X95488719Y-145270314D02*
X95560148Y-145484600D01*
X95560148Y-145484600D02*
X95560148Y-145841742D01*
X95560148Y-145841742D02*
X95488719Y-146056028D01*
X95488719Y-146056028D02*
X95345862Y-146198885D01*
X95345862Y-146198885D02*
X95203005Y-146270314D01*
X95203005Y-146270314D02*
X95203005Y-146556028D01*
X95203005Y-146556028D02*
X95560148Y-146556028D01*
X71345863Y-145056028D02*
X72274435Y-145056028D01*
X72274435Y-145056028D02*
X71774435Y-145627457D01*
X71774435Y-145627457D02*
X71988720Y-145627457D01*
X71988720Y-145627457D02*
X72131578Y-145698885D01*
X72131578Y-145698885D02*
X72203006Y-145770314D01*
X72203006Y-145770314D02*
X72274435Y-145913171D01*
X72274435Y-145913171D02*
X72274435Y-146270314D01*
X72274435Y-146270314D02*
X72203006Y-146413171D01*
X72203006Y-146413171D02*
X72131578Y-146484600D01*
X72131578Y-146484600D02*
X71988720Y-146556028D01*
X71988720Y-146556028D02*
X71560149Y-146556028D01*
X71560149Y-146556028D02*
X71417292Y-146484600D01*
X71417292Y-146484600D02*
X71345863Y-146413171D01*
X73203006Y-145056028D02*
X73345863Y-145056028D01*
X73345863Y-145056028D02*
X73488720Y-145127457D01*
X73488720Y-145127457D02*
X73560149Y-145198885D01*
X73560149Y-145198885D02*
X73631577Y-145341742D01*
X73631577Y-145341742D02*
X73703006Y-145627457D01*
X73703006Y-145627457D02*
X73703006Y-145984600D01*
X73703006Y-145984600D02*
X73631577Y-146270314D01*
X73631577Y-146270314D02*
X73560149Y-146413171D01*
X73560149Y-146413171D02*
X73488720Y-146484600D01*
X73488720Y-146484600D02*
X73345863Y-146556028D01*
X73345863Y-146556028D02*
X73203006Y-146556028D01*
X73203006Y-146556028D02*
X73060149Y-146484600D01*
X73060149Y-146484600D02*
X72988720Y-146413171D01*
X72988720Y-146413171D02*
X72917291Y-146270314D01*
X72917291Y-146270314D02*
X72845863Y-145984600D01*
X72845863Y-145984600D02*
X72845863Y-145627457D01*
X72845863Y-145627457D02*
X72917291Y-145341742D01*
X72917291Y-145341742D02*
X72988720Y-145198885D01*
X72988720Y-145198885D02*
X73060149Y-145127457D01*
X73060149Y-145127457D02*
X73203006Y-145056028D01*
X74631577Y-145056028D02*
X74774434Y-145056028D01*
X74774434Y-145056028D02*
X74917291Y-145127457D01*
X74917291Y-145127457D02*
X74988720Y-145198885D01*
X74988720Y-145198885D02*
X75060148Y-145341742D01*
X75060148Y-145341742D02*
X75131577Y-145627457D01*
X75131577Y-145627457D02*
X75131577Y-145984600D01*
X75131577Y-145984600D02*
X75060148Y-146270314D01*
X75060148Y-146270314D02*
X74988720Y-146413171D01*
X74988720Y-146413171D02*
X74917291Y-146484600D01*
X74917291Y-146484600D02*
X74774434Y-146556028D01*
X74774434Y-146556028D02*
X74631577Y-146556028D01*
X74631577Y-146556028D02*
X74488720Y-146484600D01*
X74488720Y-146484600D02*
X74417291Y-146413171D01*
X74417291Y-146413171D02*
X74345862Y-146270314D01*
X74345862Y-146270314D02*
X74274434Y-145984600D01*
X74274434Y-145984600D02*
X74274434Y-145627457D01*
X74274434Y-145627457D02*
X74345862Y-145341742D01*
X74345862Y-145341742D02*
X74417291Y-145198885D01*
X74417291Y-145198885D02*
X74488720Y-145127457D01*
X74488720Y-145127457D02*
X74631577Y-145056028D01*
X75774433Y-146556028D02*
X75774433Y-145056028D01*
X75917291Y-145984600D02*
X76345862Y-146556028D01*
X76345862Y-145556028D02*
X75774433Y-146127457D01*
X76917291Y-146556028D02*
X77274434Y-146556028D01*
X77274434Y-146556028D02*
X77274434Y-146270314D01*
X77274434Y-146270314D02*
X77131577Y-146198885D01*
X77131577Y-146198885D02*
X76988719Y-146056028D01*
X76988719Y-146056028D02*
X76917291Y-145841742D01*
X76917291Y-145841742D02*
X76917291Y-145484600D01*
X76917291Y-145484600D02*
X76988719Y-145270314D01*
X76988719Y-145270314D02*
X77131577Y-145127457D01*
X77131577Y-145127457D02*
X77345862Y-145056028D01*
X77345862Y-145056028D02*
X77631577Y-145056028D01*
X77631577Y-145056028D02*
X77845862Y-145127457D01*
X77845862Y-145127457D02*
X77988719Y-145270314D01*
X77988719Y-145270314D02*
X78060148Y-145484600D01*
X78060148Y-145484600D02*
X78060148Y-145841742D01*
X78060148Y-145841742D02*
X77988719Y-146056028D01*
X77988719Y-146056028D02*
X77845862Y-146198885D01*
X77845862Y-146198885D02*
X77703005Y-146270314D01*
X77703005Y-146270314D02*
X77703005Y-146556028D01*
X77703005Y-146556028D02*
X78060148Y-146556028D01*
X83395863Y-121142742D02*
X83624435Y-121142742D01*
X83624435Y-121142742D02*
X83738720Y-121199885D01*
X83738720Y-121199885D02*
X83853006Y-121314171D01*
X83853006Y-121314171D02*
X83910149Y-121542742D01*
X83910149Y-121542742D02*
X83910149Y-121942742D01*
X83910149Y-121942742D02*
X83853006Y-122171314D01*
X83853006Y-122171314D02*
X83738720Y-122285600D01*
X83738720Y-122285600D02*
X83624435Y-122342742D01*
X83624435Y-122342742D02*
X83395863Y-122342742D01*
X83395863Y-122342742D02*
X83281578Y-122285600D01*
X83281578Y-122285600D02*
X83167292Y-122171314D01*
X83167292Y-122171314D02*
X83110149Y-121942742D01*
X83110149Y-121942742D02*
X83110149Y-121542742D01*
X83110149Y-121542742D02*
X83167292Y-121314171D01*
X83167292Y-121314171D02*
X83281578Y-121199885D01*
X83281578Y-121199885D02*
X83395863Y-121142742D01*
X84824435Y-121714171D02*
X84424435Y-121714171D01*
X84424435Y-122342742D02*
X84424435Y-121142742D01*
X84424435Y-121142742D02*
X84995863Y-121142742D01*
X85853006Y-121714171D02*
X85453006Y-121714171D01*
X85453006Y-122342742D02*
X85453006Y-121142742D01*
X85453006Y-121142742D02*
X86024434Y-121142742D01*
X100895863Y-121392742D02*
X101124435Y-121392742D01*
X101124435Y-121392742D02*
X101238720Y-121449885D01*
X101238720Y-121449885D02*
X101353006Y-121564171D01*
X101353006Y-121564171D02*
X101410149Y-121792742D01*
X101410149Y-121792742D02*
X101410149Y-122192742D01*
X101410149Y-122192742D02*
X101353006Y-122421314D01*
X101353006Y-122421314D02*
X101238720Y-122535600D01*
X101238720Y-122535600D02*
X101124435Y-122592742D01*
X101124435Y-122592742D02*
X100895863Y-122592742D01*
X100895863Y-122592742D02*
X100781578Y-122535600D01*
X100781578Y-122535600D02*
X100667292Y-122421314D01*
X100667292Y-122421314D02*
X100610149Y-122192742D01*
X100610149Y-122192742D02*
X100610149Y-121792742D01*
X100610149Y-121792742D02*
X100667292Y-121564171D01*
X100667292Y-121564171D02*
X100781578Y-121449885D01*
X100781578Y-121449885D02*
X100895863Y-121392742D01*
X102324435Y-121964171D02*
X101924435Y-121964171D01*
X101924435Y-122592742D02*
X101924435Y-121392742D01*
X101924435Y-121392742D02*
X102495863Y-121392742D01*
X103353006Y-121964171D02*
X102953006Y-121964171D01*
X102953006Y-122592742D02*
X102953006Y-121392742D01*
X102953006Y-121392742D02*
X103524434Y-121392742D01*
X88667292Y-127198885D02*
X88738720Y-127127457D01*
X88738720Y-127127457D02*
X88881578Y-127056028D01*
X88881578Y-127056028D02*
X89238720Y-127056028D01*
X89238720Y-127056028D02*
X89381578Y-127127457D01*
X89381578Y-127127457D02*
X89453006Y-127198885D01*
X89453006Y-127198885D02*
X89524435Y-127341742D01*
X89524435Y-127341742D02*
X89524435Y-127484600D01*
X89524435Y-127484600D02*
X89453006Y-127698885D01*
X89453006Y-127698885D02*
X88595863Y-128556028D01*
X88595863Y-128556028D02*
X89524435Y-128556028D01*
X90453006Y-127056028D02*
X90595863Y-127056028D01*
X90595863Y-127056028D02*
X90738720Y-127127457D01*
X90738720Y-127127457D02*
X90810149Y-127198885D01*
X90810149Y-127198885D02*
X90881577Y-127341742D01*
X90881577Y-127341742D02*
X90953006Y-127627457D01*
X90953006Y-127627457D02*
X90953006Y-127984600D01*
X90953006Y-127984600D02*
X90881577Y-128270314D01*
X90881577Y-128270314D02*
X90810149Y-128413171D01*
X90810149Y-128413171D02*
X90738720Y-128484600D01*
X90738720Y-128484600D02*
X90595863Y-128556028D01*
X90595863Y-128556028D02*
X90453006Y-128556028D01*
X90453006Y-128556028D02*
X90310149Y-128484600D01*
X90310149Y-128484600D02*
X90238720Y-128413171D01*
X90238720Y-128413171D02*
X90167291Y-128270314D01*
X90167291Y-128270314D02*
X90095863Y-127984600D01*
X90095863Y-127984600D02*
X90095863Y-127627457D01*
X90095863Y-127627457D02*
X90167291Y-127341742D01*
X90167291Y-127341742D02*
X90238720Y-127198885D01*
X90238720Y-127198885D02*
X90310149Y-127127457D01*
X90310149Y-127127457D02*
X90453006Y-127056028D01*
X91595862Y-128556028D02*
X91595862Y-127056028D01*
X91738720Y-127984600D02*
X92167291Y-128556028D01*
X92167291Y-127556028D02*
X91595862Y-128127457D01*
X92738720Y-128556028D02*
X93095863Y-128556028D01*
X93095863Y-128556028D02*
X93095863Y-128270314D01*
X93095863Y-128270314D02*
X92953006Y-128198885D01*
X92953006Y-128198885D02*
X92810148Y-128056028D01*
X92810148Y-128056028D02*
X92738720Y-127841742D01*
X92738720Y-127841742D02*
X92738720Y-127484600D01*
X92738720Y-127484600D02*
X92810148Y-127270314D01*
X92810148Y-127270314D02*
X92953006Y-127127457D01*
X92953006Y-127127457D02*
X93167291Y-127056028D01*
X93167291Y-127056028D02*
X93453006Y-127056028D01*
X93453006Y-127056028D02*
X93667291Y-127127457D01*
X93667291Y-127127457D02*
X93810148Y-127270314D01*
X93810148Y-127270314D02*
X93881577Y-127484600D01*
X93881577Y-127484600D02*
X93881577Y-127841742D01*
X93881577Y-127841742D02*
X93810148Y-128056028D01*
X93810148Y-128056028D02*
X93667291Y-128198885D01*
X93667291Y-128198885D02*
X93524434Y-128270314D01*
X93524434Y-128270314D02*
X93524434Y-128556028D01*
X93524434Y-128556028D02*
X93881577Y-128556028D01*
X71095863Y-73306028D02*
X72024435Y-73306028D01*
X72024435Y-73306028D02*
X71524435Y-73877457D01*
X71524435Y-73877457D02*
X71738720Y-73877457D01*
X71738720Y-73877457D02*
X71881578Y-73948885D01*
X71881578Y-73948885D02*
X71953006Y-74020314D01*
X71953006Y-74020314D02*
X72024435Y-74163171D01*
X72024435Y-74163171D02*
X72024435Y-74520314D01*
X72024435Y-74520314D02*
X71953006Y-74663171D01*
X71953006Y-74663171D02*
X71881578Y-74734600D01*
X71881578Y-74734600D02*
X71738720Y-74806028D01*
X71738720Y-74806028D02*
X71310149Y-74806028D01*
X71310149Y-74806028D02*
X71167292Y-74734600D01*
X71167292Y-74734600D02*
X71095863Y-74663171D01*
X72953006Y-73306028D02*
X73095863Y-73306028D01*
X73095863Y-73306028D02*
X73238720Y-73377457D01*
X73238720Y-73377457D02*
X73310149Y-73448885D01*
X73310149Y-73448885D02*
X73381577Y-73591742D01*
X73381577Y-73591742D02*
X73453006Y-73877457D01*
X73453006Y-73877457D02*
X73453006Y-74234600D01*
X73453006Y-74234600D02*
X73381577Y-74520314D01*
X73381577Y-74520314D02*
X73310149Y-74663171D01*
X73310149Y-74663171D02*
X73238720Y-74734600D01*
X73238720Y-74734600D02*
X73095863Y-74806028D01*
X73095863Y-74806028D02*
X72953006Y-74806028D01*
X72953006Y-74806028D02*
X72810149Y-74734600D01*
X72810149Y-74734600D02*
X72738720Y-74663171D01*
X72738720Y-74663171D02*
X72667291Y-74520314D01*
X72667291Y-74520314D02*
X72595863Y-74234600D01*
X72595863Y-74234600D02*
X72595863Y-73877457D01*
X72595863Y-73877457D02*
X72667291Y-73591742D01*
X72667291Y-73591742D02*
X72738720Y-73448885D01*
X72738720Y-73448885D02*
X72810149Y-73377457D01*
X72810149Y-73377457D02*
X72953006Y-73306028D01*
X74024434Y-74806028D02*
X74381577Y-74806028D01*
X74381577Y-74806028D02*
X74381577Y-74520314D01*
X74381577Y-74520314D02*
X74238720Y-74448885D01*
X74238720Y-74448885D02*
X74095862Y-74306028D01*
X74095862Y-74306028D02*
X74024434Y-74091742D01*
X74024434Y-74091742D02*
X74024434Y-73734600D01*
X74024434Y-73734600D02*
X74095862Y-73520314D01*
X74095862Y-73520314D02*
X74238720Y-73377457D01*
X74238720Y-73377457D02*
X74453005Y-73306028D01*
X74453005Y-73306028D02*
X74738720Y-73306028D01*
X74738720Y-73306028D02*
X74953005Y-73377457D01*
X74953005Y-73377457D02*
X75095862Y-73520314D01*
X75095862Y-73520314D02*
X75167291Y-73734600D01*
X75167291Y-73734600D02*
X75167291Y-74091742D01*
X75167291Y-74091742D02*
X75095862Y-74306028D01*
X75095862Y-74306028D02*
X74953005Y-74448885D01*
X74953005Y-74448885D02*
X74810148Y-74520314D01*
X74810148Y-74520314D02*
X74810148Y-74806028D01*
X74810148Y-74806028D02*
X75167291Y-74806028D01*
X65895863Y-139392742D02*
X66124435Y-139392742D01*
X66124435Y-139392742D02*
X66238720Y-139449885D01*
X66238720Y-139449885D02*
X66353006Y-139564171D01*
X66353006Y-139564171D02*
X66410149Y-139792742D01*
X66410149Y-139792742D02*
X66410149Y-140192742D01*
X66410149Y-140192742D02*
X66353006Y-140421314D01*
X66353006Y-140421314D02*
X66238720Y-140535600D01*
X66238720Y-140535600D02*
X66124435Y-140592742D01*
X66124435Y-140592742D02*
X65895863Y-140592742D01*
X65895863Y-140592742D02*
X65781578Y-140535600D01*
X65781578Y-140535600D02*
X65667292Y-140421314D01*
X65667292Y-140421314D02*
X65610149Y-140192742D01*
X65610149Y-140192742D02*
X65610149Y-139792742D01*
X65610149Y-139792742D02*
X65667292Y-139564171D01*
X65667292Y-139564171D02*
X65781578Y-139449885D01*
X65781578Y-139449885D02*
X65895863Y-139392742D01*
X67324435Y-139964171D02*
X66924435Y-139964171D01*
X66924435Y-140592742D02*
X66924435Y-139392742D01*
X66924435Y-139392742D02*
X67495863Y-139392742D01*
X68353006Y-139964171D02*
X67953006Y-139964171D01*
X67953006Y-140592742D02*
X67953006Y-139392742D01*
X67953006Y-139392742D02*
X68524434Y-139392742D01*
X66145863Y-111392742D02*
X66374435Y-111392742D01*
X66374435Y-111392742D02*
X66488720Y-111449885D01*
X66488720Y-111449885D02*
X66603006Y-111564171D01*
X66603006Y-111564171D02*
X66660149Y-111792742D01*
X66660149Y-111792742D02*
X66660149Y-112192742D01*
X66660149Y-112192742D02*
X66603006Y-112421314D01*
X66603006Y-112421314D02*
X66488720Y-112535600D01*
X66488720Y-112535600D02*
X66374435Y-112592742D01*
X66374435Y-112592742D02*
X66145863Y-112592742D01*
X66145863Y-112592742D02*
X66031578Y-112535600D01*
X66031578Y-112535600D02*
X65917292Y-112421314D01*
X65917292Y-112421314D02*
X65860149Y-112192742D01*
X65860149Y-112192742D02*
X65860149Y-111792742D01*
X65860149Y-111792742D02*
X65917292Y-111564171D01*
X65917292Y-111564171D02*
X66031578Y-111449885D01*
X66031578Y-111449885D02*
X66145863Y-111392742D01*
X67174435Y-112592742D02*
X67174435Y-111392742D01*
X67174435Y-111392742D02*
X67860149Y-112592742D01*
X67860149Y-112592742D02*
X67860149Y-111392742D01*
X54631578Y-145556028D02*
X54631578Y-146556028D01*
X54274435Y-144984600D02*
X53917292Y-146056028D01*
X53917292Y-146056028D02*
X54845863Y-146056028D01*
X55703006Y-145056028D02*
X55845863Y-145056028D01*
X55845863Y-145056028D02*
X55988720Y-145127457D01*
X55988720Y-145127457D02*
X56060149Y-145198885D01*
X56060149Y-145198885D02*
X56131577Y-145341742D01*
X56131577Y-145341742D02*
X56203006Y-145627457D01*
X56203006Y-145627457D02*
X56203006Y-145984600D01*
X56203006Y-145984600D02*
X56131577Y-146270314D01*
X56131577Y-146270314D02*
X56060149Y-146413171D01*
X56060149Y-146413171D02*
X55988720Y-146484600D01*
X55988720Y-146484600D02*
X55845863Y-146556028D01*
X55845863Y-146556028D02*
X55703006Y-146556028D01*
X55703006Y-146556028D02*
X55560149Y-146484600D01*
X55560149Y-146484600D02*
X55488720Y-146413171D01*
X55488720Y-146413171D02*
X55417291Y-146270314D01*
X55417291Y-146270314D02*
X55345863Y-145984600D01*
X55345863Y-145984600D02*
X55345863Y-145627457D01*
X55345863Y-145627457D02*
X55417291Y-145341742D01*
X55417291Y-145341742D02*
X55488720Y-145198885D01*
X55488720Y-145198885D02*
X55560149Y-145127457D01*
X55560149Y-145127457D02*
X55703006Y-145056028D01*
X57131577Y-145056028D02*
X57274434Y-145056028D01*
X57274434Y-145056028D02*
X57417291Y-145127457D01*
X57417291Y-145127457D02*
X57488720Y-145198885D01*
X57488720Y-145198885D02*
X57560148Y-145341742D01*
X57560148Y-145341742D02*
X57631577Y-145627457D01*
X57631577Y-145627457D02*
X57631577Y-145984600D01*
X57631577Y-145984600D02*
X57560148Y-146270314D01*
X57560148Y-146270314D02*
X57488720Y-146413171D01*
X57488720Y-146413171D02*
X57417291Y-146484600D01*
X57417291Y-146484600D02*
X57274434Y-146556028D01*
X57274434Y-146556028D02*
X57131577Y-146556028D01*
X57131577Y-146556028D02*
X56988720Y-146484600D01*
X56988720Y-146484600D02*
X56917291Y-146413171D01*
X56917291Y-146413171D02*
X56845862Y-146270314D01*
X56845862Y-146270314D02*
X56774434Y-145984600D01*
X56774434Y-145984600D02*
X56774434Y-145627457D01*
X56774434Y-145627457D02*
X56845862Y-145341742D01*
X56845862Y-145341742D02*
X56917291Y-145198885D01*
X56917291Y-145198885D02*
X56988720Y-145127457D01*
X56988720Y-145127457D02*
X57131577Y-145056028D01*
X58274433Y-146556028D02*
X58274433Y-145056028D01*
X58417291Y-145984600D02*
X58845862Y-146556028D01*
X58845862Y-145556028D02*
X58274433Y-146127457D01*
X59417291Y-146556028D02*
X59774434Y-146556028D01*
X59774434Y-146556028D02*
X59774434Y-146270314D01*
X59774434Y-146270314D02*
X59631577Y-146198885D01*
X59631577Y-146198885D02*
X59488719Y-146056028D01*
X59488719Y-146056028D02*
X59417291Y-145841742D01*
X59417291Y-145841742D02*
X59417291Y-145484600D01*
X59417291Y-145484600D02*
X59488719Y-145270314D01*
X59488719Y-145270314D02*
X59631577Y-145127457D01*
X59631577Y-145127457D02*
X59845862Y-145056028D01*
X59845862Y-145056028D02*
X60131577Y-145056028D01*
X60131577Y-145056028D02*
X60345862Y-145127457D01*
X60345862Y-145127457D02*
X60488719Y-145270314D01*
X60488719Y-145270314D02*
X60560148Y-145484600D01*
X60560148Y-145484600D02*
X60560148Y-145841742D01*
X60560148Y-145841742D02*
X60488719Y-146056028D01*
X60488719Y-146056028D02*
X60345862Y-146198885D01*
X60345862Y-146198885D02*
X60203005Y-146270314D01*
X60203005Y-146270314D02*
X60203005Y-146556028D01*
X60203005Y-146556028D02*
X60560148Y-146556028D01*
X100895863Y-67392742D02*
X101124435Y-67392742D01*
X101124435Y-67392742D02*
X101238720Y-67449885D01*
X101238720Y-67449885D02*
X101353006Y-67564171D01*
X101353006Y-67564171D02*
X101410149Y-67792742D01*
X101410149Y-67792742D02*
X101410149Y-68192742D01*
X101410149Y-68192742D02*
X101353006Y-68421314D01*
X101353006Y-68421314D02*
X101238720Y-68535600D01*
X101238720Y-68535600D02*
X101124435Y-68592742D01*
X101124435Y-68592742D02*
X100895863Y-68592742D01*
X100895863Y-68592742D02*
X100781578Y-68535600D01*
X100781578Y-68535600D02*
X100667292Y-68421314D01*
X100667292Y-68421314D02*
X100610149Y-68192742D01*
X100610149Y-68192742D02*
X100610149Y-67792742D01*
X100610149Y-67792742D02*
X100667292Y-67564171D01*
X100667292Y-67564171D02*
X100781578Y-67449885D01*
X100781578Y-67449885D02*
X100895863Y-67392742D01*
X102324435Y-67964171D02*
X101924435Y-67964171D01*
X101924435Y-68592742D02*
X101924435Y-67392742D01*
X101924435Y-67392742D02*
X102495863Y-67392742D01*
X103353006Y-67964171D02*
X102953006Y-67964171D01*
X102953006Y-68592742D02*
X102953006Y-67392742D01*
X102953006Y-67392742D02*
X103524434Y-67392742D01*
X101395863Y-129142742D02*
X101624435Y-129142742D01*
X101624435Y-129142742D02*
X101738720Y-129199885D01*
X101738720Y-129199885D02*
X101853006Y-129314171D01*
X101853006Y-129314171D02*
X101910149Y-129542742D01*
X101910149Y-129542742D02*
X101910149Y-129942742D01*
X101910149Y-129942742D02*
X101853006Y-130171314D01*
X101853006Y-130171314D02*
X101738720Y-130285600D01*
X101738720Y-130285600D02*
X101624435Y-130342742D01*
X101624435Y-130342742D02*
X101395863Y-130342742D01*
X101395863Y-130342742D02*
X101281578Y-130285600D01*
X101281578Y-130285600D02*
X101167292Y-130171314D01*
X101167292Y-130171314D02*
X101110149Y-129942742D01*
X101110149Y-129942742D02*
X101110149Y-129542742D01*
X101110149Y-129542742D02*
X101167292Y-129314171D01*
X101167292Y-129314171D02*
X101281578Y-129199885D01*
X101281578Y-129199885D02*
X101395863Y-129142742D01*
X102424435Y-130342742D02*
X102424435Y-129142742D01*
X102424435Y-129142742D02*
X103110149Y-130342742D01*
X103110149Y-130342742D02*
X103110149Y-129142742D01*
X107024435Y-110556028D02*
X106167292Y-110556028D01*
X106595863Y-110556028D02*
X106595863Y-109056028D01*
X106595863Y-109056028D02*
X106453006Y-109270314D01*
X106453006Y-109270314D02*
X106310149Y-109413171D01*
X106310149Y-109413171D02*
X106167292Y-109484600D01*
X107667291Y-110556028D02*
X107667291Y-109056028D01*
X107810149Y-109984600D02*
X108238720Y-110556028D01*
X108238720Y-109556028D02*
X107667291Y-110127457D01*
X108810149Y-110556028D02*
X109167292Y-110556028D01*
X109167292Y-110556028D02*
X109167292Y-110270314D01*
X109167292Y-110270314D02*
X109024435Y-110198885D01*
X109024435Y-110198885D02*
X108881577Y-110056028D01*
X108881577Y-110056028D02*
X108810149Y-109841742D01*
X108810149Y-109841742D02*
X108810149Y-109484600D01*
X108810149Y-109484600D02*
X108881577Y-109270314D01*
X108881577Y-109270314D02*
X109024435Y-109127457D01*
X109024435Y-109127457D02*
X109238720Y-109056028D01*
X109238720Y-109056028D02*
X109524435Y-109056028D01*
X109524435Y-109056028D02*
X109738720Y-109127457D01*
X109738720Y-109127457D02*
X109881577Y-109270314D01*
X109881577Y-109270314D02*
X109953006Y-109484600D01*
X109953006Y-109484600D02*
X109953006Y-109841742D01*
X109953006Y-109841742D02*
X109881577Y-110056028D01*
X109881577Y-110056028D02*
X109738720Y-110198885D01*
X109738720Y-110198885D02*
X109595863Y-110270314D01*
X109595863Y-110270314D02*
X109595863Y-110556028D01*
X109595863Y-110556028D02*
X109953006Y-110556028D01*
X66145863Y-129392742D02*
X66374435Y-129392742D01*
X66374435Y-129392742D02*
X66488720Y-129449885D01*
X66488720Y-129449885D02*
X66603006Y-129564171D01*
X66603006Y-129564171D02*
X66660149Y-129792742D01*
X66660149Y-129792742D02*
X66660149Y-130192742D01*
X66660149Y-130192742D02*
X66603006Y-130421314D01*
X66603006Y-130421314D02*
X66488720Y-130535600D01*
X66488720Y-130535600D02*
X66374435Y-130592742D01*
X66374435Y-130592742D02*
X66145863Y-130592742D01*
X66145863Y-130592742D02*
X66031578Y-130535600D01*
X66031578Y-130535600D02*
X65917292Y-130421314D01*
X65917292Y-130421314D02*
X65860149Y-130192742D01*
X65860149Y-130192742D02*
X65860149Y-129792742D01*
X65860149Y-129792742D02*
X65917292Y-129564171D01*
X65917292Y-129564171D02*
X66031578Y-129449885D01*
X66031578Y-129449885D02*
X66145863Y-129392742D01*
X67174435Y-130592742D02*
X67174435Y-129392742D01*
X67174435Y-129392742D02*
X67860149Y-130592742D01*
X67860149Y-130592742D02*
X67860149Y-129392742D01*
X54131578Y-91806028D02*
X54131578Y-92806028D01*
X53774435Y-91234600D02*
X53417292Y-92306028D01*
X53417292Y-92306028D02*
X54345863Y-92306028D01*
X55203006Y-91306028D02*
X55345863Y-91306028D01*
X55345863Y-91306028D02*
X55488720Y-91377457D01*
X55488720Y-91377457D02*
X55560149Y-91448885D01*
X55560149Y-91448885D02*
X55631577Y-91591742D01*
X55631577Y-91591742D02*
X55703006Y-91877457D01*
X55703006Y-91877457D02*
X55703006Y-92234600D01*
X55703006Y-92234600D02*
X55631577Y-92520314D01*
X55631577Y-92520314D02*
X55560149Y-92663171D01*
X55560149Y-92663171D02*
X55488720Y-92734600D01*
X55488720Y-92734600D02*
X55345863Y-92806028D01*
X55345863Y-92806028D02*
X55203006Y-92806028D01*
X55203006Y-92806028D02*
X55060149Y-92734600D01*
X55060149Y-92734600D02*
X54988720Y-92663171D01*
X54988720Y-92663171D02*
X54917291Y-92520314D01*
X54917291Y-92520314D02*
X54845863Y-92234600D01*
X54845863Y-92234600D02*
X54845863Y-91877457D01*
X54845863Y-91877457D02*
X54917291Y-91591742D01*
X54917291Y-91591742D02*
X54988720Y-91448885D01*
X54988720Y-91448885D02*
X55060149Y-91377457D01*
X55060149Y-91377457D02*
X55203006Y-91306028D01*
X56631577Y-91306028D02*
X56774434Y-91306028D01*
X56774434Y-91306028D02*
X56917291Y-91377457D01*
X56917291Y-91377457D02*
X56988720Y-91448885D01*
X56988720Y-91448885D02*
X57060148Y-91591742D01*
X57060148Y-91591742D02*
X57131577Y-91877457D01*
X57131577Y-91877457D02*
X57131577Y-92234600D01*
X57131577Y-92234600D02*
X57060148Y-92520314D01*
X57060148Y-92520314D02*
X56988720Y-92663171D01*
X56988720Y-92663171D02*
X56917291Y-92734600D01*
X56917291Y-92734600D02*
X56774434Y-92806028D01*
X56774434Y-92806028D02*
X56631577Y-92806028D01*
X56631577Y-92806028D02*
X56488720Y-92734600D01*
X56488720Y-92734600D02*
X56417291Y-92663171D01*
X56417291Y-92663171D02*
X56345862Y-92520314D01*
X56345862Y-92520314D02*
X56274434Y-92234600D01*
X56274434Y-92234600D02*
X56274434Y-91877457D01*
X56274434Y-91877457D02*
X56345862Y-91591742D01*
X56345862Y-91591742D02*
X56417291Y-91448885D01*
X56417291Y-91448885D02*
X56488720Y-91377457D01*
X56488720Y-91377457D02*
X56631577Y-91306028D01*
X57703005Y-92806028D02*
X58060148Y-92806028D01*
X58060148Y-92806028D02*
X58060148Y-92520314D01*
X58060148Y-92520314D02*
X57917291Y-92448885D01*
X57917291Y-92448885D02*
X57774433Y-92306028D01*
X57774433Y-92306028D02*
X57703005Y-92091742D01*
X57703005Y-92091742D02*
X57703005Y-91734600D01*
X57703005Y-91734600D02*
X57774433Y-91520314D01*
X57774433Y-91520314D02*
X57917291Y-91377457D01*
X57917291Y-91377457D02*
X58131576Y-91306028D01*
X58131576Y-91306028D02*
X58417291Y-91306028D01*
X58417291Y-91306028D02*
X58631576Y-91377457D01*
X58631576Y-91377457D02*
X58774433Y-91520314D01*
X58774433Y-91520314D02*
X58845862Y-91734600D01*
X58845862Y-91734600D02*
X58845862Y-92091742D01*
X58845862Y-92091742D02*
X58774433Y-92306028D01*
X58774433Y-92306028D02*
X58631576Y-92448885D01*
X58631576Y-92448885D02*
X58488719Y-92520314D01*
X58488719Y-92520314D02*
X58488719Y-92806028D01*
X58488719Y-92806028D02*
X58845862Y-92806028D01*
X100895863Y-85392742D02*
X101124435Y-85392742D01*
X101124435Y-85392742D02*
X101238720Y-85449885D01*
X101238720Y-85449885D02*
X101353006Y-85564171D01*
X101353006Y-85564171D02*
X101410149Y-85792742D01*
X101410149Y-85792742D02*
X101410149Y-86192742D01*
X101410149Y-86192742D02*
X101353006Y-86421314D01*
X101353006Y-86421314D02*
X101238720Y-86535600D01*
X101238720Y-86535600D02*
X101124435Y-86592742D01*
X101124435Y-86592742D02*
X100895863Y-86592742D01*
X100895863Y-86592742D02*
X100781578Y-86535600D01*
X100781578Y-86535600D02*
X100667292Y-86421314D01*
X100667292Y-86421314D02*
X100610149Y-86192742D01*
X100610149Y-86192742D02*
X100610149Y-85792742D01*
X100610149Y-85792742D02*
X100667292Y-85564171D01*
X100667292Y-85564171D02*
X100781578Y-85449885D01*
X100781578Y-85449885D02*
X100895863Y-85392742D01*
X102324435Y-85964171D02*
X101924435Y-85964171D01*
X101924435Y-86592742D02*
X101924435Y-85392742D01*
X101924435Y-85392742D02*
X102495863Y-85392742D01*
X103353006Y-85964171D02*
X102953006Y-85964171D01*
X102953006Y-86592742D02*
X102953006Y-85392742D01*
X102953006Y-85392742D02*
X103524434Y-85392742D01*
X107524435Y-56056028D02*
X106667292Y-56056028D01*
X107095863Y-56056028D02*
X107095863Y-54556028D01*
X107095863Y-54556028D02*
X106953006Y-54770314D01*
X106953006Y-54770314D02*
X106810149Y-54913171D01*
X106810149Y-54913171D02*
X106667292Y-54984600D01*
X108095863Y-56056028D02*
X108453006Y-56056028D01*
X108453006Y-56056028D02*
X108453006Y-55770314D01*
X108453006Y-55770314D02*
X108310149Y-55698885D01*
X108310149Y-55698885D02*
X108167291Y-55556028D01*
X108167291Y-55556028D02*
X108095863Y-55341742D01*
X108095863Y-55341742D02*
X108095863Y-54984600D01*
X108095863Y-54984600D02*
X108167291Y-54770314D01*
X108167291Y-54770314D02*
X108310149Y-54627457D01*
X108310149Y-54627457D02*
X108524434Y-54556028D01*
X108524434Y-54556028D02*
X108810149Y-54556028D01*
X108810149Y-54556028D02*
X109024434Y-54627457D01*
X109024434Y-54627457D02*
X109167291Y-54770314D01*
X109167291Y-54770314D02*
X109238720Y-54984600D01*
X109238720Y-54984600D02*
X109238720Y-55341742D01*
X109238720Y-55341742D02*
X109167291Y-55556028D01*
X109167291Y-55556028D02*
X109024434Y-55698885D01*
X109024434Y-55698885D02*
X108881577Y-55770314D01*
X108881577Y-55770314D02*
X108881577Y-56056028D01*
X108881577Y-56056028D02*
X109238720Y-56056028D01*
X66145863Y-93142742D02*
X66374435Y-93142742D01*
X66374435Y-93142742D02*
X66488720Y-93199885D01*
X66488720Y-93199885D02*
X66603006Y-93314171D01*
X66603006Y-93314171D02*
X66660149Y-93542742D01*
X66660149Y-93542742D02*
X66660149Y-93942742D01*
X66660149Y-93942742D02*
X66603006Y-94171314D01*
X66603006Y-94171314D02*
X66488720Y-94285600D01*
X66488720Y-94285600D02*
X66374435Y-94342742D01*
X66374435Y-94342742D02*
X66145863Y-94342742D01*
X66145863Y-94342742D02*
X66031578Y-94285600D01*
X66031578Y-94285600D02*
X65917292Y-94171314D01*
X65917292Y-94171314D02*
X65860149Y-93942742D01*
X65860149Y-93942742D02*
X65860149Y-93542742D01*
X65860149Y-93542742D02*
X65917292Y-93314171D01*
X65917292Y-93314171D02*
X66031578Y-93199885D01*
X66031578Y-93199885D02*
X66145863Y-93142742D01*
X67174435Y-94342742D02*
X67174435Y-93142742D01*
X67174435Y-93142742D02*
X67860149Y-94342742D01*
X67860149Y-94342742D02*
X67860149Y-93142742D01*
X54131578Y-55556028D02*
X54131578Y-56556028D01*
X53774435Y-54984600D02*
X53417292Y-56056028D01*
X53417292Y-56056028D02*
X54345863Y-56056028D01*
X54845863Y-56556028D02*
X55203006Y-56556028D01*
X55203006Y-56556028D02*
X55203006Y-56270314D01*
X55203006Y-56270314D02*
X55060149Y-56198885D01*
X55060149Y-56198885D02*
X54917291Y-56056028D01*
X54917291Y-56056028D02*
X54845863Y-55841742D01*
X54845863Y-55841742D02*
X54845863Y-55484600D01*
X54845863Y-55484600D02*
X54917291Y-55270314D01*
X54917291Y-55270314D02*
X55060149Y-55127457D01*
X55060149Y-55127457D02*
X55274434Y-55056028D01*
X55274434Y-55056028D02*
X55560149Y-55056028D01*
X55560149Y-55056028D02*
X55774434Y-55127457D01*
X55774434Y-55127457D02*
X55917291Y-55270314D01*
X55917291Y-55270314D02*
X55988720Y-55484600D01*
X55988720Y-55484600D02*
X55988720Y-55841742D01*
X55988720Y-55841742D02*
X55917291Y-56056028D01*
X55917291Y-56056028D02*
X55774434Y-56198885D01*
X55774434Y-56198885D02*
X55631577Y-56270314D01*
X55631577Y-56270314D02*
X55631577Y-56556028D01*
X55631577Y-56556028D02*
X55988720Y-56556028D01*
X101145863Y-147142742D02*
X101374435Y-147142742D01*
X101374435Y-147142742D02*
X101488720Y-147199885D01*
X101488720Y-147199885D02*
X101603006Y-147314171D01*
X101603006Y-147314171D02*
X101660149Y-147542742D01*
X101660149Y-147542742D02*
X101660149Y-147942742D01*
X101660149Y-147942742D02*
X101603006Y-148171314D01*
X101603006Y-148171314D02*
X101488720Y-148285600D01*
X101488720Y-148285600D02*
X101374435Y-148342742D01*
X101374435Y-148342742D02*
X101145863Y-148342742D01*
X101145863Y-148342742D02*
X101031578Y-148285600D01*
X101031578Y-148285600D02*
X100917292Y-148171314D01*
X100917292Y-148171314D02*
X100860149Y-147942742D01*
X100860149Y-147942742D02*
X100860149Y-147542742D01*
X100860149Y-147542742D02*
X100917292Y-147314171D01*
X100917292Y-147314171D02*
X101031578Y-147199885D01*
X101031578Y-147199885D02*
X101145863Y-147142742D01*
X102174435Y-148342742D02*
X102174435Y-147142742D01*
X102174435Y-147142742D02*
X102860149Y-148342742D01*
X102860149Y-148342742D02*
X102860149Y-147142742D01*
X83645863Y-103142742D02*
X83874435Y-103142742D01*
X83874435Y-103142742D02*
X83988720Y-103199885D01*
X83988720Y-103199885D02*
X84103006Y-103314171D01*
X84103006Y-103314171D02*
X84160149Y-103542742D01*
X84160149Y-103542742D02*
X84160149Y-103942742D01*
X84160149Y-103942742D02*
X84103006Y-104171314D01*
X84103006Y-104171314D02*
X83988720Y-104285600D01*
X83988720Y-104285600D02*
X83874435Y-104342742D01*
X83874435Y-104342742D02*
X83645863Y-104342742D01*
X83645863Y-104342742D02*
X83531578Y-104285600D01*
X83531578Y-104285600D02*
X83417292Y-104171314D01*
X83417292Y-104171314D02*
X83360149Y-103942742D01*
X83360149Y-103942742D02*
X83360149Y-103542742D01*
X83360149Y-103542742D02*
X83417292Y-103314171D01*
X83417292Y-103314171D02*
X83531578Y-103199885D01*
X83531578Y-103199885D02*
X83645863Y-103142742D01*
X85074435Y-103714171D02*
X84674435Y-103714171D01*
X84674435Y-104342742D02*
X84674435Y-103142742D01*
X84674435Y-103142742D02*
X85245863Y-103142742D01*
X86103006Y-103714171D02*
X85703006Y-103714171D01*
X85703006Y-104342742D02*
X85703006Y-103142742D01*
X85703006Y-103142742D02*
X86274434Y-103142742D01*
X101145863Y-139142742D02*
X101374435Y-139142742D01*
X101374435Y-139142742D02*
X101488720Y-139199885D01*
X101488720Y-139199885D02*
X101603006Y-139314171D01*
X101603006Y-139314171D02*
X101660149Y-139542742D01*
X101660149Y-139542742D02*
X101660149Y-139942742D01*
X101660149Y-139942742D02*
X101603006Y-140171314D01*
X101603006Y-140171314D02*
X101488720Y-140285600D01*
X101488720Y-140285600D02*
X101374435Y-140342742D01*
X101374435Y-140342742D02*
X101145863Y-140342742D01*
X101145863Y-140342742D02*
X101031578Y-140285600D01*
X101031578Y-140285600D02*
X100917292Y-140171314D01*
X100917292Y-140171314D02*
X100860149Y-139942742D01*
X100860149Y-139942742D02*
X100860149Y-139542742D01*
X100860149Y-139542742D02*
X100917292Y-139314171D01*
X100917292Y-139314171D02*
X101031578Y-139199885D01*
X101031578Y-139199885D02*
X101145863Y-139142742D01*
X102574435Y-139714171D02*
X102174435Y-139714171D01*
X102174435Y-140342742D02*
X102174435Y-139142742D01*
X102174435Y-139142742D02*
X102745863Y-139142742D01*
X103603006Y-139714171D02*
X103203006Y-139714171D01*
X103203006Y-140342742D02*
X103203006Y-139142742D01*
X103203006Y-139142742D02*
X103774434Y-139142742D01*
X83645863Y-111142742D02*
X83874435Y-111142742D01*
X83874435Y-111142742D02*
X83988720Y-111199885D01*
X83988720Y-111199885D02*
X84103006Y-111314171D01*
X84103006Y-111314171D02*
X84160149Y-111542742D01*
X84160149Y-111542742D02*
X84160149Y-111942742D01*
X84160149Y-111942742D02*
X84103006Y-112171314D01*
X84103006Y-112171314D02*
X83988720Y-112285600D01*
X83988720Y-112285600D02*
X83874435Y-112342742D01*
X83874435Y-112342742D02*
X83645863Y-112342742D01*
X83645863Y-112342742D02*
X83531578Y-112285600D01*
X83531578Y-112285600D02*
X83417292Y-112171314D01*
X83417292Y-112171314D02*
X83360149Y-111942742D01*
X83360149Y-111942742D02*
X83360149Y-111542742D01*
X83360149Y-111542742D02*
X83417292Y-111314171D01*
X83417292Y-111314171D02*
X83531578Y-111199885D01*
X83531578Y-111199885D02*
X83645863Y-111142742D01*
X84674435Y-112342742D02*
X84674435Y-111142742D01*
X84674435Y-111142742D02*
X85360149Y-112342742D01*
X85360149Y-112342742D02*
X85360149Y-111142742D01*
X88417292Y-91448885D02*
X88488720Y-91377457D01*
X88488720Y-91377457D02*
X88631578Y-91306028D01*
X88631578Y-91306028D02*
X88988720Y-91306028D01*
X88988720Y-91306028D02*
X89131578Y-91377457D01*
X89131578Y-91377457D02*
X89203006Y-91448885D01*
X89203006Y-91448885D02*
X89274435Y-91591742D01*
X89274435Y-91591742D02*
X89274435Y-91734600D01*
X89274435Y-91734600D02*
X89203006Y-91948885D01*
X89203006Y-91948885D02*
X88345863Y-92806028D01*
X88345863Y-92806028D02*
X89274435Y-92806028D01*
X90203006Y-91306028D02*
X90345863Y-91306028D01*
X90345863Y-91306028D02*
X90488720Y-91377457D01*
X90488720Y-91377457D02*
X90560149Y-91448885D01*
X90560149Y-91448885D02*
X90631577Y-91591742D01*
X90631577Y-91591742D02*
X90703006Y-91877457D01*
X90703006Y-91877457D02*
X90703006Y-92234600D01*
X90703006Y-92234600D02*
X90631577Y-92520314D01*
X90631577Y-92520314D02*
X90560149Y-92663171D01*
X90560149Y-92663171D02*
X90488720Y-92734600D01*
X90488720Y-92734600D02*
X90345863Y-92806028D01*
X90345863Y-92806028D02*
X90203006Y-92806028D01*
X90203006Y-92806028D02*
X90060149Y-92734600D01*
X90060149Y-92734600D02*
X89988720Y-92663171D01*
X89988720Y-92663171D02*
X89917291Y-92520314D01*
X89917291Y-92520314D02*
X89845863Y-92234600D01*
X89845863Y-92234600D02*
X89845863Y-91877457D01*
X89845863Y-91877457D02*
X89917291Y-91591742D01*
X89917291Y-91591742D02*
X89988720Y-91448885D01*
X89988720Y-91448885D02*
X90060149Y-91377457D01*
X90060149Y-91377457D02*
X90203006Y-91306028D01*
X91631577Y-91306028D02*
X91774434Y-91306028D01*
X91774434Y-91306028D02*
X91917291Y-91377457D01*
X91917291Y-91377457D02*
X91988720Y-91448885D01*
X91988720Y-91448885D02*
X92060148Y-91591742D01*
X92060148Y-91591742D02*
X92131577Y-91877457D01*
X92131577Y-91877457D02*
X92131577Y-92234600D01*
X92131577Y-92234600D02*
X92060148Y-92520314D01*
X92060148Y-92520314D02*
X91988720Y-92663171D01*
X91988720Y-92663171D02*
X91917291Y-92734600D01*
X91917291Y-92734600D02*
X91774434Y-92806028D01*
X91774434Y-92806028D02*
X91631577Y-92806028D01*
X91631577Y-92806028D02*
X91488720Y-92734600D01*
X91488720Y-92734600D02*
X91417291Y-92663171D01*
X91417291Y-92663171D02*
X91345862Y-92520314D01*
X91345862Y-92520314D02*
X91274434Y-92234600D01*
X91274434Y-92234600D02*
X91274434Y-91877457D01*
X91274434Y-91877457D02*
X91345862Y-91591742D01*
X91345862Y-91591742D02*
X91417291Y-91448885D01*
X91417291Y-91448885D02*
X91488720Y-91377457D01*
X91488720Y-91377457D02*
X91631577Y-91306028D01*
X92703005Y-92806028D02*
X93060148Y-92806028D01*
X93060148Y-92806028D02*
X93060148Y-92520314D01*
X93060148Y-92520314D02*
X92917291Y-92448885D01*
X92917291Y-92448885D02*
X92774433Y-92306028D01*
X92774433Y-92306028D02*
X92703005Y-92091742D01*
X92703005Y-92091742D02*
X92703005Y-91734600D01*
X92703005Y-91734600D02*
X92774433Y-91520314D01*
X92774433Y-91520314D02*
X92917291Y-91377457D01*
X92917291Y-91377457D02*
X93131576Y-91306028D01*
X93131576Y-91306028D02*
X93417291Y-91306028D01*
X93417291Y-91306028D02*
X93631576Y-91377457D01*
X93631576Y-91377457D02*
X93774433Y-91520314D01*
X93774433Y-91520314D02*
X93845862Y-91734600D01*
X93845862Y-91734600D02*
X93845862Y-92091742D01*
X93845862Y-92091742D02*
X93774433Y-92306028D01*
X93774433Y-92306028D02*
X93631576Y-92448885D01*
X93631576Y-92448885D02*
X93488719Y-92520314D01*
X93488719Y-92520314D02*
X93488719Y-92806028D01*
X93488719Y-92806028D02*
X93845862Y-92806028D01*
X71095863Y-127056028D02*
X72024435Y-127056028D01*
X72024435Y-127056028D02*
X71524435Y-127627457D01*
X71524435Y-127627457D02*
X71738720Y-127627457D01*
X71738720Y-127627457D02*
X71881578Y-127698885D01*
X71881578Y-127698885D02*
X71953006Y-127770314D01*
X71953006Y-127770314D02*
X72024435Y-127913171D01*
X72024435Y-127913171D02*
X72024435Y-128270314D01*
X72024435Y-128270314D02*
X71953006Y-128413171D01*
X71953006Y-128413171D02*
X71881578Y-128484600D01*
X71881578Y-128484600D02*
X71738720Y-128556028D01*
X71738720Y-128556028D02*
X71310149Y-128556028D01*
X71310149Y-128556028D02*
X71167292Y-128484600D01*
X71167292Y-128484600D02*
X71095863Y-128413171D01*
X72953006Y-127056028D02*
X73095863Y-127056028D01*
X73095863Y-127056028D02*
X73238720Y-127127457D01*
X73238720Y-127127457D02*
X73310149Y-127198885D01*
X73310149Y-127198885D02*
X73381577Y-127341742D01*
X73381577Y-127341742D02*
X73453006Y-127627457D01*
X73453006Y-127627457D02*
X73453006Y-127984600D01*
X73453006Y-127984600D02*
X73381577Y-128270314D01*
X73381577Y-128270314D02*
X73310149Y-128413171D01*
X73310149Y-128413171D02*
X73238720Y-128484600D01*
X73238720Y-128484600D02*
X73095863Y-128556028D01*
X73095863Y-128556028D02*
X72953006Y-128556028D01*
X72953006Y-128556028D02*
X72810149Y-128484600D01*
X72810149Y-128484600D02*
X72738720Y-128413171D01*
X72738720Y-128413171D02*
X72667291Y-128270314D01*
X72667291Y-128270314D02*
X72595863Y-127984600D01*
X72595863Y-127984600D02*
X72595863Y-127627457D01*
X72595863Y-127627457D02*
X72667291Y-127341742D01*
X72667291Y-127341742D02*
X72738720Y-127198885D01*
X72738720Y-127198885D02*
X72810149Y-127127457D01*
X72810149Y-127127457D02*
X72953006Y-127056028D01*
X74095862Y-128556028D02*
X74095862Y-127056028D01*
X74238720Y-127984600D02*
X74667291Y-128556028D01*
X74667291Y-127556028D02*
X74095862Y-128127457D01*
X75238720Y-128556028D02*
X75595863Y-128556028D01*
X75595863Y-128556028D02*
X75595863Y-128270314D01*
X75595863Y-128270314D02*
X75453006Y-128198885D01*
X75453006Y-128198885D02*
X75310148Y-128056028D01*
X75310148Y-128056028D02*
X75238720Y-127841742D01*
X75238720Y-127841742D02*
X75238720Y-127484600D01*
X75238720Y-127484600D02*
X75310148Y-127270314D01*
X75310148Y-127270314D02*
X75453006Y-127127457D01*
X75453006Y-127127457D02*
X75667291Y-127056028D01*
X75667291Y-127056028D02*
X75953006Y-127056028D01*
X75953006Y-127056028D02*
X76167291Y-127127457D01*
X76167291Y-127127457D02*
X76310148Y-127270314D01*
X76310148Y-127270314D02*
X76381577Y-127484600D01*
X76381577Y-127484600D02*
X76381577Y-127841742D01*
X76381577Y-127841742D02*
X76310148Y-128056028D01*
X76310148Y-128056028D02*
X76167291Y-128198885D01*
X76167291Y-128198885D02*
X76024434Y-128270314D01*
X76024434Y-128270314D02*
X76024434Y-128556028D01*
X76024434Y-128556028D02*
X76381577Y-128556028D01*
X107274435Y-146556028D02*
X106417292Y-146556028D01*
X106845863Y-146556028D02*
X106845863Y-145056028D01*
X106845863Y-145056028D02*
X106703006Y-145270314D01*
X106703006Y-145270314D02*
X106560149Y-145413171D01*
X106560149Y-145413171D02*
X106417292Y-145484600D01*
X108203006Y-145056028D02*
X108345863Y-145056028D01*
X108345863Y-145056028D02*
X108488720Y-145127457D01*
X108488720Y-145127457D02*
X108560149Y-145198885D01*
X108560149Y-145198885D02*
X108631577Y-145341742D01*
X108631577Y-145341742D02*
X108703006Y-145627457D01*
X108703006Y-145627457D02*
X108703006Y-145984600D01*
X108703006Y-145984600D02*
X108631577Y-146270314D01*
X108631577Y-146270314D02*
X108560149Y-146413171D01*
X108560149Y-146413171D02*
X108488720Y-146484600D01*
X108488720Y-146484600D02*
X108345863Y-146556028D01*
X108345863Y-146556028D02*
X108203006Y-146556028D01*
X108203006Y-146556028D02*
X108060149Y-146484600D01*
X108060149Y-146484600D02*
X107988720Y-146413171D01*
X107988720Y-146413171D02*
X107917291Y-146270314D01*
X107917291Y-146270314D02*
X107845863Y-145984600D01*
X107845863Y-145984600D02*
X107845863Y-145627457D01*
X107845863Y-145627457D02*
X107917291Y-145341742D01*
X107917291Y-145341742D02*
X107988720Y-145198885D01*
X107988720Y-145198885D02*
X108060149Y-145127457D01*
X108060149Y-145127457D02*
X108203006Y-145056028D01*
X109631577Y-145056028D02*
X109774434Y-145056028D01*
X109774434Y-145056028D02*
X109917291Y-145127457D01*
X109917291Y-145127457D02*
X109988720Y-145198885D01*
X109988720Y-145198885D02*
X110060148Y-145341742D01*
X110060148Y-145341742D02*
X110131577Y-145627457D01*
X110131577Y-145627457D02*
X110131577Y-145984600D01*
X110131577Y-145984600D02*
X110060148Y-146270314D01*
X110060148Y-146270314D02*
X109988720Y-146413171D01*
X109988720Y-146413171D02*
X109917291Y-146484600D01*
X109917291Y-146484600D02*
X109774434Y-146556028D01*
X109774434Y-146556028D02*
X109631577Y-146556028D01*
X109631577Y-146556028D02*
X109488720Y-146484600D01*
X109488720Y-146484600D02*
X109417291Y-146413171D01*
X109417291Y-146413171D02*
X109345862Y-146270314D01*
X109345862Y-146270314D02*
X109274434Y-145984600D01*
X109274434Y-145984600D02*
X109274434Y-145627457D01*
X109274434Y-145627457D02*
X109345862Y-145341742D01*
X109345862Y-145341742D02*
X109417291Y-145198885D01*
X109417291Y-145198885D02*
X109488720Y-145127457D01*
X109488720Y-145127457D02*
X109631577Y-145056028D01*
X110774433Y-146556028D02*
X110774433Y-145056028D01*
X110917291Y-145984600D02*
X111345862Y-146556028D01*
X111345862Y-145556028D02*
X110774433Y-146127457D01*
X111917291Y-146556028D02*
X112274434Y-146556028D01*
X112274434Y-146556028D02*
X112274434Y-146270314D01*
X112274434Y-146270314D02*
X112131577Y-146198885D01*
X112131577Y-146198885D02*
X111988719Y-146056028D01*
X111988719Y-146056028D02*
X111917291Y-145841742D01*
X111917291Y-145841742D02*
X111917291Y-145484600D01*
X111917291Y-145484600D02*
X111988719Y-145270314D01*
X111988719Y-145270314D02*
X112131577Y-145127457D01*
X112131577Y-145127457D02*
X112345862Y-145056028D01*
X112345862Y-145056028D02*
X112631577Y-145056028D01*
X112631577Y-145056028D02*
X112845862Y-145127457D01*
X112845862Y-145127457D02*
X112988719Y-145270314D01*
X112988719Y-145270314D02*
X113060148Y-145484600D01*
X113060148Y-145484600D02*
X113060148Y-145841742D01*
X113060148Y-145841742D02*
X112988719Y-146056028D01*
X112988719Y-146056028D02*
X112845862Y-146198885D01*
X112845862Y-146198885D02*
X112703005Y-146270314D01*
X112703005Y-146270314D02*
X112703005Y-146556028D01*
X112703005Y-146556028D02*
X113060148Y-146556028D01*
X83395863Y-139142742D02*
X83624435Y-139142742D01*
X83624435Y-139142742D02*
X83738720Y-139199885D01*
X83738720Y-139199885D02*
X83853006Y-139314171D01*
X83853006Y-139314171D02*
X83910149Y-139542742D01*
X83910149Y-139542742D02*
X83910149Y-139942742D01*
X83910149Y-139942742D02*
X83853006Y-140171314D01*
X83853006Y-140171314D02*
X83738720Y-140285600D01*
X83738720Y-140285600D02*
X83624435Y-140342742D01*
X83624435Y-140342742D02*
X83395863Y-140342742D01*
X83395863Y-140342742D02*
X83281578Y-140285600D01*
X83281578Y-140285600D02*
X83167292Y-140171314D01*
X83167292Y-140171314D02*
X83110149Y-139942742D01*
X83110149Y-139942742D02*
X83110149Y-139542742D01*
X83110149Y-139542742D02*
X83167292Y-139314171D01*
X83167292Y-139314171D02*
X83281578Y-139199885D01*
X83281578Y-139199885D02*
X83395863Y-139142742D01*
X84824435Y-139714171D02*
X84424435Y-139714171D01*
X84424435Y-140342742D02*
X84424435Y-139142742D01*
X84424435Y-139142742D02*
X84995863Y-139142742D01*
X85853006Y-139714171D02*
X85453006Y-139714171D01*
X85453006Y-140342742D02*
X85453006Y-139142742D01*
X85453006Y-139142742D02*
X86024434Y-139142742D01*
X83645863Y-129142742D02*
X83874435Y-129142742D01*
X83874435Y-129142742D02*
X83988720Y-129199885D01*
X83988720Y-129199885D02*
X84103006Y-129314171D01*
X84103006Y-129314171D02*
X84160149Y-129542742D01*
X84160149Y-129542742D02*
X84160149Y-129942742D01*
X84160149Y-129942742D02*
X84103006Y-130171314D01*
X84103006Y-130171314D02*
X83988720Y-130285600D01*
X83988720Y-130285600D02*
X83874435Y-130342742D01*
X83874435Y-130342742D02*
X83645863Y-130342742D01*
X83645863Y-130342742D02*
X83531578Y-130285600D01*
X83531578Y-130285600D02*
X83417292Y-130171314D01*
X83417292Y-130171314D02*
X83360149Y-129942742D01*
X83360149Y-129942742D02*
X83360149Y-129542742D01*
X83360149Y-129542742D02*
X83417292Y-129314171D01*
X83417292Y-129314171D02*
X83531578Y-129199885D01*
X83531578Y-129199885D02*
X83645863Y-129142742D01*
X84674435Y-130342742D02*
X84674435Y-129142742D01*
X84674435Y-129142742D02*
X85360149Y-130342742D01*
X85360149Y-130342742D02*
X85360149Y-129142742D01*
X83645863Y-75392742D02*
X83874435Y-75392742D01*
X83874435Y-75392742D02*
X83988720Y-75449885D01*
X83988720Y-75449885D02*
X84103006Y-75564171D01*
X84103006Y-75564171D02*
X84160149Y-75792742D01*
X84160149Y-75792742D02*
X84160149Y-76192742D01*
X84160149Y-76192742D02*
X84103006Y-76421314D01*
X84103006Y-76421314D02*
X83988720Y-76535600D01*
X83988720Y-76535600D02*
X83874435Y-76592742D01*
X83874435Y-76592742D02*
X83645863Y-76592742D01*
X83645863Y-76592742D02*
X83531578Y-76535600D01*
X83531578Y-76535600D02*
X83417292Y-76421314D01*
X83417292Y-76421314D02*
X83360149Y-76192742D01*
X83360149Y-76192742D02*
X83360149Y-75792742D01*
X83360149Y-75792742D02*
X83417292Y-75564171D01*
X83417292Y-75564171D02*
X83531578Y-75449885D01*
X83531578Y-75449885D02*
X83645863Y-75392742D01*
X84674435Y-76592742D02*
X84674435Y-75392742D01*
X84674435Y-75392742D02*
X85360149Y-76592742D01*
X85360149Y-76592742D02*
X85360149Y-75392742D01*
X83895863Y-93142742D02*
X84124435Y-93142742D01*
X84124435Y-93142742D02*
X84238720Y-93199885D01*
X84238720Y-93199885D02*
X84353006Y-93314171D01*
X84353006Y-93314171D02*
X84410149Y-93542742D01*
X84410149Y-93542742D02*
X84410149Y-93942742D01*
X84410149Y-93942742D02*
X84353006Y-94171314D01*
X84353006Y-94171314D02*
X84238720Y-94285600D01*
X84238720Y-94285600D02*
X84124435Y-94342742D01*
X84124435Y-94342742D02*
X83895863Y-94342742D01*
X83895863Y-94342742D02*
X83781578Y-94285600D01*
X83781578Y-94285600D02*
X83667292Y-94171314D01*
X83667292Y-94171314D02*
X83610149Y-93942742D01*
X83610149Y-93942742D02*
X83610149Y-93542742D01*
X83610149Y-93542742D02*
X83667292Y-93314171D01*
X83667292Y-93314171D02*
X83781578Y-93199885D01*
X83781578Y-93199885D02*
X83895863Y-93142742D01*
X84924435Y-94342742D02*
X84924435Y-93142742D01*
X84924435Y-93142742D02*
X85610149Y-94342742D01*
X85610149Y-94342742D02*
X85610149Y-93142742D01*
X88667292Y-109198885D02*
X88738720Y-109127457D01*
X88738720Y-109127457D02*
X88881578Y-109056028D01*
X88881578Y-109056028D02*
X89238720Y-109056028D01*
X89238720Y-109056028D02*
X89381578Y-109127457D01*
X89381578Y-109127457D02*
X89453006Y-109198885D01*
X89453006Y-109198885D02*
X89524435Y-109341742D01*
X89524435Y-109341742D02*
X89524435Y-109484600D01*
X89524435Y-109484600D02*
X89453006Y-109698885D01*
X89453006Y-109698885D02*
X88595863Y-110556028D01*
X88595863Y-110556028D02*
X89524435Y-110556028D01*
X90167291Y-110556028D02*
X90167291Y-109056028D01*
X90310149Y-109984600D02*
X90738720Y-110556028D01*
X90738720Y-109556028D02*
X90167291Y-110127457D01*
X91310149Y-110556028D02*
X91667292Y-110556028D01*
X91667292Y-110556028D02*
X91667292Y-110270314D01*
X91667292Y-110270314D02*
X91524435Y-110198885D01*
X91524435Y-110198885D02*
X91381577Y-110056028D01*
X91381577Y-110056028D02*
X91310149Y-109841742D01*
X91310149Y-109841742D02*
X91310149Y-109484600D01*
X91310149Y-109484600D02*
X91381577Y-109270314D01*
X91381577Y-109270314D02*
X91524435Y-109127457D01*
X91524435Y-109127457D02*
X91738720Y-109056028D01*
X91738720Y-109056028D02*
X92024435Y-109056028D01*
X92024435Y-109056028D02*
X92238720Y-109127457D01*
X92238720Y-109127457D02*
X92381577Y-109270314D01*
X92381577Y-109270314D02*
X92453006Y-109484600D01*
X92453006Y-109484600D02*
X92453006Y-109841742D01*
X92453006Y-109841742D02*
X92381577Y-110056028D01*
X92381577Y-110056028D02*
X92238720Y-110198885D01*
X92238720Y-110198885D02*
X92095863Y-110270314D01*
X92095863Y-110270314D02*
X92095863Y-110556028D01*
X92095863Y-110556028D02*
X92453006Y-110556028D01*
D11*
X86805137Y-50467333D02*
X88328947Y-50467333D01*
X87567042Y-51229238D02*
X87567042Y-49705428D01*
D13*
X107024435Y-74806028D02*
X106167292Y-74806028D01*
X106595863Y-74806028D02*
X106595863Y-73306028D01*
X106595863Y-73306028D02*
X106453006Y-73520314D01*
X106453006Y-73520314D02*
X106310149Y-73663171D01*
X106310149Y-73663171D02*
X106167292Y-73734600D01*
X107953006Y-73306028D02*
X108095863Y-73306028D01*
X108095863Y-73306028D02*
X108238720Y-73377457D01*
X108238720Y-73377457D02*
X108310149Y-73448885D01*
X108310149Y-73448885D02*
X108381577Y-73591742D01*
X108381577Y-73591742D02*
X108453006Y-73877457D01*
X108453006Y-73877457D02*
X108453006Y-74234600D01*
X108453006Y-74234600D02*
X108381577Y-74520314D01*
X108381577Y-74520314D02*
X108310149Y-74663171D01*
X108310149Y-74663171D02*
X108238720Y-74734600D01*
X108238720Y-74734600D02*
X108095863Y-74806028D01*
X108095863Y-74806028D02*
X107953006Y-74806028D01*
X107953006Y-74806028D02*
X107810149Y-74734600D01*
X107810149Y-74734600D02*
X107738720Y-74663171D01*
X107738720Y-74663171D02*
X107667291Y-74520314D01*
X107667291Y-74520314D02*
X107595863Y-74234600D01*
X107595863Y-74234600D02*
X107595863Y-73877457D01*
X107595863Y-73877457D02*
X107667291Y-73591742D01*
X107667291Y-73591742D02*
X107738720Y-73448885D01*
X107738720Y-73448885D02*
X107810149Y-73377457D01*
X107810149Y-73377457D02*
X107953006Y-73306028D01*
X109024434Y-74806028D02*
X109381577Y-74806028D01*
X109381577Y-74806028D02*
X109381577Y-74520314D01*
X109381577Y-74520314D02*
X109238720Y-74448885D01*
X109238720Y-74448885D02*
X109095862Y-74306028D01*
X109095862Y-74306028D02*
X109024434Y-74091742D01*
X109024434Y-74091742D02*
X109024434Y-73734600D01*
X109024434Y-73734600D02*
X109095862Y-73520314D01*
X109095862Y-73520314D02*
X109238720Y-73377457D01*
X109238720Y-73377457D02*
X109453005Y-73306028D01*
X109453005Y-73306028D02*
X109738720Y-73306028D01*
X109738720Y-73306028D02*
X109953005Y-73377457D01*
X109953005Y-73377457D02*
X110095862Y-73520314D01*
X110095862Y-73520314D02*
X110167291Y-73734600D01*
X110167291Y-73734600D02*
X110167291Y-74091742D01*
X110167291Y-74091742D02*
X110095862Y-74306028D01*
X110095862Y-74306028D02*
X109953005Y-74448885D01*
X109953005Y-74448885D02*
X109810148Y-74520314D01*
X109810148Y-74520314D02*
X109810148Y-74806028D01*
X109810148Y-74806028D02*
X110167291Y-74806028D01*
X83645863Y-147142742D02*
X83874435Y-147142742D01*
X83874435Y-147142742D02*
X83988720Y-147199885D01*
X83988720Y-147199885D02*
X84103006Y-147314171D01*
X84103006Y-147314171D02*
X84160149Y-147542742D01*
X84160149Y-147542742D02*
X84160149Y-147942742D01*
X84160149Y-147942742D02*
X84103006Y-148171314D01*
X84103006Y-148171314D02*
X83988720Y-148285600D01*
X83988720Y-148285600D02*
X83874435Y-148342742D01*
X83874435Y-148342742D02*
X83645863Y-148342742D01*
X83645863Y-148342742D02*
X83531578Y-148285600D01*
X83531578Y-148285600D02*
X83417292Y-148171314D01*
X83417292Y-148171314D02*
X83360149Y-147942742D01*
X83360149Y-147942742D02*
X83360149Y-147542742D01*
X83360149Y-147542742D02*
X83417292Y-147314171D01*
X83417292Y-147314171D02*
X83531578Y-147199885D01*
X83531578Y-147199885D02*
X83645863Y-147142742D01*
X84674435Y-148342742D02*
X84674435Y-147142742D01*
X84674435Y-147142742D02*
X85360149Y-148342742D01*
X85360149Y-148342742D02*
X85360149Y-147142742D01*
D11*
G36*
X53026923Y-33231343D02*
G01*
X53161224Y-33249338D01*
X53283049Y-33283181D01*
X53392006Y-33333279D01*
X53487705Y-33400037D01*
X53569755Y-33483861D01*
X53637764Y-33585157D01*
X53691340Y-33704330D01*
X53730094Y-33841786D01*
X53747501Y-33943781D01*
X53758031Y-34054203D01*
X53761566Y-34173171D01*
X53758445Y-34292033D01*
X53749055Y-34403496D01*
X53733356Y-34507523D01*
X53697886Y-34649539D01*
X53647990Y-34774615D01*
X53583530Y-34882625D01*
X53504369Y-34973444D01*
X53410368Y-35046945D01*
X53301390Y-35103004D01*
X53177297Y-35141494D01*
X53037952Y-35162290D01*
X52936514Y-35166263D01*
X52900569Y-35165971D01*
X52792220Y-35161614D01*
X52683020Y-35152080D01*
X52572873Y-35137426D01*
X52461684Y-35117710D01*
X52349354Y-35092990D01*
X52349354Y-34950352D01*
X52548656Y-34950352D01*
X52621620Y-34961952D01*
X52727198Y-34973066D01*
X52829337Y-34979066D01*
X52936514Y-34981127D01*
X53044135Y-34975136D01*
X53172574Y-34947657D01*
X53283364Y-34896370D01*
X53376025Y-34819603D01*
X53450075Y-34715686D01*
X53493111Y-34618924D01*
X53525206Y-34505245D01*
X53546155Y-34373943D01*
X53553830Y-34276269D01*
X53556402Y-34170240D01*
X53553738Y-34071436D01*
X53539887Y-33937472D01*
X53514476Y-33820080D01*
X53477802Y-33718679D01*
X53430161Y-33632686D01*
X53350094Y-33540991D01*
X53251763Y-33474276D01*
X53135872Y-33431159D01*
X53037854Y-33413478D01*
X52930652Y-33407714D01*
X52548656Y-33407714D01*
X52548656Y-34950352D01*
X52349354Y-34950352D01*
X52349354Y-33227951D01*
X52930652Y-33227951D01*
X53026923Y-33231343D01*
G37*
G36*
X54233932Y-33227951D02*
G01*
X54233932Y-34737372D01*
X54246444Y-34847739D01*
X54282795Y-34941503D01*
X54355382Y-35030891D01*
X54437922Y-35085097D01*
X54538612Y-35119946D01*
X54655675Y-35134576D01*
X54680896Y-35135000D01*
X55354518Y-35135000D01*
X55354518Y-34955725D01*
X54680896Y-34955725D01*
X54574605Y-34943521D01*
X54482216Y-34890897D01*
X54437304Y-34791494D01*
X54433234Y-34737372D01*
X54433234Y-34251817D01*
X55208949Y-34251817D01*
X55208949Y-34072055D01*
X54433234Y-34072055D01*
X54433234Y-33407714D01*
X55312508Y-33407714D01*
X55312508Y-33227951D01*
X54233932Y-33227951D01*
G37*
G36*
X55667637Y-34185872D02*
G01*
X55671303Y-34320610D01*
X55682146Y-34443560D01*
X55699937Y-34555149D01*
X55724447Y-34655803D01*
X55773305Y-34787216D01*
X55835989Y-34896430D01*
X55911721Y-34984886D01*
X55999726Y-35054026D01*
X56099231Y-35105292D01*
X56209459Y-35140126D01*
X56329635Y-35159969D01*
X56458984Y-35166263D01*
X56560657Y-35163452D01*
X56670943Y-35155002D01*
X56769607Y-35143246D01*
X56869700Y-35127303D01*
X56968963Y-35107156D01*
X56948447Y-34932766D01*
X56851454Y-34950693D01*
X56739948Y-34967915D01*
X56631799Y-34980518D01*
X56528664Y-34987826D01*
X56458984Y-34989431D01*
X56359139Y-34984763D01*
X56239292Y-34962198D01*
X56135245Y-34917694D01*
X56047681Y-34847690D01*
X55977280Y-34748627D01*
X55936152Y-34653117D01*
X55905350Y-34537755D01*
X55885159Y-34401040D01*
X55877737Y-34297292D01*
X55875244Y-34182941D01*
X55877736Y-34066336D01*
X55885178Y-33960915D01*
X55905500Y-33822648D01*
X55936650Y-33706704D01*
X55978446Y-33611378D01*
X56050417Y-33513402D01*
X56140551Y-33445006D01*
X56248413Y-33402150D01*
X56373569Y-33380792D01*
X56478524Y-33376451D01*
X56584449Y-33380015D01*
X56682233Y-33388395D01*
X56783427Y-33400882D01*
X56886742Y-33416708D01*
X56931350Y-33424323D01*
X56958217Y-33244560D01*
X56855506Y-33227537D01*
X56751542Y-33213526D01*
X56646753Y-33203292D01*
X56541571Y-33197603D01*
X56481454Y-33196688D01*
X56346924Y-33202651D01*
X56222418Y-33221669D01*
X56108639Y-33255438D01*
X56006286Y-33305653D01*
X55916059Y-33374010D01*
X55838659Y-33462203D01*
X55774786Y-33571928D01*
X55725141Y-33704881D01*
X55700295Y-33807258D01*
X55682290Y-33921214D01*
X55671335Y-34047251D01*
X55667637Y-34185872D01*
G37*
G36*
X58134426Y-33200170D02*
G01*
X58260608Y-33217984D01*
X58369467Y-33250010D01*
X58461956Y-33295237D01*
X58561454Y-33374332D01*
X58635795Y-33472709D01*
X58687237Y-33587977D01*
X58712146Y-33684072D01*
X58726393Y-33787312D01*
X58730931Y-33896688D01*
X58730931Y-35135000D01*
X58531629Y-35135000D01*
X58531629Y-34384685D01*
X57549284Y-34384685D01*
X57549284Y-35135000D01*
X57349982Y-35135000D01*
X57349982Y-33899619D01*
X57549284Y-33899619D01*
X57549284Y-34205411D01*
X58531629Y-34205411D01*
X58531629Y-33899619D01*
X58530489Y-33844478D01*
X58520436Y-33740326D01*
X58490077Y-33623889D01*
X58435397Y-33525928D01*
X58351523Y-33449862D01*
X58260128Y-33407073D01*
X58144432Y-33382240D01*
X58040212Y-33376451D01*
X58003734Y-33377103D01*
X57874983Y-33392303D01*
X57771812Y-33426333D01*
X57674999Y-33492682D01*
X57609340Y-33582296D01*
X57569938Y-33691753D01*
X57554030Y-33791307D01*
X57549284Y-33899619D01*
X57349982Y-33899619D01*
X57349982Y-33896688D01*
X57352034Y-33823139D01*
X57363211Y-33717741D01*
X57384878Y-33619152D01*
X57431590Y-33500036D01*
X57500558Y-33397212D01*
X57593843Y-33313072D01*
X57681005Y-33263668D01*
X57783875Y-33227130D01*
X57903321Y-33204467D01*
X58040212Y-33196688D01*
X58134426Y-33200170D01*
G37*
G36*
X59981006Y-33231343D02*
G01*
X60115306Y-33249338D01*
X60237131Y-33283181D01*
X60346088Y-33333279D01*
X60441788Y-33400037D01*
X60523837Y-33483861D01*
X60591846Y-33585157D01*
X60645423Y-33704330D01*
X60684176Y-33841786D01*
X60701584Y-33943781D01*
X60712113Y-34054203D01*
X60715648Y-34173171D01*
X60712528Y-34292033D01*
X60703138Y-34403496D01*
X60687438Y-34507523D01*
X60651969Y-34649539D01*
X60602073Y-34774615D01*
X60537613Y-34882625D01*
X60458451Y-34973444D01*
X60364450Y-35046945D01*
X60255472Y-35103004D01*
X60131379Y-35141494D01*
X59992034Y-35162290D01*
X59890596Y-35166263D01*
X59854652Y-35165971D01*
X59746302Y-35161614D01*
X59637102Y-35152080D01*
X59526956Y-35137426D01*
X59415766Y-35117710D01*
X59303436Y-35092990D01*
X59303436Y-34950352D01*
X59502739Y-34950352D01*
X59575702Y-34961952D01*
X59681280Y-34973066D01*
X59783419Y-34979066D01*
X59890596Y-34981127D01*
X59998218Y-34975136D01*
X60126656Y-34947657D01*
X60237446Y-34896370D01*
X60330107Y-34819603D01*
X60404158Y-34715686D01*
X60447194Y-34618924D01*
X60479288Y-34505245D01*
X60500238Y-34373943D01*
X60507913Y-34276269D01*
X60510484Y-34170240D01*
X60507820Y-34071436D01*
X60493970Y-33937472D01*
X60468559Y-33820080D01*
X60431884Y-33718679D01*
X60384243Y-33632686D01*
X60304176Y-33540991D01*
X60205845Y-33474276D01*
X60089954Y-33431159D01*
X59991937Y-33413478D01*
X59884734Y-33407714D01*
X59502739Y-33407714D01*
X59502739Y-34950352D01*
X59303436Y-34950352D01*
X59303436Y-33227951D01*
X59884734Y-33227951D01*
X59981006Y-33231343D01*
G37*
G36*
X61188014Y-33227951D02*
G01*
X61188014Y-34737372D01*
X61200526Y-34847739D01*
X61236878Y-34941503D01*
X61309464Y-35030891D01*
X61392004Y-35085097D01*
X61492694Y-35119946D01*
X61609758Y-35134576D01*
X61634979Y-35135000D01*
X62308600Y-35135000D01*
X62308600Y-34955725D01*
X61634979Y-34955725D01*
X61528687Y-34943521D01*
X61436298Y-34890897D01*
X61391386Y-34791494D01*
X61387316Y-34737372D01*
X61387316Y-34251817D01*
X62163032Y-34251817D01*
X62163032Y-34072055D01*
X61387316Y-34072055D01*
X61387316Y-33407714D01*
X62266591Y-33407714D01*
X62266591Y-33227951D01*
X61188014Y-33227951D01*
G37*
G36*
X64195053Y-33231595D02*
G01*
X64304172Y-33243140D01*
X64432875Y-33272414D01*
X64541784Y-33319551D01*
X64630233Y-33386733D01*
X64697559Y-33476139D01*
X64743098Y-33589952D01*
X64762555Y-33692640D01*
X64769103Y-33811203D01*
X64765148Y-33896353D01*
X64748130Y-33997710D01*
X64709520Y-34105700D01*
X64653638Y-34194021D01*
X64582619Y-34263869D01*
X64498600Y-34316442D01*
X64403715Y-34352934D01*
X64459221Y-34394577D01*
X64525925Y-34477970D01*
X64574902Y-34567133D01*
X64619138Y-34663122D01*
X64815997Y-35135000D01*
X64603018Y-35135000D01*
X64427651Y-34711482D01*
X64393268Y-34636972D01*
X64335302Y-34543029D01*
X64260734Y-34468125D01*
X64163888Y-34419929D01*
X64058845Y-34405690D01*
X64002279Y-34404684D01*
X63896912Y-34398251D01*
X63789314Y-34386819D01*
X63682222Y-34371496D01*
X63682222Y-35135000D01*
X63482920Y-35135000D01*
X63482920Y-34194176D01*
X63682222Y-34194176D01*
X63743713Y-34204081D01*
X63852559Y-34217618D01*
X63958711Y-34225693D01*
X64061775Y-34228370D01*
X64161111Y-34224921D01*
X64273845Y-34209431D01*
X64385244Y-34172110D01*
X64466652Y-34114253D01*
X64528989Y-34016836D01*
X64555004Y-33911595D01*
X64561008Y-33811203D01*
X64559413Y-33754105D01*
X64540860Y-33633962D01*
X64488962Y-33528482D01*
X64401654Y-33459610D01*
X64299492Y-33425903D01*
X64197156Y-33411968D01*
X64075453Y-33407714D01*
X63682222Y-33407714D01*
X63682222Y-34194176D01*
X63482920Y-34194176D01*
X63482920Y-33227951D01*
X64075453Y-33227951D01*
X64195053Y-33231595D01*
G37*
G36*
X65279570Y-33227951D02*
G01*
X65279570Y-34737372D01*
X65292082Y-34847739D01*
X65328434Y-34941503D01*
X65401020Y-35030891D01*
X65483560Y-35085097D01*
X65584251Y-35119946D01*
X65701314Y-35134576D01*
X65726535Y-35135000D01*
X66400157Y-35135000D01*
X66400157Y-34955725D01*
X65726535Y-34955725D01*
X65620243Y-34943521D01*
X65527854Y-34890897D01*
X65482943Y-34791494D01*
X65478872Y-34737372D01*
X65478872Y-34251817D01*
X66254588Y-34251817D01*
X66254588Y-34072055D01*
X65478872Y-34072055D01*
X65478872Y-33407714D01*
X66358147Y-33407714D01*
X66358147Y-33227951D01*
X65279570Y-33227951D01*
G37*
G36*
X67841189Y-33245048D02*
G01*
X67744301Y-33227806D01*
X67641527Y-33214020D01*
X67528961Y-33203280D01*
X67429753Y-33197825D01*
X67364427Y-33196688D01*
X67247058Y-33200161D01*
X67133656Y-33212289D01*
X67027822Y-33235637D01*
X66933155Y-33272770D01*
X66836014Y-33342477D01*
X66768981Y-33442738D01*
X66741760Y-33548312D01*
X66738189Y-33610436D01*
X66762628Y-33734570D01*
X66829430Y-33851010D01*
X66928819Y-33961181D01*
X67008354Y-34031849D01*
X67095130Y-34100786D01*
X67186251Y-34168414D01*
X67278821Y-34235156D01*
X67369942Y-34301433D01*
X67456718Y-34367668D01*
X67536253Y-34434283D01*
X67635642Y-34535842D01*
X67702444Y-34640630D01*
X67726884Y-34750073D01*
X67706066Y-34850252D01*
X67635023Y-34928728D01*
X67536302Y-34969532D01*
X67427920Y-34986399D01*
X67344888Y-34989431D01*
X67246084Y-34986128D01*
X67148536Y-34976891D01*
X67035310Y-34959389D01*
X66928782Y-34936529D01*
X66831617Y-34910050D01*
X66773360Y-34891245D01*
X66732815Y-35066123D01*
X66841997Y-35099338D01*
X66949298Y-35124733D01*
X67046041Y-35142414D01*
X67147546Y-35155870D01*
X67252036Y-35164104D01*
X67336584Y-35166263D01*
X67456957Y-35161193D01*
X67568859Y-35144937D01*
X67669952Y-35115928D01*
X67757903Y-35072595D01*
X67845800Y-34995900D01*
X67904949Y-34891311D01*
X67928505Y-34785498D01*
X67931559Y-34724672D01*
X67907337Y-34586936D01*
X67841129Y-34460143D01*
X67778449Y-34380953D01*
X67704287Y-34305515D01*
X67621512Y-34233386D01*
X67532995Y-34164120D01*
X67441608Y-34097273D01*
X67350221Y-34032401D01*
X67261704Y-33969060D01*
X67178929Y-33906804D01*
X67071812Y-33814486D01*
X66993762Y-33722113D01*
X66954468Y-33628184D01*
X66951657Y-33596270D01*
X66977016Y-33489878D01*
X67060241Y-33417939D01*
X67170436Y-33387488D01*
X67285496Y-33377762D01*
X67369801Y-33376451D01*
X67476352Y-33380832D01*
X67581880Y-33390679D01*
X67687059Y-33404532D01*
X67792350Y-33423302D01*
X67814323Y-33428230D01*
X67841189Y-33245048D01*
G37*
G36*
X68432257Y-33227951D02*
G01*
X68432257Y-35135000D01*
X68631559Y-35135000D01*
X68631559Y-33227951D01*
X68432257Y-33227951D01*
G37*
G36*
X70228907Y-33245048D02*
G01*
X70132019Y-33227806D01*
X70029245Y-33214020D01*
X69916679Y-33203280D01*
X69817471Y-33197825D01*
X69752145Y-33196688D01*
X69634776Y-33200161D01*
X69521374Y-33212289D01*
X69415540Y-33235637D01*
X69320874Y-33272770D01*
X69223732Y-33342477D01*
X69156700Y-33442738D01*
X69129478Y-33548312D01*
X69125907Y-33610436D01*
X69150346Y-33734570D01*
X69217149Y-33851010D01*
X69316537Y-33961181D01*
X69396072Y-34031849D01*
X69482848Y-34100786D01*
X69573969Y-34168414D01*
X69666539Y-34235156D01*
X69757660Y-34301433D01*
X69844436Y-34367668D01*
X69923971Y-34434283D01*
X70023360Y-34535842D01*
X70090162Y-34640630D01*
X70114602Y-34750073D01*
X70093784Y-34850252D01*
X70022741Y-34928728D01*
X69924020Y-34969532D01*
X69815638Y-34986399D01*
X69732606Y-34989431D01*
X69633802Y-34986128D01*
X69536254Y-34976891D01*
X69423028Y-34959389D01*
X69316500Y-34936529D01*
X69219335Y-34910050D01*
X69161078Y-34891245D01*
X69120533Y-35066123D01*
X69229715Y-35099338D01*
X69337016Y-35124733D01*
X69433759Y-35142414D01*
X69535264Y-35155870D01*
X69639755Y-35164104D01*
X69724302Y-35166263D01*
X69844675Y-35161193D01*
X69956577Y-35144937D01*
X70057670Y-35115928D01*
X70145621Y-35072595D01*
X70233518Y-34995900D01*
X70292667Y-34891311D01*
X70316223Y-34785498D01*
X70319277Y-34724672D01*
X70295055Y-34586936D01*
X70228847Y-34460143D01*
X70166168Y-34380953D01*
X70092005Y-34305515D01*
X70009230Y-34233386D01*
X69920713Y-34164120D01*
X69829326Y-34097273D01*
X69737939Y-34032401D01*
X69649422Y-33969060D01*
X69566647Y-33906804D01*
X69459530Y-33814486D01*
X69381480Y-33722113D01*
X69342186Y-33628184D01*
X69339375Y-33596270D01*
X69364734Y-33489878D01*
X69447959Y-33417939D01*
X69558154Y-33387488D01*
X69673214Y-33377762D01*
X69757519Y-33376451D01*
X69864070Y-33380832D01*
X69969599Y-33390679D01*
X70074777Y-33404532D01*
X70180068Y-33423302D01*
X70202041Y-33428230D01*
X70228907Y-33245048D01*
G37*
G36*
X70521999Y-33227951D02*
G01*
X70521999Y-33407714D01*
X71171685Y-33407714D01*
X71171685Y-35135000D01*
X71370987Y-35135000D01*
X71370987Y-33407714D01*
X72020673Y-33407714D01*
X72020673Y-33227951D01*
X70521999Y-33227951D01*
G37*
G36*
X73011747Y-33200170D02*
G01*
X73137928Y-33217984D01*
X73246787Y-33250010D01*
X73339276Y-33295237D01*
X73438774Y-33374332D01*
X73513116Y-33472709D01*
X73564557Y-33587977D01*
X73589466Y-33684072D01*
X73603714Y-33787312D01*
X73608251Y-33896688D01*
X73608251Y-35135000D01*
X73408949Y-35135000D01*
X73408949Y-34384685D01*
X72426605Y-34384685D01*
X72426605Y-35135000D01*
X72227302Y-35135000D01*
X72227302Y-33899619D01*
X72426605Y-33899619D01*
X72426605Y-34205411D01*
X73408949Y-34205411D01*
X73408949Y-33899619D01*
X73407810Y-33844478D01*
X73397757Y-33740326D01*
X73367397Y-33623889D01*
X73312718Y-33525928D01*
X73228843Y-33449862D01*
X73137448Y-33407073D01*
X73021753Y-33382240D01*
X72917533Y-33376451D01*
X72881054Y-33377103D01*
X72752303Y-33392303D01*
X72649132Y-33426333D01*
X72552320Y-33492682D01*
X72486661Y-33582296D01*
X72447258Y-33691753D01*
X72431350Y-33791307D01*
X72426605Y-33899619D01*
X72227302Y-33899619D01*
X72227302Y-33896688D01*
X72229355Y-33823139D01*
X72240531Y-33717741D01*
X72262199Y-33619152D01*
X72308910Y-33500036D01*
X72377878Y-33397212D01*
X72471164Y-33313072D01*
X72558326Y-33263668D01*
X72661195Y-33227130D01*
X72780641Y-33204467D01*
X72917533Y-33196688D01*
X73011747Y-33200170D01*
G37*
G36*
X74180757Y-33227951D02*
G01*
X74180757Y-35135000D01*
X74374685Y-35135000D01*
X74374685Y-33533255D01*
X75480129Y-34677288D01*
X75480129Y-35135000D01*
X75674057Y-35135000D01*
X75674057Y-33227951D01*
X75480129Y-33227951D01*
X75480129Y-34404225D01*
X74349284Y-33227951D01*
X74180757Y-33227951D01*
G37*
G36*
X76162543Y-34185872D02*
G01*
X76166209Y-34320610D01*
X76177052Y-34443560D01*
X76194843Y-34555149D01*
X76219352Y-34655803D01*
X76268211Y-34787216D01*
X76330894Y-34896430D01*
X76406626Y-34984886D01*
X76494632Y-35054026D01*
X76594137Y-35105292D01*
X76704365Y-35140126D01*
X76824541Y-35159969D01*
X76953890Y-35166263D01*
X77055563Y-35163452D01*
X77165848Y-35155002D01*
X77264512Y-35143246D01*
X77364606Y-35127303D01*
X77463869Y-35107156D01*
X77443353Y-34932766D01*
X77346360Y-34950693D01*
X77234854Y-34967915D01*
X77126705Y-34980518D01*
X77023570Y-34987826D01*
X76953890Y-34989431D01*
X76854045Y-34984763D01*
X76734198Y-34962198D01*
X76630151Y-34917694D01*
X76542587Y-34847690D01*
X76472186Y-34748627D01*
X76431058Y-34653117D01*
X76400256Y-34537755D01*
X76380065Y-34401040D01*
X76372643Y-34297292D01*
X76370150Y-34182941D01*
X76372642Y-34066336D01*
X76380083Y-33960915D01*
X76400405Y-33822648D01*
X76431556Y-33706704D01*
X76473352Y-33611378D01*
X76545323Y-33513402D01*
X76635456Y-33445006D01*
X76743319Y-33402150D01*
X76868475Y-33380792D01*
X76973429Y-33376451D01*
X77079354Y-33380015D01*
X77177139Y-33388395D01*
X77278332Y-33400882D01*
X77381648Y-33416708D01*
X77426256Y-33424323D01*
X77453122Y-33244560D01*
X77350412Y-33227537D01*
X77246447Y-33213526D01*
X77141659Y-33203292D01*
X77036476Y-33197603D01*
X76976360Y-33196688D01*
X76841830Y-33202651D01*
X76717324Y-33221669D01*
X76603545Y-33255438D01*
X76501192Y-33305653D01*
X76410965Y-33374010D01*
X76333565Y-33462203D01*
X76269692Y-33571928D01*
X76220047Y-33704881D01*
X76195200Y-33807258D01*
X76177196Y-33921214D01*
X76166241Y-34047251D01*
X76162543Y-34185872D01*
G37*
G36*
X77892271Y-33227951D02*
G01*
X77892271Y-34737372D01*
X77904783Y-34847739D01*
X77941134Y-34941503D01*
X78013721Y-35030891D01*
X78096261Y-35085097D01*
X78196951Y-35119946D01*
X78314014Y-35134576D01*
X78339235Y-35135000D01*
X79012857Y-35135000D01*
X79012857Y-34955725D01*
X78339235Y-34955725D01*
X78232944Y-34943521D01*
X78140555Y-34890897D01*
X78095643Y-34791494D01*
X78091573Y-34737372D01*
X78091573Y-34251817D01*
X78867288Y-34251817D01*
X78867288Y-34072055D01*
X78091573Y-34072055D01*
X78091573Y-33407714D01*
X78970847Y-33407714D01*
X78970847Y-33227951D01*
X77892271Y-33227951D01*
G37*
G36*
X80805169Y-33228369D02*
G01*
X80909265Y-33234728D01*
X81033661Y-33255604D01*
X81140930Y-33291398D01*
X81230338Y-33342929D01*
X81301153Y-33411014D01*
X81352643Y-33496473D01*
X81384074Y-33600125D01*
X81394713Y-33722787D01*
X81385748Y-33836039D01*
X81361199Y-33930902D01*
X81316128Y-34021680D01*
X81249713Y-34097672D01*
X81157309Y-34151678D01*
X81218111Y-34172648D01*
X81304227Y-34231319D01*
X81370132Y-34311528D01*
X81413248Y-34401370D01*
X81440599Y-34513660D01*
X81447958Y-34620624D01*
X81442996Y-34708357D01*
X81420255Y-34816274D01*
X81377859Y-34912474D01*
X81314469Y-34995467D01*
X81228745Y-35063765D01*
X81119348Y-35115881D01*
X81020959Y-35143452D01*
X80907934Y-35160455D01*
X80779710Y-35166263D01*
X80708779Y-35164264D01*
X80607023Y-35156829D01*
X80492460Y-35144299D01*
X80391293Y-35130273D01*
X80288440Y-35113251D01*
X80187177Y-35093478D01*
X80187177Y-34944002D01*
X80386479Y-34944002D01*
X80477170Y-34959283D01*
X80582402Y-34972429D01*
X80683048Y-34980750D01*
X80782641Y-34984057D01*
X80902431Y-34977769D01*
X81023271Y-34952857D01*
X81114641Y-34910094D01*
X81189367Y-34836868D01*
X81230619Y-34741656D01*
X81243283Y-34626486D01*
X81241974Y-34581230D01*
X81226244Y-34481520D01*
X81180375Y-34386794D01*
X81100058Y-34318694D01*
X81002994Y-34281852D01*
X80903413Y-34265158D01*
X80782641Y-34259633D01*
X80386479Y-34259633D01*
X80386479Y-34944002D01*
X80187177Y-34944002D01*
X80187177Y-34080359D01*
X80386479Y-34080359D01*
X80779710Y-34080359D01*
X80872108Y-34074712D01*
X80971961Y-34051824D01*
X81067864Y-34001278D01*
X81136467Y-33925715D01*
X81176497Y-33825310D01*
X81187107Y-33722787D01*
X81181321Y-33644735D01*
X81149931Y-33550142D01*
X81076260Y-33471812D01*
X80978861Y-33430137D01*
X80871874Y-33412036D01*
X80768475Y-33407714D01*
X80386479Y-33407714D01*
X80386479Y-34080359D01*
X80187177Y-34080359D01*
X80187177Y-33227951D01*
X80768475Y-33227951D01*
X80805169Y-33228369D01*
G37*
G36*
X82720505Y-33203909D02*
G01*
X82841507Y-33226171D01*
X82951130Y-33264371D01*
X83048929Y-33319409D01*
X83134457Y-33392182D01*
X83207266Y-33483590D01*
X83266911Y-33594530D01*
X83312943Y-33725901D01*
X83335849Y-33825276D01*
X83352374Y-33934397D01*
X83362386Y-34053530D01*
X83365753Y-34182941D01*
X83362386Y-34311433D01*
X83352374Y-34429816D01*
X83335849Y-34538340D01*
X83312943Y-34637255D01*
X83266911Y-34768164D01*
X83207266Y-34878868D01*
X83134457Y-34970215D01*
X83048929Y-35043053D01*
X82951130Y-35098228D01*
X82841507Y-35136590D01*
X82720505Y-35158986D01*
X82588572Y-35166263D01*
X82456640Y-35158986D01*
X82335638Y-35136590D01*
X82226015Y-35098228D01*
X82128216Y-35043053D01*
X82042688Y-34970215D01*
X81969879Y-34878868D01*
X81910234Y-34768164D01*
X81864202Y-34637255D01*
X81841296Y-34538340D01*
X81824771Y-34429816D01*
X81814758Y-34311433D01*
X81811392Y-34182941D01*
X82018998Y-34182941D01*
X82021278Y-34292382D01*
X82028105Y-34392485D01*
X82046819Y-34525820D01*
X82075637Y-34639913D01*
X82114484Y-34735824D01*
X82181750Y-34837256D01*
X82266535Y-34910762D01*
X82368660Y-34958856D01*
X82487949Y-34984051D01*
X82588572Y-34989431D01*
X82689196Y-34984051D01*
X82808484Y-34958856D01*
X82910610Y-34910762D01*
X82995394Y-34837256D01*
X83062661Y-34735824D01*
X83101508Y-34639913D01*
X83130326Y-34525820D01*
X83149040Y-34392485D01*
X83155866Y-34292382D01*
X83158147Y-34182941D01*
X83155866Y-34073581D01*
X83149040Y-33973537D01*
X83130326Y-33840257D01*
X83101508Y-33726185D01*
X83062661Y-33630267D01*
X82995394Y-33528797D01*
X82910610Y-33455234D01*
X82808484Y-33407081D01*
X82689196Y-33381843D01*
X82588572Y-33376451D01*
X82487949Y-33381843D01*
X82368660Y-33407081D01*
X82266535Y-33455234D01*
X82181750Y-33528797D01*
X82114484Y-33630267D01*
X82075637Y-33726185D01*
X82046819Y-33840257D01*
X82028105Y-33973537D01*
X82021278Y-34073581D01*
X82018998Y-34182941D01*
X81811392Y-34182941D01*
X81814758Y-34053530D01*
X81824771Y-33934397D01*
X81841296Y-33825276D01*
X81864202Y-33725901D01*
X81910234Y-33594530D01*
X81969879Y-33483590D01*
X82042688Y-33392182D01*
X82128216Y-33319409D01*
X82226015Y-33264371D01*
X82335638Y-33226171D01*
X82456640Y-33203909D01*
X82588572Y-33196688D01*
X82720505Y-33203909D01*
G37*
G36*
X84594719Y-33200170D02*
G01*
X84720901Y-33217984D01*
X84829760Y-33250010D01*
X84922249Y-33295237D01*
X85021747Y-33374332D01*
X85096088Y-33472709D01*
X85147530Y-33587977D01*
X85172439Y-33684072D01*
X85186686Y-33787312D01*
X85191224Y-33896688D01*
X85191224Y-35135000D01*
X84991922Y-35135000D01*
X84991922Y-34384685D01*
X84009577Y-34384685D01*
X84009577Y-35135000D01*
X83810275Y-35135000D01*
X83810275Y-33899619D01*
X84009577Y-33899619D01*
X84009577Y-34205411D01*
X84991922Y-34205411D01*
X84991922Y-33899619D01*
X84990782Y-33844478D01*
X84980729Y-33740326D01*
X84950370Y-33623889D01*
X84895690Y-33525928D01*
X84811816Y-33449862D01*
X84720421Y-33407073D01*
X84604726Y-33382240D01*
X84500505Y-33376451D01*
X84464027Y-33377103D01*
X84335276Y-33392303D01*
X84232105Y-33426333D01*
X84135292Y-33492682D01*
X84069634Y-33582296D01*
X84030231Y-33691753D01*
X84014323Y-33791307D01*
X84009577Y-33899619D01*
X83810275Y-33899619D01*
X83810275Y-33896688D01*
X83812327Y-33823139D01*
X83823504Y-33717741D01*
X83845171Y-33619152D01*
X83891883Y-33500036D01*
X83960851Y-33397212D01*
X84054136Y-33313072D01*
X84141299Y-33263668D01*
X84244168Y-33227130D01*
X84363614Y-33204467D01*
X84500505Y-33196688D01*
X84594719Y-33200170D01*
G37*
G36*
X86475862Y-33231595D02*
G01*
X86584981Y-33243140D01*
X86713685Y-33272414D01*
X86822593Y-33319551D01*
X86911043Y-33386733D01*
X86978369Y-33476139D01*
X87023908Y-33589952D01*
X87043364Y-33692640D01*
X87049912Y-33811203D01*
X87045958Y-33896353D01*
X87028940Y-33997710D01*
X86990329Y-34105700D01*
X86934447Y-34194021D01*
X86863429Y-34263869D01*
X86779409Y-34316442D01*
X86684525Y-34352934D01*
X86740031Y-34394577D01*
X86806734Y-34477970D01*
X86855711Y-34567133D01*
X86899947Y-34663122D01*
X87096807Y-35135000D01*
X86883827Y-35135000D01*
X86708461Y-34711482D01*
X86674077Y-34636972D01*
X86616111Y-34543029D01*
X86541543Y-34468125D01*
X86444698Y-34419929D01*
X86339654Y-34405690D01*
X86283089Y-34404684D01*
X86177722Y-34398251D01*
X86070123Y-34386819D01*
X85963032Y-34371496D01*
X85963032Y-35135000D01*
X85763729Y-35135000D01*
X85763729Y-34194176D01*
X85963032Y-34194176D01*
X86024522Y-34204081D01*
X86133369Y-34217618D01*
X86239520Y-34225693D01*
X86342585Y-34228370D01*
X86441921Y-34224921D01*
X86554654Y-34209431D01*
X86666053Y-34172110D01*
X86747461Y-34114253D01*
X86809798Y-34016836D01*
X86835813Y-33911595D01*
X86841817Y-33811203D01*
X86840223Y-33754105D01*
X86821669Y-33633962D01*
X86769771Y-33528482D01*
X86682464Y-33459610D01*
X86580302Y-33425903D01*
X86477965Y-33411968D01*
X86356263Y-33407714D01*
X85963032Y-33407714D01*
X85963032Y-34194176D01*
X85763729Y-34194176D01*
X85763729Y-33227951D01*
X86356263Y-33227951D01*
X86475862Y-33231595D01*
G37*
G36*
X88254558Y-33231343D02*
G01*
X88388858Y-33249338D01*
X88510683Y-33283181D01*
X88619640Y-33333279D01*
X88715340Y-33400037D01*
X88797389Y-33483861D01*
X88865398Y-33585157D01*
X88918975Y-33704330D01*
X88957728Y-33841786D01*
X88975136Y-33943781D01*
X88985665Y-34054203D01*
X88989200Y-34173171D01*
X88986080Y-34292033D01*
X88976690Y-34403496D01*
X88960990Y-34507523D01*
X88925521Y-34649539D01*
X88875625Y-34774615D01*
X88811165Y-34882625D01*
X88732003Y-34973444D01*
X88638002Y-35046945D01*
X88529024Y-35103004D01*
X88404931Y-35141494D01*
X88265586Y-35162290D01*
X88164148Y-35166263D01*
X88128204Y-35165971D01*
X88019854Y-35161614D01*
X87910654Y-35152080D01*
X87800508Y-35137426D01*
X87689318Y-35117710D01*
X87576988Y-35092990D01*
X87576988Y-34950352D01*
X87776290Y-34950352D01*
X87849254Y-34961952D01*
X87954832Y-34973066D01*
X88056971Y-34979066D01*
X88164148Y-34981127D01*
X88271770Y-34975136D01*
X88400208Y-34947657D01*
X88510998Y-34896370D01*
X88603659Y-34819603D01*
X88677710Y-34715686D01*
X88720746Y-34618924D01*
X88752840Y-34505245D01*
X88773790Y-34373943D01*
X88781465Y-34276269D01*
X88784036Y-34170240D01*
X88781372Y-34071436D01*
X88767522Y-33937472D01*
X88742111Y-33820080D01*
X88705436Y-33718679D01*
X88657795Y-33632686D01*
X88577728Y-33540991D01*
X88479397Y-33474276D01*
X88363506Y-33431159D01*
X88265489Y-33413478D01*
X88158286Y-33407714D01*
X87776290Y-33407714D01*
X87776290Y-34950352D01*
X87576988Y-34950352D01*
X87576988Y-33227951D01*
X88158286Y-33227951D01*
X88254558Y-33231343D01*
G37*
G36*
X90266102Y-34914204D02*
G01*
X90173595Y-34947543D01*
X90135676Y-35038768D01*
X90173412Y-35131641D01*
X90266102Y-35166263D01*
X90359891Y-35131458D01*
X90396528Y-35038768D01*
X90359708Y-34947543D01*
X90266102Y-34914204D01*
G37*
G36*
X90269033Y-33728161D02*
G01*
X90176343Y-33761744D01*
X90138607Y-33853213D01*
X90176343Y-33945720D01*
X90269033Y-33980708D01*
X90362822Y-33945720D01*
X90399459Y-33853213D01*
X90362639Y-33761927D01*
X90269033Y-33728161D01*
G37*
G36*
X91758426Y-33358866D02*
G01*
X91758426Y-33546444D01*
X92189759Y-33427742D01*
X92189759Y-35135000D01*
X92391992Y-35135000D01*
X92391992Y-33227951D01*
X92237142Y-33227951D01*
X91758426Y-33358866D01*
G37*
G36*
X93197993Y-34966960D02*
G01*
X93197993Y-35135000D01*
X93934630Y-35135000D01*
X93934630Y-34979173D01*
X93820297Y-34938289D01*
X93721284Y-34884009D01*
X93637565Y-34814480D01*
X93569120Y-34727847D01*
X93515925Y-34622254D01*
X93477957Y-34495846D01*
X93459459Y-34386266D01*
X93449505Y-34263152D01*
X93447609Y-34173171D01*
X93449930Y-34064492D01*
X93456878Y-33964862D01*
X93475932Y-33831770D01*
X93505280Y-33717457D01*
X93544854Y-33620976D01*
X93613403Y-33518430D01*
X93699840Y-33443647D01*
X93803999Y-33394375D01*
X93925713Y-33368367D01*
X94028419Y-33362773D01*
X94131762Y-33368367D01*
X94254177Y-33394375D01*
X94358883Y-33443647D01*
X94445732Y-33518430D01*
X94514575Y-33620976D01*
X94554301Y-33717457D01*
X94583752Y-33831770D01*
X94602865Y-33964862D01*
X94609833Y-34064492D01*
X94612159Y-34173171D01*
X94607952Y-34305742D01*
X94595299Y-34424258D01*
X94574152Y-34529501D01*
X94532659Y-34650531D01*
X94475864Y-34751210D01*
X94403653Y-34833394D01*
X94315912Y-34898936D01*
X94212526Y-34949693D01*
X94124651Y-34979173D01*
X94124651Y-35135000D01*
X94861775Y-35135000D01*
X94861775Y-34966960D01*
X94505181Y-34966960D01*
X94587623Y-34902489D01*
X94657730Y-34815204D01*
X94704485Y-34729297D01*
X94742572Y-34629382D01*
X94771649Y-34515723D01*
X94791373Y-34388583D01*
X94799821Y-34284539D01*
X94802669Y-34173171D01*
X94799464Y-34049827D01*
X94789897Y-33935426D01*
X94774040Y-33829831D01*
X94751965Y-33732908D01*
X94707354Y-33603484D01*
X94649161Y-33492806D01*
X94577628Y-33400414D01*
X94493000Y-33325849D01*
X94395522Y-33268653D01*
X94285436Y-33228367D01*
X94162987Y-33204531D01*
X94028419Y-33196688D01*
X93893911Y-33204531D01*
X93771627Y-33228367D01*
X93661787Y-33268653D01*
X93564610Y-33325849D01*
X93480317Y-33400414D01*
X93409126Y-33492806D01*
X93351258Y-33603484D01*
X93306933Y-33732908D01*
X93285015Y-33829831D01*
X93269279Y-33935426D01*
X93259789Y-34049827D01*
X93256612Y-34173171D01*
X93259472Y-34284539D01*
X93267952Y-34388583D01*
X93287744Y-34515723D01*
X93316907Y-34629382D01*
X93355085Y-34729297D01*
X93401925Y-34815204D01*
X93472114Y-34902489D01*
X93554588Y-34966960D01*
X93197993Y-34966960D01*
G37*
G36*
X95882222Y-34265006D02*
G01*
X95882222Y-34447212D01*
X96621789Y-34447212D01*
X96621789Y-34265006D01*
X95882222Y-34265006D01*
G37*
G36*
X97895760Y-33358866D02*
G01*
X97895760Y-33546444D01*
X98327093Y-33427742D01*
X98327093Y-35135000D01*
X98529326Y-35135000D01*
X98529326Y-33227951D01*
X98374476Y-33227951D01*
X97895760Y-33358866D01*
G37*
G36*
X100555076Y-34528789D02*
G01*
X101225279Y-33510296D01*
X101225279Y-35135000D01*
X101419207Y-35135000D01*
X101419207Y-33227951D01*
X101179361Y-33227951D01*
X100462752Y-34315809D01*
X99745655Y-33227951D01*
X99505809Y-33227951D01*
X99505809Y-35135000D01*
X99699738Y-35135000D01*
X99699738Y-33510296D01*
X100370429Y-34528789D01*
X100555076Y-34528789D01*
G37*
G36*
X102019556Y-33227951D02*
G01*
X102019556Y-34737372D01*
X102032069Y-34847739D01*
X102068420Y-34941503D01*
X102141006Y-35030891D01*
X102223546Y-35085097D01*
X102324237Y-35119946D01*
X102441300Y-35134576D01*
X102466521Y-35135000D01*
X103140143Y-35135000D01*
X103140143Y-34955725D01*
X102466521Y-34955725D01*
X102360229Y-34943521D01*
X102267840Y-34890897D01*
X102222929Y-34791494D01*
X102218859Y-34737372D01*
X102218859Y-34251817D01*
X102994574Y-34251817D01*
X102994574Y-34072055D01*
X102218859Y-34072055D01*
X102218859Y-33407714D01*
X103098133Y-33407714D01*
X103098133Y-33227951D01*
X102019556Y-33227951D01*
G37*
G36*
X104883548Y-33250422D02*
G01*
X104781059Y-33233659D01*
X104679774Y-33220109D01*
X104565658Y-33208620D01*
X104460466Y-33201512D01*
X104345847Y-33197410D01*
X104272452Y-33196688D01*
X104173495Y-33200118D01*
X104036944Y-33218349D01*
X103914675Y-33252711D01*
X103806709Y-33303689D01*
X103713067Y-33371766D01*
X103633773Y-33457423D01*
X103568847Y-33561144D01*
X103518311Y-33683413D01*
X103482187Y-33824712D01*
X103466122Y-33929722D01*
X103456478Y-34043548D01*
X103453262Y-34166332D01*
X103456863Y-34301049D01*
X103467554Y-34424440D01*
X103485166Y-34536868D01*
X103509529Y-34638698D01*
X103558365Y-34772365D01*
X103621444Y-34884229D01*
X103698194Y-34975518D01*
X103788046Y-35047458D01*
X103890431Y-35101275D01*
X104004778Y-35138197D01*
X104130517Y-35159451D01*
X104267079Y-35166263D01*
X104368615Y-35164231D01*
X104474496Y-35158165D01*
X104582699Y-35148110D01*
X104691198Y-35134110D01*
X104797971Y-35116211D01*
X104900995Y-35094457D01*
X104940701Y-35084685D01*
X104940701Y-34072055D01*
X104273429Y-34072055D01*
X104273429Y-34251817D01*
X104738468Y-34251817D01*
X104738468Y-34946933D01*
X104637719Y-34963856D01*
X104534220Y-34975692D01*
X104436363Y-34983608D01*
X104336735Y-34988426D01*
X104272452Y-34989431D01*
X104163569Y-34984275D01*
X104065274Y-34967966D01*
X103950731Y-34926694D01*
X103855121Y-34860367D01*
X103778508Y-34765995D01*
X103733552Y-34675015D01*
X103699344Y-34565318D01*
X103675910Y-34435645D01*
X103666286Y-34337475D01*
X103661471Y-34229493D01*
X103660868Y-34171706D01*
X103663138Y-34067382D01*
X103675137Y-33926357D01*
X103697604Y-33803242D01*
X103730717Y-33697316D01*
X103774651Y-33607856D01*
X103850368Y-33512942D01*
X103946056Y-33444307D01*
X104062130Y-33400237D01*
X104162817Y-33382277D01*
X104275383Y-33376451D01*
X104386451Y-33378418D01*
X104489842Y-33383887D01*
X104603951Y-33394159D01*
X104707396Y-33407419D01*
X104814886Y-33425170D01*
X104856681Y-33433115D01*
X104883548Y-33250422D01*
G37*
G36*
X106211188Y-33200170D02*
G01*
X106337370Y-33217984D01*
X106446229Y-33250010D01*
X106538718Y-33295237D01*
X106638216Y-33374332D01*
X106712557Y-33472709D01*
X106763999Y-33587977D01*
X106788908Y-33684072D01*
X106803155Y-33787312D01*
X106807693Y-33896688D01*
X106807693Y-35135000D01*
X106608391Y-35135000D01*
X106608391Y-34384685D01*
X105626046Y-34384685D01*
X105626046Y-35135000D01*
X105426744Y-35135000D01*
X105426744Y-33899619D01*
X105626046Y-33899619D01*
X105626046Y-34205411D01*
X106608391Y-34205411D01*
X106608391Y-33899619D01*
X106607251Y-33844478D01*
X106597198Y-33740326D01*
X106566839Y-33623889D01*
X106512159Y-33525928D01*
X106428285Y-33449862D01*
X106336890Y-33407073D01*
X106221194Y-33382240D01*
X106116974Y-33376451D01*
X106080496Y-33377103D01*
X105951745Y-33392303D01*
X105848574Y-33426333D01*
X105751761Y-33492682D01*
X105686103Y-33582296D01*
X105646700Y-33691753D01*
X105630792Y-33791307D01*
X105626046Y-33899619D01*
X105426744Y-33899619D01*
X105426744Y-33896688D01*
X105428796Y-33823139D01*
X105439973Y-33717741D01*
X105461640Y-33619152D01*
X105508352Y-33500036D01*
X105577320Y-33397212D01*
X105670605Y-33313072D01*
X105757767Y-33263668D01*
X105860637Y-33227130D01*
X105980083Y-33204467D01*
X106116974Y-33196688D01*
X106211188Y-33200170D01*
G37*
G36*
X107209717Y-34966960D02*
G01*
X107209717Y-35135000D01*
X107946353Y-35135000D01*
X107946353Y-34979173D01*
X107832021Y-34938289D01*
X107733007Y-34884009D01*
X107649289Y-34814480D01*
X107580844Y-34727847D01*
X107527649Y-34622254D01*
X107489680Y-34495846D01*
X107471183Y-34386266D01*
X107461228Y-34263152D01*
X107459333Y-34173171D01*
X107461654Y-34064492D01*
X107468602Y-33964862D01*
X107487655Y-33831770D01*
X107517004Y-33717457D01*
X107556577Y-33620976D01*
X107625127Y-33518430D01*
X107711564Y-33443647D01*
X107815722Y-33394375D01*
X107937436Y-33368367D01*
X108040143Y-33362773D01*
X108143485Y-33368367D01*
X108265900Y-33394375D01*
X108370607Y-33443647D01*
X108457456Y-33518430D01*
X108526298Y-33620976D01*
X108566024Y-33717457D01*
X108595475Y-33831770D01*
X108614588Y-33964862D01*
X108621556Y-34064492D01*
X108623883Y-34173171D01*
X108619676Y-34305742D01*
X108607023Y-34424258D01*
X108585876Y-34529501D01*
X108544382Y-34650531D01*
X108487588Y-34751210D01*
X108415377Y-34833394D01*
X108327636Y-34898936D01*
X108224250Y-34949693D01*
X108136374Y-34979173D01*
X108136374Y-35135000D01*
X108873499Y-35135000D01*
X108873499Y-34966960D01*
X108516905Y-34966960D01*
X108599346Y-34902489D01*
X108669454Y-34815204D01*
X108716208Y-34729297D01*
X108754296Y-34629382D01*
X108783373Y-34515723D01*
X108803097Y-34388583D01*
X108811544Y-34284539D01*
X108814392Y-34173171D01*
X108811187Y-34049827D01*
X108801620Y-33935426D01*
X108785763Y-33829831D01*
X108763689Y-33732908D01*
X108719078Y-33603484D01*
X108660884Y-33492806D01*
X108589352Y-33400414D01*
X108504724Y-33325849D01*
X108407245Y-33268653D01*
X108297160Y-33228367D01*
X108174711Y-33204531D01*
X108040143Y-33196688D01*
X107905635Y-33204531D01*
X107783351Y-33228367D01*
X107673511Y-33268653D01*
X107576334Y-33325849D01*
X107492040Y-33400414D01*
X107420850Y-33492806D01*
X107362982Y-33603484D01*
X107318657Y-33732908D01*
X107296739Y-33829831D01*
X107281002Y-33935426D01*
X107271513Y-34049827D01*
X107268335Y-34173171D01*
X107271195Y-34284539D01*
X107279676Y-34388583D01*
X107299468Y-34515723D01*
X107328630Y-34629382D01*
X107366809Y-34729297D01*
X107413649Y-34815204D01*
X107483838Y-34902489D01*
X107566311Y-34966960D01*
X107209717Y-34966960D01*
G37*
D13*
X88667292Y-54948885D02*
X88738720Y-54877457D01*
X88738720Y-54877457D02*
X88881578Y-54806028D01*
X88881578Y-54806028D02*
X89238720Y-54806028D01*
X89238720Y-54806028D02*
X89381578Y-54877457D01*
X89381578Y-54877457D02*
X89453006Y-54948885D01*
X89453006Y-54948885D02*
X89524435Y-55091742D01*
X89524435Y-55091742D02*
X89524435Y-55234600D01*
X89524435Y-55234600D02*
X89453006Y-55448885D01*
X89453006Y-55448885D02*
X88595863Y-56306028D01*
X88595863Y-56306028D02*
X89524435Y-56306028D01*
X90095863Y-56306028D02*
X90453006Y-56306028D01*
X90453006Y-56306028D02*
X90453006Y-56020314D01*
X90453006Y-56020314D02*
X90310149Y-55948885D01*
X90310149Y-55948885D02*
X90167291Y-55806028D01*
X90167291Y-55806028D02*
X90095863Y-55591742D01*
X90095863Y-55591742D02*
X90095863Y-55234600D01*
X90095863Y-55234600D02*
X90167291Y-55020314D01*
X90167291Y-55020314D02*
X90310149Y-54877457D01*
X90310149Y-54877457D02*
X90524434Y-54806028D01*
X90524434Y-54806028D02*
X90810149Y-54806028D01*
X90810149Y-54806028D02*
X91024434Y-54877457D01*
X91024434Y-54877457D02*
X91167291Y-55020314D01*
X91167291Y-55020314D02*
X91238720Y-55234600D01*
X91238720Y-55234600D02*
X91238720Y-55591742D01*
X91238720Y-55591742D02*
X91167291Y-55806028D01*
X91167291Y-55806028D02*
X91024434Y-55948885D01*
X91024434Y-55948885D02*
X90881577Y-56020314D01*
X90881577Y-56020314D02*
X90881577Y-56306028D01*
X90881577Y-56306028D02*
X91238720Y-56306028D01*
X65895863Y-121392742D02*
X66124435Y-121392742D01*
X66124435Y-121392742D02*
X66238720Y-121449885D01*
X66238720Y-121449885D02*
X66353006Y-121564171D01*
X66353006Y-121564171D02*
X66410149Y-121792742D01*
X66410149Y-121792742D02*
X66410149Y-122192742D01*
X66410149Y-122192742D02*
X66353006Y-122421314D01*
X66353006Y-122421314D02*
X66238720Y-122535600D01*
X66238720Y-122535600D02*
X66124435Y-122592742D01*
X66124435Y-122592742D02*
X65895863Y-122592742D01*
X65895863Y-122592742D02*
X65781578Y-122535600D01*
X65781578Y-122535600D02*
X65667292Y-122421314D01*
X65667292Y-122421314D02*
X65610149Y-122192742D01*
X65610149Y-122192742D02*
X65610149Y-121792742D01*
X65610149Y-121792742D02*
X65667292Y-121564171D01*
X65667292Y-121564171D02*
X65781578Y-121449885D01*
X65781578Y-121449885D02*
X65895863Y-121392742D01*
X67324435Y-121964171D02*
X66924435Y-121964171D01*
X66924435Y-122592742D02*
X66924435Y-121392742D01*
X66924435Y-121392742D02*
X67495863Y-121392742D01*
X68353006Y-121964171D02*
X67953006Y-121964171D01*
X67953006Y-122592742D02*
X67953006Y-121392742D01*
X67953006Y-121392742D02*
X68524434Y-121392742D01*
X83395863Y-85392742D02*
X83624435Y-85392742D01*
X83624435Y-85392742D02*
X83738720Y-85449885D01*
X83738720Y-85449885D02*
X83853006Y-85564171D01*
X83853006Y-85564171D02*
X83910149Y-85792742D01*
X83910149Y-85792742D02*
X83910149Y-86192742D01*
X83910149Y-86192742D02*
X83853006Y-86421314D01*
X83853006Y-86421314D02*
X83738720Y-86535600D01*
X83738720Y-86535600D02*
X83624435Y-86592742D01*
X83624435Y-86592742D02*
X83395863Y-86592742D01*
X83395863Y-86592742D02*
X83281578Y-86535600D01*
X83281578Y-86535600D02*
X83167292Y-86421314D01*
X83167292Y-86421314D02*
X83110149Y-86192742D01*
X83110149Y-86192742D02*
X83110149Y-85792742D01*
X83110149Y-85792742D02*
X83167292Y-85564171D01*
X83167292Y-85564171D02*
X83281578Y-85449885D01*
X83281578Y-85449885D02*
X83395863Y-85392742D01*
X84824435Y-85964171D02*
X84424435Y-85964171D01*
X84424435Y-86592742D02*
X84424435Y-85392742D01*
X84424435Y-85392742D02*
X84995863Y-85392742D01*
X85853006Y-85964171D02*
X85453006Y-85964171D01*
X85453006Y-86592742D02*
X85453006Y-85392742D01*
X85453006Y-85392742D02*
X86024434Y-85392742D01*
D11*
X73805137Y-50467333D02*
X75328947Y-50467333D01*
D13*
X101145863Y-75392742D02*
X101374435Y-75392742D01*
X101374435Y-75392742D02*
X101488720Y-75449885D01*
X101488720Y-75449885D02*
X101603006Y-75564171D01*
X101603006Y-75564171D02*
X101660149Y-75792742D01*
X101660149Y-75792742D02*
X101660149Y-76192742D01*
X101660149Y-76192742D02*
X101603006Y-76421314D01*
X101603006Y-76421314D02*
X101488720Y-76535600D01*
X101488720Y-76535600D02*
X101374435Y-76592742D01*
X101374435Y-76592742D02*
X101145863Y-76592742D01*
X101145863Y-76592742D02*
X101031578Y-76535600D01*
X101031578Y-76535600D02*
X100917292Y-76421314D01*
X100917292Y-76421314D02*
X100860149Y-76192742D01*
X100860149Y-76192742D02*
X100860149Y-75792742D01*
X100860149Y-75792742D02*
X100917292Y-75564171D01*
X100917292Y-75564171D02*
X101031578Y-75449885D01*
X101031578Y-75449885D02*
X101145863Y-75392742D01*
X102174435Y-76592742D02*
X102174435Y-75392742D01*
X102174435Y-75392742D02*
X102860149Y-76592742D01*
X102860149Y-76592742D02*
X102860149Y-75392742D01*
D14*
%TO.C,R34*%
X84172936Y-115048400D02*
X85627064Y-115048400D01*
X84172936Y-116868400D02*
X85627064Y-116868400D01*
D15*
%TO.C,SW5*%
X106100000Y-77376800D02*
X106100000Y-87276800D01*
X108100000Y-75476800D02*
X114800000Y-75476800D01*
X114800000Y-75476800D02*
X114800000Y-87276800D01*
X114800000Y-87276800D02*
X106100000Y-87276800D01*
D14*
%TO.C,R30*%
X48772936Y-102457600D02*
X50227064Y-102457600D01*
X48772936Y-104277600D02*
X50227064Y-104277600D01*
D15*
%TO.C,SW12*%
X53500000Y-95317600D02*
X53500000Y-105217600D01*
X55500000Y-93417600D02*
X62200000Y-93417600D01*
X62200000Y-93417600D02*
X62200000Y-105217600D01*
X62200000Y-105217600D02*
X53500000Y-105217600D01*
D14*
%TO.C,R56*%
X48772936Y-153580000D02*
X50227064Y-153580000D01*
X48772936Y-155400000D02*
X50227064Y-155400000D01*
%TO.C,R5*%
X66272936Y-65276000D02*
X67727064Y-65276000D01*
X66272936Y-67096000D02*
X67727064Y-67096000D01*
%TO.C,R4*%
X66272936Y-62526000D02*
X67727064Y-62526000D01*
X66272936Y-64346000D02*
X67727064Y-64346000D01*
D15*
%TO.C,SW6*%
X88566666Y-77376800D02*
X88566666Y-87276800D01*
X90566666Y-75476800D02*
X97266666Y-75476800D01*
X97266666Y-75476800D02*
X97266666Y-87276800D01*
X97266666Y-87276800D02*
X88566666Y-87276800D01*
D14*
%TO.C,R3*%
X84172936Y-61226000D02*
X85627064Y-61226000D01*
X84172936Y-63046000D02*
X85627064Y-63046000D01*
%TO.C,R17*%
X102890000Y-82103864D02*
X102890000Y-80649736D01*
X104710000Y-82103864D02*
X104710000Y-80649736D01*
%TO.C,R18*%
X84172936Y-81766800D02*
X85627064Y-81766800D01*
X84172936Y-83586800D02*
X85627064Y-83586800D01*
%TO.C,R36*%
X48772936Y-117698400D02*
X50227064Y-117698400D01*
X48772936Y-119518400D02*
X50227064Y-119518400D01*
%TO.C,R41*%
X48772936Y-130239200D02*
X50227064Y-130239200D01*
X48772936Y-132059200D02*
X50227064Y-132059200D01*
%TO.C,R28*%
X84172936Y-99707600D02*
X85627064Y-99707600D01*
X84172936Y-101527600D02*
X85627064Y-101527600D01*
%TO.C,R32*%
X66272936Y-113598400D02*
X67727064Y-113598400D01*
X66272936Y-115418400D02*
X67727064Y-115418400D01*
%TO.C,R21*%
X48772936Y-94357600D02*
X50227064Y-94357600D01*
X48772936Y-96177600D02*
X50227064Y-96177600D01*
%TO.C,R51*%
X48772936Y-148180000D02*
X50227064Y-148180000D01*
X48772936Y-150000000D02*
X50227064Y-150000000D01*
%TO.C,R29*%
X66272936Y-101157600D02*
X67727064Y-101157600D01*
X66272936Y-102977600D02*
X67727064Y-102977600D01*
%TO.C,R47*%
X102890000Y-135926264D02*
X102890000Y-134472136D01*
X104710000Y-135926264D02*
X104710000Y-134472136D01*
%TO.C,R60*%
X48772936Y-156280000D02*
X50227064Y-156280000D01*
X48772936Y-158100000D02*
X50227064Y-158100000D01*
%TO.C,R38*%
X84172936Y-117648400D02*
X85627064Y-117648400D01*
X84172936Y-119468400D02*
X85627064Y-119468400D01*
%TO.C,R25*%
X66272936Y-98407600D02*
X67727064Y-98407600D01*
X66272936Y-100227600D02*
X67727064Y-100227600D01*
D15*
%TO.C,SW2*%
X88566666Y-59436000D02*
X88566666Y-69336000D01*
X90566666Y-57536000D02*
X97266666Y-57536000D01*
X97266666Y-57536000D02*
X97266666Y-69336000D01*
X97266666Y-69336000D02*
X88566666Y-69336000D01*
D14*
%TO.C,R40*%
X48772936Y-120398400D02*
X50227064Y-120398400D01*
X48772936Y-122218400D02*
X50227064Y-122218400D01*
%TO.C,R12*%
X66272936Y-77716800D02*
X67727064Y-77716800D01*
X66272936Y-79536800D02*
X67727064Y-79536800D01*
%TO.C,R37*%
X102890000Y-117985464D02*
X102890000Y-116531336D01*
X104710000Y-117985464D02*
X104710000Y-116531336D01*
%TO.C,R10*%
X48772936Y-58476000D02*
X50227064Y-58476000D01*
X48772936Y-60296000D02*
X50227064Y-60296000D01*
%TO.C,R2*%
X84172936Y-63826000D02*
X85627064Y-63826000D01*
X84172936Y-65646000D02*
X85627064Y-65646000D01*
%TO.C,R11*%
X48772936Y-76416800D02*
X50227064Y-76416800D01*
X48772936Y-78236800D02*
X50227064Y-78236800D01*
D15*
%TO.C,SW21*%
X106100000Y-149140000D02*
X106100000Y-159040000D01*
X108100000Y-147240000D02*
X114800000Y-147240000D01*
X114800000Y-147240000D02*
X114800000Y-159040000D01*
X114800000Y-159040000D02*
X106100000Y-159040000D01*
%TO.C,SW8*%
X53500000Y-77376800D02*
X53500000Y-87276800D01*
X55500000Y-75476800D02*
X62200000Y-75476800D01*
X62200000Y-75476800D02*
X62200000Y-87276800D01*
X62200000Y-87276800D02*
X53500000Y-87276800D01*
%TO.C,SW22*%
X88566666Y-149140000D02*
X88566666Y-159040000D01*
X90566666Y-147240000D02*
X97266666Y-147240000D01*
X97266666Y-147240000D02*
X97266666Y-159040000D01*
X97266666Y-159040000D02*
X88566666Y-159040000D01*
D14*
%TO.C,R35*%
X66272936Y-116348400D02*
X67727064Y-116348400D01*
X66272936Y-118168400D02*
X67727064Y-118168400D01*
D15*
%TO.C,SW11*%
X71033333Y-95317600D02*
X71033333Y-105217600D01*
X73033333Y-93417600D02*
X79733333Y-93417600D01*
X79733333Y-93417600D02*
X79733333Y-105217600D01*
X79733333Y-105217600D02*
X71033333Y-105217600D01*
D14*
%TO.C,R48*%
X84172936Y-135589200D02*
X85627064Y-135589200D01*
X84172936Y-137409200D02*
X85627064Y-137409200D01*
D15*
%TO.C,SW7*%
X71033333Y-77376800D02*
X71033333Y-87276800D01*
X73033333Y-75476800D02*
X79733333Y-75476800D01*
X79733333Y-75476800D02*
X79733333Y-87276800D01*
X79733333Y-87276800D02*
X71033333Y-87276800D01*
%TO.C,SW13*%
X106100000Y-113258400D02*
X106100000Y-123158400D01*
X108100000Y-111358400D02*
X114800000Y-111358400D01*
X114800000Y-111358400D02*
X114800000Y-123158400D01*
X114800000Y-123158400D02*
X106100000Y-123158400D01*
D14*
%TO.C,R7*%
X48772936Y-61176000D02*
X50227064Y-61176000D01*
X48772936Y-62996000D02*
X50227064Y-62996000D01*
D15*
%TO.C,SW10*%
X88566666Y-95317600D02*
X88566666Y-105217600D01*
X90566666Y-93417600D02*
X97266666Y-93417600D01*
X97266666Y-93417600D02*
X97266666Y-105217600D01*
X97266666Y-105217600D02*
X88566666Y-105217600D01*
D14*
%TO.C,R58*%
X84172936Y-153530000D02*
X85627064Y-153530000D01*
X84172936Y-155350000D02*
X85627064Y-155350000D01*
D15*
%TO.C,SW14*%
X88566666Y-113258400D02*
X88566666Y-123158400D01*
X90566666Y-111358400D02*
X97266666Y-111358400D01*
X97266666Y-111358400D02*
X97266666Y-123158400D01*
X97266666Y-123158400D02*
X88566666Y-123158400D01*
%TO.C,SW15*%
X71033333Y-113258400D02*
X71033333Y-123158400D01*
X73033333Y-111358400D02*
X79733333Y-111358400D01*
X79733333Y-111358400D02*
X79733333Y-123158400D01*
X79733333Y-123158400D02*
X71033333Y-123158400D01*
D14*
%TO.C,R53*%
X48772936Y-150880000D02*
X50227064Y-150880000D01*
X48772936Y-152700000D02*
X50227064Y-152700000D01*
%TO.C,R24*%
X84172936Y-97107600D02*
X85627064Y-97107600D01*
X84172936Y-98927600D02*
X85627064Y-98927600D01*
%TO.C,R49*%
X66272936Y-137039200D02*
X67727064Y-137039200D01*
X66272936Y-138859200D02*
X67727064Y-138859200D01*
D15*
%TO.C,SW4*%
X53500000Y-59436000D02*
X53500000Y-69336000D01*
X55500000Y-57536000D02*
X62200000Y-57536000D01*
X62200000Y-57536000D02*
X62200000Y-69336000D01*
X62200000Y-69336000D02*
X53500000Y-69336000D01*
%TO.C,SW20*%
X53500000Y-131199200D02*
X53500000Y-141099200D01*
X55500000Y-129299200D02*
X62200000Y-129299200D01*
X62200000Y-129299200D02*
X62200000Y-141099200D01*
X62200000Y-141099200D02*
X53500000Y-141099200D01*
D14*
%TO.C,R13*%
X48772936Y-79116800D02*
X50227064Y-79116800D01*
X48772936Y-80936800D02*
X50227064Y-80936800D01*
D15*
%TO.C,SW23*%
X71033333Y-149140000D02*
X71033333Y-159040000D01*
X73033333Y-147240000D02*
X79733333Y-147240000D01*
X79733333Y-147240000D02*
X79733333Y-159040000D01*
X79733333Y-159040000D02*
X71033333Y-159040000D01*
D14*
%TO.C,R45*%
X66272936Y-134289200D02*
X67727064Y-134289200D01*
X66272936Y-136109200D02*
X67727064Y-136109200D01*
%TO.C,R27*%
X102890000Y-100044664D02*
X102890000Y-98590536D01*
X104710000Y-100044664D02*
X104710000Y-98590536D01*
%TO.C,R54*%
X84172936Y-150930000D02*
X85627064Y-150930000D01*
X84172936Y-152750000D02*
X85627064Y-152750000D01*
%TO.C,R19*%
X66272936Y-83216800D02*
X67727064Y-83216800D01*
X66272936Y-85036800D02*
X67727064Y-85036800D01*
%TO.C,R46*%
X48772936Y-135639200D02*
X50227064Y-135639200D01*
X48772936Y-137459200D02*
X50227064Y-137459200D01*
%TO.C,R55*%
X66272936Y-152230000D02*
X67727064Y-152230000D01*
X66272936Y-154050000D02*
X67727064Y-154050000D01*
%TO.C,R31*%
X48772936Y-112298400D02*
X50227064Y-112298400D01*
X48772936Y-114118400D02*
X50227064Y-114118400D01*
%TO.C,R6*%
X66272936Y-59776000D02*
X67727064Y-59776000D01*
X66272936Y-61596000D02*
X67727064Y-61596000D01*
D15*
%TO.C,SW16*%
X53500000Y-113258400D02*
X53500000Y-123158400D01*
X55500000Y-111358400D02*
X62200000Y-111358400D01*
X62200000Y-111358400D02*
X62200000Y-123158400D01*
X62200000Y-123158400D02*
X53500000Y-123158400D01*
%TO.C,SW3*%
X71033333Y-59436000D02*
X71033333Y-69336000D01*
X73033333Y-57536000D02*
X79733333Y-57536000D01*
X79733333Y-57536000D02*
X79733333Y-69336000D01*
X79733333Y-69336000D02*
X71033333Y-69336000D01*
D14*
%TO.C,R8*%
X48772936Y-63876000D02*
X50227064Y-63876000D01*
X48772936Y-65696000D02*
X50227064Y-65696000D01*
%TO.C,R57*%
X102890000Y-153867064D02*
X102890000Y-152412936D01*
X104710000Y-153867064D02*
X104710000Y-152412936D01*
%TO.C,R44*%
X84172936Y-132989200D02*
X85627064Y-132989200D01*
X84172936Y-134809200D02*
X85627064Y-134809200D01*
D15*
%TO.C,SW24*%
X53500000Y-149140000D02*
X53500000Y-159040000D01*
X55500000Y-147240000D02*
X62200000Y-147240000D01*
X62200000Y-147240000D02*
X62200000Y-159040000D01*
X62200000Y-159040000D02*
X53500000Y-159040000D01*
D14*
%TO.C,R43*%
X48772936Y-132939200D02*
X50227064Y-132939200D01*
X48772936Y-134759200D02*
X50227064Y-134759200D01*
D15*
%TO.C,SW19*%
X71033333Y-131199200D02*
X71033333Y-141099200D01*
X73033333Y-129299200D02*
X79733333Y-129299200D01*
X79733333Y-129299200D02*
X79733333Y-141099200D01*
X79733333Y-141099200D02*
X71033333Y-141099200D01*
D14*
%TO.C,R14*%
X84172936Y-79166800D02*
X85627064Y-79166800D01*
X84172936Y-80986800D02*
X85627064Y-80986800D01*
D15*
%TO.C,SW1*%
X106100000Y-59436000D02*
X106100000Y-69336000D01*
X108100000Y-57536000D02*
X114800000Y-57536000D01*
X114800000Y-57536000D02*
X114800000Y-69336000D01*
X114800000Y-69336000D02*
X106100000Y-69336000D01*
D14*
%TO.C,R26*%
X48772936Y-99757600D02*
X50227064Y-99757600D01*
X48772936Y-101577600D02*
X50227064Y-101577600D01*
D15*
%TO.C,SW18*%
X88566666Y-131199200D02*
X88566666Y-141099200D01*
X90566666Y-129299200D02*
X97266666Y-129299200D01*
X97266666Y-129299200D02*
X97266666Y-141099200D01*
X97266666Y-141099200D02*
X88566666Y-141099200D01*
D14*
%TO.C,R59*%
X66272936Y-154980000D02*
X67727064Y-154980000D01*
X66272936Y-156800000D02*
X67727064Y-156800000D01*
D15*
%TO.C,SW17*%
X106100000Y-131199200D02*
X106100000Y-141099200D01*
X108100000Y-129299200D02*
X114800000Y-129299200D01*
X114800000Y-129299200D02*
X114800000Y-141099200D01*
X114800000Y-141099200D02*
X106100000Y-141099200D01*
D14*
%TO.C,R9*%
X48772936Y-66576000D02*
X50227064Y-66576000D01*
X48772936Y-68396000D02*
X50227064Y-68396000D01*
%TO.C,R1*%
X102890000Y-64163064D02*
X102890000Y-62708936D01*
X104710000Y-64163064D02*
X104710000Y-62708936D01*
D15*
%TO.C,SW9*%
X106100000Y-95317600D02*
X106100000Y-105217600D01*
X108100000Y-93417600D02*
X114800000Y-93417600D01*
X114800000Y-93417600D02*
X114800000Y-105217600D01*
X114800000Y-105217600D02*
X106100000Y-105217600D01*
D14*
%TO.C,R16*%
X48772936Y-81816800D02*
X50227064Y-81816800D01*
X48772936Y-83636800D02*
X50227064Y-83636800D01*
%TO.C,R22*%
X66272936Y-95657600D02*
X67727064Y-95657600D01*
X66272936Y-97477600D02*
X67727064Y-97477600D01*
%TO.C,R50*%
X48772936Y-138339200D02*
X50227064Y-138339200D01*
X48772936Y-140159200D02*
X50227064Y-140159200D01*
%TO.C,R20*%
X48772936Y-84516800D02*
X50227064Y-84516800D01*
X48772936Y-86336800D02*
X50227064Y-86336800D01*
%TO.C,R42*%
X66272936Y-131539200D02*
X67727064Y-131539200D01*
X66272936Y-133359200D02*
X67727064Y-133359200D01*
%TO.C,R33*%
X48772936Y-114998400D02*
X50227064Y-114998400D01*
X48772936Y-116818400D02*
X50227064Y-116818400D01*
%TO.C,R15*%
X66272936Y-80466800D02*
X67727064Y-80466800D01*
X66272936Y-82286800D02*
X67727064Y-82286800D01*
%TO.C,R52*%
X66272936Y-149480000D02*
X67727064Y-149480000D01*
X66272936Y-151300000D02*
X67727064Y-151300000D01*
%TO.C,R39*%
X66272936Y-119098400D02*
X67727064Y-119098400D01*
X66272936Y-120918400D02*
X67727064Y-120918400D01*
%TO.C,R23*%
X48772936Y-97057600D02*
X50227064Y-97057600D01*
X48772936Y-98877600D02*
X50227064Y-98877600D01*
%TD*%
D16*
X41450000Y-30000000D02*
X116475000Y-30000000D01*
X116475000Y-161550000D01*
X41450000Y-161550000D01*
X41450000Y-30000000D01*
M02*
