%TF.GenerationSoftware,KiCad,Pcbnew,8.0.2*%
%TF.CreationDate,2024-08-18T00:41:24+05:30*%
%TF.ProjectId,DEC_R_BOX,4445435f-525f-4424-9f58-2e6b69636164,rev?*%
%TF.SameCoordinates,Original*%
%TF.FileFunction,Soldermask,Bot*%
%TF.FilePolarity,Negative*%
%FSLAX46Y46*%
G04 Gerber Fmt 4.6, Leading zero omitted, Abs format (unit mm)*
G04 Created by KiCad (PCBNEW 8.0.2) date 2024-08-18 00:41:24*
%MOMM*%
%LPD*%
G01*
G04 APERTURE LIST*
%ADD10R,1.300000X1.300000*%
%ADD11C,1.300000*%
%ADD12C,5.600000*%
%TA.AperFunction,Profile*%
%ADD13C,0.050000*%
%TD*%
G04 APERTURE END LIST*
D10*
%TO.C,SW5*%
X108200000Y-78836800D03*
D11*
X108200000Y-81376800D03*
X108200000Y-83916800D03*
%TD*%
D10*
%TO.C,SW12*%
X55600000Y-96777600D03*
D11*
X55600000Y-99317600D03*
X55600000Y-101857600D03*
%TD*%
D10*
%TO.C,SW6*%
X90666666Y-78836800D03*
D11*
X90666666Y-81376800D03*
X90666666Y-83916800D03*
%TD*%
D10*
%TO.C,SW2*%
X90666666Y-60896000D03*
D11*
X90666666Y-63436000D03*
X90666666Y-65976000D03*
%TD*%
D10*
%TO.C,SW21*%
X108200000Y-150600000D03*
D11*
X108200000Y-153140000D03*
X108200000Y-155680000D03*
%TD*%
D10*
%TO.C,SW8*%
X55600000Y-78836800D03*
D11*
X55600000Y-81376800D03*
X55600000Y-83916800D03*
%TD*%
D10*
%TO.C,SW22*%
X90666666Y-150600000D03*
D11*
X90666666Y-153140000D03*
X90666666Y-155680000D03*
%TD*%
D10*
%TO.C,SW11*%
X73133333Y-96777600D03*
D11*
X73133333Y-99317600D03*
X73133333Y-101857600D03*
%TD*%
D10*
%TO.C,SW7*%
X73133333Y-78836800D03*
D11*
X73133333Y-81376800D03*
X73133333Y-83916800D03*
%TD*%
D10*
%TO.C,SW13*%
X108200000Y-114718400D03*
D11*
X108200000Y-117258400D03*
X108200000Y-119798400D03*
%TD*%
D10*
%TO.C,SW10*%
X90666666Y-96777600D03*
D11*
X90666666Y-99317600D03*
X90666666Y-101857600D03*
%TD*%
D10*
%TO.C,SW14*%
X90666666Y-114718400D03*
D11*
X90666666Y-117258400D03*
X90666666Y-119798400D03*
%TD*%
D10*
%TO.C,SW15*%
X73133333Y-114718400D03*
D11*
X73133333Y-117258400D03*
X73133333Y-119798400D03*
%TD*%
D10*
%TO.C,SW4*%
X55600000Y-60896000D03*
D11*
X55600000Y-63436000D03*
X55600000Y-65976000D03*
%TD*%
D10*
%TO.C,SW20*%
X55600000Y-132659200D03*
D11*
X55600000Y-135199200D03*
X55600000Y-137739200D03*
%TD*%
D10*
%TO.C,SW23*%
X73133333Y-150600000D03*
D11*
X73133333Y-153140000D03*
X73133333Y-155680000D03*
%TD*%
D10*
%TO.C,SW16*%
X55600000Y-114718400D03*
D11*
X55600000Y-117258400D03*
X55600000Y-119798400D03*
%TD*%
D10*
%TO.C,SW3*%
X73133333Y-60896000D03*
D11*
X73133333Y-63436000D03*
X73133333Y-65976000D03*
%TD*%
D10*
%TO.C,SW24*%
X55600000Y-150600000D03*
D11*
X55600000Y-153140000D03*
X55600000Y-155680000D03*
%TD*%
D10*
%TO.C,SW19*%
X73133333Y-132659200D03*
D11*
X73133333Y-135199200D03*
X73133333Y-137739200D03*
%TD*%
D10*
%TO.C,SW1*%
X108200000Y-60896000D03*
D11*
X108200000Y-63436000D03*
X108200000Y-65976000D03*
%TD*%
D10*
%TO.C,SW18*%
X90666666Y-132659200D03*
D11*
X90666666Y-135199200D03*
X90666666Y-137739200D03*
%TD*%
D12*
%TO.C,J2*%
X87500000Y-44500000D03*
%TD*%
D10*
%TO.C,SW17*%
X108200000Y-132659200D03*
D11*
X108200000Y-135199200D03*
X108200000Y-137739200D03*
%TD*%
D10*
%TO.C,SW9*%
X108200000Y-96777600D03*
D11*
X108200000Y-99317600D03*
X108200000Y-101857600D03*
%TD*%
D12*
%TO.C,J1*%
X74412500Y-44525000D03*
%TD*%
D13*
X41450000Y-30000000D02*
X116475000Y-30000000D01*
X116475000Y-161550000D01*
X41450000Y-161550000D01*
X41450000Y-30000000D01*
M02*
