%TF.GenerationSoftware,KiCad,Pcbnew,8.0.2*%
%TF.CreationDate,2024-08-18T00:08:44+05:30*%
%TF.ProjectId,DEC_R_BOX,4445435f-525f-4424-9f58-2e6b69636164,rev?*%
%TF.SameCoordinates,Original*%
%TF.FileFunction,Legend,Top*%
%TF.FilePolarity,Positive*%
%FSLAX46Y46*%
G04 Gerber Fmt 4.6, Leading zero omitted, Abs format (unit mm)*
G04 Created by KiCad (PCBNEW 8.0.2) date 2024-08-18 00:08:44*
%MOMM*%
%LPD*%
G01*
G04 APERTURE LIST*
%ADD10C,0.100000*%
%ADD11C,0.500000*%
%ADD12C,1.500000*%
%ADD13C,0.200000*%
%ADD14C,0.120000*%
%ADD15C,0.150000*%
%TA.AperFunction,Profile*%
%ADD16C,0.050000*%
%TD*%
G04 APERTURE END LIST*
D10*
X88525000Y-143650000D02*
X114675000Y-143650000D01*
X67400000Y-143650000D02*
X88525000Y-143650000D01*
X45075000Y-143650000D02*
X67400000Y-143650000D01*
X67500000Y-125650000D02*
X88625000Y-125650000D01*
X45175000Y-125650000D02*
X67500000Y-125650000D01*
X88625000Y-125650000D02*
X114775000Y-125650000D01*
X67550000Y-107700000D02*
X88675000Y-107700000D01*
X88675000Y-107700000D02*
X114825000Y-107700000D01*
X45225000Y-107700000D02*
X67550000Y-107700000D01*
X88725000Y-89875000D02*
X114875000Y-89875000D01*
X45275000Y-89875000D02*
X67600000Y-89875000D01*
X67600000Y-89875000D02*
X88725000Y-89875000D01*
X88775000Y-71925000D02*
X114925000Y-71925000D01*
X67650000Y-71925000D02*
X88775000Y-71925000D01*
X45325000Y-71925000D02*
X67650000Y-71925000D01*
D11*
X69000000Y-39000000D02*
X93000000Y-39000000D01*
X93000000Y-52000000D01*
X69000000Y-52000000D01*
X69000000Y-39000000D01*
X86805137Y-50467333D02*
X88328947Y-50467333D01*
X87567042Y-51229238D02*
X87567042Y-49705428D01*
X73805137Y-50467333D02*
X75328947Y-50467333D01*
D12*
X78150000Y-44525000D02*
G75*
G02*
X70650000Y-44525000I-3750000J0D01*
G01*
X70650000Y-44525000D02*
G75*
G02*
X78150000Y-44525000I3750000J0D01*
G01*
X91250000Y-44500000D02*
G75*
G02*
X83750000Y-44500000I-3750000J0D01*
G01*
X83750000Y-44500000D02*
G75*
G02*
X91250000Y-44500000I3750000J0D01*
G01*
D10*
X103250000Y-148000000D02*
X105500000Y-148000000D01*
D13*
X101145863Y-147142742D02*
X101374435Y-147142742D01*
X101374435Y-147142742D02*
X101488720Y-147199885D01*
X101488720Y-147199885D02*
X101603006Y-147314171D01*
X101603006Y-147314171D02*
X101660149Y-147542742D01*
X101660149Y-147542742D02*
X101660149Y-147942742D01*
X101660149Y-147942742D02*
X101603006Y-148171314D01*
X101603006Y-148171314D02*
X101488720Y-148285600D01*
X101488720Y-148285600D02*
X101374435Y-148342742D01*
X101374435Y-148342742D02*
X101145863Y-148342742D01*
X101145863Y-148342742D02*
X101031578Y-148285600D01*
X101031578Y-148285600D02*
X100917292Y-148171314D01*
X100917292Y-148171314D02*
X100860149Y-147942742D01*
X100860149Y-147942742D02*
X100860149Y-147542742D01*
X100860149Y-147542742D02*
X100917292Y-147314171D01*
X100917292Y-147314171D02*
X101031578Y-147199885D01*
X101031578Y-147199885D02*
X101145863Y-147142742D01*
X102174435Y-148342742D02*
X102174435Y-147142742D01*
X102174435Y-147142742D02*
X102860149Y-148342742D01*
X102860149Y-148342742D02*
X102860149Y-147142742D01*
D10*
X97750000Y-148000000D02*
X100250000Y-148000000D01*
D13*
X100895863Y-157142742D02*
X101124435Y-157142742D01*
X101124435Y-157142742D02*
X101238720Y-157199885D01*
X101238720Y-157199885D02*
X101353006Y-157314171D01*
X101353006Y-157314171D02*
X101410149Y-157542742D01*
X101410149Y-157542742D02*
X101410149Y-157942742D01*
X101410149Y-157942742D02*
X101353006Y-158171314D01*
X101353006Y-158171314D02*
X101238720Y-158285600D01*
X101238720Y-158285600D02*
X101124435Y-158342742D01*
X101124435Y-158342742D02*
X100895863Y-158342742D01*
X100895863Y-158342742D02*
X100781578Y-158285600D01*
X100781578Y-158285600D02*
X100667292Y-158171314D01*
X100667292Y-158171314D02*
X100610149Y-157942742D01*
X100610149Y-157942742D02*
X100610149Y-157542742D01*
X100610149Y-157542742D02*
X100667292Y-157314171D01*
X100667292Y-157314171D02*
X100781578Y-157199885D01*
X100781578Y-157199885D02*
X100895863Y-157142742D01*
X102324435Y-157714171D02*
X101924435Y-157714171D01*
X101924435Y-158342742D02*
X101924435Y-157142742D01*
X101924435Y-157142742D02*
X102495863Y-157142742D01*
X103353006Y-157714171D02*
X102953006Y-157714171D01*
X102953006Y-158342742D02*
X102953006Y-157142742D01*
X102953006Y-157142742D02*
X103524434Y-157142742D01*
D10*
X97750000Y-158000000D02*
X99750000Y-158000000D01*
X103750000Y-158000000D02*
X105500000Y-158000000D01*
X85750000Y-148000000D02*
X88000000Y-148000000D01*
D13*
X83645863Y-147142742D02*
X83874435Y-147142742D01*
X83874435Y-147142742D02*
X83988720Y-147199885D01*
X83988720Y-147199885D02*
X84103006Y-147314171D01*
X84103006Y-147314171D02*
X84160149Y-147542742D01*
X84160149Y-147542742D02*
X84160149Y-147942742D01*
X84160149Y-147942742D02*
X84103006Y-148171314D01*
X84103006Y-148171314D02*
X83988720Y-148285600D01*
X83988720Y-148285600D02*
X83874435Y-148342742D01*
X83874435Y-148342742D02*
X83645863Y-148342742D01*
X83645863Y-148342742D02*
X83531578Y-148285600D01*
X83531578Y-148285600D02*
X83417292Y-148171314D01*
X83417292Y-148171314D02*
X83360149Y-147942742D01*
X83360149Y-147942742D02*
X83360149Y-147542742D01*
X83360149Y-147542742D02*
X83417292Y-147314171D01*
X83417292Y-147314171D02*
X83531578Y-147199885D01*
X83531578Y-147199885D02*
X83645863Y-147142742D01*
X84674435Y-148342742D02*
X84674435Y-147142742D01*
X84674435Y-147142742D02*
X85360149Y-148342742D01*
X85360149Y-148342742D02*
X85360149Y-147142742D01*
D10*
X80250000Y-148000000D02*
X82750000Y-148000000D01*
D13*
X83395863Y-157142742D02*
X83624435Y-157142742D01*
X83624435Y-157142742D02*
X83738720Y-157199885D01*
X83738720Y-157199885D02*
X83853006Y-157314171D01*
X83853006Y-157314171D02*
X83910149Y-157542742D01*
X83910149Y-157542742D02*
X83910149Y-157942742D01*
X83910149Y-157942742D02*
X83853006Y-158171314D01*
X83853006Y-158171314D02*
X83738720Y-158285600D01*
X83738720Y-158285600D02*
X83624435Y-158342742D01*
X83624435Y-158342742D02*
X83395863Y-158342742D01*
X83395863Y-158342742D02*
X83281578Y-158285600D01*
X83281578Y-158285600D02*
X83167292Y-158171314D01*
X83167292Y-158171314D02*
X83110149Y-157942742D01*
X83110149Y-157942742D02*
X83110149Y-157542742D01*
X83110149Y-157542742D02*
X83167292Y-157314171D01*
X83167292Y-157314171D02*
X83281578Y-157199885D01*
X83281578Y-157199885D02*
X83395863Y-157142742D01*
X84824435Y-157714171D02*
X84424435Y-157714171D01*
X84424435Y-158342742D02*
X84424435Y-157142742D01*
X84424435Y-157142742D02*
X84995863Y-157142742D01*
X85853006Y-157714171D02*
X85453006Y-157714171D01*
X85453006Y-158342742D02*
X85453006Y-157142742D01*
X85453006Y-157142742D02*
X86024434Y-157142742D01*
D10*
X80250000Y-158000000D02*
X82250000Y-158000000D01*
X86250000Y-158000000D02*
X88000000Y-158000000D01*
X68250000Y-148250000D02*
X70500000Y-148250000D01*
D13*
X66145863Y-147392742D02*
X66374435Y-147392742D01*
X66374435Y-147392742D02*
X66488720Y-147449885D01*
X66488720Y-147449885D02*
X66603006Y-147564171D01*
X66603006Y-147564171D02*
X66660149Y-147792742D01*
X66660149Y-147792742D02*
X66660149Y-148192742D01*
X66660149Y-148192742D02*
X66603006Y-148421314D01*
X66603006Y-148421314D02*
X66488720Y-148535600D01*
X66488720Y-148535600D02*
X66374435Y-148592742D01*
X66374435Y-148592742D02*
X66145863Y-148592742D01*
X66145863Y-148592742D02*
X66031578Y-148535600D01*
X66031578Y-148535600D02*
X65917292Y-148421314D01*
X65917292Y-148421314D02*
X65860149Y-148192742D01*
X65860149Y-148192742D02*
X65860149Y-147792742D01*
X65860149Y-147792742D02*
X65917292Y-147564171D01*
X65917292Y-147564171D02*
X66031578Y-147449885D01*
X66031578Y-147449885D02*
X66145863Y-147392742D01*
X67174435Y-148592742D02*
X67174435Y-147392742D01*
X67174435Y-147392742D02*
X67860149Y-148592742D01*
X67860149Y-148592742D02*
X67860149Y-147392742D01*
D10*
X62750000Y-148250000D02*
X65250000Y-148250000D01*
D13*
X65895863Y-157392742D02*
X66124435Y-157392742D01*
X66124435Y-157392742D02*
X66238720Y-157449885D01*
X66238720Y-157449885D02*
X66353006Y-157564171D01*
X66353006Y-157564171D02*
X66410149Y-157792742D01*
X66410149Y-157792742D02*
X66410149Y-158192742D01*
X66410149Y-158192742D02*
X66353006Y-158421314D01*
X66353006Y-158421314D02*
X66238720Y-158535600D01*
X66238720Y-158535600D02*
X66124435Y-158592742D01*
X66124435Y-158592742D02*
X65895863Y-158592742D01*
X65895863Y-158592742D02*
X65781578Y-158535600D01*
X65781578Y-158535600D02*
X65667292Y-158421314D01*
X65667292Y-158421314D02*
X65610149Y-158192742D01*
X65610149Y-158192742D02*
X65610149Y-157792742D01*
X65610149Y-157792742D02*
X65667292Y-157564171D01*
X65667292Y-157564171D02*
X65781578Y-157449885D01*
X65781578Y-157449885D02*
X65895863Y-157392742D01*
X67324435Y-157964171D02*
X66924435Y-157964171D01*
X66924435Y-158592742D02*
X66924435Y-157392742D01*
X66924435Y-157392742D02*
X67495863Y-157392742D01*
X68353006Y-157964171D02*
X67953006Y-157964171D01*
X67953006Y-158592742D02*
X67953006Y-157392742D01*
X67953006Y-157392742D02*
X68524434Y-157392742D01*
D10*
X62750000Y-158250000D02*
X64750000Y-158250000D01*
X68750000Y-158250000D02*
X70500000Y-158250000D01*
X68250000Y-130250000D02*
X70500000Y-130250000D01*
D13*
X66145863Y-129392742D02*
X66374435Y-129392742D01*
X66374435Y-129392742D02*
X66488720Y-129449885D01*
X66488720Y-129449885D02*
X66603006Y-129564171D01*
X66603006Y-129564171D02*
X66660149Y-129792742D01*
X66660149Y-129792742D02*
X66660149Y-130192742D01*
X66660149Y-130192742D02*
X66603006Y-130421314D01*
X66603006Y-130421314D02*
X66488720Y-130535600D01*
X66488720Y-130535600D02*
X66374435Y-130592742D01*
X66374435Y-130592742D02*
X66145863Y-130592742D01*
X66145863Y-130592742D02*
X66031578Y-130535600D01*
X66031578Y-130535600D02*
X65917292Y-130421314D01*
X65917292Y-130421314D02*
X65860149Y-130192742D01*
X65860149Y-130192742D02*
X65860149Y-129792742D01*
X65860149Y-129792742D02*
X65917292Y-129564171D01*
X65917292Y-129564171D02*
X66031578Y-129449885D01*
X66031578Y-129449885D02*
X66145863Y-129392742D01*
X67174435Y-130592742D02*
X67174435Y-129392742D01*
X67174435Y-129392742D02*
X67860149Y-130592742D01*
X67860149Y-130592742D02*
X67860149Y-129392742D01*
D10*
X62750000Y-130250000D02*
X65250000Y-130250000D01*
D13*
X65895863Y-139392742D02*
X66124435Y-139392742D01*
X66124435Y-139392742D02*
X66238720Y-139449885D01*
X66238720Y-139449885D02*
X66353006Y-139564171D01*
X66353006Y-139564171D02*
X66410149Y-139792742D01*
X66410149Y-139792742D02*
X66410149Y-140192742D01*
X66410149Y-140192742D02*
X66353006Y-140421314D01*
X66353006Y-140421314D02*
X66238720Y-140535600D01*
X66238720Y-140535600D02*
X66124435Y-140592742D01*
X66124435Y-140592742D02*
X65895863Y-140592742D01*
X65895863Y-140592742D02*
X65781578Y-140535600D01*
X65781578Y-140535600D02*
X65667292Y-140421314D01*
X65667292Y-140421314D02*
X65610149Y-140192742D01*
X65610149Y-140192742D02*
X65610149Y-139792742D01*
X65610149Y-139792742D02*
X65667292Y-139564171D01*
X65667292Y-139564171D02*
X65781578Y-139449885D01*
X65781578Y-139449885D02*
X65895863Y-139392742D01*
X67324435Y-139964171D02*
X66924435Y-139964171D01*
X66924435Y-140592742D02*
X66924435Y-139392742D01*
X66924435Y-139392742D02*
X67495863Y-139392742D01*
X68353006Y-139964171D02*
X67953006Y-139964171D01*
X67953006Y-140592742D02*
X67953006Y-139392742D01*
X67953006Y-139392742D02*
X68524434Y-139392742D01*
D10*
X62750000Y-140250000D02*
X64750000Y-140250000D01*
X68750000Y-140250000D02*
X70500000Y-140250000D01*
X85750000Y-130000000D02*
X88000000Y-130000000D01*
D13*
X83645863Y-129142742D02*
X83874435Y-129142742D01*
X83874435Y-129142742D02*
X83988720Y-129199885D01*
X83988720Y-129199885D02*
X84103006Y-129314171D01*
X84103006Y-129314171D02*
X84160149Y-129542742D01*
X84160149Y-129542742D02*
X84160149Y-129942742D01*
X84160149Y-129942742D02*
X84103006Y-130171314D01*
X84103006Y-130171314D02*
X83988720Y-130285600D01*
X83988720Y-130285600D02*
X83874435Y-130342742D01*
X83874435Y-130342742D02*
X83645863Y-130342742D01*
X83645863Y-130342742D02*
X83531578Y-130285600D01*
X83531578Y-130285600D02*
X83417292Y-130171314D01*
X83417292Y-130171314D02*
X83360149Y-129942742D01*
X83360149Y-129942742D02*
X83360149Y-129542742D01*
X83360149Y-129542742D02*
X83417292Y-129314171D01*
X83417292Y-129314171D02*
X83531578Y-129199885D01*
X83531578Y-129199885D02*
X83645863Y-129142742D01*
X84674435Y-130342742D02*
X84674435Y-129142742D01*
X84674435Y-129142742D02*
X85360149Y-130342742D01*
X85360149Y-130342742D02*
X85360149Y-129142742D01*
D10*
X80250000Y-130000000D02*
X82750000Y-130000000D01*
D13*
X83395863Y-139142742D02*
X83624435Y-139142742D01*
X83624435Y-139142742D02*
X83738720Y-139199885D01*
X83738720Y-139199885D02*
X83853006Y-139314171D01*
X83853006Y-139314171D02*
X83910149Y-139542742D01*
X83910149Y-139542742D02*
X83910149Y-139942742D01*
X83910149Y-139942742D02*
X83853006Y-140171314D01*
X83853006Y-140171314D02*
X83738720Y-140285600D01*
X83738720Y-140285600D02*
X83624435Y-140342742D01*
X83624435Y-140342742D02*
X83395863Y-140342742D01*
X83395863Y-140342742D02*
X83281578Y-140285600D01*
X83281578Y-140285600D02*
X83167292Y-140171314D01*
X83167292Y-140171314D02*
X83110149Y-139942742D01*
X83110149Y-139942742D02*
X83110149Y-139542742D01*
X83110149Y-139542742D02*
X83167292Y-139314171D01*
X83167292Y-139314171D02*
X83281578Y-139199885D01*
X83281578Y-139199885D02*
X83395863Y-139142742D01*
X84824435Y-139714171D02*
X84424435Y-139714171D01*
X84424435Y-140342742D02*
X84424435Y-139142742D01*
X84424435Y-139142742D02*
X84995863Y-139142742D01*
X85853006Y-139714171D02*
X85453006Y-139714171D01*
X85453006Y-140342742D02*
X85453006Y-139142742D01*
X85453006Y-139142742D02*
X86024434Y-139142742D01*
D10*
X80250000Y-140000000D02*
X82250000Y-140000000D01*
X86250000Y-140000000D02*
X88000000Y-140000000D01*
X103500000Y-130000000D02*
X105750000Y-130000000D01*
D13*
X101395863Y-129142742D02*
X101624435Y-129142742D01*
X101624435Y-129142742D02*
X101738720Y-129199885D01*
X101738720Y-129199885D02*
X101853006Y-129314171D01*
X101853006Y-129314171D02*
X101910149Y-129542742D01*
X101910149Y-129542742D02*
X101910149Y-129942742D01*
X101910149Y-129942742D02*
X101853006Y-130171314D01*
X101853006Y-130171314D02*
X101738720Y-130285600D01*
X101738720Y-130285600D02*
X101624435Y-130342742D01*
X101624435Y-130342742D02*
X101395863Y-130342742D01*
X101395863Y-130342742D02*
X101281578Y-130285600D01*
X101281578Y-130285600D02*
X101167292Y-130171314D01*
X101167292Y-130171314D02*
X101110149Y-129942742D01*
X101110149Y-129942742D02*
X101110149Y-129542742D01*
X101110149Y-129542742D02*
X101167292Y-129314171D01*
X101167292Y-129314171D02*
X101281578Y-129199885D01*
X101281578Y-129199885D02*
X101395863Y-129142742D01*
X102424435Y-130342742D02*
X102424435Y-129142742D01*
X102424435Y-129142742D02*
X103110149Y-130342742D01*
X103110149Y-130342742D02*
X103110149Y-129142742D01*
D10*
X98000000Y-130000000D02*
X100500000Y-130000000D01*
D13*
X101145863Y-139142742D02*
X101374435Y-139142742D01*
X101374435Y-139142742D02*
X101488720Y-139199885D01*
X101488720Y-139199885D02*
X101603006Y-139314171D01*
X101603006Y-139314171D02*
X101660149Y-139542742D01*
X101660149Y-139542742D02*
X101660149Y-139942742D01*
X101660149Y-139942742D02*
X101603006Y-140171314D01*
X101603006Y-140171314D02*
X101488720Y-140285600D01*
X101488720Y-140285600D02*
X101374435Y-140342742D01*
X101374435Y-140342742D02*
X101145863Y-140342742D01*
X101145863Y-140342742D02*
X101031578Y-140285600D01*
X101031578Y-140285600D02*
X100917292Y-140171314D01*
X100917292Y-140171314D02*
X100860149Y-139942742D01*
X100860149Y-139942742D02*
X100860149Y-139542742D01*
X100860149Y-139542742D02*
X100917292Y-139314171D01*
X100917292Y-139314171D02*
X101031578Y-139199885D01*
X101031578Y-139199885D02*
X101145863Y-139142742D01*
X102574435Y-139714171D02*
X102174435Y-139714171D01*
X102174435Y-140342742D02*
X102174435Y-139142742D01*
X102174435Y-139142742D02*
X102745863Y-139142742D01*
X103603006Y-139714171D02*
X103203006Y-139714171D01*
X103203006Y-140342742D02*
X103203006Y-139142742D01*
X103203006Y-139142742D02*
X103774434Y-139142742D01*
D10*
X98000000Y-140000000D02*
X100000000Y-140000000D01*
X104000000Y-140000000D02*
X105750000Y-140000000D01*
X103250000Y-112250000D02*
X105500000Y-112250000D01*
D13*
X101145863Y-111392742D02*
X101374435Y-111392742D01*
X101374435Y-111392742D02*
X101488720Y-111449885D01*
X101488720Y-111449885D02*
X101603006Y-111564171D01*
X101603006Y-111564171D02*
X101660149Y-111792742D01*
X101660149Y-111792742D02*
X101660149Y-112192742D01*
X101660149Y-112192742D02*
X101603006Y-112421314D01*
X101603006Y-112421314D02*
X101488720Y-112535600D01*
X101488720Y-112535600D02*
X101374435Y-112592742D01*
X101374435Y-112592742D02*
X101145863Y-112592742D01*
X101145863Y-112592742D02*
X101031578Y-112535600D01*
X101031578Y-112535600D02*
X100917292Y-112421314D01*
X100917292Y-112421314D02*
X100860149Y-112192742D01*
X100860149Y-112192742D02*
X100860149Y-111792742D01*
X100860149Y-111792742D02*
X100917292Y-111564171D01*
X100917292Y-111564171D02*
X101031578Y-111449885D01*
X101031578Y-111449885D02*
X101145863Y-111392742D01*
X102174435Y-112592742D02*
X102174435Y-111392742D01*
X102174435Y-111392742D02*
X102860149Y-112592742D01*
X102860149Y-112592742D02*
X102860149Y-111392742D01*
D10*
X97750000Y-112250000D02*
X100250000Y-112250000D01*
D13*
X100895863Y-121392742D02*
X101124435Y-121392742D01*
X101124435Y-121392742D02*
X101238720Y-121449885D01*
X101238720Y-121449885D02*
X101353006Y-121564171D01*
X101353006Y-121564171D02*
X101410149Y-121792742D01*
X101410149Y-121792742D02*
X101410149Y-122192742D01*
X101410149Y-122192742D02*
X101353006Y-122421314D01*
X101353006Y-122421314D02*
X101238720Y-122535600D01*
X101238720Y-122535600D02*
X101124435Y-122592742D01*
X101124435Y-122592742D02*
X100895863Y-122592742D01*
X100895863Y-122592742D02*
X100781578Y-122535600D01*
X100781578Y-122535600D02*
X100667292Y-122421314D01*
X100667292Y-122421314D02*
X100610149Y-122192742D01*
X100610149Y-122192742D02*
X100610149Y-121792742D01*
X100610149Y-121792742D02*
X100667292Y-121564171D01*
X100667292Y-121564171D02*
X100781578Y-121449885D01*
X100781578Y-121449885D02*
X100895863Y-121392742D01*
X102324435Y-121964171D02*
X101924435Y-121964171D01*
X101924435Y-122592742D02*
X101924435Y-121392742D01*
X101924435Y-121392742D02*
X102495863Y-121392742D01*
X103353006Y-121964171D02*
X102953006Y-121964171D01*
X102953006Y-122592742D02*
X102953006Y-121392742D01*
X102953006Y-121392742D02*
X103524434Y-121392742D01*
D10*
X97750000Y-122250000D02*
X99750000Y-122250000D01*
X103750000Y-122250000D02*
X105500000Y-122250000D01*
X85750000Y-112000000D02*
X88000000Y-112000000D01*
D13*
X83645863Y-111142742D02*
X83874435Y-111142742D01*
X83874435Y-111142742D02*
X83988720Y-111199885D01*
X83988720Y-111199885D02*
X84103006Y-111314171D01*
X84103006Y-111314171D02*
X84160149Y-111542742D01*
X84160149Y-111542742D02*
X84160149Y-111942742D01*
X84160149Y-111942742D02*
X84103006Y-112171314D01*
X84103006Y-112171314D02*
X83988720Y-112285600D01*
X83988720Y-112285600D02*
X83874435Y-112342742D01*
X83874435Y-112342742D02*
X83645863Y-112342742D01*
X83645863Y-112342742D02*
X83531578Y-112285600D01*
X83531578Y-112285600D02*
X83417292Y-112171314D01*
X83417292Y-112171314D02*
X83360149Y-111942742D01*
X83360149Y-111942742D02*
X83360149Y-111542742D01*
X83360149Y-111542742D02*
X83417292Y-111314171D01*
X83417292Y-111314171D02*
X83531578Y-111199885D01*
X83531578Y-111199885D02*
X83645863Y-111142742D01*
X84674435Y-112342742D02*
X84674435Y-111142742D01*
X84674435Y-111142742D02*
X85360149Y-112342742D01*
X85360149Y-112342742D02*
X85360149Y-111142742D01*
D10*
X80250000Y-112000000D02*
X82750000Y-112000000D01*
D13*
X83395863Y-121142742D02*
X83624435Y-121142742D01*
X83624435Y-121142742D02*
X83738720Y-121199885D01*
X83738720Y-121199885D02*
X83853006Y-121314171D01*
X83853006Y-121314171D02*
X83910149Y-121542742D01*
X83910149Y-121542742D02*
X83910149Y-121942742D01*
X83910149Y-121942742D02*
X83853006Y-122171314D01*
X83853006Y-122171314D02*
X83738720Y-122285600D01*
X83738720Y-122285600D02*
X83624435Y-122342742D01*
X83624435Y-122342742D02*
X83395863Y-122342742D01*
X83395863Y-122342742D02*
X83281578Y-122285600D01*
X83281578Y-122285600D02*
X83167292Y-122171314D01*
X83167292Y-122171314D02*
X83110149Y-121942742D01*
X83110149Y-121942742D02*
X83110149Y-121542742D01*
X83110149Y-121542742D02*
X83167292Y-121314171D01*
X83167292Y-121314171D02*
X83281578Y-121199885D01*
X83281578Y-121199885D02*
X83395863Y-121142742D01*
X84824435Y-121714171D02*
X84424435Y-121714171D01*
X84424435Y-122342742D02*
X84424435Y-121142742D01*
X84424435Y-121142742D02*
X84995863Y-121142742D01*
X85853006Y-121714171D02*
X85453006Y-121714171D01*
X85453006Y-122342742D02*
X85453006Y-121142742D01*
X85453006Y-121142742D02*
X86024434Y-121142742D01*
D10*
X80250000Y-122000000D02*
X82250000Y-122000000D01*
X86250000Y-122000000D02*
X88000000Y-122000000D01*
X68250000Y-112250000D02*
X70500000Y-112250000D01*
D13*
X66145863Y-111392742D02*
X66374435Y-111392742D01*
X66374435Y-111392742D02*
X66488720Y-111449885D01*
X66488720Y-111449885D02*
X66603006Y-111564171D01*
X66603006Y-111564171D02*
X66660149Y-111792742D01*
X66660149Y-111792742D02*
X66660149Y-112192742D01*
X66660149Y-112192742D02*
X66603006Y-112421314D01*
X66603006Y-112421314D02*
X66488720Y-112535600D01*
X66488720Y-112535600D02*
X66374435Y-112592742D01*
X66374435Y-112592742D02*
X66145863Y-112592742D01*
X66145863Y-112592742D02*
X66031578Y-112535600D01*
X66031578Y-112535600D02*
X65917292Y-112421314D01*
X65917292Y-112421314D02*
X65860149Y-112192742D01*
X65860149Y-112192742D02*
X65860149Y-111792742D01*
X65860149Y-111792742D02*
X65917292Y-111564171D01*
X65917292Y-111564171D02*
X66031578Y-111449885D01*
X66031578Y-111449885D02*
X66145863Y-111392742D01*
X67174435Y-112592742D02*
X67174435Y-111392742D01*
X67174435Y-111392742D02*
X67860149Y-112592742D01*
X67860149Y-112592742D02*
X67860149Y-111392742D01*
D10*
X62750000Y-112250000D02*
X65250000Y-112250000D01*
D13*
X65895863Y-121392742D02*
X66124435Y-121392742D01*
X66124435Y-121392742D02*
X66238720Y-121449885D01*
X66238720Y-121449885D02*
X66353006Y-121564171D01*
X66353006Y-121564171D02*
X66410149Y-121792742D01*
X66410149Y-121792742D02*
X66410149Y-122192742D01*
X66410149Y-122192742D02*
X66353006Y-122421314D01*
X66353006Y-122421314D02*
X66238720Y-122535600D01*
X66238720Y-122535600D02*
X66124435Y-122592742D01*
X66124435Y-122592742D02*
X65895863Y-122592742D01*
X65895863Y-122592742D02*
X65781578Y-122535600D01*
X65781578Y-122535600D02*
X65667292Y-122421314D01*
X65667292Y-122421314D02*
X65610149Y-122192742D01*
X65610149Y-122192742D02*
X65610149Y-121792742D01*
X65610149Y-121792742D02*
X65667292Y-121564171D01*
X65667292Y-121564171D02*
X65781578Y-121449885D01*
X65781578Y-121449885D02*
X65895863Y-121392742D01*
X67324435Y-121964171D02*
X66924435Y-121964171D01*
X66924435Y-122592742D02*
X66924435Y-121392742D01*
X66924435Y-121392742D02*
X67495863Y-121392742D01*
X68353006Y-121964171D02*
X67953006Y-121964171D01*
X67953006Y-122592742D02*
X67953006Y-121392742D01*
X67953006Y-121392742D02*
X68524434Y-121392742D01*
D10*
X62750000Y-122250000D02*
X64750000Y-122250000D01*
X68750000Y-122250000D02*
X70500000Y-122250000D01*
X68250000Y-94000000D02*
X70500000Y-94000000D01*
D13*
X66145863Y-93142742D02*
X66374435Y-93142742D01*
X66374435Y-93142742D02*
X66488720Y-93199885D01*
X66488720Y-93199885D02*
X66603006Y-93314171D01*
X66603006Y-93314171D02*
X66660149Y-93542742D01*
X66660149Y-93542742D02*
X66660149Y-93942742D01*
X66660149Y-93942742D02*
X66603006Y-94171314D01*
X66603006Y-94171314D02*
X66488720Y-94285600D01*
X66488720Y-94285600D02*
X66374435Y-94342742D01*
X66374435Y-94342742D02*
X66145863Y-94342742D01*
X66145863Y-94342742D02*
X66031578Y-94285600D01*
X66031578Y-94285600D02*
X65917292Y-94171314D01*
X65917292Y-94171314D02*
X65860149Y-93942742D01*
X65860149Y-93942742D02*
X65860149Y-93542742D01*
X65860149Y-93542742D02*
X65917292Y-93314171D01*
X65917292Y-93314171D02*
X66031578Y-93199885D01*
X66031578Y-93199885D02*
X66145863Y-93142742D01*
X67174435Y-94342742D02*
X67174435Y-93142742D01*
X67174435Y-93142742D02*
X67860149Y-94342742D01*
X67860149Y-94342742D02*
X67860149Y-93142742D01*
D10*
X62750000Y-94000000D02*
X65250000Y-94000000D01*
D13*
X65895863Y-103142742D02*
X66124435Y-103142742D01*
X66124435Y-103142742D02*
X66238720Y-103199885D01*
X66238720Y-103199885D02*
X66353006Y-103314171D01*
X66353006Y-103314171D02*
X66410149Y-103542742D01*
X66410149Y-103542742D02*
X66410149Y-103942742D01*
X66410149Y-103942742D02*
X66353006Y-104171314D01*
X66353006Y-104171314D02*
X66238720Y-104285600D01*
X66238720Y-104285600D02*
X66124435Y-104342742D01*
X66124435Y-104342742D02*
X65895863Y-104342742D01*
X65895863Y-104342742D02*
X65781578Y-104285600D01*
X65781578Y-104285600D02*
X65667292Y-104171314D01*
X65667292Y-104171314D02*
X65610149Y-103942742D01*
X65610149Y-103942742D02*
X65610149Y-103542742D01*
X65610149Y-103542742D02*
X65667292Y-103314171D01*
X65667292Y-103314171D02*
X65781578Y-103199885D01*
X65781578Y-103199885D02*
X65895863Y-103142742D01*
X67324435Y-103714171D02*
X66924435Y-103714171D01*
X66924435Y-104342742D02*
X66924435Y-103142742D01*
X66924435Y-103142742D02*
X67495863Y-103142742D01*
X68353006Y-103714171D02*
X67953006Y-103714171D01*
X67953006Y-104342742D02*
X67953006Y-103142742D01*
X67953006Y-103142742D02*
X68524434Y-103142742D01*
D10*
X62750000Y-104000000D02*
X64750000Y-104000000D01*
X68750000Y-104000000D02*
X70500000Y-104000000D01*
X86000000Y-94000000D02*
X88250000Y-94000000D01*
D13*
X83895863Y-93142742D02*
X84124435Y-93142742D01*
X84124435Y-93142742D02*
X84238720Y-93199885D01*
X84238720Y-93199885D02*
X84353006Y-93314171D01*
X84353006Y-93314171D02*
X84410149Y-93542742D01*
X84410149Y-93542742D02*
X84410149Y-93942742D01*
X84410149Y-93942742D02*
X84353006Y-94171314D01*
X84353006Y-94171314D02*
X84238720Y-94285600D01*
X84238720Y-94285600D02*
X84124435Y-94342742D01*
X84124435Y-94342742D02*
X83895863Y-94342742D01*
X83895863Y-94342742D02*
X83781578Y-94285600D01*
X83781578Y-94285600D02*
X83667292Y-94171314D01*
X83667292Y-94171314D02*
X83610149Y-93942742D01*
X83610149Y-93942742D02*
X83610149Y-93542742D01*
X83610149Y-93542742D02*
X83667292Y-93314171D01*
X83667292Y-93314171D02*
X83781578Y-93199885D01*
X83781578Y-93199885D02*
X83895863Y-93142742D01*
X84924435Y-94342742D02*
X84924435Y-93142742D01*
X84924435Y-93142742D02*
X85610149Y-94342742D01*
X85610149Y-94342742D02*
X85610149Y-93142742D01*
D10*
X80500000Y-94000000D02*
X83000000Y-94000000D01*
D13*
X83645863Y-103142742D02*
X83874435Y-103142742D01*
X83874435Y-103142742D02*
X83988720Y-103199885D01*
X83988720Y-103199885D02*
X84103006Y-103314171D01*
X84103006Y-103314171D02*
X84160149Y-103542742D01*
X84160149Y-103542742D02*
X84160149Y-103942742D01*
X84160149Y-103942742D02*
X84103006Y-104171314D01*
X84103006Y-104171314D02*
X83988720Y-104285600D01*
X83988720Y-104285600D02*
X83874435Y-104342742D01*
X83874435Y-104342742D02*
X83645863Y-104342742D01*
X83645863Y-104342742D02*
X83531578Y-104285600D01*
X83531578Y-104285600D02*
X83417292Y-104171314D01*
X83417292Y-104171314D02*
X83360149Y-103942742D01*
X83360149Y-103942742D02*
X83360149Y-103542742D01*
X83360149Y-103542742D02*
X83417292Y-103314171D01*
X83417292Y-103314171D02*
X83531578Y-103199885D01*
X83531578Y-103199885D02*
X83645863Y-103142742D01*
X85074435Y-103714171D02*
X84674435Y-103714171D01*
X84674435Y-104342742D02*
X84674435Y-103142742D01*
X84674435Y-103142742D02*
X85245863Y-103142742D01*
X86103006Y-103714171D02*
X85703006Y-103714171D01*
X85703006Y-104342742D02*
X85703006Y-103142742D01*
X85703006Y-103142742D02*
X86274434Y-103142742D01*
D10*
X80500000Y-104000000D02*
X82500000Y-104000000D01*
X86500000Y-104000000D02*
X88250000Y-104000000D01*
X103500000Y-94250000D02*
X105750000Y-94250000D01*
D13*
X101395863Y-93392742D02*
X101624435Y-93392742D01*
X101624435Y-93392742D02*
X101738720Y-93449885D01*
X101738720Y-93449885D02*
X101853006Y-93564171D01*
X101853006Y-93564171D02*
X101910149Y-93792742D01*
X101910149Y-93792742D02*
X101910149Y-94192742D01*
X101910149Y-94192742D02*
X101853006Y-94421314D01*
X101853006Y-94421314D02*
X101738720Y-94535600D01*
X101738720Y-94535600D02*
X101624435Y-94592742D01*
X101624435Y-94592742D02*
X101395863Y-94592742D01*
X101395863Y-94592742D02*
X101281578Y-94535600D01*
X101281578Y-94535600D02*
X101167292Y-94421314D01*
X101167292Y-94421314D02*
X101110149Y-94192742D01*
X101110149Y-94192742D02*
X101110149Y-93792742D01*
X101110149Y-93792742D02*
X101167292Y-93564171D01*
X101167292Y-93564171D02*
X101281578Y-93449885D01*
X101281578Y-93449885D02*
X101395863Y-93392742D01*
X102424435Y-94592742D02*
X102424435Y-93392742D01*
X102424435Y-93392742D02*
X103110149Y-94592742D01*
X103110149Y-94592742D02*
X103110149Y-93392742D01*
D10*
X98000000Y-94250000D02*
X100500000Y-94250000D01*
D13*
X101145863Y-103392742D02*
X101374435Y-103392742D01*
X101374435Y-103392742D02*
X101488720Y-103449885D01*
X101488720Y-103449885D02*
X101603006Y-103564171D01*
X101603006Y-103564171D02*
X101660149Y-103792742D01*
X101660149Y-103792742D02*
X101660149Y-104192742D01*
X101660149Y-104192742D02*
X101603006Y-104421314D01*
X101603006Y-104421314D02*
X101488720Y-104535600D01*
X101488720Y-104535600D02*
X101374435Y-104592742D01*
X101374435Y-104592742D02*
X101145863Y-104592742D01*
X101145863Y-104592742D02*
X101031578Y-104535600D01*
X101031578Y-104535600D02*
X100917292Y-104421314D01*
X100917292Y-104421314D02*
X100860149Y-104192742D01*
X100860149Y-104192742D02*
X100860149Y-103792742D01*
X100860149Y-103792742D02*
X100917292Y-103564171D01*
X100917292Y-103564171D02*
X101031578Y-103449885D01*
X101031578Y-103449885D02*
X101145863Y-103392742D01*
X102574435Y-103964171D02*
X102174435Y-103964171D01*
X102174435Y-104592742D02*
X102174435Y-103392742D01*
X102174435Y-103392742D02*
X102745863Y-103392742D01*
X103603006Y-103964171D02*
X103203006Y-103964171D01*
X103203006Y-104592742D02*
X103203006Y-103392742D01*
X103203006Y-103392742D02*
X103774434Y-103392742D01*
D10*
X98000000Y-104250000D02*
X100000000Y-104250000D01*
X104000000Y-104250000D02*
X105750000Y-104250000D01*
X103250000Y-76250000D02*
X105500000Y-76250000D01*
D13*
X101145863Y-75392742D02*
X101374435Y-75392742D01*
X101374435Y-75392742D02*
X101488720Y-75449885D01*
X101488720Y-75449885D02*
X101603006Y-75564171D01*
X101603006Y-75564171D02*
X101660149Y-75792742D01*
X101660149Y-75792742D02*
X101660149Y-76192742D01*
X101660149Y-76192742D02*
X101603006Y-76421314D01*
X101603006Y-76421314D02*
X101488720Y-76535600D01*
X101488720Y-76535600D02*
X101374435Y-76592742D01*
X101374435Y-76592742D02*
X101145863Y-76592742D01*
X101145863Y-76592742D02*
X101031578Y-76535600D01*
X101031578Y-76535600D02*
X100917292Y-76421314D01*
X100917292Y-76421314D02*
X100860149Y-76192742D01*
X100860149Y-76192742D02*
X100860149Y-75792742D01*
X100860149Y-75792742D02*
X100917292Y-75564171D01*
X100917292Y-75564171D02*
X101031578Y-75449885D01*
X101031578Y-75449885D02*
X101145863Y-75392742D01*
X102174435Y-76592742D02*
X102174435Y-75392742D01*
X102174435Y-75392742D02*
X102860149Y-76592742D01*
X102860149Y-76592742D02*
X102860149Y-75392742D01*
D10*
X97750000Y-76250000D02*
X100250000Y-76250000D01*
D13*
X100895863Y-85392742D02*
X101124435Y-85392742D01*
X101124435Y-85392742D02*
X101238720Y-85449885D01*
X101238720Y-85449885D02*
X101353006Y-85564171D01*
X101353006Y-85564171D02*
X101410149Y-85792742D01*
X101410149Y-85792742D02*
X101410149Y-86192742D01*
X101410149Y-86192742D02*
X101353006Y-86421314D01*
X101353006Y-86421314D02*
X101238720Y-86535600D01*
X101238720Y-86535600D02*
X101124435Y-86592742D01*
X101124435Y-86592742D02*
X100895863Y-86592742D01*
X100895863Y-86592742D02*
X100781578Y-86535600D01*
X100781578Y-86535600D02*
X100667292Y-86421314D01*
X100667292Y-86421314D02*
X100610149Y-86192742D01*
X100610149Y-86192742D02*
X100610149Y-85792742D01*
X100610149Y-85792742D02*
X100667292Y-85564171D01*
X100667292Y-85564171D02*
X100781578Y-85449885D01*
X100781578Y-85449885D02*
X100895863Y-85392742D01*
X102324435Y-85964171D02*
X101924435Y-85964171D01*
X101924435Y-86592742D02*
X101924435Y-85392742D01*
X101924435Y-85392742D02*
X102495863Y-85392742D01*
X103353006Y-85964171D02*
X102953006Y-85964171D01*
X102953006Y-86592742D02*
X102953006Y-85392742D01*
X102953006Y-85392742D02*
X103524434Y-85392742D01*
D10*
X97750000Y-86250000D02*
X99750000Y-86250000D01*
X103750000Y-86250000D02*
X105500000Y-86250000D01*
X85750000Y-76250000D02*
X88000000Y-76250000D01*
D13*
X83645863Y-75392742D02*
X83874435Y-75392742D01*
X83874435Y-75392742D02*
X83988720Y-75449885D01*
X83988720Y-75449885D02*
X84103006Y-75564171D01*
X84103006Y-75564171D02*
X84160149Y-75792742D01*
X84160149Y-75792742D02*
X84160149Y-76192742D01*
X84160149Y-76192742D02*
X84103006Y-76421314D01*
X84103006Y-76421314D02*
X83988720Y-76535600D01*
X83988720Y-76535600D02*
X83874435Y-76592742D01*
X83874435Y-76592742D02*
X83645863Y-76592742D01*
X83645863Y-76592742D02*
X83531578Y-76535600D01*
X83531578Y-76535600D02*
X83417292Y-76421314D01*
X83417292Y-76421314D02*
X83360149Y-76192742D01*
X83360149Y-76192742D02*
X83360149Y-75792742D01*
X83360149Y-75792742D02*
X83417292Y-75564171D01*
X83417292Y-75564171D02*
X83531578Y-75449885D01*
X83531578Y-75449885D02*
X83645863Y-75392742D01*
X84674435Y-76592742D02*
X84674435Y-75392742D01*
X84674435Y-75392742D02*
X85360149Y-76592742D01*
X85360149Y-76592742D02*
X85360149Y-75392742D01*
D10*
X80250000Y-76250000D02*
X82750000Y-76250000D01*
D13*
X83395863Y-85392742D02*
X83624435Y-85392742D01*
X83624435Y-85392742D02*
X83738720Y-85449885D01*
X83738720Y-85449885D02*
X83853006Y-85564171D01*
X83853006Y-85564171D02*
X83910149Y-85792742D01*
X83910149Y-85792742D02*
X83910149Y-86192742D01*
X83910149Y-86192742D02*
X83853006Y-86421314D01*
X83853006Y-86421314D02*
X83738720Y-86535600D01*
X83738720Y-86535600D02*
X83624435Y-86592742D01*
X83624435Y-86592742D02*
X83395863Y-86592742D01*
X83395863Y-86592742D02*
X83281578Y-86535600D01*
X83281578Y-86535600D02*
X83167292Y-86421314D01*
X83167292Y-86421314D02*
X83110149Y-86192742D01*
X83110149Y-86192742D02*
X83110149Y-85792742D01*
X83110149Y-85792742D02*
X83167292Y-85564171D01*
X83167292Y-85564171D02*
X83281578Y-85449885D01*
X83281578Y-85449885D02*
X83395863Y-85392742D01*
X84824435Y-85964171D02*
X84424435Y-85964171D01*
X84424435Y-86592742D02*
X84424435Y-85392742D01*
X84424435Y-85392742D02*
X84995863Y-85392742D01*
X85853006Y-85964171D02*
X85453006Y-85964171D01*
X85453006Y-86592742D02*
X85453006Y-85392742D01*
X85453006Y-85392742D02*
X86024434Y-85392742D01*
D10*
X80250000Y-86250000D02*
X82250000Y-86250000D01*
X86250000Y-86250000D02*
X88000000Y-86250000D01*
X68250000Y-76250000D02*
X70500000Y-76250000D01*
D13*
X66145863Y-75392742D02*
X66374435Y-75392742D01*
X66374435Y-75392742D02*
X66488720Y-75449885D01*
X66488720Y-75449885D02*
X66603006Y-75564171D01*
X66603006Y-75564171D02*
X66660149Y-75792742D01*
X66660149Y-75792742D02*
X66660149Y-76192742D01*
X66660149Y-76192742D02*
X66603006Y-76421314D01*
X66603006Y-76421314D02*
X66488720Y-76535600D01*
X66488720Y-76535600D02*
X66374435Y-76592742D01*
X66374435Y-76592742D02*
X66145863Y-76592742D01*
X66145863Y-76592742D02*
X66031578Y-76535600D01*
X66031578Y-76535600D02*
X65917292Y-76421314D01*
X65917292Y-76421314D02*
X65860149Y-76192742D01*
X65860149Y-76192742D02*
X65860149Y-75792742D01*
X65860149Y-75792742D02*
X65917292Y-75564171D01*
X65917292Y-75564171D02*
X66031578Y-75449885D01*
X66031578Y-75449885D02*
X66145863Y-75392742D01*
X67174435Y-76592742D02*
X67174435Y-75392742D01*
X67174435Y-75392742D02*
X67860149Y-76592742D01*
X67860149Y-76592742D02*
X67860149Y-75392742D01*
D10*
X62750000Y-76250000D02*
X65250000Y-76250000D01*
D13*
X65895863Y-85392742D02*
X66124435Y-85392742D01*
X66124435Y-85392742D02*
X66238720Y-85449885D01*
X66238720Y-85449885D02*
X66353006Y-85564171D01*
X66353006Y-85564171D02*
X66410149Y-85792742D01*
X66410149Y-85792742D02*
X66410149Y-86192742D01*
X66410149Y-86192742D02*
X66353006Y-86421314D01*
X66353006Y-86421314D02*
X66238720Y-86535600D01*
X66238720Y-86535600D02*
X66124435Y-86592742D01*
X66124435Y-86592742D02*
X65895863Y-86592742D01*
X65895863Y-86592742D02*
X65781578Y-86535600D01*
X65781578Y-86535600D02*
X65667292Y-86421314D01*
X65667292Y-86421314D02*
X65610149Y-86192742D01*
X65610149Y-86192742D02*
X65610149Y-85792742D01*
X65610149Y-85792742D02*
X65667292Y-85564171D01*
X65667292Y-85564171D02*
X65781578Y-85449885D01*
X65781578Y-85449885D02*
X65895863Y-85392742D01*
X67324435Y-85964171D02*
X66924435Y-85964171D01*
X66924435Y-86592742D02*
X66924435Y-85392742D01*
X66924435Y-85392742D02*
X67495863Y-85392742D01*
X68353006Y-85964171D02*
X67953006Y-85964171D01*
X67953006Y-86592742D02*
X67953006Y-85392742D01*
X67953006Y-85392742D02*
X68524434Y-85392742D01*
D10*
X62750000Y-86250000D02*
X64750000Y-86250000D01*
X68750000Y-86250000D02*
X70500000Y-86250000D01*
X68250000Y-58500000D02*
X70500000Y-58500000D01*
D13*
X66145863Y-57642742D02*
X66374435Y-57642742D01*
X66374435Y-57642742D02*
X66488720Y-57699885D01*
X66488720Y-57699885D02*
X66603006Y-57814171D01*
X66603006Y-57814171D02*
X66660149Y-58042742D01*
X66660149Y-58042742D02*
X66660149Y-58442742D01*
X66660149Y-58442742D02*
X66603006Y-58671314D01*
X66603006Y-58671314D02*
X66488720Y-58785600D01*
X66488720Y-58785600D02*
X66374435Y-58842742D01*
X66374435Y-58842742D02*
X66145863Y-58842742D01*
X66145863Y-58842742D02*
X66031578Y-58785600D01*
X66031578Y-58785600D02*
X65917292Y-58671314D01*
X65917292Y-58671314D02*
X65860149Y-58442742D01*
X65860149Y-58442742D02*
X65860149Y-58042742D01*
X65860149Y-58042742D02*
X65917292Y-57814171D01*
X65917292Y-57814171D02*
X66031578Y-57699885D01*
X66031578Y-57699885D02*
X66145863Y-57642742D01*
X67174435Y-58842742D02*
X67174435Y-57642742D01*
X67174435Y-57642742D02*
X67860149Y-58842742D01*
X67860149Y-58842742D02*
X67860149Y-57642742D01*
D10*
X62750000Y-58500000D02*
X65250000Y-58500000D01*
D13*
X65895863Y-67642742D02*
X66124435Y-67642742D01*
X66124435Y-67642742D02*
X66238720Y-67699885D01*
X66238720Y-67699885D02*
X66353006Y-67814171D01*
X66353006Y-67814171D02*
X66410149Y-68042742D01*
X66410149Y-68042742D02*
X66410149Y-68442742D01*
X66410149Y-68442742D02*
X66353006Y-68671314D01*
X66353006Y-68671314D02*
X66238720Y-68785600D01*
X66238720Y-68785600D02*
X66124435Y-68842742D01*
X66124435Y-68842742D02*
X65895863Y-68842742D01*
X65895863Y-68842742D02*
X65781578Y-68785600D01*
X65781578Y-68785600D02*
X65667292Y-68671314D01*
X65667292Y-68671314D02*
X65610149Y-68442742D01*
X65610149Y-68442742D02*
X65610149Y-68042742D01*
X65610149Y-68042742D02*
X65667292Y-67814171D01*
X65667292Y-67814171D02*
X65781578Y-67699885D01*
X65781578Y-67699885D02*
X65895863Y-67642742D01*
X67324435Y-68214171D02*
X66924435Y-68214171D01*
X66924435Y-68842742D02*
X66924435Y-67642742D01*
X66924435Y-67642742D02*
X67495863Y-67642742D01*
X68353006Y-68214171D02*
X67953006Y-68214171D01*
X67953006Y-68842742D02*
X67953006Y-67642742D01*
X67953006Y-67642742D02*
X68524434Y-67642742D01*
D10*
X62750000Y-68500000D02*
X64750000Y-68500000D01*
X68750000Y-68500000D02*
X70500000Y-68500000D01*
X85750000Y-58250000D02*
X88000000Y-58250000D01*
D13*
X83645863Y-57392742D02*
X83874435Y-57392742D01*
X83874435Y-57392742D02*
X83988720Y-57449885D01*
X83988720Y-57449885D02*
X84103006Y-57564171D01*
X84103006Y-57564171D02*
X84160149Y-57792742D01*
X84160149Y-57792742D02*
X84160149Y-58192742D01*
X84160149Y-58192742D02*
X84103006Y-58421314D01*
X84103006Y-58421314D02*
X83988720Y-58535600D01*
X83988720Y-58535600D02*
X83874435Y-58592742D01*
X83874435Y-58592742D02*
X83645863Y-58592742D01*
X83645863Y-58592742D02*
X83531578Y-58535600D01*
X83531578Y-58535600D02*
X83417292Y-58421314D01*
X83417292Y-58421314D02*
X83360149Y-58192742D01*
X83360149Y-58192742D02*
X83360149Y-57792742D01*
X83360149Y-57792742D02*
X83417292Y-57564171D01*
X83417292Y-57564171D02*
X83531578Y-57449885D01*
X83531578Y-57449885D02*
X83645863Y-57392742D01*
X84674435Y-58592742D02*
X84674435Y-57392742D01*
X84674435Y-57392742D02*
X85360149Y-58592742D01*
X85360149Y-58592742D02*
X85360149Y-57392742D01*
D10*
X80250000Y-58250000D02*
X82750000Y-58250000D01*
D13*
X83395863Y-67392742D02*
X83624435Y-67392742D01*
X83624435Y-67392742D02*
X83738720Y-67449885D01*
X83738720Y-67449885D02*
X83853006Y-67564171D01*
X83853006Y-67564171D02*
X83910149Y-67792742D01*
X83910149Y-67792742D02*
X83910149Y-68192742D01*
X83910149Y-68192742D02*
X83853006Y-68421314D01*
X83853006Y-68421314D02*
X83738720Y-68535600D01*
X83738720Y-68535600D02*
X83624435Y-68592742D01*
X83624435Y-68592742D02*
X83395863Y-68592742D01*
X83395863Y-68592742D02*
X83281578Y-68535600D01*
X83281578Y-68535600D02*
X83167292Y-68421314D01*
X83167292Y-68421314D02*
X83110149Y-68192742D01*
X83110149Y-68192742D02*
X83110149Y-67792742D01*
X83110149Y-67792742D02*
X83167292Y-67564171D01*
X83167292Y-67564171D02*
X83281578Y-67449885D01*
X83281578Y-67449885D02*
X83395863Y-67392742D01*
X84824435Y-67964171D02*
X84424435Y-67964171D01*
X84424435Y-68592742D02*
X84424435Y-67392742D01*
X84424435Y-67392742D02*
X84995863Y-67392742D01*
X85853006Y-67964171D02*
X85453006Y-67964171D01*
X85453006Y-68592742D02*
X85453006Y-67392742D01*
X85453006Y-67392742D02*
X86024434Y-67392742D01*
D10*
X80250000Y-68250000D02*
X82250000Y-68250000D01*
X86250000Y-68250000D02*
X88000000Y-68250000D01*
X103750000Y-68250000D02*
X105500000Y-68250000D01*
D13*
X100895863Y-67392742D02*
X101124435Y-67392742D01*
X101124435Y-67392742D02*
X101238720Y-67449885D01*
X101238720Y-67449885D02*
X101353006Y-67564171D01*
X101353006Y-67564171D02*
X101410149Y-67792742D01*
X101410149Y-67792742D02*
X101410149Y-68192742D01*
X101410149Y-68192742D02*
X101353006Y-68421314D01*
X101353006Y-68421314D02*
X101238720Y-68535600D01*
X101238720Y-68535600D02*
X101124435Y-68592742D01*
X101124435Y-68592742D02*
X100895863Y-68592742D01*
X100895863Y-68592742D02*
X100781578Y-68535600D01*
X100781578Y-68535600D02*
X100667292Y-68421314D01*
X100667292Y-68421314D02*
X100610149Y-68192742D01*
X100610149Y-68192742D02*
X100610149Y-67792742D01*
X100610149Y-67792742D02*
X100667292Y-67564171D01*
X100667292Y-67564171D02*
X100781578Y-67449885D01*
X100781578Y-67449885D02*
X100895863Y-67392742D01*
X102324435Y-67964171D02*
X101924435Y-67964171D01*
X101924435Y-68592742D02*
X101924435Y-67392742D01*
X101924435Y-67392742D02*
X102495863Y-67392742D01*
X103353006Y-67964171D02*
X102953006Y-67964171D01*
X102953006Y-68592742D02*
X102953006Y-67392742D01*
X102953006Y-67392742D02*
X103524434Y-67392742D01*
D10*
X97750000Y-68250000D02*
X99750000Y-68250000D01*
D13*
X101145863Y-57392742D02*
X101374435Y-57392742D01*
X101374435Y-57392742D02*
X101488720Y-57449885D01*
X101488720Y-57449885D02*
X101603006Y-57564171D01*
X101603006Y-57564171D02*
X101660149Y-57792742D01*
X101660149Y-57792742D02*
X101660149Y-58192742D01*
X101660149Y-58192742D02*
X101603006Y-58421314D01*
X101603006Y-58421314D02*
X101488720Y-58535600D01*
X101488720Y-58535600D02*
X101374435Y-58592742D01*
X101374435Y-58592742D02*
X101145863Y-58592742D01*
X101145863Y-58592742D02*
X101031578Y-58535600D01*
X101031578Y-58535600D02*
X100917292Y-58421314D01*
X100917292Y-58421314D02*
X100860149Y-58192742D01*
X100860149Y-58192742D02*
X100860149Y-57792742D01*
X100860149Y-57792742D02*
X100917292Y-57564171D01*
X100917292Y-57564171D02*
X101031578Y-57449885D01*
X101031578Y-57449885D02*
X101145863Y-57392742D01*
X102174435Y-58592742D02*
X102174435Y-57392742D01*
X102174435Y-57392742D02*
X102860149Y-58592742D01*
X102860149Y-58592742D02*
X102860149Y-57392742D01*
D10*
X103250000Y-58250000D02*
X105500000Y-58250000D01*
X97750000Y-58250000D02*
X100250000Y-58250000D01*
D13*
X54381578Y-73806028D02*
X54381578Y-74806028D01*
X54024435Y-73234600D02*
X53667292Y-74306028D01*
X53667292Y-74306028D02*
X54595863Y-74306028D01*
X55453006Y-73306028D02*
X55595863Y-73306028D01*
X55595863Y-73306028D02*
X55738720Y-73377457D01*
X55738720Y-73377457D02*
X55810149Y-73448885D01*
X55810149Y-73448885D02*
X55881577Y-73591742D01*
X55881577Y-73591742D02*
X55953006Y-73877457D01*
X55953006Y-73877457D02*
X55953006Y-74234600D01*
X55953006Y-74234600D02*
X55881577Y-74520314D01*
X55881577Y-74520314D02*
X55810149Y-74663171D01*
X55810149Y-74663171D02*
X55738720Y-74734600D01*
X55738720Y-74734600D02*
X55595863Y-74806028D01*
X55595863Y-74806028D02*
X55453006Y-74806028D01*
X55453006Y-74806028D02*
X55310149Y-74734600D01*
X55310149Y-74734600D02*
X55238720Y-74663171D01*
X55238720Y-74663171D02*
X55167291Y-74520314D01*
X55167291Y-74520314D02*
X55095863Y-74234600D01*
X55095863Y-74234600D02*
X55095863Y-73877457D01*
X55095863Y-73877457D02*
X55167291Y-73591742D01*
X55167291Y-73591742D02*
X55238720Y-73448885D01*
X55238720Y-73448885D02*
X55310149Y-73377457D01*
X55310149Y-73377457D02*
X55453006Y-73306028D01*
X56524434Y-74806028D02*
X56881577Y-74806028D01*
X56881577Y-74806028D02*
X56881577Y-74520314D01*
X56881577Y-74520314D02*
X56738720Y-74448885D01*
X56738720Y-74448885D02*
X56595862Y-74306028D01*
X56595862Y-74306028D02*
X56524434Y-74091742D01*
X56524434Y-74091742D02*
X56524434Y-73734600D01*
X56524434Y-73734600D02*
X56595862Y-73520314D01*
X56595862Y-73520314D02*
X56738720Y-73377457D01*
X56738720Y-73377457D02*
X56953005Y-73306028D01*
X56953005Y-73306028D02*
X57238720Y-73306028D01*
X57238720Y-73306028D02*
X57453005Y-73377457D01*
X57453005Y-73377457D02*
X57595862Y-73520314D01*
X57595862Y-73520314D02*
X57667291Y-73734600D01*
X57667291Y-73734600D02*
X57667291Y-74091742D01*
X57667291Y-74091742D02*
X57595862Y-74306028D01*
X57595862Y-74306028D02*
X57453005Y-74448885D01*
X57453005Y-74448885D02*
X57310148Y-74520314D01*
X57310148Y-74520314D02*
X57310148Y-74806028D01*
X57310148Y-74806028D02*
X57667291Y-74806028D01*
X54453006Y-109056028D02*
X53738720Y-109056028D01*
X53738720Y-109056028D02*
X53667292Y-109770314D01*
X53667292Y-109770314D02*
X53738720Y-109698885D01*
X53738720Y-109698885D02*
X53881578Y-109627457D01*
X53881578Y-109627457D02*
X54238720Y-109627457D01*
X54238720Y-109627457D02*
X54381578Y-109698885D01*
X54381578Y-109698885D02*
X54453006Y-109770314D01*
X54453006Y-109770314D02*
X54524435Y-109913171D01*
X54524435Y-109913171D02*
X54524435Y-110270314D01*
X54524435Y-110270314D02*
X54453006Y-110413171D01*
X54453006Y-110413171D02*
X54381578Y-110484600D01*
X54381578Y-110484600D02*
X54238720Y-110556028D01*
X54238720Y-110556028D02*
X53881578Y-110556028D01*
X53881578Y-110556028D02*
X53738720Y-110484600D01*
X53738720Y-110484600D02*
X53667292Y-110413171D01*
X55167291Y-110556028D02*
X55167291Y-109056028D01*
X55310149Y-109984600D02*
X55738720Y-110556028D01*
X55738720Y-109556028D02*
X55167291Y-110127457D01*
X56310149Y-110556028D02*
X56667292Y-110556028D01*
X56667292Y-110556028D02*
X56667292Y-110270314D01*
X56667292Y-110270314D02*
X56524435Y-110198885D01*
X56524435Y-110198885D02*
X56381577Y-110056028D01*
X56381577Y-110056028D02*
X56310149Y-109841742D01*
X56310149Y-109841742D02*
X56310149Y-109484600D01*
X56310149Y-109484600D02*
X56381577Y-109270314D01*
X56381577Y-109270314D02*
X56524435Y-109127457D01*
X56524435Y-109127457D02*
X56738720Y-109056028D01*
X56738720Y-109056028D02*
X57024435Y-109056028D01*
X57024435Y-109056028D02*
X57238720Y-109127457D01*
X57238720Y-109127457D02*
X57381577Y-109270314D01*
X57381577Y-109270314D02*
X57453006Y-109484600D01*
X57453006Y-109484600D02*
X57453006Y-109841742D01*
X57453006Y-109841742D02*
X57381577Y-110056028D01*
X57381577Y-110056028D02*
X57238720Y-110198885D01*
X57238720Y-110198885D02*
X57095863Y-110270314D01*
X57095863Y-110270314D02*
X57095863Y-110556028D01*
X57095863Y-110556028D02*
X57453006Y-110556028D01*
X88667292Y-73448885D02*
X88738720Y-73377457D01*
X88738720Y-73377457D02*
X88881578Y-73306028D01*
X88881578Y-73306028D02*
X89238720Y-73306028D01*
X89238720Y-73306028D02*
X89381578Y-73377457D01*
X89381578Y-73377457D02*
X89453006Y-73448885D01*
X89453006Y-73448885D02*
X89524435Y-73591742D01*
X89524435Y-73591742D02*
X89524435Y-73734600D01*
X89524435Y-73734600D02*
X89453006Y-73948885D01*
X89453006Y-73948885D02*
X88595863Y-74806028D01*
X88595863Y-74806028D02*
X89524435Y-74806028D01*
X90453006Y-73306028D02*
X90595863Y-73306028D01*
X90595863Y-73306028D02*
X90738720Y-73377457D01*
X90738720Y-73377457D02*
X90810149Y-73448885D01*
X90810149Y-73448885D02*
X90881577Y-73591742D01*
X90881577Y-73591742D02*
X90953006Y-73877457D01*
X90953006Y-73877457D02*
X90953006Y-74234600D01*
X90953006Y-74234600D02*
X90881577Y-74520314D01*
X90881577Y-74520314D02*
X90810149Y-74663171D01*
X90810149Y-74663171D02*
X90738720Y-74734600D01*
X90738720Y-74734600D02*
X90595863Y-74806028D01*
X90595863Y-74806028D02*
X90453006Y-74806028D01*
X90453006Y-74806028D02*
X90310149Y-74734600D01*
X90310149Y-74734600D02*
X90238720Y-74663171D01*
X90238720Y-74663171D02*
X90167291Y-74520314D01*
X90167291Y-74520314D02*
X90095863Y-74234600D01*
X90095863Y-74234600D02*
X90095863Y-73877457D01*
X90095863Y-73877457D02*
X90167291Y-73591742D01*
X90167291Y-73591742D02*
X90238720Y-73448885D01*
X90238720Y-73448885D02*
X90310149Y-73377457D01*
X90310149Y-73377457D02*
X90453006Y-73306028D01*
X91524434Y-74806028D02*
X91881577Y-74806028D01*
X91881577Y-74806028D02*
X91881577Y-74520314D01*
X91881577Y-74520314D02*
X91738720Y-74448885D01*
X91738720Y-74448885D02*
X91595862Y-74306028D01*
X91595862Y-74306028D02*
X91524434Y-74091742D01*
X91524434Y-74091742D02*
X91524434Y-73734600D01*
X91524434Y-73734600D02*
X91595862Y-73520314D01*
X91595862Y-73520314D02*
X91738720Y-73377457D01*
X91738720Y-73377457D02*
X91953005Y-73306028D01*
X91953005Y-73306028D02*
X92238720Y-73306028D01*
X92238720Y-73306028D02*
X92453005Y-73377457D01*
X92453005Y-73377457D02*
X92595862Y-73520314D01*
X92595862Y-73520314D02*
X92667291Y-73734600D01*
X92667291Y-73734600D02*
X92667291Y-74091742D01*
X92667291Y-74091742D02*
X92595862Y-74306028D01*
X92595862Y-74306028D02*
X92453005Y-74448885D01*
X92453005Y-74448885D02*
X92310148Y-74520314D01*
X92310148Y-74520314D02*
X92310148Y-74806028D01*
X92310148Y-74806028D02*
X92667291Y-74806028D01*
X70845863Y-91306028D02*
X71774435Y-91306028D01*
X71774435Y-91306028D02*
X71274435Y-91877457D01*
X71274435Y-91877457D02*
X71488720Y-91877457D01*
X71488720Y-91877457D02*
X71631578Y-91948885D01*
X71631578Y-91948885D02*
X71703006Y-92020314D01*
X71703006Y-92020314D02*
X71774435Y-92163171D01*
X71774435Y-92163171D02*
X71774435Y-92520314D01*
X71774435Y-92520314D02*
X71703006Y-92663171D01*
X71703006Y-92663171D02*
X71631578Y-92734600D01*
X71631578Y-92734600D02*
X71488720Y-92806028D01*
X71488720Y-92806028D02*
X71060149Y-92806028D01*
X71060149Y-92806028D02*
X70917292Y-92734600D01*
X70917292Y-92734600D02*
X70845863Y-92663171D01*
X72703006Y-91306028D02*
X72845863Y-91306028D01*
X72845863Y-91306028D02*
X72988720Y-91377457D01*
X72988720Y-91377457D02*
X73060149Y-91448885D01*
X73060149Y-91448885D02*
X73131577Y-91591742D01*
X73131577Y-91591742D02*
X73203006Y-91877457D01*
X73203006Y-91877457D02*
X73203006Y-92234600D01*
X73203006Y-92234600D02*
X73131577Y-92520314D01*
X73131577Y-92520314D02*
X73060149Y-92663171D01*
X73060149Y-92663171D02*
X72988720Y-92734600D01*
X72988720Y-92734600D02*
X72845863Y-92806028D01*
X72845863Y-92806028D02*
X72703006Y-92806028D01*
X72703006Y-92806028D02*
X72560149Y-92734600D01*
X72560149Y-92734600D02*
X72488720Y-92663171D01*
X72488720Y-92663171D02*
X72417291Y-92520314D01*
X72417291Y-92520314D02*
X72345863Y-92234600D01*
X72345863Y-92234600D02*
X72345863Y-91877457D01*
X72345863Y-91877457D02*
X72417291Y-91591742D01*
X72417291Y-91591742D02*
X72488720Y-91448885D01*
X72488720Y-91448885D02*
X72560149Y-91377457D01*
X72560149Y-91377457D02*
X72703006Y-91306028D01*
X74131577Y-91306028D02*
X74274434Y-91306028D01*
X74274434Y-91306028D02*
X74417291Y-91377457D01*
X74417291Y-91377457D02*
X74488720Y-91448885D01*
X74488720Y-91448885D02*
X74560148Y-91591742D01*
X74560148Y-91591742D02*
X74631577Y-91877457D01*
X74631577Y-91877457D02*
X74631577Y-92234600D01*
X74631577Y-92234600D02*
X74560148Y-92520314D01*
X74560148Y-92520314D02*
X74488720Y-92663171D01*
X74488720Y-92663171D02*
X74417291Y-92734600D01*
X74417291Y-92734600D02*
X74274434Y-92806028D01*
X74274434Y-92806028D02*
X74131577Y-92806028D01*
X74131577Y-92806028D02*
X73988720Y-92734600D01*
X73988720Y-92734600D02*
X73917291Y-92663171D01*
X73917291Y-92663171D02*
X73845862Y-92520314D01*
X73845862Y-92520314D02*
X73774434Y-92234600D01*
X73774434Y-92234600D02*
X73774434Y-91877457D01*
X73774434Y-91877457D02*
X73845862Y-91591742D01*
X73845862Y-91591742D02*
X73917291Y-91448885D01*
X73917291Y-91448885D02*
X73988720Y-91377457D01*
X73988720Y-91377457D02*
X74131577Y-91306028D01*
X75203005Y-92806028D02*
X75560148Y-92806028D01*
X75560148Y-92806028D02*
X75560148Y-92520314D01*
X75560148Y-92520314D02*
X75417291Y-92448885D01*
X75417291Y-92448885D02*
X75274433Y-92306028D01*
X75274433Y-92306028D02*
X75203005Y-92091742D01*
X75203005Y-92091742D02*
X75203005Y-91734600D01*
X75203005Y-91734600D02*
X75274433Y-91520314D01*
X75274433Y-91520314D02*
X75417291Y-91377457D01*
X75417291Y-91377457D02*
X75631576Y-91306028D01*
X75631576Y-91306028D02*
X75917291Y-91306028D01*
X75917291Y-91306028D02*
X76131576Y-91377457D01*
X76131576Y-91377457D02*
X76274433Y-91520314D01*
X76274433Y-91520314D02*
X76345862Y-91734600D01*
X76345862Y-91734600D02*
X76345862Y-92091742D01*
X76345862Y-92091742D02*
X76274433Y-92306028D01*
X76274433Y-92306028D02*
X76131576Y-92448885D01*
X76131576Y-92448885D02*
X75988719Y-92520314D01*
X75988719Y-92520314D02*
X75988719Y-92806028D01*
X75988719Y-92806028D02*
X76345862Y-92806028D01*
X71095863Y-109056028D02*
X72024435Y-109056028D01*
X72024435Y-109056028D02*
X71524435Y-109627457D01*
X71524435Y-109627457D02*
X71738720Y-109627457D01*
X71738720Y-109627457D02*
X71881578Y-109698885D01*
X71881578Y-109698885D02*
X71953006Y-109770314D01*
X71953006Y-109770314D02*
X72024435Y-109913171D01*
X72024435Y-109913171D02*
X72024435Y-110270314D01*
X72024435Y-110270314D02*
X71953006Y-110413171D01*
X71953006Y-110413171D02*
X71881578Y-110484600D01*
X71881578Y-110484600D02*
X71738720Y-110556028D01*
X71738720Y-110556028D02*
X71310149Y-110556028D01*
X71310149Y-110556028D02*
X71167292Y-110484600D01*
X71167292Y-110484600D02*
X71095863Y-110413171D01*
X72667291Y-110556028D02*
X72667291Y-109056028D01*
X72810149Y-109984600D02*
X73238720Y-110556028D01*
X73238720Y-109556028D02*
X72667291Y-110127457D01*
X73810149Y-110556028D02*
X74167292Y-110556028D01*
X74167292Y-110556028D02*
X74167292Y-110270314D01*
X74167292Y-110270314D02*
X74024435Y-110198885D01*
X74024435Y-110198885D02*
X73881577Y-110056028D01*
X73881577Y-110056028D02*
X73810149Y-109841742D01*
X73810149Y-109841742D02*
X73810149Y-109484600D01*
X73810149Y-109484600D02*
X73881577Y-109270314D01*
X73881577Y-109270314D02*
X74024435Y-109127457D01*
X74024435Y-109127457D02*
X74238720Y-109056028D01*
X74238720Y-109056028D02*
X74524435Y-109056028D01*
X74524435Y-109056028D02*
X74738720Y-109127457D01*
X74738720Y-109127457D02*
X74881577Y-109270314D01*
X74881577Y-109270314D02*
X74953006Y-109484600D01*
X74953006Y-109484600D02*
X74953006Y-109841742D01*
X74953006Y-109841742D02*
X74881577Y-110056028D01*
X74881577Y-110056028D02*
X74738720Y-110198885D01*
X74738720Y-110198885D02*
X74595863Y-110270314D01*
X74595863Y-110270314D02*
X74595863Y-110556028D01*
X74595863Y-110556028D02*
X74953006Y-110556028D01*
X106774435Y-92806028D02*
X105917292Y-92806028D01*
X106345863Y-92806028D02*
X106345863Y-91306028D01*
X106345863Y-91306028D02*
X106203006Y-91520314D01*
X106203006Y-91520314D02*
X106060149Y-91663171D01*
X106060149Y-91663171D02*
X105917292Y-91734600D01*
X107703006Y-91306028D02*
X107845863Y-91306028D01*
X107845863Y-91306028D02*
X107988720Y-91377457D01*
X107988720Y-91377457D02*
X108060149Y-91448885D01*
X108060149Y-91448885D02*
X108131577Y-91591742D01*
X108131577Y-91591742D02*
X108203006Y-91877457D01*
X108203006Y-91877457D02*
X108203006Y-92234600D01*
X108203006Y-92234600D02*
X108131577Y-92520314D01*
X108131577Y-92520314D02*
X108060149Y-92663171D01*
X108060149Y-92663171D02*
X107988720Y-92734600D01*
X107988720Y-92734600D02*
X107845863Y-92806028D01*
X107845863Y-92806028D02*
X107703006Y-92806028D01*
X107703006Y-92806028D02*
X107560149Y-92734600D01*
X107560149Y-92734600D02*
X107488720Y-92663171D01*
X107488720Y-92663171D02*
X107417291Y-92520314D01*
X107417291Y-92520314D02*
X107345863Y-92234600D01*
X107345863Y-92234600D02*
X107345863Y-91877457D01*
X107345863Y-91877457D02*
X107417291Y-91591742D01*
X107417291Y-91591742D02*
X107488720Y-91448885D01*
X107488720Y-91448885D02*
X107560149Y-91377457D01*
X107560149Y-91377457D02*
X107703006Y-91306028D01*
X109131577Y-91306028D02*
X109274434Y-91306028D01*
X109274434Y-91306028D02*
X109417291Y-91377457D01*
X109417291Y-91377457D02*
X109488720Y-91448885D01*
X109488720Y-91448885D02*
X109560148Y-91591742D01*
X109560148Y-91591742D02*
X109631577Y-91877457D01*
X109631577Y-91877457D02*
X109631577Y-92234600D01*
X109631577Y-92234600D02*
X109560148Y-92520314D01*
X109560148Y-92520314D02*
X109488720Y-92663171D01*
X109488720Y-92663171D02*
X109417291Y-92734600D01*
X109417291Y-92734600D02*
X109274434Y-92806028D01*
X109274434Y-92806028D02*
X109131577Y-92806028D01*
X109131577Y-92806028D02*
X108988720Y-92734600D01*
X108988720Y-92734600D02*
X108917291Y-92663171D01*
X108917291Y-92663171D02*
X108845862Y-92520314D01*
X108845862Y-92520314D02*
X108774434Y-92234600D01*
X108774434Y-92234600D02*
X108774434Y-91877457D01*
X108774434Y-91877457D02*
X108845862Y-91591742D01*
X108845862Y-91591742D02*
X108917291Y-91448885D01*
X108917291Y-91448885D02*
X108988720Y-91377457D01*
X108988720Y-91377457D02*
X109131577Y-91306028D01*
X110203005Y-92806028D02*
X110560148Y-92806028D01*
X110560148Y-92806028D02*
X110560148Y-92520314D01*
X110560148Y-92520314D02*
X110417291Y-92448885D01*
X110417291Y-92448885D02*
X110274433Y-92306028D01*
X110274433Y-92306028D02*
X110203005Y-92091742D01*
X110203005Y-92091742D02*
X110203005Y-91734600D01*
X110203005Y-91734600D02*
X110274433Y-91520314D01*
X110274433Y-91520314D02*
X110417291Y-91377457D01*
X110417291Y-91377457D02*
X110631576Y-91306028D01*
X110631576Y-91306028D02*
X110917291Y-91306028D01*
X110917291Y-91306028D02*
X111131576Y-91377457D01*
X111131576Y-91377457D02*
X111274433Y-91520314D01*
X111274433Y-91520314D02*
X111345862Y-91734600D01*
X111345862Y-91734600D02*
X111345862Y-92091742D01*
X111345862Y-92091742D02*
X111274433Y-92306028D01*
X111274433Y-92306028D02*
X111131576Y-92448885D01*
X111131576Y-92448885D02*
X110988719Y-92520314D01*
X110988719Y-92520314D02*
X110988719Y-92806028D01*
X110988719Y-92806028D02*
X111345862Y-92806028D01*
X54381578Y-127556028D02*
X54381578Y-128556028D01*
X54024435Y-126984600D02*
X53667292Y-128056028D01*
X53667292Y-128056028D02*
X54595863Y-128056028D01*
X55453006Y-127056028D02*
X55595863Y-127056028D01*
X55595863Y-127056028D02*
X55738720Y-127127457D01*
X55738720Y-127127457D02*
X55810149Y-127198885D01*
X55810149Y-127198885D02*
X55881577Y-127341742D01*
X55881577Y-127341742D02*
X55953006Y-127627457D01*
X55953006Y-127627457D02*
X55953006Y-127984600D01*
X55953006Y-127984600D02*
X55881577Y-128270314D01*
X55881577Y-128270314D02*
X55810149Y-128413171D01*
X55810149Y-128413171D02*
X55738720Y-128484600D01*
X55738720Y-128484600D02*
X55595863Y-128556028D01*
X55595863Y-128556028D02*
X55453006Y-128556028D01*
X55453006Y-128556028D02*
X55310149Y-128484600D01*
X55310149Y-128484600D02*
X55238720Y-128413171D01*
X55238720Y-128413171D02*
X55167291Y-128270314D01*
X55167291Y-128270314D02*
X55095863Y-127984600D01*
X55095863Y-127984600D02*
X55095863Y-127627457D01*
X55095863Y-127627457D02*
X55167291Y-127341742D01*
X55167291Y-127341742D02*
X55238720Y-127198885D01*
X55238720Y-127198885D02*
X55310149Y-127127457D01*
X55310149Y-127127457D02*
X55453006Y-127056028D01*
X56595862Y-128556028D02*
X56595862Y-127056028D01*
X56738720Y-127984600D02*
X57167291Y-128556028D01*
X57167291Y-127556028D02*
X56595862Y-128127457D01*
X57738720Y-128556028D02*
X58095863Y-128556028D01*
X58095863Y-128556028D02*
X58095863Y-128270314D01*
X58095863Y-128270314D02*
X57953006Y-128198885D01*
X57953006Y-128198885D02*
X57810148Y-128056028D01*
X57810148Y-128056028D02*
X57738720Y-127841742D01*
X57738720Y-127841742D02*
X57738720Y-127484600D01*
X57738720Y-127484600D02*
X57810148Y-127270314D01*
X57810148Y-127270314D02*
X57953006Y-127127457D01*
X57953006Y-127127457D02*
X58167291Y-127056028D01*
X58167291Y-127056028D02*
X58453006Y-127056028D01*
X58453006Y-127056028D02*
X58667291Y-127127457D01*
X58667291Y-127127457D02*
X58810148Y-127270314D01*
X58810148Y-127270314D02*
X58881577Y-127484600D01*
X58881577Y-127484600D02*
X58881577Y-127841742D01*
X58881577Y-127841742D02*
X58810148Y-128056028D01*
X58810148Y-128056028D02*
X58667291Y-128198885D01*
X58667291Y-128198885D02*
X58524434Y-128270314D01*
X58524434Y-128270314D02*
X58524434Y-128556028D01*
X58524434Y-128556028D02*
X58881577Y-128556028D01*
X107024435Y-128556028D02*
X106167292Y-128556028D01*
X106595863Y-128556028D02*
X106595863Y-127056028D01*
X106595863Y-127056028D02*
X106453006Y-127270314D01*
X106453006Y-127270314D02*
X106310149Y-127413171D01*
X106310149Y-127413171D02*
X106167292Y-127484600D01*
X107953006Y-127056028D02*
X108095863Y-127056028D01*
X108095863Y-127056028D02*
X108238720Y-127127457D01*
X108238720Y-127127457D02*
X108310149Y-127198885D01*
X108310149Y-127198885D02*
X108381577Y-127341742D01*
X108381577Y-127341742D02*
X108453006Y-127627457D01*
X108453006Y-127627457D02*
X108453006Y-127984600D01*
X108453006Y-127984600D02*
X108381577Y-128270314D01*
X108381577Y-128270314D02*
X108310149Y-128413171D01*
X108310149Y-128413171D02*
X108238720Y-128484600D01*
X108238720Y-128484600D02*
X108095863Y-128556028D01*
X108095863Y-128556028D02*
X107953006Y-128556028D01*
X107953006Y-128556028D02*
X107810149Y-128484600D01*
X107810149Y-128484600D02*
X107738720Y-128413171D01*
X107738720Y-128413171D02*
X107667291Y-128270314D01*
X107667291Y-128270314D02*
X107595863Y-127984600D01*
X107595863Y-127984600D02*
X107595863Y-127627457D01*
X107595863Y-127627457D02*
X107667291Y-127341742D01*
X107667291Y-127341742D02*
X107738720Y-127198885D01*
X107738720Y-127198885D02*
X107810149Y-127127457D01*
X107810149Y-127127457D02*
X107953006Y-127056028D01*
X109095862Y-128556028D02*
X109095862Y-127056028D01*
X109238720Y-127984600D02*
X109667291Y-128556028D01*
X109667291Y-127556028D02*
X109095862Y-128127457D01*
X110238720Y-128556028D02*
X110595863Y-128556028D01*
X110595863Y-128556028D02*
X110595863Y-128270314D01*
X110595863Y-128270314D02*
X110453006Y-128198885D01*
X110453006Y-128198885D02*
X110310148Y-128056028D01*
X110310148Y-128056028D02*
X110238720Y-127841742D01*
X110238720Y-127841742D02*
X110238720Y-127484600D01*
X110238720Y-127484600D02*
X110310148Y-127270314D01*
X110310148Y-127270314D02*
X110453006Y-127127457D01*
X110453006Y-127127457D02*
X110667291Y-127056028D01*
X110667291Y-127056028D02*
X110953006Y-127056028D01*
X110953006Y-127056028D02*
X111167291Y-127127457D01*
X111167291Y-127127457D02*
X111310148Y-127270314D01*
X111310148Y-127270314D02*
X111381577Y-127484600D01*
X111381577Y-127484600D02*
X111381577Y-127841742D01*
X111381577Y-127841742D02*
X111310148Y-128056028D01*
X111310148Y-128056028D02*
X111167291Y-128198885D01*
X111167291Y-128198885D02*
X111024434Y-128270314D01*
X111024434Y-128270314D02*
X111024434Y-128556028D01*
X111024434Y-128556028D02*
X111381577Y-128556028D01*
X71095863Y-54556028D02*
X72024435Y-54556028D01*
X72024435Y-54556028D02*
X71524435Y-55127457D01*
X71524435Y-55127457D02*
X71738720Y-55127457D01*
X71738720Y-55127457D02*
X71881578Y-55198885D01*
X71881578Y-55198885D02*
X71953006Y-55270314D01*
X71953006Y-55270314D02*
X72024435Y-55413171D01*
X72024435Y-55413171D02*
X72024435Y-55770314D01*
X72024435Y-55770314D02*
X71953006Y-55913171D01*
X71953006Y-55913171D02*
X71881578Y-55984600D01*
X71881578Y-55984600D02*
X71738720Y-56056028D01*
X71738720Y-56056028D02*
X71310149Y-56056028D01*
X71310149Y-56056028D02*
X71167292Y-55984600D01*
X71167292Y-55984600D02*
X71095863Y-55913171D01*
X72595863Y-56056028D02*
X72953006Y-56056028D01*
X72953006Y-56056028D02*
X72953006Y-55770314D01*
X72953006Y-55770314D02*
X72810149Y-55698885D01*
X72810149Y-55698885D02*
X72667291Y-55556028D01*
X72667291Y-55556028D02*
X72595863Y-55341742D01*
X72595863Y-55341742D02*
X72595863Y-54984600D01*
X72595863Y-54984600D02*
X72667291Y-54770314D01*
X72667291Y-54770314D02*
X72810149Y-54627457D01*
X72810149Y-54627457D02*
X73024434Y-54556028D01*
X73024434Y-54556028D02*
X73310149Y-54556028D01*
X73310149Y-54556028D02*
X73524434Y-54627457D01*
X73524434Y-54627457D02*
X73667291Y-54770314D01*
X73667291Y-54770314D02*
X73738720Y-54984600D01*
X73738720Y-54984600D02*
X73738720Y-55341742D01*
X73738720Y-55341742D02*
X73667291Y-55556028D01*
X73667291Y-55556028D02*
X73524434Y-55698885D01*
X73524434Y-55698885D02*
X73381577Y-55770314D01*
X73381577Y-55770314D02*
X73381577Y-56056028D01*
X73381577Y-56056028D02*
X73738720Y-56056028D01*
X88917292Y-145198885D02*
X88988720Y-145127457D01*
X88988720Y-145127457D02*
X89131578Y-145056028D01*
X89131578Y-145056028D02*
X89488720Y-145056028D01*
X89488720Y-145056028D02*
X89631578Y-145127457D01*
X89631578Y-145127457D02*
X89703006Y-145198885D01*
X89703006Y-145198885D02*
X89774435Y-145341742D01*
X89774435Y-145341742D02*
X89774435Y-145484600D01*
X89774435Y-145484600D02*
X89703006Y-145698885D01*
X89703006Y-145698885D02*
X88845863Y-146556028D01*
X88845863Y-146556028D02*
X89774435Y-146556028D01*
X90703006Y-145056028D02*
X90845863Y-145056028D01*
X90845863Y-145056028D02*
X90988720Y-145127457D01*
X90988720Y-145127457D02*
X91060149Y-145198885D01*
X91060149Y-145198885D02*
X91131577Y-145341742D01*
X91131577Y-145341742D02*
X91203006Y-145627457D01*
X91203006Y-145627457D02*
X91203006Y-145984600D01*
X91203006Y-145984600D02*
X91131577Y-146270314D01*
X91131577Y-146270314D02*
X91060149Y-146413171D01*
X91060149Y-146413171D02*
X90988720Y-146484600D01*
X90988720Y-146484600D02*
X90845863Y-146556028D01*
X90845863Y-146556028D02*
X90703006Y-146556028D01*
X90703006Y-146556028D02*
X90560149Y-146484600D01*
X90560149Y-146484600D02*
X90488720Y-146413171D01*
X90488720Y-146413171D02*
X90417291Y-146270314D01*
X90417291Y-146270314D02*
X90345863Y-145984600D01*
X90345863Y-145984600D02*
X90345863Y-145627457D01*
X90345863Y-145627457D02*
X90417291Y-145341742D01*
X90417291Y-145341742D02*
X90488720Y-145198885D01*
X90488720Y-145198885D02*
X90560149Y-145127457D01*
X90560149Y-145127457D02*
X90703006Y-145056028D01*
X92131577Y-145056028D02*
X92274434Y-145056028D01*
X92274434Y-145056028D02*
X92417291Y-145127457D01*
X92417291Y-145127457D02*
X92488720Y-145198885D01*
X92488720Y-145198885D02*
X92560148Y-145341742D01*
X92560148Y-145341742D02*
X92631577Y-145627457D01*
X92631577Y-145627457D02*
X92631577Y-145984600D01*
X92631577Y-145984600D02*
X92560148Y-146270314D01*
X92560148Y-146270314D02*
X92488720Y-146413171D01*
X92488720Y-146413171D02*
X92417291Y-146484600D01*
X92417291Y-146484600D02*
X92274434Y-146556028D01*
X92274434Y-146556028D02*
X92131577Y-146556028D01*
X92131577Y-146556028D02*
X91988720Y-146484600D01*
X91988720Y-146484600D02*
X91917291Y-146413171D01*
X91917291Y-146413171D02*
X91845862Y-146270314D01*
X91845862Y-146270314D02*
X91774434Y-145984600D01*
X91774434Y-145984600D02*
X91774434Y-145627457D01*
X91774434Y-145627457D02*
X91845862Y-145341742D01*
X91845862Y-145341742D02*
X91917291Y-145198885D01*
X91917291Y-145198885D02*
X91988720Y-145127457D01*
X91988720Y-145127457D02*
X92131577Y-145056028D01*
X93274433Y-146556028D02*
X93274433Y-145056028D01*
X93417291Y-145984600D02*
X93845862Y-146556028D01*
X93845862Y-145556028D02*
X93274433Y-146127457D01*
X94417291Y-146556028D02*
X94774434Y-146556028D01*
X94774434Y-146556028D02*
X94774434Y-146270314D01*
X94774434Y-146270314D02*
X94631577Y-146198885D01*
X94631577Y-146198885D02*
X94488719Y-146056028D01*
X94488719Y-146056028D02*
X94417291Y-145841742D01*
X94417291Y-145841742D02*
X94417291Y-145484600D01*
X94417291Y-145484600D02*
X94488719Y-145270314D01*
X94488719Y-145270314D02*
X94631577Y-145127457D01*
X94631577Y-145127457D02*
X94845862Y-145056028D01*
X94845862Y-145056028D02*
X95131577Y-145056028D01*
X95131577Y-145056028D02*
X95345862Y-145127457D01*
X95345862Y-145127457D02*
X95488719Y-145270314D01*
X95488719Y-145270314D02*
X95560148Y-145484600D01*
X95560148Y-145484600D02*
X95560148Y-145841742D01*
X95560148Y-145841742D02*
X95488719Y-146056028D01*
X95488719Y-146056028D02*
X95345862Y-146198885D01*
X95345862Y-146198885D02*
X95203005Y-146270314D01*
X95203005Y-146270314D02*
X95203005Y-146556028D01*
X95203005Y-146556028D02*
X95560148Y-146556028D01*
X71345863Y-145056028D02*
X72274435Y-145056028D01*
X72274435Y-145056028D02*
X71774435Y-145627457D01*
X71774435Y-145627457D02*
X71988720Y-145627457D01*
X71988720Y-145627457D02*
X72131578Y-145698885D01*
X72131578Y-145698885D02*
X72203006Y-145770314D01*
X72203006Y-145770314D02*
X72274435Y-145913171D01*
X72274435Y-145913171D02*
X72274435Y-146270314D01*
X72274435Y-146270314D02*
X72203006Y-146413171D01*
X72203006Y-146413171D02*
X72131578Y-146484600D01*
X72131578Y-146484600D02*
X71988720Y-146556028D01*
X71988720Y-146556028D02*
X71560149Y-146556028D01*
X71560149Y-146556028D02*
X71417292Y-146484600D01*
X71417292Y-146484600D02*
X71345863Y-146413171D01*
X73203006Y-145056028D02*
X73345863Y-145056028D01*
X73345863Y-145056028D02*
X73488720Y-145127457D01*
X73488720Y-145127457D02*
X73560149Y-145198885D01*
X73560149Y-145198885D02*
X73631577Y-145341742D01*
X73631577Y-145341742D02*
X73703006Y-145627457D01*
X73703006Y-145627457D02*
X73703006Y-145984600D01*
X73703006Y-145984600D02*
X73631577Y-146270314D01*
X73631577Y-146270314D02*
X73560149Y-146413171D01*
X73560149Y-146413171D02*
X73488720Y-146484600D01*
X73488720Y-146484600D02*
X73345863Y-146556028D01*
X73345863Y-146556028D02*
X73203006Y-146556028D01*
X73203006Y-146556028D02*
X73060149Y-146484600D01*
X73060149Y-146484600D02*
X72988720Y-146413171D01*
X72988720Y-146413171D02*
X72917291Y-146270314D01*
X72917291Y-146270314D02*
X72845863Y-145984600D01*
X72845863Y-145984600D02*
X72845863Y-145627457D01*
X72845863Y-145627457D02*
X72917291Y-145341742D01*
X72917291Y-145341742D02*
X72988720Y-145198885D01*
X72988720Y-145198885D02*
X73060149Y-145127457D01*
X73060149Y-145127457D02*
X73203006Y-145056028D01*
X74631577Y-145056028D02*
X74774434Y-145056028D01*
X74774434Y-145056028D02*
X74917291Y-145127457D01*
X74917291Y-145127457D02*
X74988720Y-145198885D01*
X74988720Y-145198885D02*
X75060148Y-145341742D01*
X75060148Y-145341742D02*
X75131577Y-145627457D01*
X75131577Y-145627457D02*
X75131577Y-145984600D01*
X75131577Y-145984600D02*
X75060148Y-146270314D01*
X75060148Y-146270314D02*
X74988720Y-146413171D01*
X74988720Y-146413171D02*
X74917291Y-146484600D01*
X74917291Y-146484600D02*
X74774434Y-146556028D01*
X74774434Y-146556028D02*
X74631577Y-146556028D01*
X74631577Y-146556028D02*
X74488720Y-146484600D01*
X74488720Y-146484600D02*
X74417291Y-146413171D01*
X74417291Y-146413171D02*
X74345862Y-146270314D01*
X74345862Y-146270314D02*
X74274434Y-145984600D01*
X74274434Y-145984600D02*
X74274434Y-145627457D01*
X74274434Y-145627457D02*
X74345862Y-145341742D01*
X74345862Y-145341742D02*
X74417291Y-145198885D01*
X74417291Y-145198885D02*
X74488720Y-145127457D01*
X74488720Y-145127457D02*
X74631577Y-145056028D01*
X75774433Y-146556028D02*
X75774433Y-145056028D01*
X75917291Y-145984600D02*
X76345862Y-146556028D01*
X76345862Y-145556028D02*
X75774433Y-146127457D01*
X76917291Y-146556028D02*
X77274434Y-146556028D01*
X77274434Y-146556028D02*
X77274434Y-146270314D01*
X77274434Y-146270314D02*
X77131577Y-146198885D01*
X77131577Y-146198885D02*
X76988719Y-146056028D01*
X76988719Y-146056028D02*
X76917291Y-145841742D01*
X76917291Y-145841742D02*
X76917291Y-145484600D01*
X76917291Y-145484600D02*
X76988719Y-145270314D01*
X76988719Y-145270314D02*
X77131577Y-145127457D01*
X77131577Y-145127457D02*
X77345862Y-145056028D01*
X77345862Y-145056028D02*
X77631577Y-145056028D01*
X77631577Y-145056028D02*
X77845862Y-145127457D01*
X77845862Y-145127457D02*
X77988719Y-145270314D01*
X77988719Y-145270314D02*
X78060148Y-145484600D01*
X78060148Y-145484600D02*
X78060148Y-145841742D01*
X78060148Y-145841742D02*
X77988719Y-146056028D01*
X77988719Y-146056028D02*
X77845862Y-146198885D01*
X77845862Y-146198885D02*
X77703005Y-146270314D01*
X77703005Y-146270314D02*
X77703005Y-146556028D01*
X77703005Y-146556028D02*
X78060148Y-146556028D01*
X88667292Y-127198885D02*
X88738720Y-127127457D01*
X88738720Y-127127457D02*
X88881578Y-127056028D01*
X88881578Y-127056028D02*
X89238720Y-127056028D01*
X89238720Y-127056028D02*
X89381578Y-127127457D01*
X89381578Y-127127457D02*
X89453006Y-127198885D01*
X89453006Y-127198885D02*
X89524435Y-127341742D01*
X89524435Y-127341742D02*
X89524435Y-127484600D01*
X89524435Y-127484600D02*
X89453006Y-127698885D01*
X89453006Y-127698885D02*
X88595863Y-128556028D01*
X88595863Y-128556028D02*
X89524435Y-128556028D01*
X90453006Y-127056028D02*
X90595863Y-127056028D01*
X90595863Y-127056028D02*
X90738720Y-127127457D01*
X90738720Y-127127457D02*
X90810149Y-127198885D01*
X90810149Y-127198885D02*
X90881577Y-127341742D01*
X90881577Y-127341742D02*
X90953006Y-127627457D01*
X90953006Y-127627457D02*
X90953006Y-127984600D01*
X90953006Y-127984600D02*
X90881577Y-128270314D01*
X90881577Y-128270314D02*
X90810149Y-128413171D01*
X90810149Y-128413171D02*
X90738720Y-128484600D01*
X90738720Y-128484600D02*
X90595863Y-128556028D01*
X90595863Y-128556028D02*
X90453006Y-128556028D01*
X90453006Y-128556028D02*
X90310149Y-128484600D01*
X90310149Y-128484600D02*
X90238720Y-128413171D01*
X90238720Y-128413171D02*
X90167291Y-128270314D01*
X90167291Y-128270314D02*
X90095863Y-127984600D01*
X90095863Y-127984600D02*
X90095863Y-127627457D01*
X90095863Y-127627457D02*
X90167291Y-127341742D01*
X90167291Y-127341742D02*
X90238720Y-127198885D01*
X90238720Y-127198885D02*
X90310149Y-127127457D01*
X90310149Y-127127457D02*
X90453006Y-127056028D01*
X91595862Y-128556028D02*
X91595862Y-127056028D01*
X91738720Y-127984600D02*
X92167291Y-128556028D01*
X92167291Y-127556028D02*
X91595862Y-128127457D01*
X92738720Y-128556028D02*
X93095863Y-128556028D01*
X93095863Y-128556028D02*
X93095863Y-128270314D01*
X93095863Y-128270314D02*
X92953006Y-128198885D01*
X92953006Y-128198885D02*
X92810148Y-128056028D01*
X92810148Y-128056028D02*
X92738720Y-127841742D01*
X92738720Y-127841742D02*
X92738720Y-127484600D01*
X92738720Y-127484600D02*
X92810148Y-127270314D01*
X92810148Y-127270314D02*
X92953006Y-127127457D01*
X92953006Y-127127457D02*
X93167291Y-127056028D01*
X93167291Y-127056028D02*
X93453006Y-127056028D01*
X93453006Y-127056028D02*
X93667291Y-127127457D01*
X93667291Y-127127457D02*
X93810148Y-127270314D01*
X93810148Y-127270314D02*
X93881577Y-127484600D01*
X93881577Y-127484600D02*
X93881577Y-127841742D01*
X93881577Y-127841742D02*
X93810148Y-128056028D01*
X93810148Y-128056028D02*
X93667291Y-128198885D01*
X93667291Y-128198885D02*
X93524434Y-128270314D01*
X93524434Y-128270314D02*
X93524434Y-128556028D01*
X93524434Y-128556028D02*
X93881577Y-128556028D01*
X71095863Y-73306028D02*
X72024435Y-73306028D01*
X72024435Y-73306028D02*
X71524435Y-73877457D01*
X71524435Y-73877457D02*
X71738720Y-73877457D01*
X71738720Y-73877457D02*
X71881578Y-73948885D01*
X71881578Y-73948885D02*
X71953006Y-74020314D01*
X71953006Y-74020314D02*
X72024435Y-74163171D01*
X72024435Y-74163171D02*
X72024435Y-74520314D01*
X72024435Y-74520314D02*
X71953006Y-74663171D01*
X71953006Y-74663171D02*
X71881578Y-74734600D01*
X71881578Y-74734600D02*
X71738720Y-74806028D01*
X71738720Y-74806028D02*
X71310149Y-74806028D01*
X71310149Y-74806028D02*
X71167292Y-74734600D01*
X71167292Y-74734600D02*
X71095863Y-74663171D01*
X72953006Y-73306028D02*
X73095863Y-73306028D01*
X73095863Y-73306028D02*
X73238720Y-73377457D01*
X73238720Y-73377457D02*
X73310149Y-73448885D01*
X73310149Y-73448885D02*
X73381577Y-73591742D01*
X73381577Y-73591742D02*
X73453006Y-73877457D01*
X73453006Y-73877457D02*
X73453006Y-74234600D01*
X73453006Y-74234600D02*
X73381577Y-74520314D01*
X73381577Y-74520314D02*
X73310149Y-74663171D01*
X73310149Y-74663171D02*
X73238720Y-74734600D01*
X73238720Y-74734600D02*
X73095863Y-74806028D01*
X73095863Y-74806028D02*
X72953006Y-74806028D01*
X72953006Y-74806028D02*
X72810149Y-74734600D01*
X72810149Y-74734600D02*
X72738720Y-74663171D01*
X72738720Y-74663171D02*
X72667291Y-74520314D01*
X72667291Y-74520314D02*
X72595863Y-74234600D01*
X72595863Y-74234600D02*
X72595863Y-73877457D01*
X72595863Y-73877457D02*
X72667291Y-73591742D01*
X72667291Y-73591742D02*
X72738720Y-73448885D01*
X72738720Y-73448885D02*
X72810149Y-73377457D01*
X72810149Y-73377457D02*
X72953006Y-73306028D01*
X74024434Y-74806028D02*
X74381577Y-74806028D01*
X74381577Y-74806028D02*
X74381577Y-74520314D01*
X74381577Y-74520314D02*
X74238720Y-74448885D01*
X74238720Y-74448885D02*
X74095862Y-74306028D01*
X74095862Y-74306028D02*
X74024434Y-74091742D01*
X74024434Y-74091742D02*
X74024434Y-73734600D01*
X74024434Y-73734600D02*
X74095862Y-73520314D01*
X74095862Y-73520314D02*
X74238720Y-73377457D01*
X74238720Y-73377457D02*
X74453005Y-73306028D01*
X74453005Y-73306028D02*
X74738720Y-73306028D01*
X74738720Y-73306028D02*
X74953005Y-73377457D01*
X74953005Y-73377457D02*
X75095862Y-73520314D01*
X75095862Y-73520314D02*
X75167291Y-73734600D01*
X75167291Y-73734600D02*
X75167291Y-74091742D01*
X75167291Y-74091742D02*
X75095862Y-74306028D01*
X75095862Y-74306028D02*
X74953005Y-74448885D01*
X74953005Y-74448885D02*
X74810148Y-74520314D01*
X74810148Y-74520314D02*
X74810148Y-74806028D01*
X74810148Y-74806028D02*
X75167291Y-74806028D01*
X54631578Y-145556028D02*
X54631578Y-146556028D01*
X54274435Y-144984600D02*
X53917292Y-146056028D01*
X53917292Y-146056028D02*
X54845863Y-146056028D01*
X55703006Y-145056028D02*
X55845863Y-145056028D01*
X55845863Y-145056028D02*
X55988720Y-145127457D01*
X55988720Y-145127457D02*
X56060149Y-145198885D01*
X56060149Y-145198885D02*
X56131577Y-145341742D01*
X56131577Y-145341742D02*
X56203006Y-145627457D01*
X56203006Y-145627457D02*
X56203006Y-145984600D01*
X56203006Y-145984600D02*
X56131577Y-146270314D01*
X56131577Y-146270314D02*
X56060149Y-146413171D01*
X56060149Y-146413171D02*
X55988720Y-146484600D01*
X55988720Y-146484600D02*
X55845863Y-146556028D01*
X55845863Y-146556028D02*
X55703006Y-146556028D01*
X55703006Y-146556028D02*
X55560149Y-146484600D01*
X55560149Y-146484600D02*
X55488720Y-146413171D01*
X55488720Y-146413171D02*
X55417291Y-146270314D01*
X55417291Y-146270314D02*
X55345863Y-145984600D01*
X55345863Y-145984600D02*
X55345863Y-145627457D01*
X55345863Y-145627457D02*
X55417291Y-145341742D01*
X55417291Y-145341742D02*
X55488720Y-145198885D01*
X55488720Y-145198885D02*
X55560149Y-145127457D01*
X55560149Y-145127457D02*
X55703006Y-145056028D01*
X57131577Y-145056028D02*
X57274434Y-145056028D01*
X57274434Y-145056028D02*
X57417291Y-145127457D01*
X57417291Y-145127457D02*
X57488720Y-145198885D01*
X57488720Y-145198885D02*
X57560148Y-145341742D01*
X57560148Y-145341742D02*
X57631577Y-145627457D01*
X57631577Y-145627457D02*
X57631577Y-145984600D01*
X57631577Y-145984600D02*
X57560148Y-146270314D01*
X57560148Y-146270314D02*
X57488720Y-146413171D01*
X57488720Y-146413171D02*
X57417291Y-146484600D01*
X57417291Y-146484600D02*
X57274434Y-146556028D01*
X57274434Y-146556028D02*
X57131577Y-146556028D01*
X57131577Y-146556028D02*
X56988720Y-146484600D01*
X56988720Y-146484600D02*
X56917291Y-146413171D01*
X56917291Y-146413171D02*
X56845862Y-146270314D01*
X56845862Y-146270314D02*
X56774434Y-145984600D01*
X56774434Y-145984600D02*
X56774434Y-145627457D01*
X56774434Y-145627457D02*
X56845862Y-145341742D01*
X56845862Y-145341742D02*
X56917291Y-145198885D01*
X56917291Y-145198885D02*
X56988720Y-145127457D01*
X56988720Y-145127457D02*
X57131577Y-145056028D01*
X58274433Y-146556028D02*
X58274433Y-145056028D01*
X58417291Y-145984600D02*
X58845862Y-146556028D01*
X58845862Y-145556028D02*
X58274433Y-146127457D01*
X59417291Y-146556028D02*
X59774434Y-146556028D01*
X59774434Y-146556028D02*
X59774434Y-146270314D01*
X59774434Y-146270314D02*
X59631577Y-146198885D01*
X59631577Y-146198885D02*
X59488719Y-146056028D01*
X59488719Y-146056028D02*
X59417291Y-145841742D01*
X59417291Y-145841742D02*
X59417291Y-145484600D01*
X59417291Y-145484600D02*
X59488719Y-145270314D01*
X59488719Y-145270314D02*
X59631577Y-145127457D01*
X59631577Y-145127457D02*
X59845862Y-145056028D01*
X59845862Y-145056028D02*
X60131577Y-145056028D01*
X60131577Y-145056028D02*
X60345862Y-145127457D01*
X60345862Y-145127457D02*
X60488719Y-145270314D01*
X60488719Y-145270314D02*
X60560148Y-145484600D01*
X60560148Y-145484600D02*
X60560148Y-145841742D01*
X60560148Y-145841742D02*
X60488719Y-146056028D01*
X60488719Y-146056028D02*
X60345862Y-146198885D01*
X60345862Y-146198885D02*
X60203005Y-146270314D01*
X60203005Y-146270314D02*
X60203005Y-146556028D01*
X60203005Y-146556028D02*
X60560148Y-146556028D01*
X107024435Y-110556028D02*
X106167292Y-110556028D01*
X106595863Y-110556028D02*
X106595863Y-109056028D01*
X106595863Y-109056028D02*
X106453006Y-109270314D01*
X106453006Y-109270314D02*
X106310149Y-109413171D01*
X106310149Y-109413171D02*
X106167292Y-109484600D01*
X107667291Y-110556028D02*
X107667291Y-109056028D01*
X107810149Y-109984600D02*
X108238720Y-110556028D01*
X108238720Y-109556028D02*
X107667291Y-110127457D01*
X108810149Y-110556028D02*
X109167292Y-110556028D01*
X109167292Y-110556028D02*
X109167292Y-110270314D01*
X109167292Y-110270314D02*
X109024435Y-110198885D01*
X109024435Y-110198885D02*
X108881577Y-110056028D01*
X108881577Y-110056028D02*
X108810149Y-109841742D01*
X108810149Y-109841742D02*
X108810149Y-109484600D01*
X108810149Y-109484600D02*
X108881577Y-109270314D01*
X108881577Y-109270314D02*
X109024435Y-109127457D01*
X109024435Y-109127457D02*
X109238720Y-109056028D01*
X109238720Y-109056028D02*
X109524435Y-109056028D01*
X109524435Y-109056028D02*
X109738720Y-109127457D01*
X109738720Y-109127457D02*
X109881577Y-109270314D01*
X109881577Y-109270314D02*
X109953006Y-109484600D01*
X109953006Y-109484600D02*
X109953006Y-109841742D01*
X109953006Y-109841742D02*
X109881577Y-110056028D01*
X109881577Y-110056028D02*
X109738720Y-110198885D01*
X109738720Y-110198885D02*
X109595863Y-110270314D01*
X109595863Y-110270314D02*
X109595863Y-110556028D01*
X109595863Y-110556028D02*
X109953006Y-110556028D01*
X54131578Y-91806028D02*
X54131578Y-92806028D01*
X53774435Y-91234600D02*
X53417292Y-92306028D01*
X53417292Y-92306028D02*
X54345863Y-92306028D01*
X55203006Y-91306028D02*
X55345863Y-91306028D01*
X55345863Y-91306028D02*
X55488720Y-91377457D01*
X55488720Y-91377457D02*
X55560149Y-91448885D01*
X55560149Y-91448885D02*
X55631577Y-91591742D01*
X55631577Y-91591742D02*
X55703006Y-91877457D01*
X55703006Y-91877457D02*
X55703006Y-92234600D01*
X55703006Y-92234600D02*
X55631577Y-92520314D01*
X55631577Y-92520314D02*
X55560149Y-92663171D01*
X55560149Y-92663171D02*
X55488720Y-92734600D01*
X55488720Y-92734600D02*
X55345863Y-92806028D01*
X55345863Y-92806028D02*
X55203006Y-92806028D01*
X55203006Y-92806028D02*
X55060149Y-92734600D01*
X55060149Y-92734600D02*
X54988720Y-92663171D01*
X54988720Y-92663171D02*
X54917291Y-92520314D01*
X54917291Y-92520314D02*
X54845863Y-92234600D01*
X54845863Y-92234600D02*
X54845863Y-91877457D01*
X54845863Y-91877457D02*
X54917291Y-91591742D01*
X54917291Y-91591742D02*
X54988720Y-91448885D01*
X54988720Y-91448885D02*
X55060149Y-91377457D01*
X55060149Y-91377457D02*
X55203006Y-91306028D01*
X56631577Y-91306028D02*
X56774434Y-91306028D01*
X56774434Y-91306028D02*
X56917291Y-91377457D01*
X56917291Y-91377457D02*
X56988720Y-91448885D01*
X56988720Y-91448885D02*
X57060148Y-91591742D01*
X57060148Y-91591742D02*
X57131577Y-91877457D01*
X57131577Y-91877457D02*
X57131577Y-92234600D01*
X57131577Y-92234600D02*
X57060148Y-92520314D01*
X57060148Y-92520314D02*
X56988720Y-92663171D01*
X56988720Y-92663171D02*
X56917291Y-92734600D01*
X56917291Y-92734600D02*
X56774434Y-92806028D01*
X56774434Y-92806028D02*
X56631577Y-92806028D01*
X56631577Y-92806028D02*
X56488720Y-92734600D01*
X56488720Y-92734600D02*
X56417291Y-92663171D01*
X56417291Y-92663171D02*
X56345862Y-92520314D01*
X56345862Y-92520314D02*
X56274434Y-92234600D01*
X56274434Y-92234600D02*
X56274434Y-91877457D01*
X56274434Y-91877457D02*
X56345862Y-91591742D01*
X56345862Y-91591742D02*
X56417291Y-91448885D01*
X56417291Y-91448885D02*
X56488720Y-91377457D01*
X56488720Y-91377457D02*
X56631577Y-91306028D01*
X57703005Y-92806028D02*
X58060148Y-92806028D01*
X58060148Y-92806028D02*
X58060148Y-92520314D01*
X58060148Y-92520314D02*
X57917291Y-92448885D01*
X57917291Y-92448885D02*
X57774433Y-92306028D01*
X57774433Y-92306028D02*
X57703005Y-92091742D01*
X57703005Y-92091742D02*
X57703005Y-91734600D01*
X57703005Y-91734600D02*
X57774433Y-91520314D01*
X57774433Y-91520314D02*
X57917291Y-91377457D01*
X57917291Y-91377457D02*
X58131576Y-91306028D01*
X58131576Y-91306028D02*
X58417291Y-91306028D01*
X58417291Y-91306028D02*
X58631576Y-91377457D01*
X58631576Y-91377457D02*
X58774433Y-91520314D01*
X58774433Y-91520314D02*
X58845862Y-91734600D01*
X58845862Y-91734600D02*
X58845862Y-92091742D01*
X58845862Y-92091742D02*
X58774433Y-92306028D01*
X58774433Y-92306028D02*
X58631576Y-92448885D01*
X58631576Y-92448885D02*
X58488719Y-92520314D01*
X58488719Y-92520314D02*
X58488719Y-92806028D01*
X58488719Y-92806028D02*
X58845862Y-92806028D01*
X107524435Y-56056028D02*
X106667292Y-56056028D01*
X107095863Y-56056028D02*
X107095863Y-54556028D01*
X107095863Y-54556028D02*
X106953006Y-54770314D01*
X106953006Y-54770314D02*
X106810149Y-54913171D01*
X106810149Y-54913171D02*
X106667292Y-54984600D01*
X108095863Y-56056028D02*
X108453006Y-56056028D01*
X108453006Y-56056028D02*
X108453006Y-55770314D01*
X108453006Y-55770314D02*
X108310149Y-55698885D01*
X108310149Y-55698885D02*
X108167291Y-55556028D01*
X108167291Y-55556028D02*
X108095863Y-55341742D01*
X108095863Y-55341742D02*
X108095863Y-54984600D01*
X108095863Y-54984600D02*
X108167291Y-54770314D01*
X108167291Y-54770314D02*
X108310149Y-54627457D01*
X108310149Y-54627457D02*
X108524434Y-54556028D01*
X108524434Y-54556028D02*
X108810149Y-54556028D01*
X108810149Y-54556028D02*
X109024434Y-54627457D01*
X109024434Y-54627457D02*
X109167291Y-54770314D01*
X109167291Y-54770314D02*
X109238720Y-54984600D01*
X109238720Y-54984600D02*
X109238720Y-55341742D01*
X109238720Y-55341742D02*
X109167291Y-55556028D01*
X109167291Y-55556028D02*
X109024434Y-55698885D01*
X109024434Y-55698885D02*
X108881577Y-55770314D01*
X108881577Y-55770314D02*
X108881577Y-56056028D01*
X108881577Y-56056028D02*
X109238720Y-56056028D01*
X54131578Y-55556028D02*
X54131578Y-56556028D01*
X53774435Y-54984600D02*
X53417292Y-56056028D01*
X53417292Y-56056028D02*
X54345863Y-56056028D01*
X54845863Y-56556028D02*
X55203006Y-56556028D01*
X55203006Y-56556028D02*
X55203006Y-56270314D01*
X55203006Y-56270314D02*
X55060149Y-56198885D01*
X55060149Y-56198885D02*
X54917291Y-56056028D01*
X54917291Y-56056028D02*
X54845863Y-55841742D01*
X54845863Y-55841742D02*
X54845863Y-55484600D01*
X54845863Y-55484600D02*
X54917291Y-55270314D01*
X54917291Y-55270314D02*
X55060149Y-55127457D01*
X55060149Y-55127457D02*
X55274434Y-55056028D01*
X55274434Y-55056028D02*
X55560149Y-55056028D01*
X55560149Y-55056028D02*
X55774434Y-55127457D01*
X55774434Y-55127457D02*
X55917291Y-55270314D01*
X55917291Y-55270314D02*
X55988720Y-55484600D01*
X55988720Y-55484600D02*
X55988720Y-55841742D01*
X55988720Y-55841742D02*
X55917291Y-56056028D01*
X55917291Y-56056028D02*
X55774434Y-56198885D01*
X55774434Y-56198885D02*
X55631577Y-56270314D01*
X55631577Y-56270314D02*
X55631577Y-56556028D01*
X55631577Y-56556028D02*
X55988720Y-56556028D01*
X88417292Y-91448885D02*
X88488720Y-91377457D01*
X88488720Y-91377457D02*
X88631578Y-91306028D01*
X88631578Y-91306028D02*
X88988720Y-91306028D01*
X88988720Y-91306028D02*
X89131578Y-91377457D01*
X89131578Y-91377457D02*
X89203006Y-91448885D01*
X89203006Y-91448885D02*
X89274435Y-91591742D01*
X89274435Y-91591742D02*
X89274435Y-91734600D01*
X89274435Y-91734600D02*
X89203006Y-91948885D01*
X89203006Y-91948885D02*
X88345863Y-92806028D01*
X88345863Y-92806028D02*
X89274435Y-92806028D01*
X90203006Y-91306028D02*
X90345863Y-91306028D01*
X90345863Y-91306028D02*
X90488720Y-91377457D01*
X90488720Y-91377457D02*
X90560149Y-91448885D01*
X90560149Y-91448885D02*
X90631577Y-91591742D01*
X90631577Y-91591742D02*
X90703006Y-91877457D01*
X90703006Y-91877457D02*
X90703006Y-92234600D01*
X90703006Y-92234600D02*
X90631577Y-92520314D01*
X90631577Y-92520314D02*
X90560149Y-92663171D01*
X90560149Y-92663171D02*
X90488720Y-92734600D01*
X90488720Y-92734600D02*
X90345863Y-92806028D01*
X90345863Y-92806028D02*
X90203006Y-92806028D01*
X90203006Y-92806028D02*
X90060149Y-92734600D01*
X90060149Y-92734600D02*
X89988720Y-92663171D01*
X89988720Y-92663171D02*
X89917291Y-92520314D01*
X89917291Y-92520314D02*
X89845863Y-92234600D01*
X89845863Y-92234600D02*
X89845863Y-91877457D01*
X89845863Y-91877457D02*
X89917291Y-91591742D01*
X89917291Y-91591742D02*
X89988720Y-91448885D01*
X89988720Y-91448885D02*
X90060149Y-91377457D01*
X90060149Y-91377457D02*
X90203006Y-91306028D01*
X91631577Y-91306028D02*
X91774434Y-91306028D01*
X91774434Y-91306028D02*
X91917291Y-91377457D01*
X91917291Y-91377457D02*
X91988720Y-91448885D01*
X91988720Y-91448885D02*
X92060148Y-91591742D01*
X92060148Y-91591742D02*
X92131577Y-91877457D01*
X92131577Y-91877457D02*
X92131577Y-92234600D01*
X92131577Y-92234600D02*
X92060148Y-92520314D01*
X92060148Y-92520314D02*
X91988720Y-92663171D01*
X91988720Y-92663171D02*
X91917291Y-92734600D01*
X91917291Y-92734600D02*
X91774434Y-92806028D01*
X91774434Y-92806028D02*
X91631577Y-92806028D01*
X91631577Y-92806028D02*
X91488720Y-92734600D01*
X91488720Y-92734600D02*
X91417291Y-92663171D01*
X91417291Y-92663171D02*
X91345862Y-92520314D01*
X91345862Y-92520314D02*
X91274434Y-92234600D01*
X91274434Y-92234600D02*
X91274434Y-91877457D01*
X91274434Y-91877457D02*
X91345862Y-91591742D01*
X91345862Y-91591742D02*
X91417291Y-91448885D01*
X91417291Y-91448885D02*
X91488720Y-91377457D01*
X91488720Y-91377457D02*
X91631577Y-91306028D01*
X92703005Y-92806028D02*
X93060148Y-92806028D01*
X93060148Y-92806028D02*
X93060148Y-92520314D01*
X93060148Y-92520314D02*
X92917291Y-92448885D01*
X92917291Y-92448885D02*
X92774433Y-92306028D01*
X92774433Y-92306028D02*
X92703005Y-92091742D01*
X92703005Y-92091742D02*
X92703005Y-91734600D01*
X92703005Y-91734600D02*
X92774433Y-91520314D01*
X92774433Y-91520314D02*
X92917291Y-91377457D01*
X92917291Y-91377457D02*
X93131576Y-91306028D01*
X93131576Y-91306028D02*
X93417291Y-91306028D01*
X93417291Y-91306028D02*
X93631576Y-91377457D01*
X93631576Y-91377457D02*
X93774433Y-91520314D01*
X93774433Y-91520314D02*
X93845862Y-91734600D01*
X93845862Y-91734600D02*
X93845862Y-92091742D01*
X93845862Y-92091742D02*
X93774433Y-92306028D01*
X93774433Y-92306028D02*
X93631576Y-92448885D01*
X93631576Y-92448885D02*
X93488719Y-92520314D01*
X93488719Y-92520314D02*
X93488719Y-92806028D01*
X93488719Y-92806028D02*
X93845862Y-92806028D01*
X71095863Y-127056028D02*
X72024435Y-127056028D01*
X72024435Y-127056028D02*
X71524435Y-127627457D01*
X71524435Y-127627457D02*
X71738720Y-127627457D01*
X71738720Y-127627457D02*
X71881578Y-127698885D01*
X71881578Y-127698885D02*
X71953006Y-127770314D01*
X71953006Y-127770314D02*
X72024435Y-127913171D01*
X72024435Y-127913171D02*
X72024435Y-128270314D01*
X72024435Y-128270314D02*
X71953006Y-128413171D01*
X71953006Y-128413171D02*
X71881578Y-128484600D01*
X71881578Y-128484600D02*
X71738720Y-128556028D01*
X71738720Y-128556028D02*
X71310149Y-128556028D01*
X71310149Y-128556028D02*
X71167292Y-128484600D01*
X71167292Y-128484600D02*
X71095863Y-128413171D01*
X72953006Y-127056028D02*
X73095863Y-127056028D01*
X73095863Y-127056028D02*
X73238720Y-127127457D01*
X73238720Y-127127457D02*
X73310149Y-127198885D01*
X73310149Y-127198885D02*
X73381577Y-127341742D01*
X73381577Y-127341742D02*
X73453006Y-127627457D01*
X73453006Y-127627457D02*
X73453006Y-127984600D01*
X73453006Y-127984600D02*
X73381577Y-128270314D01*
X73381577Y-128270314D02*
X73310149Y-128413171D01*
X73310149Y-128413171D02*
X73238720Y-128484600D01*
X73238720Y-128484600D02*
X73095863Y-128556028D01*
X73095863Y-128556028D02*
X72953006Y-128556028D01*
X72953006Y-128556028D02*
X72810149Y-128484600D01*
X72810149Y-128484600D02*
X72738720Y-128413171D01*
X72738720Y-128413171D02*
X72667291Y-128270314D01*
X72667291Y-128270314D02*
X72595863Y-127984600D01*
X72595863Y-127984600D02*
X72595863Y-127627457D01*
X72595863Y-127627457D02*
X72667291Y-127341742D01*
X72667291Y-127341742D02*
X72738720Y-127198885D01*
X72738720Y-127198885D02*
X72810149Y-127127457D01*
X72810149Y-127127457D02*
X72953006Y-127056028D01*
X74095862Y-128556028D02*
X74095862Y-127056028D01*
X74238720Y-127984600D02*
X74667291Y-128556028D01*
X74667291Y-127556028D02*
X74095862Y-128127457D01*
X75238720Y-128556028D02*
X75595863Y-128556028D01*
X75595863Y-128556028D02*
X75595863Y-128270314D01*
X75595863Y-128270314D02*
X75453006Y-128198885D01*
X75453006Y-128198885D02*
X75310148Y-128056028D01*
X75310148Y-128056028D02*
X75238720Y-127841742D01*
X75238720Y-127841742D02*
X75238720Y-127484600D01*
X75238720Y-127484600D02*
X75310148Y-127270314D01*
X75310148Y-127270314D02*
X75453006Y-127127457D01*
X75453006Y-127127457D02*
X75667291Y-127056028D01*
X75667291Y-127056028D02*
X75953006Y-127056028D01*
X75953006Y-127056028D02*
X76167291Y-127127457D01*
X76167291Y-127127457D02*
X76310148Y-127270314D01*
X76310148Y-127270314D02*
X76381577Y-127484600D01*
X76381577Y-127484600D02*
X76381577Y-127841742D01*
X76381577Y-127841742D02*
X76310148Y-128056028D01*
X76310148Y-128056028D02*
X76167291Y-128198885D01*
X76167291Y-128198885D02*
X76024434Y-128270314D01*
X76024434Y-128270314D02*
X76024434Y-128556028D01*
X76024434Y-128556028D02*
X76381577Y-128556028D01*
X107274435Y-146556028D02*
X106417292Y-146556028D01*
X106845863Y-146556028D02*
X106845863Y-145056028D01*
X106845863Y-145056028D02*
X106703006Y-145270314D01*
X106703006Y-145270314D02*
X106560149Y-145413171D01*
X106560149Y-145413171D02*
X106417292Y-145484600D01*
X108203006Y-145056028D02*
X108345863Y-145056028D01*
X108345863Y-145056028D02*
X108488720Y-145127457D01*
X108488720Y-145127457D02*
X108560149Y-145198885D01*
X108560149Y-145198885D02*
X108631577Y-145341742D01*
X108631577Y-145341742D02*
X108703006Y-145627457D01*
X108703006Y-145627457D02*
X108703006Y-145984600D01*
X108703006Y-145984600D02*
X108631577Y-146270314D01*
X108631577Y-146270314D02*
X108560149Y-146413171D01*
X108560149Y-146413171D02*
X108488720Y-146484600D01*
X108488720Y-146484600D02*
X108345863Y-146556028D01*
X108345863Y-146556028D02*
X108203006Y-146556028D01*
X108203006Y-146556028D02*
X108060149Y-146484600D01*
X108060149Y-146484600D02*
X107988720Y-146413171D01*
X107988720Y-146413171D02*
X107917291Y-146270314D01*
X107917291Y-146270314D02*
X107845863Y-145984600D01*
X107845863Y-145984600D02*
X107845863Y-145627457D01*
X107845863Y-145627457D02*
X107917291Y-145341742D01*
X107917291Y-145341742D02*
X107988720Y-145198885D01*
X107988720Y-145198885D02*
X108060149Y-145127457D01*
X108060149Y-145127457D02*
X108203006Y-145056028D01*
X109631577Y-145056028D02*
X109774434Y-145056028D01*
X109774434Y-145056028D02*
X109917291Y-145127457D01*
X109917291Y-145127457D02*
X109988720Y-145198885D01*
X109988720Y-145198885D02*
X110060148Y-145341742D01*
X110060148Y-145341742D02*
X110131577Y-145627457D01*
X110131577Y-145627457D02*
X110131577Y-145984600D01*
X110131577Y-145984600D02*
X110060148Y-146270314D01*
X110060148Y-146270314D02*
X109988720Y-146413171D01*
X109988720Y-146413171D02*
X109917291Y-146484600D01*
X109917291Y-146484600D02*
X109774434Y-146556028D01*
X109774434Y-146556028D02*
X109631577Y-146556028D01*
X109631577Y-146556028D02*
X109488720Y-146484600D01*
X109488720Y-146484600D02*
X109417291Y-146413171D01*
X109417291Y-146413171D02*
X109345862Y-146270314D01*
X109345862Y-146270314D02*
X109274434Y-145984600D01*
X109274434Y-145984600D02*
X109274434Y-145627457D01*
X109274434Y-145627457D02*
X109345862Y-145341742D01*
X109345862Y-145341742D02*
X109417291Y-145198885D01*
X109417291Y-145198885D02*
X109488720Y-145127457D01*
X109488720Y-145127457D02*
X109631577Y-145056028D01*
X110774433Y-146556028D02*
X110774433Y-145056028D01*
X110917291Y-145984600D02*
X111345862Y-146556028D01*
X111345862Y-145556028D02*
X110774433Y-146127457D01*
X111917291Y-146556028D02*
X112274434Y-146556028D01*
X112274434Y-146556028D02*
X112274434Y-146270314D01*
X112274434Y-146270314D02*
X112131577Y-146198885D01*
X112131577Y-146198885D02*
X111988719Y-146056028D01*
X111988719Y-146056028D02*
X111917291Y-145841742D01*
X111917291Y-145841742D02*
X111917291Y-145484600D01*
X111917291Y-145484600D02*
X111988719Y-145270314D01*
X111988719Y-145270314D02*
X112131577Y-145127457D01*
X112131577Y-145127457D02*
X112345862Y-145056028D01*
X112345862Y-145056028D02*
X112631577Y-145056028D01*
X112631577Y-145056028D02*
X112845862Y-145127457D01*
X112845862Y-145127457D02*
X112988719Y-145270314D01*
X112988719Y-145270314D02*
X113060148Y-145484600D01*
X113060148Y-145484600D02*
X113060148Y-145841742D01*
X113060148Y-145841742D02*
X112988719Y-146056028D01*
X112988719Y-146056028D02*
X112845862Y-146198885D01*
X112845862Y-146198885D02*
X112703005Y-146270314D01*
X112703005Y-146270314D02*
X112703005Y-146556028D01*
X112703005Y-146556028D02*
X113060148Y-146556028D01*
X88667292Y-109198885D02*
X88738720Y-109127457D01*
X88738720Y-109127457D02*
X88881578Y-109056028D01*
X88881578Y-109056028D02*
X89238720Y-109056028D01*
X89238720Y-109056028D02*
X89381578Y-109127457D01*
X89381578Y-109127457D02*
X89453006Y-109198885D01*
X89453006Y-109198885D02*
X89524435Y-109341742D01*
X89524435Y-109341742D02*
X89524435Y-109484600D01*
X89524435Y-109484600D02*
X89453006Y-109698885D01*
X89453006Y-109698885D02*
X88595863Y-110556028D01*
X88595863Y-110556028D02*
X89524435Y-110556028D01*
X90167291Y-110556028D02*
X90167291Y-109056028D01*
X90310149Y-109984600D02*
X90738720Y-110556028D01*
X90738720Y-109556028D02*
X90167291Y-110127457D01*
X91310149Y-110556028D02*
X91667292Y-110556028D01*
X91667292Y-110556028D02*
X91667292Y-110270314D01*
X91667292Y-110270314D02*
X91524435Y-110198885D01*
X91524435Y-110198885D02*
X91381577Y-110056028D01*
X91381577Y-110056028D02*
X91310149Y-109841742D01*
X91310149Y-109841742D02*
X91310149Y-109484600D01*
X91310149Y-109484600D02*
X91381577Y-109270314D01*
X91381577Y-109270314D02*
X91524435Y-109127457D01*
X91524435Y-109127457D02*
X91738720Y-109056028D01*
X91738720Y-109056028D02*
X92024435Y-109056028D01*
X92024435Y-109056028D02*
X92238720Y-109127457D01*
X92238720Y-109127457D02*
X92381577Y-109270314D01*
X92381577Y-109270314D02*
X92453006Y-109484600D01*
X92453006Y-109484600D02*
X92453006Y-109841742D01*
X92453006Y-109841742D02*
X92381577Y-110056028D01*
X92381577Y-110056028D02*
X92238720Y-110198885D01*
X92238720Y-110198885D02*
X92095863Y-110270314D01*
X92095863Y-110270314D02*
X92095863Y-110556028D01*
X92095863Y-110556028D02*
X92453006Y-110556028D01*
X107024435Y-74806028D02*
X106167292Y-74806028D01*
X106595863Y-74806028D02*
X106595863Y-73306028D01*
X106595863Y-73306028D02*
X106453006Y-73520314D01*
X106453006Y-73520314D02*
X106310149Y-73663171D01*
X106310149Y-73663171D02*
X106167292Y-73734600D01*
X107953006Y-73306028D02*
X108095863Y-73306028D01*
X108095863Y-73306028D02*
X108238720Y-73377457D01*
X108238720Y-73377457D02*
X108310149Y-73448885D01*
X108310149Y-73448885D02*
X108381577Y-73591742D01*
X108381577Y-73591742D02*
X108453006Y-73877457D01*
X108453006Y-73877457D02*
X108453006Y-74234600D01*
X108453006Y-74234600D02*
X108381577Y-74520314D01*
X108381577Y-74520314D02*
X108310149Y-74663171D01*
X108310149Y-74663171D02*
X108238720Y-74734600D01*
X108238720Y-74734600D02*
X108095863Y-74806028D01*
X108095863Y-74806028D02*
X107953006Y-74806028D01*
X107953006Y-74806028D02*
X107810149Y-74734600D01*
X107810149Y-74734600D02*
X107738720Y-74663171D01*
X107738720Y-74663171D02*
X107667291Y-74520314D01*
X107667291Y-74520314D02*
X107595863Y-74234600D01*
X107595863Y-74234600D02*
X107595863Y-73877457D01*
X107595863Y-73877457D02*
X107667291Y-73591742D01*
X107667291Y-73591742D02*
X107738720Y-73448885D01*
X107738720Y-73448885D02*
X107810149Y-73377457D01*
X107810149Y-73377457D02*
X107953006Y-73306028D01*
X109024434Y-74806028D02*
X109381577Y-74806028D01*
X109381577Y-74806028D02*
X109381577Y-74520314D01*
X109381577Y-74520314D02*
X109238720Y-74448885D01*
X109238720Y-74448885D02*
X109095862Y-74306028D01*
X109095862Y-74306028D02*
X109024434Y-74091742D01*
X109024434Y-74091742D02*
X109024434Y-73734600D01*
X109024434Y-73734600D02*
X109095862Y-73520314D01*
X109095862Y-73520314D02*
X109238720Y-73377457D01*
X109238720Y-73377457D02*
X109453005Y-73306028D01*
X109453005Y-73306028D02*
X109738720Y-73306028D01*
X109738720Y-73306028D02*
X109953005Y-73377457D01*
X109953005Y-73377457D02*
X110095862Y-73520314D01*
X110095862Y-73520314D02*
X110167291Y-73734600D01*
X110167291Y-73734600D02*
X110167291Y-74091742D01*
X110167291Y-74091742D02*
X110095862Y-74306028D01*
X110095862Y-74306028D02*
X109953005Y-74448885D01*
X109953005Y-74448885D02*
X109810148Y-74520314D01*
X109810148Y-74520314D02*
X109810148Y-74806028D01*
X109810148Y-74806028D02*
X110167291Y-74806028D01*
D11*
G36*
X53026923Y-33231343D02*
G01*
X53161224Y-33249338D01*
X53283049Y-33283181D01*
X53392006Y-33333279D01*
X53487705Y-33400037D01*
X53569755Y-33483861D01*
X53637764Y-33585157D01*
X53691340Y-33704330D01*
X53730094Y-33841786D01*
X53747501Y-33943781D01*
X53758031Y-34054203D01*
X53761566Y-34173171D01*
X53758445Y-34292033D01*
X53749055Y-34403496D01*
X53733356Y-34507523D01*
X53697886Y-34649539D01*
X53647990Y-34774615D01*
X53583530Y-34882625D01*
X53504369Y-34973444D01*
X53410368Y-35046945D01*
X53301390Y-35103004D01*
X53177297Y-35141494D01*
X53037952Y-35162290D01*
X52936514Y-35166263D01*
X52900569Y-35165971D01*
X52792220Y-35161614D01*
X52683020Y-35152080D01*
X52572873Y-35137426D01*
X52461684Y-35117710D01*
X52349354Y-35092990D01*
X52349354Y-34950352D01*
X52548656Y-34950352D01*
X52621620Y-34961952D01*
X52727198Y-34973066D01*
X52829337Y-34979066D01*
X52936514Y-34981127D01*
X53044135Y-34975136D01*
X53172574Y-34947657D01*
X53283364Y-34896370D01*
X53376025Y-34819603D01*
X53450075Y-34715686D01*
X53493111Y-34618924D01*
X53525206Y-34505245D01*
X53546155Y-34373943D01*
X53553830Y-34276269D01*
X53556402Y-34170240D01*
X53553738Y-34071436D01*
X53539887Y-33937472D01*
X53514476Y-33820080D01*
X53477802Y-33718679D01*
X53430161Y-33632686D01*
X53350094Y-33540991D01*
X53251763Y-33474276D01*
X53135872Y-33431159D01*
X53037854Y-33413478D01*
X52930652Y-33407714D01*
X52548656Y-33407714D01*
X52548656Y-34950352D01*
X52349354Y-34950352D01*
X52349354Y-33227951D01*
X52930652Y-33227951D01*
X53026923Y-33231343D01*
G37*
G36*
X54233932Y-33227951D02*
G01*
X54233932Y-34737372D01*
X54246444Y-34847739D01*
X54282795Y-34941503D01*
X54355382Y-35030891D01*
X54437922Y-35085097D01*
X54538612Y-35119946D01*
X54655675Y-35134576D01*
X54680896Y-35135000D01*
X55354518Y-35135000D01*
X55354518Y-34955725D01*
X54680896Y-34955725D01*
X54574605Y-34943521D01*
X54482216Y-34890897D01*
X54437304Y-34791494D01*
X54433234Y-34737372D01*
X54433234Y-34251817D01*
X55208949Y-34251817D01*
X55208949Y-34072055D01*
X54433234Y-34072055D01*
X54433234Y-33407714D01*
X55312508Y-33407714D01*
X55312508Y-33227951D01*
X54233932Y-33227951D01*
G37*
G36*
X55667637Y-34185872D02*
G01*
X55671303Y-34320610D01*
X55682146Y-34443560D01*
X55699937Y-34555149D01*
X55724447Y-34655803D01*
X55773305Y-34787216D01*
X55835989Y-34896430D01*
X55911721Y-34984886D01*
X55999726Y-35054026D01*
X56099231Y-35105292D01*
X56209459Y-35140126D01*
X56329635Y-35159969D01*
X56458984Y-35166263D01*
X56560657Y-35163452D01*
X56670943Y-35155002D01*
X56769607Y-35143246D01*
X56869700Y-35127303D01*
X56968963Y-35107156D01*
X56948447Y-34932766D01*
X56851454Y-34950693D01*
X56739948Y-34967915D01*
X56631799Y-34980518D01*
X56528664Y-34987826D01*
X56458984Y-34989431D01*
X56359139Y-34984763D01*
X56239292Y-34962198D01*
X56135245Y-34917694D01*
X56047681Y-34847690D01*
X55977280Y-34748627D01*
X55936152Y-34653117D01*
X55905350Y-34537755D01*
X55885159Y-34401040D01*
X55877737Y-34297292D01*
X55875244Y-34182941D01*
X55877736Y-34066336D01*
X55885178Y-33960915D01*
X55905500Y-33822648D01*
X55936650Y-33706704D01*
X55978446Y-33611378D01*
X56050417Y-33513402D01*
X56140551Y-33445006D01*
X56248413Y-33402150D01*
X56373569Y-33380792D01*
X56478524Y-33376451D01*
X56584449Y-33380015D01*
X56682233Y-33388395D01*
X56783427Y-33400882D01*
X56886742Y-33416708D01*
X56931350Y-33424323D01*
X56958217Y-33244560D01*
X56855506Y-33227537D01*
X56751542Y-33213526D01*
X56646753Y-33203292D01*
X56541571Y-33197603D01*
X56481454Y-33196688D01*
X56346924Y-33202651D01*
X56222418Y-33221669D01*
X56108639Y-33255438D01*
X56006286Y-33305653D01*
X55916059Y-33374010D01*
X55838659Y-33462203D01*
X55774786Y-33571928D01*
X55725141Y-33704881D01*
X55700295Y-33807258D01*
X55682290Y-33921214D01*
X55671335Y-34047251D01*
X55667637Y-34185872D01*
G37*
G36*
X58134426Y-33200170D02*
G01*
X58260608Y-33217984D01*
X58369467Y-33250010D01*
X58461956Y-33295237D01*
X58561454Y-33374332D01*
X58635795Y-33472709D01*
X58687237Y-33587977D01*
X58712146Y-33684072D01*
X58726393Y-33787312D01*
X58730931Y-33896688D01*
X58730931Y-35135000D01*
X58531629Y-35135000D01*
X58531629Y-34384685D01*
X57549284Y-34384685D01*
X57549284Y-35135000D01*
X57349982Y-35135000D01*
X57349982Y-33899619D01*
X57549284Y-33899619D01*
X57549284Y-34205411D01*
X58531629Y-34205411D01*
X58531629Y-33899619D01*
X58530489Y-33844478D01*
X58520436Y-33740326D01*
X58490077Y-33623889D01*
X58435397Y-33525928D01*
X58351523Y-33449862D01*
X58260128Y-33407073D01*
X58144432Y-33382240D01*
X58040212Y-33376451D01*
X58003734Y-33377103D01*
X57874983Y-33392303D01*
X57771812Y-33426333D01*
X57674999Y-33492682D01*
X57609340Y-33582296D01*
X57569938Y-33691753D01*
X57554030Y-33791307D01*
X57549284Y-33899619D01*
X57349982Y-33899619D01*
X57349982Y-33896688D01*
X57352034Y-33823139D01*
X57363211Y-33717741D01*
X57384878Y-33619152D01*
X57431590Y-33500036D01*
X57500558Y-33397212D01*
X57593843Y-33313072D01*
X57681005Y-33263668D01*
X57783875Y-33227130D01*
X57903321Y-33204467D01*
X58040212Y-33196688D01*
X58134426Y-33200170D01*
G37*
G36*
X59981006Y-33231343D02*
G01*
X60115306Y-33249338D01*
X60237131Y-33283181D01*
X60346088Y-33333279D01*
X60441788Y-33400037D01*
X60523837Y-33483861D01*
X60591846Y-33585157D01*
X60645423Y-33704330D01*
X60684176Y-33841786D01*
X60701584Y-33943781D01*
X60712113Y-34054203D01*
X60715648Y-34173171D01*
X60712528Y-34292033D01*
X60703138Y-34403496D01*
X60687438Y-34507523D01*
X60651969Y-34649539D01*
X60602073Y-34774615D01*
X60537613Y-34882625D01*
X60458451Y-34973444D01*
X60364450Y-35046945D01*
X60255472Y-35103004D01*
X60131379Y-35141494D01*
X59992034Y-35162290D01*
X59890596Y-35166263D01*
X59854652Y-35165971D01*
X59746302Y-35161614D01*
X59637102Y-35152080D01*
X59526956Y-35137426D01*
X59415766Y-35117710D01*
X59303436Y-35092990D01*
X59303436Y-34950352D01*
X59502739Y-34950352D01*
X59575702Y-34961952D01*
X59681280Y-34973066D01*
X59783419Y-34979066D01*
X59890596Y-34981127D01*
X59998218Y-34975136D01*
X60126656Y-34947657D01*
X60237446Y-34896370D01*
X60330107Y-34819603D01*
X60404158Y-34715686D01*
X60447194Y-34618924D01*
X60479288Y-34505245D01*
X60500238Y-34373943D01*
X60507913Y-34276269D01*
X60510484Y-34170240D01*
X60507820Y-34071436D01*
X60493970Y-33937472D01*
X60468559Y-33820080D01*
X60431884Y-33718679D01*
X60384243Y-33632686D01*
X60304176Y-33540991D01*
X60205845Y-33474276D01*
X60089954Y-33431159D01*
X59991937Y-33413478D01*
X59884734Y-33407714D01*
X59502739Y-33407714D01*
X59502739Y-34950352D01*
X59303436Y-34950352D01*
X59303436Y-33227951D01*
X59884734Y-33227951D01*
X59981006Y-33231343D01*
G37*
G36*
X61188014Y-33227951D02*
G01*
X61188014Y-34737372D01*
X61200526Y-34847739D01*
X61236878Y-34941503D01*
X61309464Y-35030891D01*
X61392004Y-35085097D01*
X61492694Y-35119946D01*
X61609758Y-35134576D01*
X61634979Y-35135000D01*
X62308600Y-35135000D01*
X62308600Y-34955725D01*
X61634979Y-34955725D01*
X61528687Y-34943521D01*
X61436298Y-34890897D01*
X61391386Y-34791494D01*
X61387316Y-34737372D01*
X61387316Y-34251817D01*
X62163032Y-34251817D01*
X62163032Y-34072055D01*
X61387316Y-34072055D01*
X61387316Y-33407714D01*
X62266591Y-33407714D01*
X62266591Y-33227951D01*
X61188014Y-33227951D01*
G37*
G36*
X64195053Y-33231595D02*
G01*
X64304172Y-33243140D01*
X64432875Y-33272414D01*
X64541784Y-33319551D01*
X64630233Y-33386733D01*
X64697559Y-33476139D01*
X64743098Y-33589952D01*
X64762555Y-33692640D01*
X64769103Y-33811203D01*
X64765148Y-33896353D01*
X64748130Y-33997710D01*
X64709520Y-34105700D01*
X64653638Y-34194021D01*
X64582619Y-34263869D01*
X64498600Y-34316442D01*
X64403715Y-34352934D01*
X64459221Y-34394577D01*
X64525925Y-34477970D01*
X64574902Y-34567133D01*
X64619138Y-34663122D01*
X64815997Y-35135000D01*
X64603018Y-35135000D01*
X64427651Y-34711482D01*
X64393268Y-34636972D01*
X64335302Y-34543029D01*
X64260734Y-34468125D01*
X64163888Y-34419929D01*
X64058845Y-34405690D01*
X64002279Y-34404684D01*
X63896912Y-34398251D01*
X63789314Y-34386819D01*
X63682222Y-34371496D01*
X63682222Y-35135000D01*
X63482920Y-35135000D01*
X63482920Y-34194176D01*
X63682222Y-34194176D01*
X63743713Y-34204081D01*
X63852559Y-34217618D01*
X63958711Y-34225693D01*
X64061775Y-34228370D01*
X64161111Y-34224921D01*
X64273845Y-34209431D01*
X64385244Y-34172110D01*
X64466652Y-34114253D01*
X64528989Y-34016836D01*
X64555004Y-33911595D01*
X64561008Y-33811203D01*
X64559413Y-33754105D01*
X64540860Y-33633962D01*
X64488962Y-33528482D01*
X64401654Y-33459610D01*
X64299492Y-33425903D01*
X64197156Y-33411968D01*
X64075453Y-33407714D01*
X63682222Y-33407714D01*
X63682222Y-34194176D01*
X63482920Y-34194176D01*
X63482920Y-33227951D01*
X64075453Y-33227951D01*
X64195053Y-33231595D01*
G37*
G36*
X65279570Y-33227951D02*
G01*
X65279570Y-34737372D01*
X65292082Y-34847739D01*
X65328434Y-34941503D01*
X65401020Y-35030891D01*
X65483560Y-35085097D01*
X65584251Y-35119946D01*
X65701314Y-35134576D01*
X65726535Y-35135000D01*
X66400157Y-35135000D01*
X66400157Y-34955725D01*
X65726535Y-34955725D01*
X65620243Y-34943521D01*
X65527854Y-34890897D01*
X65482943Y-34791494D01*
X65478872Y-34737372D01*
X65478872Y-34251817D01*
X66254588Y-34251817D01*
X66254588Y-34072055D01*
X65478872Y-34072055D01*
X65478872Y-33407714D01*
X66358147Y-33407714D01*
X66358147Y-33227951D01*
X65279570Y-33227951D01*
G37*
G36*
X67841189Y-33245048D02*
G01*
X67744301Y-33227806D01*
X67641527Y-33214020D01*
X67528961Y-33203280D01*
X67429753Y-33197825D01*
X67364427Y-33196688D01*
X67247058Y-33200161D01*
X67133656Y-33212289D01*
X67027822Y-33235637D01*
X66933155Y-33272770D01*
X66836014Y-33342477D01*
X66768981Y-33442738D01*
X66741760Y-33548312D01*
X66738189Y-33610436D01*
X66762628Y-33734570D01*
X66829430Y-33851010D01*
X66928819Y-33961181D01*
X67008354Y-34031849D01*
X67095130Y-34100786D01*
X67186251Y-34168414D01*
X67278821Y-34235156D01*
X67369942Y-34301433D01*
X67456718Y-34367668D01*
X67536253Y-34434283D01*
X67635642Y-34535842D01*
X67702444Y-34640630D01*
X67726884Y-34750073D01*
X67706066Y-34850252D01*
X67635023Y-34928728D01*
X67536302Y-34969532D01*
X67427920Y-34986399D01*
X67344888Y-34989431D01*
X67246084Y-34986128D01*
X67148536Y-34976891D01*
X67035310Y-34959389D01*
X66928782Y-34936529D01*
X66831617Y-34910050D01*
X66773360Y-34891245D01*
X66732815Y-35066123D01*
X66841997Y-35099338D01*
X66949298Y-35124733D01*
X67046041Y-35142414D01*
X67147546Y-35155870D01*
X67252036Y-35164104D01*
X67336584Y-35166263D01*
X67456957Y-35161193D01*
X67568859Y-35144937D01*
X67669952Y-35115928D01*
X67757903Y-35072595D01*
X67845800Y-34995900D01*
X67904949Y-34891311D01*
X67928505Y-34785498D01*
X67931559Y-34724672D01*
X67907337Y-34586936D01*
X67841129Y-34460143D01*
X67778449Y-34380953D01*
X67704287Y-34305515D01*
X67621512Y-34233386D01*
X67532995Y-34164120D01*
X67441608Y-34097273D01*
X67350221Y-34032401D01*
X67261704Y-33969060D01*
X67178929Y-33906804D01*
X67071812Y-33814486D01*
X66993762Y-33722113D01*
X66954468Y-33628184D01*
X66951657Y-33596270D01*
X66977016Y-33489878D01*
X67060241Y-33417939D01*
X67170436Y-33387488D01*
X67285496Y-33377762D01*
X67369801Y-33376451D01*
X67476352Y-33380832D01*
X67581880Y-33390679D01*
X67687059Y-33404532D01*
X67792350Y-33423302D01*
X67814323Y-33428230D01*
X67841189Y-33245048D01*
G37*
G36*
X68432257Y-33227951D02*
G01*
X68432257Y-35135000D01*
X68631559Y-35135000D01*
X68631559Y-33227951D01*
X68432257Y-33227951D01*
G37*
G36*
X70228907Y-33245048D02*
G01*
X70132019Y-33227806D01*
X70029245Y-33214020D01*
X69916679Y-33203280D01*
X69817471Y-33197825D01*
X69752145Y-33196688D01*
X69634776Y-33200161D01*
X69521374Y-33212289D01*
X69415540Y-33235637D01*
X69320874Y-33272770D01*
X69223732Y-33342477D01*
X69156700Y-33442738D01*
X69129478Y-33548312D01*
X69125907Y-33610436D01*
X69150346Y-33734570D01*
X69217149Y-33851010D01*
X69316537Y-33961181D01*
X69396072Y-34031849D01*
X69482848Y-34100786D01*
X69573969Y-34168414D01*
X69666539Y-34235156D01*
X69757660Y-34301433D01*
X69844436Y-34367668D01*
X69923971Y-34434283D01*
X70023360Y-34535842D01*
X70090162Y-34640630D01*
X70114602Y-34750073D01*
X70093784Y-34850252D01*
X70022741Y-34928728D01*
X69924020Y-34969532D01*
X69815638Y-34986399D01*
X69732606Y-34989431D01*
X69633802Y-34986128D01*
X69536254Y-34976891D01*
X69423028Y-34959389D01*
X69316500Y-34936529D01*
X69219335Y-34910050D01*
X69161078Y-34891245D01*
X69120533Y-35066123D01*
X69229715Y-35099338D01*
X69337016Y-35124733D01*
X69433759Y-35142414D01*
X69535264Y-35155870D01*
X69639755Y-35164104D01*
X69724302Y-35166263D01*
X69844675Y-35161193D01*
X69956577Y-35144937D01*
X70057670Y-35115928D01*
X70145621Y-35072595D01*
X70233518Y-34995900D01*
X70292667Y-34891311D01*
X70316223Y-34785498D01*
X70319277Y-34724672D01*
X70295055Y-34586936D01*
X70228847Y-34460143D01*
X70166168Y-34380953D01*
X70092005Y-34305515D01*
X70009230Y-34233386D01*
X69920713Y-34164120D01*
X69829326Y-34097273D01*
X69737939Y-34032401D01*
X69649422Y-33969060D01*
X69566647Y-33906804D01*
X69459530Y-33814486D01*
X69381480Y-33722113D01*
X69342186Y-33628184D01*
X69339375Y-33596270D01*
X69364734Y-33489878D01*
X69447959Y-33417939D01*
X69558154Y-33387488D01*
X69673214Y-33377762D01*
X69757519Y-33376451D01*
X69864070Y-33380832D01*
X69969599Y-33390679D01*
X70074777Y-33404532D01*
X70180068Y-33423302D01*
X70202041Y-33428230D01*
X70228907Y-33245048D01*
G37*
G36*
X70521999Y-33227951D02*
G01*
X70521999Y-33407714D01*
X71171685Y-33407714D01*
X71171685Y-35135000D01*
X71370987Y-35135000D01*
X71370987Y-33407714D01*
X72020673Y-33407714D01*
X72020673Y-33227951D01*
X70521999Y-33227951D01*
G37*
G36*
X73011747Y-33200170D02*
G01*
X73137928Y-33217984D01*
X73246787Y-33250010D01*
X73339276Y-33295237D01*
X73438774Y-33374332D01*
X73513116Y-33472709D01*
X73564557Y-33587977D01*
X73589466Y-33684072D01*
X73603714Y-33787312D01*
X73608251Y-33896688D01*
X73608251Y-35135000D01*
X73408949Y-35135000D01*
X73408949Y-34384685D01*
X72426605Y-34384685D01*
X72426605Y-35135000D01*
X72227302Y-35135000D01*
X72227302Y-33899619D01*
X72426605Y-33899619D01*
X72426605Y-34205411D01*
X73408949Y-34205411D01*
X73408949Y-33899619D01*
X73407810Y-33844478D01*
X73397757Y-33740326D01*
X73367397Y-33623889D01*
X73312718Y-33525928D01*
X73228843Y-33449862D01*
X73137448Y-33407073D01*
X73021753Y-33382240D01*
X72917533Y-33376451D01*
X72881054Y-33377103D01*
X72752303Y-33392303D01*
X72649132Y-33426333D01*
X72552320Y-33492682D01*
X72486661Y-33582296D01*
X72447258Y-33691753D01*
X72431350Y-33791307D01*
X72426605Y-33899619D01*
X72227302Y-33899619D01*
X72227302Y-33896688D01*
X72229355Y-33823139D01*
X72240531Y-33717741D01*
X72262199Y-33619152D01*
X72308910Y-33500036D01*
X72377878Y-33397212D01*
X72471164Y-33313072D01*
X72558326Y-33263668D01*
X72661195Y-33227130D01*
X72780641Y-33204467D01*
X72917533Y-33196688D01*
X73011747Y-33200170D01*
G37*
G36*
X74180757Y-33227951D02*
G01*
X74180757Y-35135000D01*
X74374685Y-35135000D01*
X74374685Y-33533255D01*
X75480129Y-34677288D01*
X75480129Y-35135000D01*
X75674057Y-35135000D01*
X75674057Y-33227951D01*
X75480129Y-33227951D01*
X75480129Y-34404225D01*
X74349284Y-33227951D01*
X74180757Y-33227951D01*
G37*
G36*
X76162543Y-34185872D02*
G01*
X76166209Y-34320610D01*
X76177052Y-34443560D01*
X76194843Y-34555149D01*
X76219352Y-34655803D01*
X76268211Y-34787216D01*
X76330894Y-34896430D01*
X76406626Y-34984886D01*
X76494632Y-35054026D01*
X76594137Y-35105292D01*
X76704365Y-35140126D01*
X76824541Y-35159969D01*
X76953890Y-35166263D01*
X77055563Y-35163452D01*
X77165848Y-35155002D01*
X77264512Y-35143246D01*
X77364606Y-35127303D01*
X77463869Y-35107156D01*
X77443353Y-34932766D01*
X77346360Y-34950693D01*
X77234854Y-34967915D01*
X77126705Y-34980518D01*
X77023570Y-34987826D01*
X76953890Y-34989431D01*
X76854045Y-34984763D01*
X76734198Y-34962198D01*
X76630151Y-34917694D01*
X76542587Y-34847690D01*
X76472186Y-34748627D01*
X76431058Y-34653117D01*
X76400256Y-34537755D01*
X76380065Y-34401040D01*
X76372643Y-34297292D01*
X76370150Y-34182941D01*
X76372642Y-34066336D01*
X76380083Y-33960915D01*
X76400405Y-33822648D01*
X76431556Y-33706704D01*
X76473352Y-33611378D01*
X76545323Y-33513402D01*
X76635456Y-33445006D01*
X76743319Y-33402150D01*
X76868475Y-33380792D01*
X76973429Y-33376451D01*
X77079354Y-33380015D01*
X77177139Y-33388395D01*
X77278332Y-33400882D01*
X77381648Y-33416708D01*
X77426256Y-33424323D01*
X77453122Y-33244560D01*
X77350412Y-33227537D01*
X77246447Y-33213526D01*
X77141659Y-33203292D01*
X77036476Y-33197603D01*
X76976360Y-33196688D01*
X76841830Y-33202651D01*
X76717324Y-33221669D01*
X76603545Y-33255438D01*
X76501192Y-33305653D01*
X76410965Y-33374010D01*
X76333565Y-33462203D01*
X76269692Y-33571928D01*
X76220047Y-33704881D01*
X76195200Y-33807258D01*
X76177196Y-33921214D01*
X76166241Y-34047251D01*
X76162543Y-34185872D01*
G37*
G36*
X79240061Y-33228369D02*
G01*
X79344157Y-33234728D01*
X79468553Y-33255604D01*
X79575822Y-33291398D01*
X79665230Y-33342929D01*
X79736045Y-33411014D01*
X79787534Y-33496473D01*
X79818965Y-33600125D01*
X79829605Y-33722787D01*
X79820640Y-33836039D01*
X79796090Y-33930902D01*
X79751020Y-34021680D01*
X79684605Y-34097672D01*
X79592201Y-34151678D01*
X79653003Y-34172648D01*
X79739119Y-34231319D01*
X79805024Y-34311528D01*
X79848139Y-34401370D01*
X79875490Y-34513660D01*
X79882850Y-34620624D01*
X79877887Y-34708357D01*
X79855147Y-34816274D01*
X79812751Y-34912474D01*
X79749361Y-34995467D01*
X79663637Y-35063765D01*
X79554240Y-35115881D01*
X79455850Y-35143452D01*
X79342826Y-35160455D01*
X79214602Y-35166263D01*
X79143671Y-35164264D01*
X79041914Y-35156829D01*
X78927352Y-35144299D01*
X78826185Y-35130273D01*
X78723332Y-35113251D01*
X78622069Y-35093478D01*
X78622069Y-34944002D01*
X78821371Y-34944002D01*
X78912062Y-34959283D01*
X79017294Y-34972429D01*
X79117940Y-34980750D01*
X79217533Y-34984057D01*
X79337323Y-34977769D01*
X79458163Y-34952857D01*
X79549532Y-34910094D01*
X79624259Y-34836868D01*
X79665510Y-34741656D01*
X79678175Y-34626486D01*
X79676865Y-34581230D01*
X79661136Y-34481520D01*
X79615266Y-34386794D01*
X79534950Y-34318694D01*
X79437885Y-34281852D01*
X79338305Y-34265158D01*
X79217533Y-34259633D01*
X78821371Y-34259633D01*
X78821371Y-34944002D01*
X78622069Y-34944002D01*
X78622069Y-34080359D01*
X78821371Y-34080359D01*
X79214602Y-34080359D01*
X79307000Y-34074712D01*
X79406853Y-34051824D01*
X79502755Y-34001278D01*
X79571359Y-33925715D01*
X79611388Y-33825310D01*
X79621999Y-33722787D01*
X79616212Y-33644735D01*
X79584823Y-33550142D01*
X79511152Y-33471812D01*
X79413753Y-33430137D01*
X79306766Y-33412036D01*
X79203367Y-33407714D01*
X78821371Y-33407714D01*
X78821371Y-34080359D01*
X78622069Y-34080359D01*
X78622069Y-33227951D01*
X79203367Y-33227951D01*
X79240061Y-33228369D01*
G37*
G36*
X81155397Y-33203909D02*
G01*
X81276398Y-33226171D01*
X81386022Y-33264371D01*
X81483821Y-33319409D01*
X81569349Y-33392182D01*
X81642158Y-33483590D01*
X81701802Y-33594530D01*
X81747835Y-33725901D01*
X81770741Y-33825276D01*
X81787266Y-33934397D01*
X81797278Y-34053530D01*
X81800645Y-34182941D01*
X81797278Y-34311433D01*
X81787266Y-34429816D01*
X81770741Y-34538340D01*
X81747835Y-34637255D01*
X81701802Y-34768164D01*
X81642158Y-34878868D01*
X81569349Y-34970215D01*
X81483821Y-35043053D01*
X81386022Y-35098228D01*
X81276398Y-35136590D01*
X81155397Y-35158986D01*
X81023464Y-35166263D01*
X80891532Y-35158986D01*
X80770530Y-35136590D01*
X80660907Y-35098228D01*
X80563108Y-35043053D01*
X80477580Y-34970215D01*
X80404771Y-34878868D01*
X80345126Y-34768164D01*
X80299093Y-34637255D01*
X80276188Y-34538340D01*
X80259662Y-34429816D01*
X80249650Y-34311433D01*
X80246284Y-34182941D01*
X80453890Y-34182941D01*
X80456170Y-34292382D01*
X80462997Y-34392485D01*
X80481711Y-34525820D01*
X80510529Y-34639913D01*
X80549376Y-34735824D01*
X80616642Y-34837256D01*
X80701427Y-34910762D01*
X80803552Y-34958856D01*
X80922841Y-34984051D01*
X81023464Y-34989431D01*
X81124087Y-34984051D01*
X81243376Y-34958856D01*
X81345502Y-34910762D01*
X81430286Y-34837256D01*
X81497553Y-34735824D01*
X81536399Y-34639913D01*
X81565217Y-34525820D01*
X81583932Y-34392485D01*
X81590758Y-34292382D01*
X81593039Y-34182941D01*
X81590758Y-34073581D01*
X81583932Y-33973537D01*
X81565217Y-33840257D01*
X81536399Y-33726185D01*
X81497553Y-33630267D01*
X81430286Y-33528797D01*
X81345502Y-33455234D01*
X81243376Y-33407081D01*
X81124087Y-33381843D01*
X81023464Y-33376451D01*
X80922841Y-33381843D01*
X80803552Y-33407081D01*
X80701427Y-33455234D01*
X80616642Y-33528797D01*
X80549376Y-33630267D01*
X80510529Y-33726185D01*
X80481711Y-33840257D01*
X80462997Y-33973537D01*
X80456170Y-34073581D01*
X80453890Y-34182941D01*
X80246284Y-34182941D01*
X80249650Y-34053530D01*
X80259662Y-33934397D01*
X80276188Y-33825276D01*
X80299093Y-33725901D01*
X80345126Y-33594530D01*
X80404771Y-33483590D01*
X80477580Y-33392182D01*
X80563108Y-33319409D01*
X80660907Y-33264371D01*
X80770530Y-33226171D01*
X80891532Y-33203909D01*
X81023464Y-33196688D01*
X81155397Y-33203909D01*
G37*
G36*
X83029611Y-33200170D02*
G01*
X83155793Y-33217984D01*
X83264652Y-33250010D01*
X83357141Y-33295237D01*
X83456639Y-33374332D01*
X83530980Y-33472709D01*
X83582421Y-33587977D01*
X83607331Y-33684072D01*
X83621578Y-33787312D01*
X83626116Y-33896688D01*
X83626116Y-35135000D01*
X83426814Y-35135000D01*
X83426814Y-34384685D01*
X82444469Y-34384685D01*
X82444469Y-35135000D01*
X82245167Y-35135000D01*
X82245167Y-33899619D01*
X82444469Y-33899619D01*
X82444469Y-34205411D01*
X83426814Y-34205411D01*
X83426814Y-33899619D01*
X83425674Y-33844478D01*
X83415621Y-33740326D01*
X83385262Y-33623889D01*
X83330582Y-33525928D01*
X83246708Y-33449862D01*
X83155313Y-33407073D01*
X83039617Y-33382240D01*
X82935397Y-33376451D01*
X82898919Y-33377103D01*
X82770168Y-33392303D01*
X82666997Y-33426333D01*
X82570184Y-33492682D01*
X82504525Y-33582296D01*
X82465123Y-33691753D01*
X82449215Y-33791307D01*
X82444469Y-33899619D01*
X82245167Y-33899619D01*
X82245167Y-33896688D01*
X82247219Y-33823139D01*
X82258396Y-33717741D01*
X82280063Y-33619152D01*
X82326775Y-33500036D01*
X82395743Y-33397212D01*
X82489028Y-33313072D01*
X82576190Y-33263668D01*
X82679060Y-33227130D01*
X82798505Y-33204467D01*
X82935397Y-33196688D01*
X83029611Y-33200170D01*
G37*
G36*
X84910754Y-33231595D02*
G01*
X85019873Y-33243140D01*
X85148577Y-33272414D01*
X85257485Y-33319551D01*
X85345934Y-33386733D01*
X85413261Y-33476139D01*
X85458799Y-33589952D01*
X85478256Y-33692640D01*
X85484804Y-33811203D01*
X85480850Y-33896353D01*
X85463832Y-33997710D01*
X85425221Y-34105700D01*
X85369339Y-34194021D01*
X85298321Y-34263869D01*
X85214301Y-34316442D01*
X85119417Y-34352934D01*
X85174922Y-34394577D01*
X85241626Y-34477970D01*
X85290603Y-34567133D01*
X85334839Y-34663122D01*
X85531699Y-35135000D01*
X85318719Y-35135000D01*
X85143353Y-34711482D01*
X85108969Y-34636972D01*
X85051003Y-34543029D01*
X84976435Y-34468125D01*
X84879590Y-34419929D01*
X84774546Y-34405690D01*
X84717981Y-34404684D01*
X84612614Y-34398251D01*
X84505015Y-34386819D01*
X84397923Y-34371496D01*
X84397923Y-35135000D01*
X84198621Y-35135000D01*
X84198621Y-34194176D01*
X84397923Y-34194176D01*
X84459414Y-34204081D01*
X84568261Y-34217618D01*
X84674412Y-34225693D01*
X84777477Y-34228370D01*
X84876813Y-34224921D01*
X84989546Y-34209431D01*
X85100945Y-34172110D01*
X85182353Y-34114253D01*
X85244690Y-34016836D01*
X85270705Y-33911595D01*
X85276709Y-33811203D01*
X85275115Y-33754105D01*
X85256561Y-33633962D01*
X85204663Y-33528482D01*
X85117355Y-33459610D01*
X85015194Y-33425903D01*
X84912857Y-33411968D01*
X84791154Y-33407714D01*
X84397923Y-33407714D01*
X84397923Y-34194176D01*
X84198621Y-34194176D01*
X84198621Y-33227951D01*
X84791154Y-33227951D01*
X84910754Y-33231595D01*
G37*
G36*
X86689450Y-33231343D02*
G01*
X86823750Y-33249338D01*
X86945575Y-33283181D01*
X87054532Y-33333279D01*
X87150231Y-33400037D01*
X87232281Y-33483861D01*
X87300290Y-33585157D01*
X87353867Y-33704330D01*
X87392620Y-33841786D01*
X87410027Y-33943781D01*
X87420557Y-34054203D01*
X87424092Y-34173171D01*
X87420971Y-34292033D01*
X87411582Y-34403496D01*
X87395882Y-34507523D01*
X87360412Y-34649539D01*
X87310517Y-34774615D01*
X87246057Y-34882625D01*
X87166895Y-34973444D01*
X87072894Y-35046945D01*
X86963916Y-35103004D01*
X86839823Y-35141494D01*
X86700478Y-35162290D01*
X86599040Y-35166263D01*
X86563096Y-35165971D01*
X86454746Y-35161614D01*
X86345546Y-35152080D01*
X86235400Y-35137426D01*
X86124210Y-35117710D01*
X86011880Y-35092990D01*
X86011880Y-34950352D01*
X86211182Y-34950352D01*
X86284146Y-34961952D01*
X86389724Y-34973066D01*
X86491863Y-34979066D01*
X86599040Y-34981127D01*
X86706661Y-34975136D01*
X86835100Y-34947657D01*
X86945890Y-34896370D01*
X87038551Y-34819603D01*
X87112602Y-34715686D01*
X87155637Y-34618924D01*
X87187732Y-34505245D01*
X87208682Y-34373943D01*
X87216357Y-34276269D01*
X87218928Y-34170240D01*
X87216264Y-34071436D01*
X87202414Y-33937472D01*
X87177003Y-33820080D01*
X87140328Y-33718679D01*
X87092687Y-33632686D01*
X87012620Y-33540991D01*
X86914289Y-33474276D01*
X86798398Y-33431159D01*
X86700380Y-33413478D01*
X86593178Y-33407714D01*
X86211182Y-33407714D01*
X86211182Y-34950352D01*
X86011880Y-34950352D01*
X86011880Y-33227951D01*
X86593178Y-33227951D01*
X86689450Y-33231343D01*
G37*
G36*
X88700994Y-34914204D02*
G01*
X88608487Y-34947543D01*
X88570568Y-35038768D01*
X88608304Y-35131641D01*
X88700994Y-35166263D01*
X88794783Y-35131458D01*
X88831420Y-35038768D01*
X88794600Y-34947543D01*
X88700994Y-34914204D01*
G37*
G36*
X88703925Y-33728161D02*
G01*
X88611235Y-33761744D01*
X88573499Y-33853213D01*
X88611235Y-33945720D01*
X88703925Y-33980708D01*
X88797714Y-33945720D01*
X88834351Y-33853213D01*
X88797531Y-33761927D01*
X88703925Y-33728161D01*
G37*
G36*
X90193318Y-33358866D02*
G01*
X90193318Y-33546444D01*
X90624651Y-33427742D01*
X90624651Y-35135000D01*
X90826884Y-35135000D01*
X90826884Y-33227951D01*
X90672034Y-33227951D01*
X90193318Y-33358866D01*
G37*
G36*
X91632885Y-34966960D02*
G01*
X91632885Y-35135000D01*
X92369521Y-35135000D01*
X92369521Y-34979173D01*
X92255189Y-34938289D01*
X92156175Y-34884009D01*
X92072457Y-34814480D01*
X92004012Y-34727847D01*
X91950817Y-34622254D01*
X91912848Y-34495846D01*
X91894351Y-34386266D01*
X91884397Y-34263152D01*
X91882501Y-34173171D01*
X91884822Y-34064492D01*
X91891770Y-33964862D01*
X91910823Y-33831770D01*
X91940172Y-33717457D01*
X91979746Y-33620976D01*
X92048295Y-33518430D01*
X92134732Y-33443647D01*
X92238891Y-33394375D01*
X92360604Y-33368367D01*
X92463311Y-33362773D01*
X92566654Y-33368367D01*
X92689069Y-33394375D01*
X92793775Y-33443647D01*
X92880624Y-33518430D01*
X92949467Y-33620976D01*
X92989193Y-33717457D01*
X93018643Y-33831770D01*
X93037757Y-33964862D01*
X93044724Y-34064492D01*
X93047051Y-34173171D01*
X93042844Y-34305742D01*
X93030191Y-34424258D01*
X93009044Y-34529501D01*
X92967551Y-34650531D01*
X92910756Y-34751210D01*
X92838545Y-34833394D01*
X92750804Y-34898936D01*
X92647418Y-34949693D01*
X92559542Y-34979173D01*
X92559542Y-35135000D01*
X93296667Y-35135000D01*
X93296667Y-34966960D01*
X92940073Y-34966960D01*
X93022515Y-34902489D01*
X93092622Y-34815204D01*
X93139376Y-34729297D01*
X93177464Y-34629382D01*
X93206541Y-34515723D01*
X93226265Y-34388583D01*
X93234712Y-34284539D01*
X93237561Y-34173171D01*
X93234355Y-34049827D01*
X93224788Y-33935426D01*
X93208932Y-33829831D01*
X93186857Y-33732908D01*
X93142246Y-33603484D01*
X93084052Y-33492806D01*
X93012520Y-33400414D01*
X92927892Y-33325849D01*
X92830414Y-33268653D01*
X92720328Y-33228367D01*
X92597879Y-33204531D01*
X92463311Y-33196688D01*
X92328803Y-33204531D01*
X92206519Y-33228367D01*
X92096679Y-33268653D01*
X91999502Y-33325849D01*
X91915209Y-33400414D01*
X91844018Y-33492806D01*
X91786150Y-33603484D01*
X91741825Y-33732908D01*
X91719907Y-33829831D01*
X91704171Y-33935426D01*
X91694681Y-34049827D01*
X91691503Y-34173171D01*
X91694364Y-34284539D01*
X91702844Y-34388583D01*
X91722636Y-34515723D01*
X91751799Y-34629382D01*
X91789977Y-34729297D01*
X91836817Y-34815204D01*
X91907006Y-34902489D01*
X91989480Y-34966960D01*
X91632885Y-34966960D01*
G37*
G36*
X94317114Y-34265006D02*
G01*
X94317114Y-34447212D01*
X95056681Y-34447212D01*
X95056681Y-34265006D01*
X94317114Y-34265006D01*
G37*
G36*
X96330652Y-33358866D02*
G01*
X96330652Y-33546444D01*
X96761985Y-33427742D01*
X96761985Y-35135000D01*
X96964218Y-35135000D01*
X96964218Y-33227951D01*
X96809368Y-33227951D01*
X96330652Y-33358866D01*
G37*
G36*
X98989968Y-34528789D02*
G01*
X99660170Y-33510296D01*
X99660170Y-35135000D01*
X99854099Y-35135000D01*
X99854099Y-33227951D01*
X99614253Y-33227951D01*
X98897644Y-34315809D01*
X98180547Y-33227951D01*
X97940701Y-33227951D01*
X97940701Y-35135000D01*
X98134630Y-35135000D01*
X98134630Y-33510296D01*
X98805321Y-34528789D01*
X98989968Y-34528789D01*
G37*
G36*
X100454448Y-33227951D02*
G01*
X100454448Y-34737372D01*
X100466960Y-34847739D01*
X100503312Y-34941503D01*
X100575898Y-35030891D01*
X100658438Y-35085097D01*
X100759128Y-35119946D01*
X100876192Y-35134576D01*
X100901413Y-35135000D01*
X101575034Y-35135000D01*
X101575034Y-34955725D01*
X100901413Y-34955725D01*
X100795121Y-34943521D01*
X100702732Y-34890897D01*
X100657820Y-34791494D01*
X100653750Y-34737372D01*
X100653750Y-34251817D01*
X101429466Y-34251817D01*
X101429466Y-34072055D01*
X100653750Y-34072055D01*
X100653750Y-33407714D01*
X101533025Y-33407714D01*
X101533025Y-33227951D01*
X100454448Y-33227951D01*
G37*
G36*
X103318440Y-33250422D02*
G01*
X103215951Y-33233659D01*
X103114666Y-33220109D01*
X103000550Y-33208620D01*
X102895358Y-33201512D01*
X102780739Y-33197410D01*
X102707344Y-33196688D01*
X102608387Y-33200118D01*
X102471836Y-33218349D01*
X102349567Y-33252711D01*
X102241600Y-33303689D01*
X102147959Y-33371766D01*
X102068665Y-33457423D01*
X102003739Y-33561144D01*
X101953203Y-33683413D01*
X101917079Y-33824712D01*
X101901014Y-33929722D01*
X101891370Y-34043548D01*
X101888154Y-34166332D01*
X101891755Y-34301049D01*
X101902446Y-34424440D01*
X101920057Y-34536868D01*
X101944421Y-34638698D01*
X101993257Y-34772365D01*
X102056335Y-34884229D01*
X102133086Y-34975518D01*
X102222938Y-35047458D01*
X102325323Y-35101275D01*
X102439670Y-35138197D01*
X102565409Y-35159451D01*
X102701971Y-35166263D01*
X102803507Y-35164231D01*
X102909388Y-35158165D01*
X103017590Y-35148110D01*
X103126090Y-35134110D01*
X103232863Y-35116211D01*
X103335887Y-35094457D01*
X103375593Y-35084685D01*
X103375593Y-34072055D01*
X102708321Y-34072055D01*
X102708321Y-34251817D01*
X103173360Y-34251817D01*
X103173360Y-34946933D01*
X103072611Y-34963856D01*
X102969112Y-34975692D01*
X102871255Y-34983608D01*
X102771627Y-34988426D01*
X102707344Y-34989431D01*
X102598461Y-34984275D01*
X102500166Y-34967966D01*
X102385623Y-34926694D01*
X102290013Y-34860367D01*
X102213400Y-34765995D01*
X102168444Y-34675015D01*
X102134236Y-34565318D01*
X102110802Y-34435645D01*
X102101178Y-34337475D01*
X102096362Y-34229493D01*
X102095760Y-34171706D01*
X102098030Y-34067382D01*
X102110028Y-33926357D01*
X102132496Y-33803242D01*
X102165609Y-33697316D01*
X102209543Y-33607856D01*
X102285260Y-33512942D01*
X102380947Y-33444307D01*
X102497022Y-33400237D01*
X102597709Y-33382277D01*
X102710275Y-33376451D01*
X102821343Y-33378418D01*
X102924734Y-33383887D01*
X103038843Y-33394159D01*
X103142287Y-33407419D01*
X103249777Y-33425170D01*
X103291573Y-33433115D01*
X103318440Y-33250422D01*
G37*
G36*
X104646080Y-33200170D02*
G01*
X104772262Y-33217984D01*
X104881121Y-33250010D01*
X104973610Y-33295237D01*
X105073107Y-33374332D01*
X105147449Y-33472709D01*
X105198890Y-33587977D01*
X105223800Y-33684072D01*
X105238047Y-33787312D01*
X105242585Y-33896688D01*
X105242585Y-35135000D01*
X105043283Y-35135000D01*
X105043283Y-34384685D01*
X104060938Y-34384685D01*
X104060938Y-35135000D01*
X103861636Y-35135000D01*
X103861636Y-33899619D01*
X104060938Y-33899619D01*
X104060938Y-34205411D01*
X105043283Y-34205411D01*
X105043283Y-33899619D01*
X105042143Y-33844478D01*
X105032090Y-33740326D01*
X105001731Y-33623889D01*
X104947051Y-33525928D01*
X104863177Y-33449862D01*
X104771782Y-33407073D01*
X104656086Y-33382240D01*
X104551866Y-33376451D01*
X104515388Y-33377103D01*
X104386637Y-33392303D01*
X104283466Y-33426333D01*
X104186653Y-33492682D01*
X104120994Y-33582296D01*
X104081592Y-33691753D01*
X104065684Y-33791307D01*
X104060938Y-33899619D01*
X103861636Y-33899619D01*
X103861636Y-33896688D01*
X103863688Y-33823139D01*
X103874865Y-33717741D01*
X103896532Y-33619152D01*
X103943244Y-33500036D01*
X104012212Y-33397212D01*
X104105497Y-33313072D01*
X104192659Y-33263668D01*
X104295529Y-33227130D01*
X104414974Y-33204467D01*
X104551866Y-33196688D01*
X104646080Y-33200170D01*
G37*
G36*
X105644609Y-34966960D02*
G01*
X105644609Y-35135000D01*
X106381245Y-35135000D01*
X106381245Y-34979173D01*
X106266913Y-34938289D01*
X106167899Y-34884009D01*
X106084181Y-34814480D01*
X106015736Y-34727847D01*
X105962540Y-34622254D01*
X105924572Y-34495846D01*
X105906075Y-34386266D01*
X105896120Y-34263152D01*
X105894225Y-34173171D01*
X105896546Y-34064492D01*
X105903494Y-33964862D01*
X105922547Y-33831770D01*
X105951896Y-33717457D01*
X105991469Y-33620976D01*
X106060019Y-33518430D01*
X106146456Y-33443647D01*
X106250614Y-33394375D01*
X106372328Y-33368367D01*
X106475034Y-33362773D01*
X106578377Y-33368367D01*
X106700792Y-33394375D01*
X106805499Y-33443647D01*
X106892348Y-33518430D01*
X106961190Y-33620976D01*
X107000916Y-33717457D01*
X107030367Y-33831770D01*
X107049480Y-33964862D01*
X107056448Y-34064492D01*
X107058775Y-34173171D01*
X107054568Y-34305742D01*
X107041915Y-34424258D01*
X107020768Y-34529501D01*
X106979274Y-34650531D01*
X106922479Y-34751210D01*
X106850269Y-34833394D01*
X106762527Y-34898936D01*
X106659141Y-34949693D01*
X106571266Y-34979173D01*
X106571266Y-35135000D01*
X107308391Y-35135000D01*
X107308391Y-34966960D01*
X106951796Y-34966960D01*
X107034238Y-34902489D01*
X107104346Y-34815204D01*
X107151100Y-34729297D01*
X107189188Y-34629382D01*
X107218265Y-34515723D01*
X107237988Y-34388583D01*
X107246436Y-34284539D01*
X107249284Y-34173171D01*
X107246079Y-34049827D01*
X107236512Y-33935426D01*
X107220655Y-33829831D01*
X107198581Y-33732908D01*
X107153970Y-33603484D01*
X107095776Y-33492806D01*
X107024243Y-33400414D01*
X106939616Y-33325849D01*
X106842137Y-33268653D01*
X106732051Y-33228367D01*
X106609603Y-33204531D01*
X106475034Y-33196688D01*
X106340527Y-33204531D01*
X106218243Y-33228367D01*
X106108403Y-33268653D01*
X106011226Y-33325849D01*
X105926932Y-33400414D01*
X105855742Y-33492806D01*
X105797874Y-33603484D01*
X105753549Y-33732908D01*
X105731631Y-33829831D01*
X105715894Y-33935426D01*
X105706405Y-34049827D01*
X105703227Y-34173171D01*
X105706087Y-34284539D01*
X105714568Y-34388583D01*
X105734360Y-34515723D01*
X105763522Y-34629382D01*
X105801701Y-34729297D01*
X105848541Y-34815204D01*
X105918729Y-34902489D01*
X106001203Y-34966960D01*
X105644609Y-34966960D01*
G37*
D13*
X88667292Y-54948885D02*
X88738720Y-54877457D01*
X88738720Y-54877457D02*
X88881578Y-54806028D01*
X88881578Y-54806028D02*
X89238720Y-54806028D01*
X89238720Y-54806028D02*
X89381578Y-54877457D01*
X89381578Y-54877457D02*
X89453006Y-54948885D01*
X89453006Y-54948885D02*
X89524435Y-55091742D01*
X89524435Y-55091742D02*
X89524435Y-55234600D01*
X89524435Y-55234600D02*
X89453006Y-55448885D01*
X89453006Y-55448885D02*
X88595863Y-56306028D01*
X88595863Y-56306028D02*
X89524435Y-56306028D01*
X90095863Y-56306028D02*
X90453006Y-56306028D01*
X90453006Y-56306028D02*
X90453006Y-56020314D01*
X90453006Y-56020314D02*
X90310149Y-55948885D01*
X90310149Y-55948885D02*
X90167291Y-55806028D01*
X90167291Y-55806028D02*
X90095863Y-55591742D01*
X90095863Y-55591742D02*
X90095863Y-55234600D01*
X90095863Y-55234600D02*
X90167291Y-55020314D01*
X90167291Y-55020314D02*
X90310149Y-54877457D01*
X90310149Y-54877457D02*
X90524434Y-54806028D01*
X90524434Y-54806028D02*
X90810149Y-54806028D01*
X90810149Y-54806028D02*
X91024434Y-54877457D01*
X91024434Y-54877457D02*
X91167291Y-55020314D01*
X91167291Y-55020314D02*
X91238720Y-55234600D01*
X91238720Y-55234600D02*
X91238720Y-55591742D01*
X91238720Y-55591742D02*
X91167291Y-55806028D01*
X91167291Y-55806028D02*
X91024434Y-55948885D01*
X91024434Y-55948885D02*
X90881577Y-56020314D01*
X90881577Y-56020314D02*
X90881577Y-56306028D01*
X90881577Y-56306028D02*
X91238720Y-56306028D01*
D14*
%TO.C,R34*%
X84172936Y-115048400D02*
X85627064Y-115048400D01*
X84172936Y-116868400D02*
X85627064Y-116868400D01*
D15*
%TO.C,SW5*%
X106100000Y-77376800D02*
X106100000Y-87276800D01*
X108100000Y-75476800D02*
X114800000Y-75476800D01*
X114800000Y-75476800D02*
X114800000Y-87276800D01*
X114800000Y-87276800D02*
X106100000Y-87276800D01*
D14*
%TO.C,R30*%
X48772936Y-102457600D02*
X50227064Y-102457600D01*
X48772936Y-104277600D02*
X50227064Y-104277600D01*
D15*
%TO.C,SW12*%
X53500000Y-95317600D02*
X53500000Y-105217600D01*
X55500000Y-93417600D02*
X62200000Y-93417600D01*
X62200000Y-93417600D02*
X62200000Y-105217600D01*
X62200000Y-105217600D02*
X53500000Y-105217600D01*
D14*
%TO.C,R56*%
X48772936Y-153580000D02*
X50227064Y-153580000D01*
X48772936Y-155400000D02*
X50227064Y-155400000D01*
%TO.C,R5*%
X66272936Y-65276000D02*
X67727064Y-65276000D01*
X66272936Y-67096000D02*
X67727064Y-67096000D01*
%TO.C,R4*%
X66272936Y-62526000D02*
X67727064Y-62526000D01*
X66272936Y-64346000D02*
X67727064Y-64346000D01*
D15*
%TO.C,SW6*%
X88566666Y-77376800D02*
X88566666Y-87276800D01*
X90566666Y-75476800D02*
X97266666Y-75476800D01*
X97266666Y-75476800D02*
X97266666Y-87276800D01*
X97266666Y-87276800D02*
X88566666Y-87276800D01*
D14*
%TO.C,R3*%
X84172936Y-63046000D02*
X85627064Y-63046000D01*
X84172936Y-61226000D02*
X85627064Y-61226000D01*
%TO.C,R17*%
X102890000Y-82103864D02*
X102890000Y-80649736D01*
X104710000Y-82103864D02*
X104710000Y-80649736D01*
%TO.C,R18*%
X84172936Y-81766800D02*
X85627064Y-81766800D01*
X84172936Y-83586800D02*
X85627064Y-83586800D01*
%TO.C,R36*%
X48772936Y-117698400D02*
X50227064Y-117698400D01*
X48772936Y-119518400D02*
X50227064Y-119518400D01*
%TO.C,R41*%
X48772936Y-130239200D02*
X50227064Y-130239200D01*
X48772936Y-132059200D02*
X50227064Y-132059200D01*
%TO.C,R28*%
X84172936Y-99707600D02*
X85627064Y-99707600D01*
X84172936Y-101527600D02*
X85627064Y-101527600D01*
%TO.C,R32*%
X66272936Y-113598400D02*
X67727064Y-113598400D01*
X66272936Y-115418400D02*
X67727064Y-115418400D01*
%TO.C,R21*%
X48772936Y-94357600D02*
X50227064Y-94357600D01*
X48772936Y-96177600D02*
X50227064Y-96177600D01*
%TO.C,R51*%
X48772936Y-148180000D02*
X50227064Y-148180000D01*
X48772936Y-150000000D02*
X50227064Y-150000000D01*
%TO.C,R29*%
X66272936Y-101157600D02*
X67727064Y-101157600D01*
X66272936Y-102977600D02*
X67727064Y-102977600D01*
%TO.C,R47*%
X102890000Y-135926264D02*
X102890000Y-134472136D01*
X104710000Y-135926264D02*
X104710000Y-134472136D01*
%TO.C,R60*%
X48772936Y-156280000D02*
X50227064Y-156280000D01*
X48772936Y-158100000D02*
X50227064Y-158100000D01*
%TO.C,R38*%
X84172936Y-117648400D02*
X85627064Y-117648400D01*
X84172936Y-119468400D02*
X85627064Y-119468400D01*
%TO.C,R25*%
X66272936Y-98407600D02*
X67727064Y-98407600D01*
X66272936Y-100227600D02*
X67727064Y-100227600D01*
D15*
%TO.C,SW2*%
X88566666Y-59436000D02*
X88566666Y-69336000D01*
X90566666Y-57536000D02*
X97266666Y-57536000D01*
X97266666Y-57536000D02*
X97266666Y-69336000D01*
X97266666Y-69336000D02*
X88566666Y-69336000D01*
D14*
%TO.C,R40*%
X48772936Y-120398400D02*
X50227064Y-120398400D01*
X48772936Y-122218400D02*
X50227064Y-122218400D01*
%TO.C,R12*%
X66272936Y-77716800D02*
X67727064Y-77716800D01*
X66272936Y-79536800D02*
X67727064Y-79536800D01*
%TO.C,R37*%
X102890000Y-117985464D02*
X102890000Y-116531336D01*
X104710000Y-117985464D02*
X104710000Y-116531336D01*
%TO.C,R10*%
X48772936Y-58476000D02*
X50227064Y-58476000D01*
X48772936Y-60296000D02*
X50227064Y-60296000D01*
%TO.C,R2*%
X84172936Y-65646000D02*
X85627064Y-65646000D01*
X84172936Y-63826000D02*
X85627064Y-63826000D01*
%TO.C,R11*%
X48772936Y-76416800D02*
X50227064Y-76416800D01*
X48772936Y-78236800D02*
X50227064Y-78236800D01*
D15*
%TO.C,SW21*%
X106100000Y-149140000D02*
X106100000Y-159040000D01*
X108100000Y-147240000D02*
X114800000Y-147240000D01*
X114800000Y-147240000D02*
X114800000Y-159040000D01*
X114800000Y-159040000D02*
X106100000Y-159040000D01*
%TO.C,SW8*%
X53500000Y-77376800D02*
X53500000Y-87276800D01*
X55500000Y-75476800D02*
X62200000Y-75476800D01*
X62200000Y-75476800D02*
X62200000Y-87276800D01*
X62200000Y-87276800D02*
X53500000Y-87276800D01*
%TO.C,SW22*%
X88566666Y-149140000D02*
X88566666Y-159040000D01*
X90566666Y-147240000D02*
X97266666Y-147240000D01*
X97266666Y-147240000D02*
X97266666Y-159040000D01*
X97266666Y-159040000D02*
X88566666Y-159040000D01*
D14*
%TO.C,R35*%
X66272936Y-116348400D02*
X67727064Y-116348400D01*
X66272936Y-118168400D02*
X67727064Y-118168400D01*
D15*
%TO.C,SW11*%
X71033333Y-95317600D02*
X71033333Y-105217600D01*
X73033333Y-93417600D02*
X79733333Y-93417600D01*
X79733333Y-93417600D02*
X79733333Y-105217600D01*
X79733333Y-105217600D02*
X71033333Y-105217600D01*
D14*
%TO.C,R48*%
X84172936Y-135589200D02*
X85627064Y-135589200D01*
X84172936Y-137409200D02*
X85627064Y-137409200D01*
D15*
%TO.C,SW7*%
X71033333Y-77376800D02*
X71033333Y-87276800D01*
X73033333Y-75476800D02*
X79733333Y-75476800D01*
X79733333Y-75476800D02*
X79733333Y-87276800D01*
X79733333Y-87276800D02*
X71033333Y-87276800D01*
%TO.C,SW13*%
X106100000Y-113258400D02*
X106100000Y-123158400D01*
X108100000Y-111358400D02*
X114800000Y-111358400D01*
X114800000Y-111358400D02*
X114800000Y-123158400D01*
X114800000Y-123158400D02*
X106100000Y-123158400D01*
D14*
%TO.C,R7*%
X48772936Y-61176000D02*
X50227064Y-61176000D01*
X48772936Y-62996000D02*
X50227064Y-62996000D01*
D15*
%TO.C,SW10*%
X88566666Y-95317600D02*
X88566666Y-105217600D01*
X90566666Y-93417600D02*
X97266666Y-93417600D01*
X97266666Y-93417600D02*
X97266666Y-105217600D01*
X97266666Y-105217600D02*
X88566666Y-105217600D01*
D14*
%TO.C,R58*%
X84172936Y-153530000D02*
X85627064Y-153530000D01*
X84172936Y-155350000D02*
X85627064Y-155350000D01*
D15*
%TO.C,SW14*%
X88566666Y-113258400D02*
X88566666Y-123158400D01*
X90566666Y-111358400D02*
X97266666Y-111358400D01*
X97266666Y-111358400D02*
X97266666Y-123158400D01*
X97266666Y-123158400D02*
X88566666Y-123158400D01*
%TO.C,SW15*%
X71033333Y-113258400D02*
X71033333Y-123158400D01*
X73033333Y-111358400D02*
X79733333Y-111358400D01*
X79733333Y-111358400D02*
X79733333Y-123158400D01*
X79733333Y-123158400D02*
X71033333Y-123158400D01*
D14*
%TO.C,R53*%
X48772936Y-150880000D02*
X50227064Y-150880000D01*
X48772936Y-152700000D02*
X50227064Y-152700000D01*
%TO.C,R24*%
X84172936Y-97107600D02*
X85627064Y-97107600D01*
X84172936Y-98927600D02*
X85627064Y-98927600D01*
%TO.C,R49*%
X66272936Y-137039200D02*
X67727064Y-137039200D01*
X66272936Y-138859200D02*
X67727064Y-138859200D01*
D15*
%TO.C,SW4*%
X53500000Y-59436000D02*
X53500000Y-69336000D01*
X55500000Y-57536000D02*
X62200000Y-57536000D01*
X62200000Y-57536000D02*
X62200000Y-69336000D01*
X62200000Y-69336000D02*
X53500000Y-69336000D01*
%TO.C,SW20*%
X53500000Y-131199200D02*
X53500000Y-141099200D01*
X55500000Y-129299200D02*
X62200000Y-129299200D01*
X62200000Y-129299200D02*
X62200000Y-141099200D01*
X62200000Y-141099200D02*
X53500000Y-141099200D01*
D14*
%TO.C,R13*%
X48772936Y-79116800D02*
X50227064Y-79116800D01*
X48772936Y-80936800D02*
X50227064Y-80936800D01*
D15*
%TO.C,SW23*%
X71033333Y-149140000D02*
X71033333Y-159040000D01*
X73033333Y-147240000D02*
X79733333Y-147240000D01*
X79733333Y-147240000D02*
X79733333Y-159040000D01*
X79733333Y-159040000D02*
X71033333Y-159040000D01*
D14*
%TO.C,R45*%
X66272936Y-134289200D02*
X67727064Y-134289200D01*
X66272936Y-136109200D02*
X67727064Y-136109200D01*
%TO.C,R27*%
X102890000Y-100044664D02*
X102890000Y-98590536D01*
X104710000Y-100044664D02*
X104710000Y-98590536D01*
%TO.C,R54*%
X84172936Y-150930000D02*
X85627064Y-150930000D01*
X84172936Y-152750000D02*
X85627064Y-152750000D01*
%TO.C,R19*%
X66272936Y-83216800D02*
X67727064Y-83216800D01*
X66272936Y-85036800D02*
X67727064Y-85036800D01*
%TO.C,R46*%
X48772936Y-135639200D02*
X50227064Y-135639200D01*
X48772936Y-137459200D02*
X50227064Y-137459200D01*
%TO.C,R55*%
X66272936Y-152230000D02*
X67727064Y-152230000D01*
X66272936Y-154050000D02*
X67727064Y-154050000D01*
%TO.C,R31*%
X48772936Y-112298400D02*
X50227064Y-112298400D01*
X48772936Y-114118400D02*
X50227064Y-114118400D01*
%TO.C,R6*%
X66272936Y-59776000D02*
X67727064Y-59776000D01*
X66272936Y-61596000D02*
X67727064Y-61596000D01*
D15*
%TO.C,SW16*%
X53500000Y-113258400D02*
X53500000Y-123158400D01*
X55500000Y-111358400D02*
X62200000Y-111358400D01*
X62200000Y-111358400D02*
X62200000Y-123158400D01*
X62200000Y-123158400D02*
X53500000Y-123158400D01*
%TO.C,SW3*%
X79733333Y-69336000D02*
X71033333Y-69336000D01*
X79733333Y-57536000D02*
X79733333Y-69336000D01*
X73033333Y-57536000D02*
X79733333Y-57536000D01*
X71033333Y-59436000D02*
X71033333Y-69336000D01*
D14*
%TO.C,R8*%
X48772936Y-63876000D02*
X50227064Y-63876000D01*
X48772936Y-65696000D02*
X50227064Y-65696000D01*
%TO.C,R57*%
X102890000Y-153867064D02*
X102890000Y-152412936D01*
X104710000Y-153867064D02*
X104710000Y-152412936D01*
%TO.C,R44*%
X84172936Y-132989200D02*
X85627064Y-132989200D01*
X84172936Y-134809200D02*
X85627064Y-134809200D01*
D15*
%TO.C,SW24*%
X53500000Y-149140000D02*
X53500000Y-159040000D01*
X55500000Y-147240000D02*
X62200000Y-147240000D01*
X62200000Y-147240000D02*
X62200000Y-159040000D01*
X62200000Y-159040000D02*
X53500000Y-159040000D01*
D14*
%TO.C,R43*%
X48772936Y-132939200D02*
X50227064Y-132939200D01*
X48772936Y-134759200D02*
X50227064Y-134759200D01*
D15*
%TO.C,SW19*%
X71033333Y-131199200D02*
X71033333Y-141099200D01*
X73033333Y-129299200D02*
X79733333Y-129299200D01*
X79733333Y-129299200D02*
X79733333Y-141099200D01*
X79733333Y-141099200D02*
X71033333Y-141099200D01*
D14*
%TO.C,R14*%
X84172936Y-79166800D02*
X85627064Y-79166800D01*
X84172936Y-80986800D02*
X85627064Y-80986800D01*
D15*
%TO.C,SW1*%
X106100000Y-59436000D02*
X106100000Y-69336000D01*
X108100000Y-57536000D02*
X114800000Y-57536000D01*
X114800000Y-57536000D02*
X114800000Y-69336000D01*
X114800000Y-69336000D02*
X106100000Y-69336000D01*
D14*
%TO.C,R26*%
X48772936Y-99757600D02*
X50227064Y-99757600D01*
X48772936Y-101577600D02*
X50227064Y-101577600D01*
D15*
%TO.C,SW18*%
X88566666Y-131199200D02*
X88566666Y-141099200D01*
X90566666Y-129299200D02*
X97266666Y-129299200D01*
X97266666Y-129299200D02*
X97266666Y-141099200D01*
X97266666Y-141099200D02*
X88566666Y-141099200D01*
D14*
%TO.C,R59*%
X66272936Y-154980000D02*
X67727064Y-154980000D01*
X66272936Y-156800000D02*
X67727064Y-156800000D01*
D15*
%TO.C,SW17*%
X106100000Y-131199200D02*
X106100000Y-141099200D01*
X108100000Y-129299200D02*
X114800000Y-129299200D01*
X114800000Y-129299200D02*
X114800000Y-141099200D01*
X114800000Y-141099200D02*
X106100000Y-141099200D01*
D14*
%TO.C,R9*%
X48772936Y-66576000D02*
X50227064Y-66576000D01*
X48772936Y-68396000D02*
X50227064Y-68396000D01*
%TO.C,R1*%
X102890000Y-64163064D02*
X102890000Y-62708936D01*
X104710000Y-64163064D02*
X104710000Y-62708936D01*
D15*
%TO.C,SW9*%
X106100000Y-95317600D02*
X106100000Y-105217600D01*
X108100000Y-93417600D02*
X114800000Y-93417600D01*
X114800000Y-93417600D02*
X114800000Y-105217600D01*
X114800000Y-105217600D02*
X106100000Y-105217600D01*
D14*
%TO.C,R16*%
X48772936Y-81816800D02*
X50227064Y-81816800D01*
X48772936Y-83636800D02*
X50227064Y-83636800D01*
%TO.C,R22*%
X66272936Y-95657600D02*
X67727064Y-95657600D01*
X66272936Y-97477600D02*
X67727064Y-97477600D01*
%TO.C,R50*%
X48772936Y-138339200D02*
X50227064Y-138339200D01*
X48772936Y-140159200D02*
X50227064Y-140159200D01*
%TO.C,R20*%
X48772936Y-84516800D02*
X50227064Y-84516800D01*
X48772936Y-86336800D02*
X50227064Y-86336800D01*
%TO.C,R42*%
X66272936Y-131539200D02*
X67727064Y-131539200D01*
X66272936Y-133359200D02*
X67727064Y-133359200D01*
%TO.C,R33*%
X48772936Y-114998400D02*
X50227064Y-114998400D01*
X48772936Y-116818400D02*
X50227064Y-116818400D01*
%TO.C,R15*%
X66272936Y-80466800D02*
X67727064Y-80466800D01*
X66272936Y-82286800D02*
X67727064Y-82286800D01*
%TO.C,R52*%
X66272936Y-149480000D02*
X67727064Y-149480000D01*
X66272936Y-151300000D02*
X67727064Y-151300000D01*
%TO.C,R39*%
X66272936Y-119098400D02*
X67727064Y-119098400D01*
X66272936Y-120918400D02*
X67727064Y-120918400D01*
%TO.C,R23*%
X48772936Y-97057600D02*
X50227064Y-97057600D01*
X48772936Y-98877600D02*
X50227064Y-98877600D01*
%TD*%
D16*
X41450000Y-30000000D02*
X116475000Y-30000000D01*
X116475000Y-161550000D01*
X41450000Y-161550000D01*
X41450000Y-30000000D01*
M02*
