M48
; DRILL file {KiCad 8.0.2} date 2024-08-18T00:41:22+0530
; FORMAT={-:-/ absolute / inch / decimal}
; #@! TF.CreationDate,2024-08-18T00:41:22+05:30
; #@! TF.GenerationSoftware,Kicad,Pcbnew,8.0.2
; #@! TF.FileFunction,Plated,1,2,PTH
FMAT,2
INCH
; #@! TA.AperFunction,Plated,PTH,ComponentDrill
T1C0.0276
; #@! TA.AperFunction,Plated,PTH,ComponentDrill
T2C0.1260
%
G90
G05
T1
X2.189Y-2.3975
X2.189Y-2.4975
X2.189Y-2.5975
X2.189Y-3.1038
X2.189Y-3.2038
X2.189Y-3.3038
X2.189Y-3.8101
X2.189Y-3.9101
X2.189Y-4.0101
X2.189Y-4.5165
X2.189Y-4.6165
X2.189Y-4.7165
X2.189Y-5.2228
X2.189Y-5.3228
X2.189Y-5.4228
X2.189Y-5.9291
X2.189Y-6.0291
X2.189Y-6.1291
X2.8793Y-2.3975
X2.8793Y-2.4975
X2.8793Y-2.5975
X2.8793Y-3.1038
X2.8793Y-3.2038
X2.8793Y-3.3038
X2.8793Y-3.8101
X2.8793Y-3.9101
X2.8793Y-4.0101
X2.8793Y-4.5165
X2.8793Y-4.6165
X2.8793Y-4.7165
X2.8793Y-5.2228
X2.8793Y-5.3228
X2.8793Y-5.4228
X2.8793Y-5.9291
X2.8793Y-6.0291
X2.8793Y-6.1291
X3.5696Y-2.3975
X3.5696Y-2.4975
X3.5696Y-2.5975
X3.5696Y-3.1038
X3.5696Y-3.2038
X3.5696Y-3.3038
X3.5696Y-3.8101
X3.5696Y-3.9101
X3.5696Y-4.0101
X3.5696Y-4.5165
X3.5696Y-4.6165
X3.5696Y-4.7165
X3.5696Y-5.2228
X3.5696Y-5.3228
X3.5696Y-5.4228
X3.5696Y-5.9291
X3.5696Y-6.0291
X3.5696Y-6.1291
X4.2598Y-2.3975
X4.2598Y-2.4975
X4.2598Y-2.5975
X4.2598Y-3.1038
X4.2598Y-3.2038
X4.2598Y-3.3038
X4.2598Y-3.8101
X4.2598Y-3.9101
X4.2598Y-4.0101
X4.2598Y-4.5165
X4.2598Y-4.6165
X4.2598Y-4.7165
X4.2598Y-5.2228
X4.2598Y-5.3228
X4.2598Y-5.4228
X4.2598Y-5.9291
X4.2598Y-6.0291
X4.2598Y-6.1291
T2
X2.9296Y-1.753
X3.4449Y-1.752
M30
